%TF.GenerationSoftware,KiCad,Pcbnew,(7.0.0)*%
%TF.CreationDate,2023-08-09T19:52:53-07:00*%
%TF.ProjectId,8-pots-1-mux,382d706f-7473-42d3-912d-6d75782e6b69,rev?*%
%TF.SameCoordinates,Original*%
%TF.FileFunction,Copper,L1,Top*%
%TF.FilePolarity,Positive*%
%FSLAX46Y46*%
G04 Gerber Fmt 4.6, Leading zero omitted, Abs format (unit mm)*
G04 Created by KiCad (PCBNEW (7.0.0)) date 2023-08-09 19:52:53*
%MOMM*%
%LPD*%
G01*
G04 APERTURE LIST*
G04 Aperture macros list*
%AMRoundRect*
0 Rectangle with rounded corners*
0 $1 Rounding radius*
0 $2 $3 $4 $5 $6 $7 $8 $9 X,Y pos of 4 corners*
0 Add a 4 corners polygon primitive as box body*
4,1,4,$2,$3,$4,$5,$6,$7,$8,$9,$2,$3,0*
0 Add four circle primitives for the rounded corners*
1,1,$1+$1,$2,$3*
1,1,$1+$1,$4,$5*
1,1,$1+$1,$6,$7*
1,1,$1+$1,$8,$9*
0 Add four rect primitives between the rounded corners*
20,1,$1+$1,$2,$3,$4,$5,0*
20,1,$1+$1,$4,$5,$6,$7,0*
20,1,$1+$1,$6,$7,$8,$9,0*
20,1,$1+$1,$8,$9,$2,$3,0*%
G04 Aperture macros list end*
%TA.AperFunction,SMDPad,CuDef*%
%ADD10RoundRect,0.250000X-0.250000X-0.475000X0.250000X-0.475000X0.250000X0.475000X-0.250000X0.475000X0*%
%TD*%
%TA.AperFunction,ComponentPad*%
%ADD11O,2.720000X3.240000*%
%TD*%
%TA.AperFunction,ComponentPad*%
%ADD12R,1.800000X1.800000*%
%TD*%
%TA.AperFunction,ComponentPad*%
%ADD13C,1.800000*%
%TD*%
%TA.AperFunction,SMDPad,CuDef*%
%ADD14RoundRect,0.150000X-0.825000X-0.150000X0.825000X-0.150000X0.825000X0.150000X-0.825000X0.150000X0*%
%TD*%
%TA.AperFunction,ComponentPad*%
%ADD15R,1.700000X1.700000*%
%TD*%
%TA.AperFunction,ComponentPad*%
%ADD16O,1.700000X1.700000*%
%TD*%
%TA.AperFunction,ViaPad*%
%ADD17C,0.800000*%
%TD*%
%TA.AperFunction,Conductor*%
%ADD18C,0.250000*%
%TD*%
G04 APERTURE END LIST*
D10*
%TO.P,C1,1*%
%TO.N,+3V3*%
X202180000Y-26780000D03*
%TO.P,C1,2*%
%TO.N,GND*%
X204080000Y-26780000D03*
%TD*%
D11*
%TO.P,RV5,*%
%TO.N,*%
X143989999Y-31479999D03*
X153589999Y-31479999D03*
D12*
%TO.P,RV5,1,1*%
%TO.N,+3V3*%
X146289999Y-38979999D03*
D13*
%TO.P,RV5,2,2*%
%TO.N,MUX_IN_5*%
X148790000Y-38980000D03*
%TO.P,RV5,3,3*%
%TO.N,GND*%
X151290000Y-38980000D03*
%TD*%
D11*
%TO.P,RV6,*%
%TO.N,*%
X156879999Y-31479999D03*
X166479999Y-31479999D03*
D12*
%TO.P,RV6,1,1*%
%TO.N,+3V3*%
X159179999Y-38979999D03*
D13*
%TO.P,RV6,2,2*%
%TO.N,MUX_IN_6*%
X161680000Y-38980000D03*
%TO.P,RV6,3,3*%
%TO.N,GND*%
X164180000Y-38980000D03*
%TD*%
D11*
%TO.P,RV1,*%
%TO.N,*%
X92339999Y-31479999D03*
X101939999Y-31479999D03*
D12*
%TO.P,RV1,1,1*%
%TO.N,+3V3*%
X94639999Y-38979999D03*
D13*
%TO.P,RV1,2,2*%
%TO.N,MUX_IN_1*%
X97140000Y-38980000D03*
%TO.P,RV1,3,3*%
%TO.N,GND*%
X99640000Y-38980000D03*
%TD*%
D11*
%TO.P,RV7,*%
%TO.N,*%
X169779999Y-31479999D03*
X179379999Y-31479999D03*
D12*
%TO.P,RV7,1,1*%
%TO.N,+3V3*%
X172079999Y-38979999D03*
D13*
%TO.P,RV7,2,2*%
%TO.N,MUX_IN_7*%
X174580000Y-38980000D03*
%TO.P,RV7,3,3*%
%TO.N,GND*%
X177080000Y-38980000D03*
%TD*%
D11*
%TO.P,RV3,*%
%TO.N,*%
X118149999Y-31479999D03*
X127749999Y-31479999D03*
D12*
%TO.P,RV3,1,1*%
%TO.N,+3V3*%
X120449999Y-38979999D03*
D13*
%TO.P,RV3,2,2*%
%TO.N,MUX_IN_3*%
X122950000Y-38980000D03*
%TO.P,RV3,3,3*%
%TO.N,GND*%
X125450000Y-38980000D03*
%TD*%
D14*
%TO.P,U1,1,X4*%
%TO.N,MUX_IN_5*%
X197245000Y-28605000D03*
%TO.P,U1,2,X6*%
%TO.N,MUX_IN_7*%
X197245000Y-29875000D03*
%TO.P,U1,3,X*%
%TO.N,MUX_OUT*%
X197245000Y-31145000D03*
%TO.P,U1,4,X7*%
%TO.N,MUX_IN_8*%
X197245000Y-32415000D03*
%TO.P,U1,5,X5*%
%TO.N,MUX_IN_6*%
X197245000Y-33685000D03*
%TO.P,U1,6,Inh*%
%TO.N,GND*%
X197245000Y-34955000D03*
%TO.P,U1,7,VEE*%
X197245000Y-36225000D03*
%TO.P,U1,8,VSS*%
X197245000Y-37495000D03*
%TO.P,U1,9,C*%
%TO.N,CHANNEL_SELECT_C*%
X202195000Y-37495000D03*
%TO.P,U1,10,B*%
%TO.N,CHANNEL_SELECT_B*%
X202195000Y-36225000D03*
%TO.P,U1,11,A*%
%TO.N,CHANNEL_SELECT_A*%
X202195000Y-34955000D03*
%TO.P,U1,12,X3*%
%TO.N,MUX_IN_4*%
X202195000Y-33685000D03*
%TO.P,U1,13,X0*%
%TO.N,MUX_IN_1*%
X202195000Y-32415000D03*
%TO.P,U1,14,X1*%
%TO.N,MUX_IN_2*%
X202195000Y-31145000D03*
%TO.P,U1,15,X2*%
%TO.N,MUX_IN_3*%
X202195000Y-29875000D03*
%TO.P,U1,16,VDD*%
%TO.N,+3V3*%
X202195000Y-28605000D03*
%TD*%
D11*
%TO.P,RV8,*%
%TO.N,*%
X182699999Y-31479999D03*
X192299999Y-31479999D03*
D12*
%TO.P,RV8,1,1*%
%TO.N,+3V3*%
X184999999Y-38979999D03*
D13*
%TO.P,RV8,2,2*%
%TO.N,MUX_IN_8*%
X187500000Y-38980000D03*
%TO.P,RV8,3,3*%
%TO.N,GND*%
X190000000Y-38980000D03*
%TD*%
D11*
%TO.P,RV4,*%
%TO.N,*%
X131059999Y-31479999D03*
X140659999Y-31479999D03*
D12*
%TO.P,RV4,1,1*%
%TO.N,+3V3*%
X133359999Y-38979999D03*
D13*
%TO.P,RV4,2,2*%
%TO.N,MUX_IN_4*%
X135860000Y-38980000D03*
%TO.P,RV4,3,3*%
%TO.N,GND*%
X138360000Y-38980000D03*
%TD*%
D15*
%TO.P,J1,1,Pin_1*%
%TO.N,+3V3*%
X207119999Y-40149999D03*
D16*
%TO.P,J1,2,Pin_2*%
%TO.N,CHANNEL_SELECT_A*%
X207119999Y-37609999D03*
%TO.P,J1,3,Pin_3*%
%TO.N,CHANNEL_SELECT_B*%
X207119999Y-35069999D03*
%TO.P,J1,4,Pin_4*%
%TO.N,CHANNEL_SELECT_C*%
X207119999Y-32529999D03*
%TO.P,J1,5,Pin_5*%
%TO.N,MUX_OUT*%
X207119999Y-29989999D03*
%TO.P,J1,6,Pin_6*%
%TO.N,GND*%
X207119999Y-27449999D03*
%TD*%
D11*
%TO.P,RV2,*%
%TO.N,*%
X105239999Y-31479999D03*
X114839999Y-31479999D03*
D12*
%TO.P,RV2,1,1*%
%TO.N,+3V3*%
X107539999Y-38979999D03*
D13*
%TO.P,RV2,2,2*%
%TO.N,MUX_IN_2*%
X110040000Y-38980000D03*
%TO.P,RV2,3,3*%
%TO.N,GND*%
X112540000Y-38980000D03*
%TD*%
D17*
%TO.N,+3V3*%
X200150000Y-27960000D03*
%TD*%
D18*
%TO.N,+3V3*%
X201890800Y-28300800D02*
X200490800Y-28300800D01*
X160405300Y-40205300D02*
X170854700Y-40205300D01*
X118900000Y-40530000D02*
X120450000Y-38980000D01*
X200490800Y-28300800D02*
X200150000Y-27960000D01*
X201890800Y-28300800D02*
X201890800Y-27069200D01*
X109090000Y-40530000D02*
X118900000Y-40530000D01*
X170854700Y-40205300D02*
X172080000Y-38980000D01*
X107540000Y-38980000D02*
X109090000Y-40530000D01*
X159180000Y-38980000D02*
X160405300Y-40205300D01*
X201890800Y-27069200D02*
X202180000Y-26780000D01*
X201890800Y-28300800D02*
X202195000Y-28605000D01*
%TO.N,CHANNEL_SELECT_A*%
X207120000Y-37610000D02*
X205730000Y-39000000D01*
X200540000Y-34955000D02*
X202195000Y-34955000D01*
X205730000Y-39000000D02*
X200540000Y-39000000D01*
X200540000Y-39000000D02*
X200540000Y-34955000D01*
%TO.N,CHANNEL_SELECT_B*%
X203125000Y-36225000D02*
X202195000Y-36225000D01*
X204280000Y-35070000D02*
X203125000Y-36225000D01*
X207120000Y-35070000D02*
X204280000Y-35070000D01*
%TO.N,CHANNEL_SELECT_C*%
X205424600Y-36245400D02*
X204175000Y-37495000D01*
X208304600Y-33714600D02*
X208304600Y-36245400D01*
X204175000Y-37495000D02*
X202195000Y-37495000D01*
X208304600Y-36245400D02*
X205424600Y-36245400D01*
X207120000Y-32530000D02*
X208304600Y-33714600D01*
%TO.N,MUX_OUT*%
X204470000Y-30510000D02*
X204990000Y-29990000D01*
X204990000Y-29990000D02*
X207120000Y-29990000D01*
X197880000Y-30510000D02*
X204470000Y-30510000D01*
X197245000Y-31145000D02*
X197880000Y-30510000D01*
%TO.N,MUX_IN_1*%
X202195000Y-32415000D02*
X204480000Y-32415000D01*
X204480000Y-32415000D02*
X204480000Y-34320000D01*
X199760000Y-34320000D02*
X199760000Y-38970000D01*
X197550500Y-41179500D02*
X99339500Y-41179500D01*
X199760000Y-38970000D02*
X197550500Y-41179500D01*
X99339500Y-41179500D02*
X97140000Y-38980000D01*
X204480000Y-34320000D02*
X199760000Y-34320000D01*
%TO.N,MUX_IN_2*%
X204478200Y-29240000D02*
X204933200Y-28785000D01*
X128322900Y-26550000D02*
X197685400Y-26550000D01*
X208304600Y-28785000D02*
X208304600Y-31202500D01*
X121024000Y-33848900D02*
X128322900Y-26550000D01*
X204933200Y-28785000D02*
X208304600Y-28785000D01*
X202252500Y-31202500D02*
X202195000Y-31145000D01*
X110040000Y-38980000D02*
X115171100Y-33848900D01*
X197685400Y-26550000D02*
X200375400Y-29240000D01*
X115171100Y-33848900D02*
X121024000Y-33848900D01*
X208304600Y-31202500D02*
X202252500Y-31202500D01*
X200375400Y-29240000D02*
X204478200Y-29240000D01*
%TO.N,MUX_IN_3*%
X125297500Y-36632500D02*
X122950000Y-38980000D01*
X198019696Y-27520000D02*
X139371600Y-27520000D01*
X202195000Y-29875000D02*
X200374696Y-29875000D01*
X200374696Y-29875000D02*
X198019696Y-27520000D01*
X139371600Y-27520000D02*
X130259100Y-36632500D01*
X130259100Y-36632500D02*
X125297500Y-36632500D01*
%TO.N,MUX_IN_4*%
X192170000Y-39520000D02*
X197620000Y-39520000D01*
X190988500Y-40701500D02*
X192170000Y-39520000D01*
X197620000Y-39520000D02*
X198940000Y-38200000D01*
X137581500Y-40701500D02*
X190988500Y-40701500D01*
X198940000Y-33685000D02*
X202195000Y-33685000D01*
X135860000Y-38980000D02*
X137581500Y-40701500D01*
X198940000Y-38200000D02*
X198940000Y-33685000D01*
%TO.N,MUX_IN_5*%
X153040000Y-34730000D02*
X148790000Y-38980000D01*
X157057900Y-34730000D02*
X153040000Y-34730000D01*
X163182900Y-28605000D02*
X157057900Y-34730000D01*
X197245000Y-28605000D02*
X163182900Y-28605000D01*
%TO.N,MUX_IN_6*%
X188750000Y-36950000D02*
X188750000Y-40230900D01*
X197245000Y-33685000D02*
X197240000Y-33690000D01*
X194990000Y-33690000D02*
X191730000Y-36950000D01*
X164080000Y-36580000D02*
X161680000Y-38980000D01*
X191730000Y-36950000D02*
X188750000Y-36950000D01*
X173304511Y-37504511D02*
X172380000Y-36580000D01*
X197240000Y-33690000D02*
X194990000Y-33690000D01*
X188750000Y-40230900D02*
X173304511Y-40230900D01*
X173304511Y-40230900D02*
X173304511Y-37504511D01*
X172380000Y-36580000D02*
X164080000Y-36580000D01*
%TO.N,MUX_IN_7*%
X196884500Y-29514500D02*
X187722200Y-29514500D01*
X180646700Y-36590000D02*
X176970000Y-36590000D01*
X197245000Y-29875000D02*
X196884500Y-29514500D01*
X176970000Y-36590000D02*
X174580000Y-38980000D01*
X187722200Y-29514500D02*
X180646700Y-36590000D01*
%TO.N,MUX_IN_8*%
X190922271Y-35500000D02*
X194007271Y-32415000D01*
X187500000Y-36300000D02*
X188300000Y-35500000D01*
X188300000Y-35500000D02*
X190922271Y-35500000D01*
X194007271Y-32415000D02*
X197245000Y-32415000D01*
X187500000Y-38980000D02*
X187500000Y-36300000D01*
%TD*%
%TA.AperFunction,Conductor*%
%TO.N,GND*%
G36*
X128213126Y-25695585D02*
G01*
X128258810Y-25738486D01*
X128278176Y-25798088D01*
X128266433Y-25859648D01*
X128226487Y-25907936D01*
X128179156Y-25926675D01*
X128179641Y-25928562D01*
X128171962Y-25930532D01*
X128164103Y-25931526D01*
X128156744Y-25934439D01*
X128156734Y-25934442D01*
X128122982Y-25947805D01*
X128111760Y-25951647D01*
X128076914Y-25961771D01*
X128076910Y-25961772D01*
X128069306Y-25963982D01*
X128062485Y-25968015D01*
X128062482Y-25968017D01*
X128051868Y-25974294D01*
X128034118Y-25982990D01*
X128022656Y-25987528D01*
X128022651Y-25987530D01*
X128015283Y-25990448D01*
X128008874Y-25995104D01*
X128008869Y-25995107D01*
X127979515Y-26016434D01*
X127969597Y-26022948D01*
X127938364Y-26041419D01*
X127938356Y-26041425D01*
X127931537Y-26045458D01*
X127925935Y-26051058D01*
X127925928Y-26051065D01*
X127917204Y-26059789D01*
X127902182Y-26072618D01*
X127892211Y-26079863D01*
X127892202Y-26079871D01*
X127885793Y-26084528D01*
X127880746Y-26090628D01*
X127880738Y-26090636D01*
X127857610Y-26118593D01*
X127849623Y-26127370D01*
X120798500Y-33178495D01*
X120757623Y-33205809D01*
X120709405Y-33215400D01*
X119618932Y-33215400D01*
X119562963Y-33202287D01*
X119518643Y-33165677D01*
X119495198Y-33113191D01*
X119497508Y-33055753D01*
X119525091Y-33005318D01*
X119531027Y-32998694D01*
X119632867Y-32885033D01*
X119783783Y-32656923D01*
X119899877Y-32409271D01*
X119978676Y-32147355D01*
X120018500Y-31876757D01*
X120018500Y-31151712D01*
X120003533Y-30947217D01*
X119944063Y-30680247D01*
X119846355Y-30424781D01*
X119736290Y-30228665D01*
X119714746Y-30190278D01*
X119714744Y-30190275D01*
X119712493Y-30186264D01*
X119545329Y-29969780D01*
X119431069Y-29859619D01*
X119351735Y-29783131D01*
X119351732Y-29783129D01*
X119348426Y-29779941D01*
X119344686Y-29777265D01*
X119344681Y-29777261D01*
X119129730Y-29623477D01*
X119129728Y-29623475D01*
X119125981Y-29620795D01*
X119114694Y-29614992D01*
X118886829Y-29497838D01*
X118886824Y-29497836D01*
X118882734Y-29495733D01*
X118623870Y-29407421D01*
X118602296Y-29403436D01*
X118359436Y-29358577D01*
X118359428Y-29358576D01*
X118354907Y-29357741D01*
X118350316Y-29357573D01*
X118350305Y-29357572D01*
X118086179Y-29347920D01*
X118086176Y-29347920D01*
X118081576Y-29347752D01*
X118077008Y-29348254D01*
X118076996Y-29348255D01*
X117814277Y-29377162D01*
X117814265Y-29377164D01*
X117809704Y-29377666D01*
X117805261Y-29378827D01*
X117805253Y-29378829D01*
X117549539Y-29445682D01*
X117549535Y-29445683D01*
X117545084Y-29446847D01*
X117540857Y-29448643D01*
X117540846Y-29448647D01*
X117297588Y-29552020D01*
X117297576Y-29552025D01*
X117293357Y-29553819D01*
X117289436Y-29556211D01*
X117289430Y-29556215D01*
X117063819Y-29693903D01*
X117063809Y-29693909D01*
X117059888Y-29696303D01*
X117056361Y-29699237D01*
X117056350Y-29699246D01*
X116853187Y-29868320D01*
X116853179Y-29868327D01*
X116849653Y-29871262D01*
X116846584Y-29874686D01*
X116846581Y-29874690D01*
X116670211Y-30071530D01*
X116670201Y-30071542D01*
X116667133Y-30074967D01*
X116664595Y-30078802D01*
X116664582Y-30078820D01*
X116602535Y-30172604D01*
X116559118Y-30212960D01*
X116502053Y-30228997D01*
X116443970Y-30217167D01*
X116397727Y-30180092D01*
X116235329Y-29969780D01*
X116121069Y-29859619D01*
X116041735Y-29783131D01*
X116041732Y-29783129D01*
X116038426Y-29779941D01*
X116034686Y-29777265D01*
X116034681Y-29777261D01*
X115819730Y-29623477D01*
X115819728Y-29623475D01*
X115815981Y-29620795D01*
X115804694Y-29614992D01*
X115576829Y-29497838D01*
X115576824Y-29497836D01*
X115572734Y-29495733D01*
X115313870Y-29407421D01*
X115292296Y-29403436D01*
X115049436Y-29358577D01*
X115049428Y-29358576D01*
X115044907Y-29357741D01*
X115040316Y-29357573D01*
X115040305Y-29357572D01*
X114776179Y-29347920D01*
X114776176Y-29347920D01*
X114771576Y-29347752D01*
X114767008Y-29348254D01*
X114766996Y-29348255D01*
X114504277Y-29377162D01*
X114504265Y-29377164D01*
X114499704Y-29377666D01*
X114495261Y-29378827D01*
X114495253Y-29378829D01*
X114239539Y-29445682D01*
X114239535Y-29445683D01*
X114235084Y-29446847D01*
X114230857Y-29448643D01*
X114230846Y-29448647D01*
X113987588Y-29552020D01*
X113987576Y-29552025D01*
X113983357Y-29553819D01*
X113979436Y-29556211D01*
X113979430Y-29556215D01*
X113753819Y-29693903D01*
X113753809Y-29693909D01*
X113749888Y-29696303D01*
X113746361Y-29699237D01*
X113746350Y-29699246D01*
X113543187Y-29868320D01*
X113543179Y-29868327D01*
X113539653Y-29871262D01*
X113536584Y-29874686D01*
X113536581Y-29874690D01*
X113360211Y-30071530D01*
X113360201Y-30071542D01*
X113357133Y-30074967D01*
X113354593Y-30078805D01*
X113354590Y-30078810D01*
X113220831Y-30280988D01*
X113206217Y-30303077D01*
X113204268Y-30307234D01*
X113204261Y-30307247D01*
X113092077Y-30546560D01*
X113090123Y-30550729D01*
X113088801Y-30555122D01*
X113088796Y-30555136D01*
X113012651Y-30808232D01*
X113012649Y-30808240D01*
X113011324Y-30812645D01*
X113010653Y-30817201D01*
X113010652Y-30817208D01*
X112972171Y-31078681D01*
X112971500Y-31083243D01*
X112971500Y-31808288D01*
X112971666Y-31810558D01*
X112971667Y-31810581D01*
X112986130Y-32008188D01*
X112986131Y-32008197D01*
X112986467Y-32012783D01*
X113045937Y-32279753D01*
X113047581Y-32284053D01*
X113047582Y-32284054D01*
X113125123Y-32486793D01*
X113143645Y-32535219D01*
X113145897Y-32539231D01*
X113145900Y-32539238D01*
X113275253Y-32769721D01*
X113275257Y-32769727D01*
X113277507Y-32773736D01*
X113444671Y-32990220D01*
X113511133Y-33054298D01*
X113623584Y-33162715D01*
X113641574Y-33180059D01*
X113645314Y-33182735D01*
X113645318Y-33182738D01*
X113811873Y-33301898D01*
X113864019Y-33339205D01*
X114107266Y-33464267D01*
X114238891Y-33509171D01*
X114327824Y-33539511D01*
X114380597Y-33574252D01*
X114409871Y-33630244D01*
X114408285Y-33693406D01*
X114376236Y-33747857D01*
X110537276Y-37586817D01*
X110476581Y-37620480D01*
X110407268Y-37616895D01*
X110391876Y-37611610D01*
X110391867Y-37611607D01*
X110386951Y-37609920D01*
X110319629Y-37598686D01*
X110161849Y-37572357D01*
X110161846Y-37572356D01*
X110156712Y-37571500D01*
X109923288Y-37571500D01*
X109918154Y-37572356D01*
X109918150Y-37572357D01*
X109698188Y-37609062D01*
X109698182Y-37609063D01*
X109693049Y-37609920D01*
X109688127Y-37611609D01*
X109688118Y-37611612D01*
X109477205Y-37684019D01*
X109477196Y-37684022D01*
X109472273Y-37685713D01*
X109467694Y-37688190D01*
X109467687Y-37688194D01*
X109271564Y-37794330D01*
X109271556Y-37794335D01*
X109266983Y-37796810D01*
X109100485Y-37926402D01*
X109100274Y-37926566D01*
X109046999Y-37950805D01*
X108988521Y-37948358D01*
X108937457Y-37919754D01*
X108904827Y-37871165D01*
X108894039Y-37842239D01*
X108894036Y-37842233D01*
X108890889Y-37833796D01*
X108871926Y-37808465D01*
X108808659Y-37723950D01*
X108803261Y-37716739D01*
X108765743Y-37688653D01*
X108693417Y-37634510D01*
X108693414Y-37634508D01*
X108686204Y-37629111D01*
X108677766Y-37625964D01*
X108677763Y-37625962D01*
X108556580Y-37580763D01*
X108556578Y-37580762D01*
X108549201Y-37578011D01*
X108541373Y-37577169D01*
X108541367Y-37577168D01*
X108491988Y-37571860D01*
X108491985Y-37571859D01*
X108488638Y-37571500D01*
X106591362Y-37571500D01*
X106588015Y-37571859D01*
X106588011Y-37571860D01*
X106538632Y-37577168D01*
X106538625Y-37577169D01*
X106530799Y-37578011D01*
X106523423Y-37580761D01*
X106523419Y-37580763D01*
X106402236Y-37625962D01*
X106402230Y-37625965D01*
X106393796Y-37629111D01*
X106386588Y-37634506D01*
X106386582Y-37634510D01*
X106283950Y-37711340D01*
X106283946Y-37711343D01*
X106276739Y-37716739D01*
X106271343Y-37723946D01*
X106271340Y-37723950D01*
X106194510Y-37826582D01*
X106194506Y-37826588D01*
X106189111Y-37833796D01*
X106185965Y-37842230D01*
X106185962Y-37842236D01*
X106140763Y-37963419D01*
X106140761Y-37963423D01*
X106138011Y-37970799D01*
X106137169Y-37978625D01*
X106137168Y-37978632D01*
X106132244Y-38024439D01*
X106131500Y-38031362D01*
X106131500Y-39928638D01*
X106131859Y-39931985D01*
X106131860Y-39931988D01*
X106137168Y-39981367D01*
X106137169Y-39981373D01*
X106138011Y-39989201D01*
X106140762Y-39996578D01*
X106140763Y-39996580D01*
X106185962Y-40117763D01*
X106185963Y-40117764D01*
X106189111Y-40126204D01*
X106194508Y-40133414D01*
X106194510Y-40133417D01*
X106271340Y-40236049D01*
X106276739Y-40243261D01*
X106375997Y-40317565D01*
X106378091Y-40319132D01*
X106417196Y-40367658D01*
X106428261Y-40428989D01*
X106408580Y-40488121D01*
X106362967Y-40530588D01*
X106302582Y-40546000D01*
X100169793Y-40546000D01*
X100102631Y-40526608D01*
X100056142Y-40474401D01*
X100044636Y-40405449D01*
X100071654Y-40340976D01*
X100128881Y-40300827D01*
X100202594Y-40275521D01*
X100212111Y-40271346D01*
X100408159Y-40165251D01*
X100416855Y-40159569D01*
X100427181Y-40151532D01*
X100435417Y-40140162D01*
X100428651Y-40127862D01*
X99640000Y-39339210D01*
X99280789Y-38979999D01*
X100004167Y-38979999D01*
X100010940Y-38991730D01*
X100789263Y-39770052D01*
X100798797Y-39776072D01*
X100806888Y-39768228D01*
X100879693Y-39656792D01*
X100884636Y-39647657D01*
X100974181Y-39443516D01*
X100977554Y-39433691D01*
X101032275Y-39217602D01*
X101033987Y-39207348D01*
X101052396Y-38985189D01*
X101052396Y-38974811D01*
X101033987Y-38752651D01*
X101032275Y-38742397D01*
X100977554Y-38526308D01*
X100974181Y-38516483D01*
X100884637Y-38312344D01*
X100879690Y-38303203D01*
X100806890Y-38191773D01*
X100798796Y-38183926D01*
X100789262Y-38189947D01*
X100010939Y-38968270D01*
X100004167Y-38979999D01*
X99280789Y-38979999D01*
X98490736Y-38189947D01*
X98481156Y-38183897D01*
X98434414Y-38212530D01*
X98379688Y-38218526D01*
X98327629Y-38200615D01*
X98288177Y-38162218D01*
X98272722Y-38138562D01*
X98255314Y-38111917D01*
X98175367Y-38025072D01*
X98100752Y-37944018D01*
X98100747Y-37944013D01*
X98097220Y-37940182D01*
X97971380Y-37842236D01*
X97942600Y-37819835D01*
X98844581Y-37819835D01*
X98851349Y-37832138D01*
X99628270Y-38609059D01*
X99639999Y-38615831D01*
X99651730Y-38609058D01*
X100428650Y-37832137D01*
X100435417Y-37819836D01*
X100427179Y-37808465D01*
X100416856Y-37800430D01*
X100408161Y-37794749D01*
X100212111Y-37688653D01*
X100202594Y-37684478D01*
X99991758Y-37612098D01*
X99981688Y-37609548D01*
X99761807Y-37572857D01*
X99751459Y-37572000D01*
X99528541Y-37572000D01*
X99518192Y-37572857D01*
X99298311Y-37609548D01*
X99288241Y-37612098D01*
X99077405Y-37684478D01*
X99067888Y-37688653D01*
X98871835Y-37794751D01*
X98863150Y-37800425D01*
X98852817Y-37808467D01*
X98844581Y-37819835D01*
X97942600Y-37819835D01*
X97917130Y-37800011D01*
X97917127Y-37800009D01*
X97913017Y-37796810D01*
X97908438Y-37794332D01*
X97908435Y-37794330D01*
X97712312Y-37688194D01*
X97712309Y-37688192D01*
X97707727Y-37685713D01*
X97702799Y-37684021D01*
X97702794Y-37684019D01*
X97491881Y-37611612D01*
X97491875Y-37611610D01*
X97486951Y-37609920D01*
X97481814Y-37609062D01*
X97481811Y-37609062D01*
X97261849Y-37572357D01*
X97261846Y-37572356D01*
X97256712Y-37571500D01*
X97023288Y-37571500D01*
X97018154Y-37572356D01*
X97018150Y-37572357D01*
X96798188Y-37609062D01*
X96798182Y-37609063D01*
X96793049Y-37609920D01*
X96788127Y-37611609D01*
X96788118Y-37611612D01*
X96577205Y-37684019D01*
X96577196Y-37684022D01*
X96572273Y-37685713D01*
X96567694Y-37688190D01*
X96567687Y-37688194D01*
X96371564Y-37794330D01*
X96371556Y-37794335D01*
X96366983Y-37796810D01*
X96200485Y-37926402D01*
X96200274Y-37926566D01*
X96146999Y-37950805D01*
X96088521Y-37948358D01*
X96037457Y-37919754D01*
X96004827Y-37871165D01*
X95994039Y-37842239D01*
X95994036Y-37842233D01*
X95990889Y-37833796D01*
X95971926Y-37808465D01*
X95908659Y-37723950D01*
X95903261Y-37716739D01*
X95865743Y-37688653D01*
X95793417Y-37634510D01*
X95793414Y-37634508D01*
X95786204Y-37629111D01*
X95777766Y-37625964D01*
X95777763Y-37625962D01*
X95656580Y-37580763D01*
X95656578Y-37580762D01*
X95649201Y-37578011D01*
X95641373Y-37577169D01*
X95641367Y-37577168D01*
X95591988Y-37571860D01*
X95591985Y-37571859D01*
X95588638Y-37571500D01*
X93691362Y-37571500D01*
X93688015Y-37571859D01*
X93688011Y-37571860D01*
X93638632Y-37577168D01*
X93638625Y-37577169D01*
X93630799Y-37578011D01*
X93623423Y-37580761D01*
X93623419Y-37580763D01*
X93502236Y-37625962D01*
X93502230Y-37625965D01*
X93493796Y-37629111D01*
X93486588Y-37634506D01*
X93486582Y-37634510D01*
X93383950Y-37711340D01*
X93383946Y-37711343D01*
X93376739Y-37716739D01*
X93371343Y-37723946D01*
X93371340Y-37723950D01*
X93294510Y-37826582D01*
X93294506Y-37826588D01*
X93289111Y-37833796D01*
X93285965Y-37842230D01*
X93285962Y-37842236D01*
X93240763Y-37963419D01*
X93240761Y-37963423D01*
X93238011Y-37970799D01*
X93237169Y-37978625D01*
X93237168Y-37978632D01*
X93232244Y-38024439D01*
X93231500Y-38031362D01*
X93231500Y-39928638D01*
X93231859Y-39931985D01*
X93231860Y-39931988D01*
X93237168Y-39981367D01*
X93237169Y-39981373D01*
X93238011Y-39989201D01*
X93240762Y-39996578D01*
X93240763Y-39996580D01*
X93285962Y-40117763D01*
X93285963Y-40117764D01*
X93289111Y-40126204D01*
X93294508Y-40133414D01*
X93294510Y-40133417D01*
X93371340Y-40236049D01*
X93376739Y-40243261D01*
X93398818Y-40259789D01*
X93478090Y-40319132D01*
X93493796Y-40330889D01*
X93630799Y-40381989D01*
X93691362Y-40388500D01*
X95585269Y-40388500D01*
X95588638Y-40388500D01*
X95649201Y-40381989D01*
X95786204Y-40330889D01*
X95903261Y-40243261D01*
X95990889Y-40126204D01*
X96004828Y-40088831D01*
X96037457Y-40040245D01*
X96088521Y-40011641D01*
X96146999Y-40009194D01*
X96200273Y-40033433D01*
X96366983Y-40163190D01*
X96572273Y-40274287D01*
X96793049Y-40350080D01*
X97023288Y-40388500D01*
X97251501Y-40388500D01*
X97256712Y-40388500D01*
X97486951Y-40350080D01*
X97507267Y-40343105D01*
X97576582Y-40339519D01*
X97637277Y-40373181D01*
X98282116Y-41018021D01*
X98835847Y-41571752D01*
X98843388Y-41580039D01*
X98847500Y-41586518D01*
X98853275Y-41591941D01*
X98853276Y-41591942D01*
X98897134Y-41633126D01*
X98899980Y-41635884D01*
X98909067Y-41644972D01*
X98919730Y-41655635D01*
X98922851Y-41658056D01*
X98922852Y-41658057D01*
X98922932Y-41658119D01*
X98931940Y-41665813D01*
X98964179Y-41696086D01*
X98971126Y-41699905D01*
X98976168Y-41702677D01*
X99023520Y-41748281D01*
X99041456Y-41811530D01*
X99025093Y-41875203D01*
X98978885Y-41921967D01*
X98915412Y-41939091D01*
X92902900Y-41936513D01*
X92897135Y-41936379D01*
X92729095Y-41928610D01*
X92728728Y-41928592D01*
X92530206Y-41918834D01*
X92518984Y-41917778D01*
X92338576Y-41892612D01*
X92337496Y-41892456D01*
X92152709Y-41865046D01*
X92142350Y-41863063D01*
X91962376Y-41820734D01*
X91960608Y-41820305D01*
X91782095Y-41775590D01*
X91772669Y-41772834D01*
X91596224Y-41713696D01*
X91593817Y-41712863D01*
X91421710Y-41651283D01*
X91413264Y-41647912D01*
X91242438Y-41572485D01*
X91239461Y-41571124D01*
X91074806Y-41493249D01*
X91067365Y-41489422D01*
X90903947Y-41398399D01*
X90900483Y-41396397D01*
X90744539Y-41302929D01*
X90738108Y-41298805D01*
X90583595Y-41192961D01*
X90579744Y-41190215D01*
X90433884Y-41082037D01*
X90428448Y-41077770D01*
X90389308Y-41045269D01*
X90284266Y-40958043D01*
X90280203Y-40954518D01*
X90145661Y-40832576D01*
X90141197Y-40828325D01*
X90008694Y-40695822D01*
X90004429Y-40691343D01*
X89882511Y-40556827D01*
X89878936Y-40552706D01*
X89759226Y-40408547D01*
X89754977Y-40403135D01*
X89646799Y-40257275D01*
X89644054Y-40253425D01*
X89538197Y-40098894D01*
X89534072Y-40092463D01*
X89531897Y-40088835D01*
X89440613Y-39936535D01*
X89438611Y-39933071D01*
X89393236Y-39851608D01*
X89347574Y-39769631D01*
X89343754Y-39762200D01*
X89342477Y-39759500D01*
X89265850Y-39597487D01*
X89264543Y-39594629D01*
X89189088Y-39423739D01*
X89185720Y-39415299D01*
X89162692Y-39350940D01*
X89124122Y-39243146D01*
X89123312Y-39240805D01*
X89115535Y-39217602D01*
X89067730Y-39074970D01*
X89064167Y-39064338D01*
X89061411Y-39054913D01*
X89043946Y-38985189D01*
X89016676Y-38876323D01*
X89016305Y-38874791D01*
X88973934Y-38694640D01*
X88971954Y-38684301D01*
X88944498Y-38499205D01*
X88944442Y-38498819D01*
X88919219Y-38318003D01*
X88918168Y-38306832D01*
X88908285Y-38105671D01*
X88900633Y-37940164D01*
X88900500Y-37934346D01*
X88900500Y-31808288D01*
X90471500Y-31808288D01*
X90471666Y-31810558D01*
X90471667Y-31810581D01*
X90486130Y-32008188D01*
X90486131Y-32008197D01*
X90486467Y-32012783D01*
X90545937Y-32279753D01*
X90547581Y-32284053D01*
X90547582Y-32284054D01*
X90625123Y-32486793D01*
X90643645Y-32535219D01*
X90645897Y-32539231D01*
X90645900Y-32539238D01*
X90775253Y-32769721D01*
X90775257Y-32769727D01*
X90777507Y-32773736D01*
X90944671Y-32990220D01*
X91011133Y-33054298D01*
X91123584Y-33162715D01*
X91141574Y-33180059D01*
X91145314Y-33182735D01*
X91145318Y-33182738D01*
X91311873Y-33301898D01*
X91364019Y-33339205D01*
X91607266Y-33464267D01*
X91866130Y-33552579D01*
X92135093Y-33602259D01*
X92408424Y-33612248D01*
X92680296Y-33582334D01*
X92944916Y-33513153D01*
X93196643Y-33406181D01*
X93430112Y-33263697D01*
X93640347Y-33088738D01*
X93822867Y-32885033D01*
X93973783Y-32656923D01*
X94089877Y-32409271D01*
X94168676Y-32147355D01*
X94208500Y-31876757D01*
X94208500Y-31808288D01*
X100071500Y-31808288D01*
X100071666Y-31810558D01*
X100071667Y-31810581D01*
X100086130Y-32008188D01*
X100086131Y-32008197D01*
X100086467Y-32012783D01*
X100145937Y-32279753D01*
X100147581Y-32284053D01*
X100147582Y-32284054D01*
X100225123Y-32486793D01*
X100243645Y-32535219D01*
X100245897Y-32539231D01*
X100245900Y-32539238D01*
X100375253Y-32769721D01*
X100375257Y-32769727D01*
X100377507Y-32773736D01*
X100544671Y-32990220D01*
X100611133Y-33054298D01*
X100723584Y-33162715D01*
X100741574Y-33180059D01*
X100745314Y-33182735D01*
X100745318Y-33182738D01*
X100911873Y-33301898D01*
X100964019Y-33339205D01*
X101207266Y-33464267D01*
X101466130Y-33552579D01*
X101735093Y-33602259D01*
X102008424Y-33612248D01*
X102280296Y-33582334D01*
X102544916Y-33513153D01*
X102796643Y-33406181D01*
X103030112Y-33263697D01*
X103240347Y-33088738D01*
X103422867Y-32885033D01*
X103482848Y-32794370D01*
X103526265Y-32754015D01*
X103583330Y-32737977D01*
X103641413Y-32749806D01*
X103687660Y-32786885D01*
X103713994Y-32820988D01*
X103844671Y-32990220D01*
X103911133Y-33054298D01*
X104023584Y-33162715D01*
X104041574Y-33180059D01*
X104045314Y-33182735D01*
X104045318Y-33182738D01*
X104211873Y-33301898D01*
X104264019Y-33339205D01*
X104507266Y-33464267D01*
X104766130Y-33552579D01*
X105035093Y-33602259D01*
X105308424Y-33612248D01*
X105580296Y-33582334D01*
X105844916Y-33513153D01*
X106096643Y-33406181D01*
X106330112Y-33263697D01*
X106540347Y-33088738D01*
X106722867Y-32885033D01*
X106873783Y-32656923D01*
X106989877Y-32409271D01*
X107068676Y-32147355D01*
X107108500Y-31876757D01*
X107108500Y-31151712D01*
X107093533Y-30947217D01*
X107034063Y-30680247D01*
X106936355Y-30424781D01*
X106826290Y-30228665D01*
X106804746Y-30190278D01*
X106804744Y-30190275D01*
X106802493Y-30186264D01*
X106635329Y-29969780D01*
X106521069Y-29859619D01*
X106441735Y-29783131D01*
X106441732Y-29783129D01*
X106438426Y-29779941D01*
X106434686Y-29777265D01*
X106434681Y-29777261D01*
X106219730Y-29623477D01*
X106219728Y-29623475D01*
X106215981Y-29620795D01*
X106204694Y-29614992D01*
X105976829Y-29497838D01*
X105976824Y-29497836D01*
X105972734Y-29495733D01*
X105713870Y-29407421D01*
X105692296Y-29403436D01*
X105449436Y-29358577D01*
X105449428Y-29358576D01*
X105444907Y-29357741D01*
X105440316Y-29357573D01*
X105440305Y-29357572D01*
X105176179Y-29347920D01*
X105176176Y-29347920D01*
X105171576Y-29347752D01*
X105167008Y-29348254D01*
X105166996Y-29348255D01*
X104904277Y-29377162D01*
X104904265Y-29377164D01*
X104899704Y-29377666D01*
X104895261Y-29378827D01*
X104895253Y-29378829D01*
X104639539Y-29445682D01*
X104639535Y-29445683D01*
X104635084Y-29446847D01*
X104630857Y-29448643D01*
X104630846Y-29448647D01*
X104387588Y-29552020D01*
X104387576Y-29552025D01*
X104383357Y-29553819D01*
X104379436Y-29556211D01*
X104379430Y-29556215D01*
X104153819Y-29693903D01*
X104153809Y-29693909D01*
X104149888Y-29696303D01*
X104146361Y-29699237D01*
X104146350Y-29699246D01*
X103943187Y-29868320D01*
X103943179Y-29868327D01*
X103939653Y-29871262D01*
X103936584Y-29874686D01*
X103936581Y-29874690D01*
X103760211Y-30071530D01*
X103760201Y-30071542D01*
X103757133Y-30074967D01*
X103754599Y-30078796D01*
X103754582Y-30078819D01*
X103697150Y-30165629D01*
X103653733Y-30205984D01*
X103596669Y-30222022D01*
X103538585Y-30210192D01*
X103492339Y-30173114D01*
X103419526Y-30078819D01*
X103335329Y-29969780D01*
X103221069Y-29859619D01*
X103141735Y-29783131D01*
X103141732Y-29783129D01*
X103138426Y-29779941D01*
X103134686Y-29777265D01*
X103134681Y-29777261D01*
X102919730Y-29623477D01*
X102919728Y-29623475D01*
X102915981Y-29620795D01*
X102904694Y-29614992D01*
X102676829Y-29497838D01*
X102676824Y-29497836D01*
X102672734Y-29495733D01*
X102413870Y-29407421D01*
X102392296Y-29403436D01*
X102149436Y-29358577D01*
X102149428Y-29358576D01*
X102144907Y-29357741D01*
X102140316Y-29357573D01*
X102140305Y-29357572D01*
X101876179Y-29347920D01*
X101876176Y-29347920D01*
X101871576Y-29347752D01*
X101867008Y-29348254D01*
X101866996Y-29348255D01*
X101604277Y-29377162D01*
X101604265Y-29377164D01*
X101599704Y-29377666D01*
X101595261Y-29378827D01*
X101595253Y-29378829D01*
X101339539Y-29445682D01*
X101339535Y-29445683D01*
X101335084Y-29446847D01*
X101330857Y-29448643D01*
X101330846Y-29448647D01*
X101087588Y-29552020D01*
X101087576Y-29552025D01*
X101083357Y-29553819D01*
X101079436Y-29556211D01*
X101079430Y-29556215D01*
X100853819Y-29693903D01*
X100853809Y-29693909D01*
X100849888Y-29696303D01*
X100846361Y-29699237D01*
X100846350Y-29699246D01*
X100643187Y-29868320D01*
X100643179Y-29868327D01*
X100639653Y-29871262D01*
X100636584Y-29874686D01*
X100636581Y-29874690D01*
X100460211Y-30071530D01*
X100460201Y-30071542D01*
X100457133Y-30074967D01*
X100454593Y-30078805D01*
X100454590Y-30078810D01*
X100320831Y-30280988D01*
X100306217Y-30303077D01*
X100304268Y-30307234D01*
X100304261Y-30307247D01*
X100192077Y-30546560D01*
X100190123Y-30550729D01*
X100188801Y-30555122D01*
X100188796Y-30555136D01*
X100112651Y-30808232D01*
X100112649Y-30808240D01*
X100111324Y-30812645D01*
X100110653Y-30817201D01*
X100110652Y-30817208D01*
X100072171Y-31078681D01*
X100071500Y-31083243D01*
X100071500Y-31808288D01*
X94208500Y-31808288D01*
X94208500Y-31151712D01*
X94193533Y-30947217D01*
X94134063Y-30680247D01*
X94036355Y-30424781D01*
X93926290Y-30228665D01*
X93904746Y-30190278D01*
X93904744Y-30190275D01*
X93902493Y-30186264D01*
X93735329Y-29969780D01*
X93621069Y-29859619D01*
X93541735Y-29783131D01*
X93541732Y-29783129D01*
X93538426Y-29779941D01*
X93534686Y-29777265D01*
X93534681Y-29777261D01*
X93319730Y-29623477D01*
X93319728Y-29623475D01*
X93315981Y-29620795D01*
X93304694Y-29614992D01*
X93076829Y-29497838D01*
X93076824Y-29497836D01*
X93072734Y-29495733D01*
X92813870Y-29407421D01*
X92792296Y-29403436D01*
X92549436Y-29358577D01*
X92549428Y-29358576D01*
X92544907Y-29357741D01*
X92540316Y-29357573D01*
X92540305Y-29357572D01*
X92276179Y-29347920D01*
X92276176Y-29347920D01*
X92271576Y-29347752D01*
X92267008Y-29348254D01*
X92266996Y-29348255D01*
X92004277Y-29377162D01*
X92004265Y-29377164D01*
X91999704Y-29377666D01*
X91995261Y-29378827D01*
X91995253Y-29378829D01*
X91739539Y-29445682D01*
X91739535Y-29445683D01*
X91735084Y-29446847D01*
X91730857Y-29448643D01*
X91730846Y-29448647D01*
X91487588Y-29552020D01*
X91487576Y-29552025D01*
X91483357Y-29553819D01*
X91479436Y-29556211D01*
X91479430Y-29556215D01*
X91253819Y-29693903D01*
X91253809Y-29693909D01*
X91249888Y-29696303D01*
X91246361Y-29699237D01*
X91246350Y-29699246D01*
X91043187Y-29868320D01*
X91043179Y-29868327D01*
X91039653Y-29871262D01*
X91036584Y-29874686D01*
X91036581Y-29874690D01*
X90860211Y-30071530D01*
X90860201Y-30071542D01*
X90857133Y-30074967D01*
X90854593Y-30078805D01*
X90854590Y-30078810D01*
X90720831Y-30280988D01*
X90706217Y-30303077D01*
X90704268Y-30307234D01*
X90704261Y-30307247D01*
X90592077Y-30546560D01*
X90590123Y-30550729D01*
X90588801Y-30555122D01*
X90588796Y-30555136D01*
X90512651Y-30808232D01*
X90512649Y-30808240D01*
X90511324Y-30812645D01*
X90510653Y-30817201D01*
X90510652Y-30817208D01*
X90472171Y-31078681D01*
X90471500Y-31083243D01*
X90471500Y-31808288D01*
X88900500Y-31808288D01*
X88900500Y-29629920D01*
X88900634Y-29624101D01*
X88901055Y-29614992D01*
X88908572Y-29452392D01*
X88908647Y-29452395D01*
X88908589Y-29452036D01*
X88918144Y-29257434D01*
X88919195Y-29246254D01*
X88944823Y-29062535D01*
X88944896Y-29062031D01*
X88971902Y-28879966D01*
X88973877Y-28869648D01*
X89016721Y-28687488D01*
X89017037Y-28686185D01*
X89061330Y-28509361D01*
X89064073Y-28499978D01*
X89123764Y-28321883D01*
X89124480Y-28319819D01*
X89185609Y-28148976D01*
X89188956Y-28140588D01*
X89264938Y-27968504D01*
X89266219Y-27965705D01*
X89343596Y-27802104D01*
X89347408Y-27794692D01*
X89439010Y-27630236D01*
X89440954Y-27626871D01*
X89533880Y-27471834D01*
X89537971Y-27465456D01*
X89644461Y-27310000D01*
X89647114Y-27306279D01*
X89754707Y-27161206D01*
X89758933Y-27155822D01*
X89879355Y-27010804D01*
X89882850Y-27006777D01*
X90004104Y-26872995D01*
X90008318Y-26868570D01*
X90141578Y-26735309D01*
X90145983Y-26731115D01*
X90279831Y-26609802D01*
X90283820Y-26606342D01*
X90428831Y-26485926D01*
X90434189Y-26481720D01*
X90579286Y-26374109D01*
X90583022Y-26371445D01*
X90738468Y-26264962D01*
X90744831Y-26260881D01*
X90899884Y-26167946D01*
X90903206Y-26166026D01*
X91067723Y-26074391D01*
X91075104Y-26070596D01*
X91238716Y-25993213D01*
X91241516Y-25991934D01*
X91413624Y-25915941D01*
X91421988Y-25912604D01*
X91592850Y-25851469D01*
X91594794Y-25850794D01*
X91773013Y-25791062D01*
X91782378Y-25788325D01*
X91959084Y-25744063D01*
X91960577Y-25743700D01*
X92142654Y-25700876D01*
X92152980Y-25698900D01*
X92271204Y-25681363D01*
X92289691Y-25680000D01*
X128152425Y-25680000D01*
X128213126Y-25695585D01*
G37*
%TD.AperFunction*%
%TA.AperFunction,Conductor*%
G36*
X162491508Y-28167233D02*
G01*
X162536241Y-28205439D01*
X162558754Y-28259789D01*
X162554138Y-28318436D01*
X162523400Y-28368595D01*
X158963595Y-31928399D01*
X158913436Y-31959137D01*
X158854789Y-31963753D01*
X158800439Y-31941240D01*
X158762233Y-31896507D01*
X158748500Y-31839304D01*
X158748500Y-31154013D01*
X158748500Y-31151712D01*
X158733533Y-30947217D01*
X158674063Y-30680247D01*
X158576355Y-30424781D01*
X158466290Y-30228665D01*
X158444746Y-30190278D01*
X158444744Y-30190275D01*
X158442493Y-30186264D01*
X158275329Y-29969780D01*
X158161069Y-29859619D01*
X158081735Y-29783131D01*
X158081732Y-29783129D01*
X158078426Y-29779941D01*
X158074686Y-29777265D01*
X158074681Y-29777261D01*
X157859730Y-29623477D01*
X157859728Y-29623475D01*
X157855981Y-29620795D01*
X157844694Y-29614992D01*
X157616829Y-29497838D01*
X157616824Y-29497836D01*
X157612734Y-29495733D01*
X157353870Y-29407421D01*
X157332296Y-29403436D01*
X157089436Y-29358577D01*
X157089428Y-29358576D01*
X157084907Y-29357741D01*
X157080316Y-29357573D01*
X157080305Y-29357572D01*
X156816179Y-29347920D01*
X156816176Y-29347920D01*
X156811576Y-29347752D01*
X156807008Y-29348254D01*
X156806996Y-29348255D01*
X156544277Y-29377162D01*
X156544265Y-29377164D01*
X156539704Y-29377666D01*
X156535261Y-29378827D01*
X156535253Y-29378829D01*
X156279539Y-29445682D01*
X156279535Y-29445683D01*
X156275084Y-29446847D01*
X156270857Y-29448643D01*
X156270846Y-29448647D01*
X156027588Y-29552020D01*
X156027576Y-29552025D01*
X156023357Y-29553819D01*
X156019436Y-29556211D01*
X156019430Y-29556215D01*
X155793819Y-29693903D01*
X155793809Y-29693909D01*
X155789888Y-29696303D01*
X155786361Y-29699237D01*
X155786350Y-29699246D01*
X155583187Y-29868320D01*
X155583179Y-29868327D01*
X155579653Y-29871262D01*
X155576584Y-29874686D01*
X155576581Y-29874690D01*
X155400211Y-30071530D01*
X155400201Y-30071542D01*
X155397133Y-30074967D01*
X155394592Y-30078806D01*
X155394587Y-30078814D01*
X155341764Y-30158655D01*
X155298347Y-30199010D01*
X155241282Y-30215047D01*
X155183199Y-30203217D01*
X155136953Y-30166139D01*
X155069526Y-30078819D01*
X154985329Y-29969780D01*
X154871069Y-29859619D01*
X154791735Y-29783131D01*
X154791732Y-29783129D01*
X154788426Y-29779941D01*
X154784686Y-29777265D01*
X154784681Y-29777261D01*
X154569730Y-29623477D01*
X154569728Y-29623475D01*
X154565981Y-29620795D01*
X154554694Y-29614992D01*
X154326829Y-29497838D01*
X154326824Y-29497836D01*
X154322734Y-29495733D01*
X154063870Y-29407421D01*
X154042296Y-29403436D01*
X153799436Y-29358577D01*
X153799428Y-29358576D01*
X153794907Y-29357741D01*
X153790316Y-29357573D01*
X153790305Y-29357572D01*
X153526179Y-29347920D01*
X153526176Y-29347920D01*
X153521576Y-29347752D01*
X153517008Y-29348254D01*
X153516996Y-29348255D01*
X153254277Y-29377162D01*
X153254265Y-29377164D01*
X153249704Y-29377666D01*
X153245261Y-29378827D01*
X153245253Y-29378829D01*
X152989539Y-29445682D01*
X152989535Y-29445683D01*
X152985084Y-29446847D01*
X152980857Y-29448643D01*
X152980846Y-29448647D01*
X152737588Y-29552020D01*
X152737576Y-29552025D01*
X152733357Y-29553819D01*
X152729436Y-29556211D01*
X152729430Y-29556215D01*
X152503819Y-29693903D01*
X152503809Y-29693909D01*
X152499888Y-29696303D01*
X152496361Y-29699237D01*
X152496350Y-29699246D01*
X152293187Y-29868320D01*
X152293179Y-29868327D01*
X152289653Y-29871262D01*
X152286584Y-29874686D01*
X152286581Y-29874690D01*
X152110211Y-30071530D01*
X152110201Y-30071542D01*
X152107133Y-30074967D01*
X152104593Y-30078805D01*
X152104590Y-30078810D01*
X151970831Y-30280988D01*
X151956217Y-30303077D01*
X151954268Y-30307234D01*
X151954261Y-30307247D01*
X151842077Y-30546560D01*
X151840123Y-30550729D01*
X151838801Y-30555122D01*
X151838796Y-30555136D01*
X151762651Y-30808232D01*
X151762649Y-30808240D01*
X151761324Y-30812645D01*
X151760653Y-30817201D01*
X151760652Y-30817208D01*
X151722171Y-31078681D01*
X151721500Y-31083243D01*
X151721500Y-31808288D01*
X151721666Y-31810558D01*
X151721667Y-31810581D01*
X151736130Y-32008188D01*
X151736131Y-32008197D01*
X151736467Y-32012783D01*
X151795937Y-32279753D01*
X151797581Y-32284053D01*
X151797582Y-32284054D01*
X151875123Y-32486793D01*
X151893645Y-32535219D01*
X151895897Y-32539231D01*
X151895900Y-32539238D01*
X152025253Y-32769721D01*
X152025257Y-32769727D01*
X152027507Y-32773736D01*
X152194671Y-32990220D01*
X152261133Y-33054298D01*
X152373584Y-33162715D01*
X152391574Y-33180059D01*
X152395314Y-33182735D01*
X152395318Y-33182738D01*
X152561873Y-33301898D01*
X152614019Y-33339205D01*
X152857266Y-33464267D01*
X153116130Y-33552579D01*
X153385093Y-33602259D01*
X153658424Y-33612248D01*
X153930296Y-33582334D01*
X154194916Y-33513153D01*
X154446643Y-33406181D01*
X154680112Y-33263697D01*
X154890347Y-33088738D01*
X155072867Y-32885033D01*
X155128233Y-32801346D01*
X155171651Y-32760990D01*
X155228716Y-32744952D01*
X155286799Y-32756781D01*
X155333046Y-32793860D01*
X155484671Y-32990220D01*
X155551133Y-33054298D01*
X155663584Y-33162715D01*
X155681574Y-33180059D01*
X155685314Y-33182735D01*
X155685318Y-33182738D01*
X155851873Y-33301898D01*
X155904019Y-33339205D01*
X156147266Y-33464267D01*
X156406130Y-33552579D01*
X156675093Y-33602259D01*
X156948424Y-33612248D01*
X156964269Y-33610504D01*
X157025202Y-33618900D01*
X157074901Y-33655144D01*
X157101520Y-33710598D01*
X157098713Y-33772046D01*
X157067151Y-33824842D01*
X156832400Y-34059595D01*
X156791522Y-34086909D01*
X156743304Y-34096500D01*
X153118768Y-34096500D01*
X153107584Y-34095972D01*
X153100092Y-34094298D01*
X153092166Y-34094547D01*
X153032002Y-34096438D01*
X153028044Y-34096500D01*
X153000144Y-34096500D01*
X152996219Y-34096995D01*
X152996198Y-34096997D01*
X152996124Y-34097007D01*
X152984313Y-34097936D01*
X152948035Y-34099076D01*
X152948027Y-34099077D01*
X152940111Y-34099326D01*
X152932497Y-34101537D01*
X152932495Y-34101538D01*
X152920649Y-34104979D01*
X152901303Y-34108986D01*
X152889060Y-34110533D01*
X152889058Y-34110533D01*
X152881203Y-34111526D01*
X152873843Y-34114439D01*
X152873838Y-34114441D01*
X152840093Y-34127801D01*
X152828871Y-34131643D01*
X152794018Y-34141769D01*
X152794013Y-34141770D01*
X152786407Y-34143981D01*
X152779587Y-34148013D01*
X152779585Y-34148015D01*
X152768963Y-34154297D01*
X152751214Y-34162991D01*
X152739760Y-34167526D01*
X152739752Y-34167529D01*
X152732383Y-34170448D01*
X152725968Y-34175107D01*
X152725967Y-34175109D01*
X152696613Y-34196435D01*
X152686699Y-34202947D01*
X152655460Y-34221423D01*
X152655458Y-34221424D01*
X152648638Y-34225458D01*
X152643039Y-34231055D01*
X152643032Y-34231062D01*
X152634308Y-34239786D01*
X152619287Y-34252615D01*
X152609307Y-34259866D01*
X152609298Y-34259873D01*
X152602893Y-34264528D01*
X152597845Y-34270628D01*
X152597836Y-34270638D01*
X152574700Y-34298604D01*
X152566713Y-34307381D01*
X149287277Y-37586817D01*
X149226584Y-37620479D01*
X149157273Y-37616896D01*
X149141883Y-37611613D01*
X149141881Y-37611612D01*
X149136951Y-37609920D01*
X149131814Y-37609062D01*
X149131811Y-37609062D01*
X148911849Y-37572357D01*
X148911846Y-37572356D01*
X148906712Y-37571500D01*
X148673288Y-37571500D01*
X148668154Y-37572356D01*
X148668150Y-37572357D01*
X148448188Y-37609062D01*
X148448182Y-37609063D01*
X148443049Y-37609920D01*
X148438127Y-37611609D01*
X148438118Y-37611612D01*
X148227205Y-37684019D01*
X148227196Y-37684022D01*
X148222273Y-37685713D01*
X148217694Y-37688190D01*
X148217687Y-37688194D01*
X148021564Y-37794330D01*
X148021556Y-37794335D01*
X148016983Y-37796810D01*
X147850485Y-37926402D01*
X147850274Y-37926566D01*
X147796999Y-37950805D01*
X147738521Y-37948358D01*
X147687457Y-37919754D01*
X147654827Y-37871165D01*
X147644039Y-37842239D01*
X147644036Y-37842233D01*
X147640889Y-37833796D01*
X147621926Y-37808465D01*
X147558659Y-37723950D01*
X147553261Y-37716739D01*
X147515743Y-37688653D01*
X147443417Y-37634510D01*
X147443414Y-37634508D01*
X147436204Y-37629111D01*
X147427766Y-37625964D01*
X147427763Y-37625962D01*
X147306580Y-37580763D01*
X147306578Y-37580762D01*
X147299201Y-37578011D01*
X147291373Y-37577169D01*
X147291367Y-37577168D01*
X147241988Y-37571860D01*
X147241985Y-37571859D01*
X147238638Y-37571500D01*
X145341362Y-37571500D01*
X145338015Y-37571859D01*
X145338011Y-37571860D01*
X145288632Y-37577168D01*
X145288625Y-37577169D01*
X145280799Y-37578011D01*
X145273423Y-37580761D01*
X145273419Y-37580763D01*
X145152236Y-37625962D01*
X145152230Y-37625965D01*
X145143796Y-37629111D01*
X145136588Y-37634506D01*
X145136582Y-37634510D01*
X145033950Y-37711340D01*
X145033946Y-37711343D01*
X145026739Y-37716739D01*
X145021343Y-37723946D01*
X145021340Y-37723950D01*
X144944510Y-37826582D01*
X144944506Y-37826588D01*
X144939111Y-37833796D01*
X144935965Y-37842230D01*
X144935962Y-37842236D01*
X144890763Y-37963419D01*
X144890761Y-37963423D01*
X144888011Y-37970799D01*
X144887169Y-37978625D01*
X144887168Y-37978632D01*
X144882244Y-38024439D01*
X144881500Y-38031362D01*
X144881500Y-39928638D01*
X144881859Y-39931981D01*
X144882035Y-39935258D01*
X144867514Y-40001066D01*
X144821153Y-40049978D01*
X144756216Y-40068000D01*
X139559438Y-40068000D01*
X139503165Y-40054736D01*
X139458740Y-40017736D01*
X139435516Y-39964791D01*
X139438383Y-39907048D01*
X139466736Y-39856663D01*
X139471388Y-39851608D01*
X139477771Y-39843408D01*
X139599690Y-39656796D01*
X139604637Y-39647655D01*
X139694181Y-39443516D01*
X139697554Y-39433691D01*
X139752275Y-39217602D01*
X139753987Y-39207348D01*
X139772396Y-38985189D01*
X139772396Y-38974811D01*
X139753987Y-38752651D01*
X139752275Y-38742397D01*
X139697554Y-38526308D01*
X139694181Y-38516483D01*
X139604637Y-38312344D01*
X139599690Y-38303203D01*
X139526890Y-38191773D01*
X139518796Y-38183926D01*
X139509262Y-38189947D01*
X138449094Y-39250115D01*
X138392610Y-39282727D01*
X138327388Y-39282727D01*
X138270904Y-39250115D01*
X137210736Y-38189947D01*
X137201156Y-38183897D01*
X137154414Y-38212530D01*
X137099688Y-38218526D01*
X137047629Y-38200615D01*
X137008177Y-38162218D01*
X136992722Y-38138562D01*
X136975314Y-38111917D01*
X136895367Y-38025072D01*
X136820752Y-37944018D01*
X136820747Y-37944013D01*
X136817220Y-37940182D01*
X136691380Y-37842236D01*
X136662600Y-37819835D01*
X137564581Y-37819835D01*
X137571349Y-37832138D01*
X138348270Y-38609059D01*
X138359999Y-38615831D01*
X138371730Y-38609058D01*
X139148650Y-37832137D01*
X139155417Y-37819836D01*
X139147179Y-37808465D01*
X139136856Y-37800430D01*
X139128161Y-37794749D01*
X138932111Y-37688653D01*
X138922594Y-37684478D01*
X138711758Y-37612098D01*
X138701688Y-37609548D01*
X138481807Y-37572857D01*
X138471459Y-37572000D01*
X138248541Y-37572000D01*
X138238192Y-37572857D01*
X138018311Y-37609548D01*
X138008241Y-37612098D01*
X137797405Y-37684478D01*
X137787888Y-37688653D01*
X137591835Y-37794751D01*
X137583150Y-37800425D01*
X137572817Y-37808467D01*
X137564581Y-37819835D01*
X136662600Y-37819835D01*
X136637130Y-37800011D01*
X136637127Y-37800009D01*
X136633017Y-37796810D01*
X136628438Y-37794332D01*
X136628435Y-37794330D01*
X136432312Y-37688194D01*
X136432309Y-37688192D01*
X136427727Y-37685713D01*
X136422799Y-37684021D01*
X136422794Y-37684019D01*
X136211881Y-37611612D01*
X136211875Y-37611610D01*
X136206951Y-37609920D01*
X136201814Y-37609062D01*
X136201811Y-37609062D01*
X135981849Y-37572357D01*
X135981846Y-37572356D01*
X135976712Y-37571500D01*
X135743288Y-37571500D01*
X135738154Y-37572356D01*
X135738150Y-37572357D01*
X135518188Y-37609062D01*
X135518182Y-37609063D01*
X135513049Y-37609920D01*
X135508127Y-37611609D01*
X135508118Y-37611612D01*
X135297205Y-37684019D01*
X135297196Y-37684022D01*
X135292273Y-37685713D01*
X135287694Y-37688190D01*
X135287687Y-37688194D01*
X135091564Y-37794330D01*
X135091556Y-37794335D01*
X135086983Y-37796810D01*
X134920485Y-37926402D01*
X134920274Y-37926566D01*
X134866999Y-37950805D01*
X134808521Y-37948358D01*
X134757457Y-37919754D01*
X134724827Y-37871165D01*
X134714039Y-37842239D01*
X134714036Y-37842233D01*
X134710889Y-37833796D01*
X134691926Y-37808465D01*
X134628659Y-37723950D01*
X134623261Y-37716739D01*
X134585743Y-37688653D01*
X134513417Y-37634510D01*
X134513414Y-37634508D01*
X134506204Y-37629111D01*
X134497766Y-37625964D01*
X134497763Y-37625962D01*
X134376580Y-37580763D01*
X134376578Y-37580762D01*
X134369201Y-37578011D01*
X134361373Y-37577169D01*
X134361367Y-37577168D01*
X134311988Y-37571860D01*
X134311985Y-37571859D01*
X134308638Y-37571500D01*
X132411362Y-37571500D01*
X132408015Y-37571859D01*
X132408011Y-37571860D01*
X132358632Y-37577168D01*
X132358625Y-37577169D01*
X132350799Y-37578011D01*
X132343423Y-37580761D01*
X132343419Y-37580763D01*
X132222236Y-37625962D01*
X132222230Y-37625965D01*
X132213796Y-37629111D01*
X132206588Y-37634506D01*
X132206582Y-37634510D01*
X132103950Y-37711340D01*
X132103946Y-37711343D01*
X132096739Y-37716739D01*
X132091343Y-37723946D01*
X132091340Y-37723950D01*
X132014510Y-37826582D01*
X132014506Y-37826588D01*
X132009111Y-37833796D01*
X132005965Y-37842230D01*
X132005962Y-37842236D01*
X131960763Y-37963419D01*
X131960761Y-37963423D01*
X131958011Y-37970799D01*
X131957169Y-37978625D01*
X131957168Y-37978632D01*
X131952244Y-38024439D01*
X131951500Y-38031362D01*
X131951500Y-39928638D01*
X131951859Y-39931985D01*
X131951860Y-39931988D01*
X131957168Y-39981367D01*
X131957169Y-39981373D01*
X131958011Y-39989201D01*
X131960762Y-39996578D01*
X131960763Y-39996580D01*
X132005962Y-40117763D01*
X132005963Y-40117764D01*
X132009111Y-40126204D01*
X132014508Y-40133414D01*
X132014510Y-40133417D01*
X132091340Y-40236049D01*
X132096739Y-40243261D01*
X132195997Y-40317565D01*
X132198091Y-40319132D01*
X132237196Y-40367658D01*
X132248261Y-40428989D01*
X132228580Y-40488121D01*
X132182967Y-40530588D01*
X132122582Y-40546000D01*
X125979793Y-40546000D01*
X125912631Y-40526608D01*
X125866142Y-40474401D01*
X125854636Y-40405449D01*
X125881654Y-40340976D01*
X125938881Y-40300827D01*
X126012594Y-40275521D01*
X126022111Y-40271346D01*
X126218159Y-40165251D01*
X126226855Y-40159569D01*
X126237181Y-40151532D01*
X126245417Y-40140162D01*
X126238651Y-40127862D01*
X125461730Y-39350940D01*
X125449999Y-39344167D01*
X125438270Y-39350939D01*
X124661350Y-40127859D01*
X124654581Y-40140163D01*
X124662817Y-40151531D01*
X124673147Y-40159572D01*
X124681836Y-40165249D01*
X124877888Y-40271346D01*
X124887405Y-40275521D01*
X124961119Y-40300827D01*
X125018346Y-40340976D01*
X125045364Y-40405449D01*
X125033858Y-40474401D01*
X124987369Y-40526608D01*
X124920207Y-40546000D01*
X123481331Y-40546000D01*
X123414169Y-40526608D01*
X123367680Y-40474401D01*
X123356174Y-40405449D01*
X123383192Y-40340976D01*
X123440419Y-40300827D01*
X123512795Y-40275980D01*
X123512793Y-40275980D01*
X123517727Y-40274287D01*
X123723017Y-40163190D01*
X123907220Y-40019818D01*
X124065314Y-39848083D01*
X124098181Y-39797775D01*
X124137631Y-39759382D01*
X124189692Y-39741472D01*
X124244419Y-39747469D01*
X124291156Y-39776101D01*
X124300735Y-39770052D01*
X125090790Y-38979999D01*
X125814167Y-38979999D01*
X125820940Y-38991730D01*
X126599263Y-39770052D01*
X126608797Y-39776072D01*
X126616888Y-39768228D01*
X126689693Y-39656792D01*
X126694636Y-39647657D01*
X126784181Y-39443516D01*
X126787554Y-39433691D01*
X126842275Y-39217602D01*
X126843987Y-39207348D01*
X126862396Y-38985189D01*
X126862396Y-38974811D01*
X126843987Y-38752651D01*
X126842275Y-38742397D01*
X126787554Y-38526308D01*
X126784181Y-38516483D01*
X126694637Y-38312344D01*
X126689690Y-38303203D01*
X126616890Y-38191773D01*
X126608796Y-38183926D01*
X126599262Y-38189947D01*
X125820939Y-38968270D01*
X125814167Y-38979999D01*
X125090790Y-38979999D01*
X125450000Y-38620790D01*
X125450000Y-38620791D01*
X125450001Y-38620790D01*
X125450000Y-38620790D01*
X126238650Y-37832137D01*
X126245417Y-37819836D01*
X126237179Y-37808465D01*
X126226856Y-37800430D01*
X126218161Y-37794749D01*
X126022111Y-37688653D01*
X126012594Y-37684478D01*
X125801758Y-37612098D01*
X125791688Y-37609548D01*
X125571807Y-37572857D01*
X125561459Y-37572000D01*
X125558095Y-37572000D01*
X125556322Y-37571574D01*
X125556268Y-37571570D01*
X125556268Y-37571561D01*
X125500892Y-37558267D01*
X125456159Y-37520061D01*
X125433646Y-37465711D01*
X125438262Y-37407064D01*
X125469000Y-37356905D01*
X125523000Y-37302905D01*
X125563877Y-37275591D01*
X125612095Y-37266000D01*
X130180333Y-37266000D01*
X130191516Y-37266527D01*
X130199009Y-37268202D01*
X130267085Y-37266062D01*
X130271045Y-37266000D01*
X130294994Y-37266000D01*
X130298956Y-37266000D01*
X130302956Y-37265494D01*
X130314799Y-37264561D01*
X130358989Y-37263173D01*
X130378433Y-37257523D01*
X130397802Y-37253512D01*
X130417897Y-37250974D01*
X130459015Y-37234693D01*
X130470217Y-37230857D01*
X130512693Y-37218518D01*
X130530139Y-37208199D01*
X130547869Y-37199513D01*
X130566717Y-37192052D01*
X130602487Y-37166061D01*
X130612398Y-37159551D01*
X130650462Y-37137042D01*
X130664788Y-37122715D01*
X130679817Y-37109878D01*
X130696207Y-37097972D01*
X130724394Y-37063897D01*
X130732372Y-37055130D01*
X135979215Y-31808288D01*
X138791500Y-31808288D01*
X138791666Y-31810558D01*
X138791667Y-31810581D01*
X138806130Y-32008188D01*
X138806131Y-32008197D01*
X138806467Y-32012783D01*
X138865937Y-32279753D01*
X138867581Y-32284053D01*
X138867582Y-32284054D01*
X138945123Y-32486793D01*
X138963645Y-32535219D01*
X138965897Y-32539231D01*
X138965900Y-32539238D01*
X139095253Y-32769721D01*
X139095257Y-32769727D01*
X139097507Y-32773736D01*
X139264671Y-32990220D01*
X139331133Y-33054298D01*
X139443584Y-33162715D01*
X139461574Y-33180059D01*
X139465314Y-33182735D01*
X139465318Y-33182738D01*
X139631873Y-33301898D01*
X139684019Y-33339205D01*
X139927266Y-33464267D01*
X140186130Y-33552579D01*
X140455093Y-33602259D01*
X140728424Y-33612248D01*
X141000296Y-33582334D01*
X141264916Y-33513153D01*
X141516643Y-33406181D01*
X141750112Y-33263697D01*
X141960347Y-33088738D01*
X142142867Y-32885033D01*
X142217120Y-32772798D01*
X142262553Y-32731335D01*
X142322201Y-32716320D01*
X142381849Y-32731331D01*
X142426652Y-32772214D01*
X142427507Y-32773736D01*
X142594671Y-32990220D01*
X142661133Y-33054298D01*
X142773584Y-33162715D01*
X142791574Y-33180059D01*
X142795314Y-33182735D01*
X142795318Y-33182738D01*
X142961873Y-33301898D01*
X143014019Y-33339205D01*
X143257266Y-33464267D01*
X143516130Y-33552579D01*
X143785093Y-33602259D01*
X144058424Y-33612248D01*
X144330296Y-33582334D01*
X144594916Y-33513153D01*
X144846643Y-33406181D01*
X145080112Y-33263697D01*
X145290347Y-33088738D01*
X145472867Y-32885033D01*
X145623783Y-32656923D01*
X145739877Y-32409271D01*
X145818676Y-32147355D01*
X145858500Y-31876757D01*
X145858500Y-31151712D01*
X145843533Y-30947217D01*
X145784063Y-30680247D01*
X145686355Y-30424781D01*
X145576290Y-30228665D01*
X145554746Y-30190278D01*
X145554744Y-30190275D01*
X145552493Y-30186264D01*
X145385329Y-29969780D01*
X145271069Y-29859619D01*
X145191735Y-29783131D01*
X145191732Y-29783129D01*
X145188426Y-29779941D01*
X145184686Y-29777265D01*
X145184681Y-29777261D01*
X144969730Y-29623477D01*
X144969728Y-29623475D01*
X144965981Y-29620795D01*
X144954694Y-29614992D01*
X144726829Y-29497838D01*
X144726824Y-29497836D01*
X144722734Y-29495733D01*
X144463870Y-29407421D01*
X144442296Y-29403436D01*
X144199436Y-29358577D01*
X144199428Y-29358576D01*
X144194907Y-29357741D01*
X144190316Y-29357573D01*
X144190305Y-29357572D01*
X143926179Y-29347920D01*
X143926176Y-29347920D01*
X143921576Y-29347752D01*
X143917008Y-29348254D01*
X143916996Y-29348255D01*
X143654277Y-29377162D01*
X143654265Y-29377164D01*
X143649704Y-29377666D01*
X143645261Y-29378827D01*
X143645253Y-29378829D01*
X143389539Y-29445682D01*
X143389535Y-29445683D01*
X143385084Y-29446847D01*
X143380857Y-29448643D01*
X143380846Y-29448647D01*
X143137588Y-29552020D01*
X143137576Y-29552025D01*
X143133357Y-29553819D01*
X143129436Y-29556211D01*
X143129430Y-29556215D01*
X142903819Y-29693903D01*
X142903809Y-29693909D01*
X142899888Y-29696303D01*
X142896361Y-29699237D01*
X142896350Y-29699246D01*
X142693187Y-29868320D01*
X142693179Y-29868327D01*
X142689653Y-29871262D01*
X142686584Y-29874686D01*
X142686581Y-29874690D01*
X142510211Y-30071530D01*
X142510201Y-30071542D01*
X142507133Y-30074967D01*
X142504595Y-30078802D01*
X142504582Y-30078820D01*
X142432877Y-30187202D01*
X142387444Y-30228665D01*
X142327796Y-30243679D01*
X142268147Y-30228667D01*
X142223344Y-30187781D01*
X142222493Y-30186264D01*
X142055329Y-29969780D01*
X141941069Y-29859619D01*
X141861735Y-29783131D01*
X141861732Y-29783129D01*
X141858426Y-29779941D01*
X141854686Y-29777265D01*
X141854681Y-29777261D01*
X141639730Y-29623477D01*
X141639728Y-29623475D01*
X141635981Y-29620795D01*
X141624694Y-29614992D01*
X141396829Y-29497838D01*
X141396824Y-29497836D01*
X141392734Y-29495733D01*
X141133870Y-29407421D01*
X141112296Y-29403436D01*
X140869436Y-29358577D01*
X140869428Y-29358576D01*
X140864907Y-29357741D01*
X140860316Y-29357573D01*
X140860305Y-29357572D01*
X140596179Y-29347920D01*
X140596176Y-29347920D01*
X140591576Y-29347752D01*
X140587008Y-29348254D01*
X140586996Y-29348255D01*
X140324277Y-29377162D01*
X140324265Y-29377164D01*
X140319704Y-29377666D01*
X140315261Y-29378827D01*
X140315253Y-29378829D01*
X140059539Y-29445682D01*
X140059535Y-29445683D01*
X140055084Y-29446847D01*
X140050857Y-29448643D01*
X140050846Y-29448647D01*
X139807588Y-29552020D01*
X139807576Y-29552025D01*
X139803357Y-29553819D01*
X139799436Y-29556211D01*
X139799430Y-29556215D01*
X139573819Y-29693903D01*
X139573809Y-29693909D01*
X139569888Y-29696303D01*
X139566361Y-29699237D01*
X139566350Y-29699246D01*
X139363187Y-29868320D01*
X139363179Y-29868327D01*
X139359653Y-29871262D01*
X139356584Y-29874686D01*
X139356581Y-29874690D01*
X139180211Y-30071530D01*
X139180201Y-30071542D01*
X139177133Y-30074967D01*
X139174593Y-30078805D01*
X139174590Y-30078810D01*
X139040831Y-30280988D01*
X139026217Y-30303077D01*
X139024268Y-30307234D01*
X139024261Y-30307247D01*
X138912077Y-30546560D01*
X138910123Y-30550729D01*
X138908801Y-30555122D01*
X138908796Y-30555136D01*
X138832651Y-30808232D01*
X138832649Y-30808240D01*
X138831324Y-30812645D01*
X138830653Y-30817201D01*
X138830652Y-30817208D01*
X138792171Y-31078681D01*
X138791500Y-31083243D01*
X138791500Y-31808288D01*
X135979215Y-31808288D01*
X139597099Y-28190405D01*
X139637977Y-28163091D01*
X139686195Y-28153500D01*
X162434305Y-28153500D01*
X162491508Y-28167233D01*
G37*
%TD.AperFunction*%
%TA.AperFunction,Conductor*%
G36*
X165812335Y-29256947D02*
G01*
X165858754Y-29306887D01*
X165872361Y-29373697D01*
X165849171Y-29437814D01*
X165795976Y-29480464D01*
X165627588Y-29552020D01*
X165627576Y-29552025D01*
X165623357Y-29553819D01*
X165619436Y-29556211D01*
X165619430Y-29556215D01*
X165393819Y-29693903D01*
X165393809Y-29693909D01*
X165389888Y-29696303D01*
X165386361Y-29699237D01*
X165386350Y-29699246D01*
X165183187Y-29868320D01*
X165183179Y-29868327D01*
X165179653Y-29871262D01*
X165176584Y-29874686D01*
X165176581Y-29874690D01*
X165000211Y-30071530D01*
X165000201Y-30071542D01*
X164997133Y-30074967D01*
X164994593Y-30078805D01*
X164994590Y-30078810D01*
X164860831Y-30280988D01*
X164846217Y-30303077D01*
X164844268Y-30307234D01*
X164844261Y-30307247D01*
X164732077Y-30546560D01*
X164730123Y-30550729D01*
X164728801Y-30555122D01*
X164728796Y-30555136D01*
X164652651Y-30808232D01*
X164652649Y-30808240D01*
X164651324Y-30812645D01*
X164650653Y-30817201D01*
X164650652Y-30817208D01*
X164612171Y-31078681D01*
X164611500Y-31083243D01*
X164611500Y-31808288D01*
X164611666Y-31810558D01*
X164611667Y-31810581D01*
X164626130Y-32008188D01*
X164626131Y-32008197D01*
X164626467Y-32012783D01*
X164685937Y-32279753D01*
X164687581Y-32284053D01*
X164687582Y-32284054D01*
X164765123Y-32486793D01*
X164783645Y-32535219D01*
X164785897Y-32539231D01*
X164785900Y-32539238D01*
X164915253Y-32769721D01*
X164915257Y-32769727D01*
X164917507Y-32773736D01*
X165084671Y-32990220D01*
X165151133Y-33054298D01*
X165263584Y-33162715D01*
X165281574Y-33180059D01*
X165285314Y-33182735D01*
X165285318Y-33182738D01*
X165451873Y-33301898D01*
X165504019Y-33339205D01*
X165747266Y-33464267D01*
X166006130Y-33552579D01*
X166275093Y-33602259D01*
X166548424Y-33612248D01*
X166820296Y-33582334D01*
X167084916Y-33513153D01*
X167336643Y-33406181D01*
X167570112Y-33263697D01*
X167780347Y-33088738D01*
X167962867Y-32885033D01*
X168022848Y-32794370D01*
X168066265Y-32754015D01*
X168123330Y-32737977D01*
X168181413Y-32749806D01*
X168227660Y-32786885D01*
X168253994Y-32820988D01*
X168384671Y-32990220D01*
X168451133Y-33054298D01*
X168563584Y-33162715D01*
X168581574Y-33180059D01*
X168585314Y-33182735D01*
X168585318Y-33182738D01*
X168751873Y-33301898D01*
X168804019Y-33339205D01*
X169047266Y-33464267D01*
X169306130Y-33552579D01*
X169575093Y-33602259D01*
X169848424Y-33612248D01*
X170120296Y-33582334D01*
X170384916Y-33513153D01*
X170636643Y-33406181D01*
X170870112Y-33263697D01*
X171080347Y-33088738D01*
X171262867Y-32885033D01*
X171413783Y-32656923D01*
X171529877Y-32409271D01*
X171608676Y-32147355D01*
X171648500Y-31876757D01*
X171648500Y-31151712D01*
X171633533Y-30947217D01*
X171574063Y-30680247D01*
X171476355Y-30424781D01*
X171366290Y-30228665D01*
X171344746Y-30190278D01*
X171344744Y-30190275D01*
X171342493Y-30186264D01*
X171175329Y-29969780D01*
X171061069Y-29859619D01*
X170981735Y-29783131D01*
X170981732Y-29783129D01*
X170978426Y-29779941D01*
X170974686Y-29777265D01*
X170974681Y-29777261D01*
X170759730Y-29623477D01*
X170759728Y-29623475D01*
X170755981Y-29620795D01*
X170744694Y-29614992D01*
X170516829Y-29497838D01*
X170516824Y-29497836D01*
X170512734Y-29495733D01*
X170508382Y-29494248D01*
X170508372Y-29494244D01*
X170477612Y-29483751D01*
X170420278Y-29443675D01*
X170393155Y-29379195D01*
X170404602Y-29310186D01*
X170451092Y-29257918D01*
X170518295Y-29238500D01*
X178646697Y-29238500D01*
X178712335Y-29256947D01*
X178758754Y-29306887D01*
X178772361Y-29373697D01*
X178749171Y-29437814D01*
X178695976Y-29480464D01*
X178527588Y-29552020D01*
X178527576Y-29552025D01*
X178523357Y-29553819D01*
X178519436Y-29556211D01*
X178519430Y-29556215D01*
X178293819Y-29693903D01*
X178293809Y-29693909D01*
X178289888Y-29696303D01*
X178286361Y-29699237D01*
X178286350Y-29699246D01*
X178083187Y-29868320D01*
X178083179Y-29868327D01*
X178079653Y-29871262D01*
X178076584Y-29874686D01*
X178076581Y-29874690D01*
X177900211Y-30071530D01*
X177900201Y-30071542D01*
X177897133Y-30074967D01*
X177894593Y-30078805D01*
X177894590Y-30078810D01*
X177760831Y-30280988D01*
X177746217Y-30303077D01*
X177744268Y-30307234D01*
X177744261Y-30307247D01*
X177632077Y-30546560D01*
X177630123Y-30550729D01*
X177628801Y-30555122D01*
X177628796Y-30555136D01*
X177552651Y-30808232D01*
X177552649Y-30808240D01*
X177551324Y-30812645D01*
X177550653Y-30817201D01*
X177550652Y-30817208D01*
X177512171Y-31078681D01*
X177511500Y-31083243D01*
X177511500Y-31808288D01*
X177511666Y-31810558D01*
X177511667Y-31810581D01*
X177526130Y-32008188D01*
X177526131Y-32008197D01*
X177526467Y-32012783D01*
X177585937Y-32279753D01*
X177587581Y-32284053D01*
X177587582Y-32284054D01*
X177665123Y-32486793D01*
X177683645Y-32535219D01*
X177685897Y-32539231D01*
X177685900Y-32539238D01*
X177815253Y-32769721D01*
X177815257Y-32769727D01*
X177817507Y-32773736D01*
X177984671Y-32990220D01*
X178051133Y-33054298D01*
X178163584Y-33162715D01*
X178181574Y-33180059D01*
X178185314Y-33182735D01*
X178185318Y-33182738D01*
X178351873Y-33301898D01*
X178404019Y-33339205D01*
X178647266Y-33464267D01*
X178906130Y-33552579D01*
X179175093Y-33602259D01*
X179448424Y-33612248D01*
X179720296Y-33582334D01*
X179984916Y-33513153D01*
X180236643Y-33406181D01*
X180470112Y-33263697D01*
X180680347Y-33088738D01*
X180862867Y-32885033D01*
X180932121Y-32780354D01*
X180977546Y-32738896D01*
X181037184Y-32723877D01*
X181096828Y-32738876D01*
X181136175Y-32774764D01*
X181137507Y-32773736D01*
X181304671Y-32990220D01*
X181371133Y-33054298D01*
X181483584Y-33162715D01*
X181501574Y-33180059D01*
X181505314Y-33182735D01*
X181505318Y-33182738D01*
X181671873Y-33301898D01*
X181724019Y-33339205D01*
X181967266Y-33464267D01*
X182226130Y-33552579D01*
X182464906Y-33596683D01*
X182525671Y-33626362D01*
X182562339Y-33683185D01*
X182564346Y-33750783D01*
X182531113Y-33809681D01*
X180421200Y-35919595D01*
X180380323Y-35946909D01*
X180332105Y-35956500D01*
X177048763Y-35956500D01*
X177037579Y-35955972D01*
X177030091Y-35954299D01*
X177022176Y-35954547D01*
X177022168Y-35954547D01*
X176962033Y-35956438D01*
X176958075Y-35956500D01*
X176930144Y-35956500D01*
X176926232Y-35956993D01*
X176926199Y-35956996D01*
X176926101Y-35957009D01*
X176914300Y-35957937D01*
X176878030Y-35959077D01*
X176878022Y-35959078D01*
X176870110Y-35959327D01*
X176862504Y-35961536D01*
X176862501Y-35961537D01*
X176850655Y-35964979D01*
X176831306Y-35968986D01*
X176824234Y-35969879D01*
X176811203Y-35971526D01*
X176803844Y-35974439D01*
X176803834Y-35974442D01*
X176770082Y-35987805D01*
X176758860Y-35991647D01*
X176724014Y-36001771D01*
X176724010Y-36001772D01*
X176716406Y-36003982D01*
X176709585Y-36008015D01*
X176709582Y-36008017D01*
X176698968Y-36014294D01*
X176681218Y-36022990D01*
X176669756Y-36027528D01*
X176669751Y-36027530D01*
X176662383Y-36030448D01*
X176655974Y-36035104D01*
X176655969Y-36035107D01*
X176626615Y-36056434D01*
X176616697Y-36062948D01*
X176585464Y-36081419D01*
X176585456Y-36081425D01*
X176578637Y-36085458D01*
X176573035Y-36091058D01*
X176573028Y-36091065D01*
X176564304Y-36099789D01*
X176549282Y-36112618D01*
X176539311Y-36119863D01*
X176539302Y-36119871D01*
X176532893Y-36124528D01*
X176527846Y-36130628D01*
X176527838Y-36130636D01*
X176504710Y-36158593D01*
X176496723Y-36167370D01*
X175077276Y-37586817D01*
X175016581Y-37620480D01*
X174947268Y-37616895D01*
X174931876Y-37611610D01*
X174931867Y-37611607D01*
X174926951Y-37609920D01*
X174859629Y-37598686D01*
X174701849Y-37572357D01*
X174701846Y-37572356D01*
X174696712Y-37571500D01*
X174463288Y-37571500D01*
X174458154Y-37572356D01*
X174458150Y-37572357D01*
X174238188Y-37609062D01*
X174238182Y-37609063D01*
X174233049Y-37609920D01*
X174228129Y-37611608D01*
X174228117Y-37611612D01*
X174106234Y-37653455D01*
X174048135Y-37659104D01*
X173993726Y-37637964D01*
X173954682Y-37594572D01*
X173939384Y-37538240D01*
X173939187Y-37531985D01*
X173938073Y-37496524D01*
X173938011Y-37492566D01*
X173938011Y-37468619D01*
X173938011Y-37464655D01*
X173937505Y-37460658D01*
X173936572Y-37448808D01*
X173935184Y-37404622D01*
X173929531Y-37385168D01*
X173925523Y-37365809D01*
X173922985Y-37345714D01*
X173920067Y-37338344D01*
X173920066Y-37338340D01*
X173906707Y-37304600D01*
X173902861Y-37293366D01*
X173892741Y-37258531D01*
X173892740Y-37258529D01*
X173890529Y-37250918D01*
X173880219Y-37233484D01*
X173871518Y-37215724D01*
X173871241Y-37215024D01*
X173864063Y-37196894D01*
X173838076Y-37161127D01*
X173831558Y-37151204D01*
X173813089Y-37119974D01*
X173809053Y-37113149D01*
X173794728Y-37098824D01*
X173781893Y-37083797D01*
X173769983Y-37067404D01*
X173763878Y-37062353D01*
X173763871Y-37062346D01*
X173735905Y-37039211D01*
X173727126Y-37031222D01*
X172883651Y-36187747D01*
X172876112Y-36179463D01*
X172872000Y-36172982D01*
X172822347Y-36126355D01*
X172819505Y-36123600D01*
X172802574Y-36106669D01*
X172802573Y-36106668D01*
X172799770Y-36103865D01*
X172796575Y-36101386D01*
X172787554Y-36093682D01*
X172779392Y-36086018D01*
X172755321Y-36063414D01*
X172748377Y-36059596D01*
X172748371Y-36059592D01*
X172737566Y-36053652D01*
X172721047Y-36042801D01*
X172705041Y-36030386D01*
X172697766Y-36027238D01*
X172697763Y-36027236D01*
X172664466Y-36012828D01*
X172653804Y-36007605D01*
X172622007Y-35990124D01*
X172622005Y-35990123D01*
X172615060Y-35986305D01*
X172607383Y-35984334D01*
X172607381Y-35984333D01*
X172595438Y-35981267D01*
X172576734Y-35974863D01*
X172565420Y-35969967D01*
X172565418Y-35969966D01*
X172558145Y-35966819D01*
X172550319Y-35965579D01*
X172550318Y-35965579D01*
X172514475Y-35959902D01*
X172502859Y-35957496D01*
X172460030Y-35946500D01*
X172452101Y-35946500D01*
X172439776Y-35946500D01*
X172420065Y-35944949D01*
X172407885Y-35943019D01*
X172407878Y-35943018D01*
X172400057Y-35941780D01*
X172392173Y-35942525D01*
X172392165Y-35942525D01*
X172356039Y-35945941D01*
X172344181Y-35946500D01*
X164158768Y-35946500D01*
X164147584Y-35945972D01*
X164140092Y-35944298D01*
X164132166Y-35944547D01*
X164072002Y-35946438D01*
X164068044Y-35946500D01*
X164040144Y-35946500D01*
X164036219Y-35946995D01*
X164036198Y-35946997D01*
X164036124Y-35947007D01*
X164024313Y-35947936D01*
X163988035Y-35949076D01*
X163988027Y-35949077D01*
X163980111Y-35949326D01*
X163972497Y-35951537D01*
X163972495Y-35951538D01*
X163960649Y-35954979D01*
X163941303Y-35958986D01*
X163929060Y-35960533D01*
X163929058Y-35960533D01*
X163921203Y-35961526D01*
X163913843Y-35964439D01*
X163913838Y-35964441D01*
X163880093Y-35977801D01*
X163868871Y-35981643D01*
X163834018Y-35991769D01*
X163834013Y-35991770D01*
X163826407Y-35993981D01*
X163819587Y-35998013D01*
X163819585Y-35998015D01*
X163808963Y-36004297D01*
X163791214Y-36012991D01*
X163779760Y-36017526D01*
X163779752Y-36017529D01*
X163772383Y-36020448D01*
X163765968Y-36025107D01*
X163765967Y-36025109D01*
X163736613Y-36046435D01*
X163726699Y-36052947D01*
X163695460Y-36071423D01*
X163695458Y-36071424D01*
X163688638Y-36075458D01*
X163683039Y-36081055D01*
X163683032Y-36081062D01*
X163674308Y-36089786D01*
X163659287Y-36102615D01*
X163649307Y-36109866D01*
X163649298Y-36109873D01*
X163642893Y-36114528D01*
X163637845Y-36120628D01*
X163637836Y-36120638D01*
X163614700Y-36148604D01*
X163606713Y-36157381D01*
X162177277Y-37586817D01*
X162116584Y-37620479D01*
X162047273Y-37616896D01*
X162031883Y-37611613D01*
X162031881Y-37611612D01*
X162026951Y-37609920D01*
X162021814Y-37609062D01*
X162021811Y-37609062D01*
X161801849Y-37572357D01*
X161801846Y-37572356D01*
X161796712Y-37571500D01*
X161563288Y-37571500D01*
X161558154Y-37572356D01*
X161558150Y-37572357D01*
X161338188Y-37609062D01*
X161338182Y-37609063D01*
X161333049Y-37609920D01*
X161328127Y-37611609D01*
X161328118Y-37611612D01*
X161117205Y-37684019D01*
X161117196Y-37684022D01*
X161112273Y-37685713D01*
X161107694Y-37688190D01*
X161107687Y-37688194D01*
X160911564Y-37794330D01*
X160911556Y-37794335D01*
X160906983Y-37796810D01*
X160740485Y-37926402D01*
X160740274Y-37926566D01*
X160686999Y-37950805D01*
X160628521Y-37948358D01*
X160577457Y-37919754D01*
X160544827Y-37871165D01*
X160534039Y-37842239D01*
X160534036Y-37842233D01*
X160530889Y-37833796D01*
X160511926Y-37808465D01*
X160448659Y-37723950D01*
X160443261Y-37716739D01*
X160405743Y-37688653D01*
X160333417Y-37634510D01*
X160333414Y-37634508D01*
X160326204Y-37629111D01*
X160317766Y-37625964D01*
X160317763Y-37625962D01*
X160196580Y-37580763D01*
X160196578Y-37580762D01*
X160189201Y-37578011D01*
X160181373Y-37577169D01*
X160181367Y-37577168D01*
X160131988Y-37571860D01*
X160131985Y-37571859D01*
X160128638Y-37571500D01*
X158231362Y-37571500D01*
X158228015Y-37571859D01*
X158228011Y-37571860D01*
X158178632Y-37577168D01*
X158178625Y-37577169D01*
X158170799Y-37578011D01*
X158163423Y-37580761D01*
X158163419Y-37580763D01*
X158042236Y-37625962D01*
X158042230Y-37625965D01*
X158033796Y-37629111D01*
X158026588Y-37634506D01*
X158026582Y-37634510D01*
X157923950Y-37711340D01*
X157923946Y-37711343D01*
X157916739Y-37716739D01*
X157911343Y-37723946D01*
X157911340Y-37723950D01*
X157834510Y-37826582D01*
X157834506Y-37826588D01*
X157829111Y-37833796D01*
X157825965Y-37842230D01*
X157825962Y-37842236D01*
X157780763Y-37963419D01*
X157780761Y-37963423D01*
X157778011Y-37970799D01*
X157777169Y-37978625D01*
X157777168Y-37978632D01*
X157772244Y-38024439D01*
X157771500Y-38031362D01*
X157771500Y-39928638D01*
X157771859Y-39931981D01*
X157772035Y-39935258D01*
X157757514Y-40001066D01*
X157711153Y-40049978D01*
X157646216Y-40068000D01*
X152489438Y-40068000D01*
X152433165Y-40054736D01*
X152388740Y-40017736D01*
X152365516Y-39964791D01*
X152368383Y-39907048D01*
X152396736Y-39856663D01*
X152401388Y-39851608D01*
X152407771Y-39843408D01*
X152529690Y-39656796D01*
X152534637Y-39647655D01*
X152624181Y-39443516D01*
X152627554Y-39433691D01*
X152682275Y-39217602D01*
X152683987Y-39207348D01*
X152702396Y-38985189D01*
X152702396Y-38974811D01*
X152683987Y-38752651D01*
X152682275Y-38742397D01*
X152627554Y-38526308D01*
X152624181Y-38516483D01*
X152534637Y-38312344D01*
X152529690Y-38303203D01*
X152456890Y-38191773D01*
X152448796Y-38183926D01*
X152439262Y-38189947D01*
X151379095Y-39250115D01*
X151322611Y-39282727D01*
X151257389Y-39282727D01*
X151200905Y-39250115D01*
X151019885Y-39069095D01*
X150987273Y-39012611D01*
X150987273Y-38947389D01*
X151019885Y-38890905D01*
X152078649Y-37832139D01*
X152085417Y-37819836D01*
X152077179Y-37808465D01*
X152066856Y-37800430D01*
X152058161Y-37794749D01*
X151862111Y-37688653D01*
X151852594Y-37684478D01*
X151641758Y-37612098D01*
X151631688Y-37609548D01*
X151411807Y-37572857D01*
X151401459Y-37572000D01*
X151398092Y-37572000D01*
X151396318Y-37571574D01*
X151396268Y-37571570D01*
X151396268Y-37571562D01*
X151340889Y-37558267D01*
X151296156Y-37520061D01*
X151273643Y-37465711D01*
X151278259Y-37407064D01*
X151308994Y-37356908D01*
X153265498Y-35400405D01*
X153306376Y-35373091D01*
X153354594Y-35363500D01*
X156979133Y-35363500D01*
X156990316Y-35364027D01*
X156997809Y-35365702D01*
X157065885Y-35363562D01*
X157069845Y-35363500D01*
X157093794Y-35363500D01*
X157097756Y-35363500D01*
X157101756Y-35362994D01*
X157113599Y-35362061D01*
X157157789Y-35360673D01*
X157177233Y-35355023D01*
X157196602Y-35351012D01*
X157216697Y-35348474D01*
X157257815Y-35332193D01*
X157269017Y-35328357D01*
X157311493Y-35316018D01*
X157328939Y-35305699D01*
X157346669Y-35297013D01*
X157365517Y-35289552D01*
X157401287Y-35263561D01*
X157411198Y-35257051D01*
X157449262Y-35234542D01*
X157463588Y-35220215D01*
X157478617Y-35207378D01*
X157495007Y-35195472D01*
X157523194Y-35161397D01*
X157531172Y-35152630D01*
X163408399Y-29275405D01*
X163449277Y-29248091D01*
X163497495Y-29238500D01*
X165746697Y-29238500D01*
X165812335Y-29256947D01*
G37*
%TD.AperFunction*%
%TA.AperFunction,Conductor*%
G36*
X138565209Y-27197233D02*
G01*
X138609942Y-27235439D01*
X138632455Y-27289789D01*
X138627839Y-27348436D01*
X138597101Y-27398594D01*
X134301195Y-31694500D01*
X130033600Y-35962095D01*
X129992723Y-35989409D01*
X129944505Y-35999000D01*
X125376263Y-35999000D01*
X125365079Y-35998472D01*
X125357591Y-35996799D01*
X125349676Y-35997047D01*
X125349668Y-35997047D01*
X125289533Y-35998938D01*
X125285575Y-35999000D01*
X125257644Y-35999000D01*
X125253732Y-35999493D01*
X125253699Y-35999496D01*
X125253601Y-35999509D01*
X125241800Y-36000437D01*
X125205530Y-36001577D01*
X125205522Y-36001578D01*
X125197610Y-36001827D01*
X125190004Y-36004036D01*
X125190001Y-36004037D01*
X125178155Y-36007479D01*
X125158806Y-36011486D01*
X125146562Y-36013033D01*
X125138703Y-36014026D01*
X125131341Y-36016940D01*
X125131332Y-36016943D01*
X125097597Y-36030300D01*
X125086370Y-36034145D01*
X125051512Y-36044272D01*
X125051508Y-36044273D01*
X125043907Y-36046482D01*
X125037093Y-36050511D01*
X125037085Y-36050515D01*
X125026461Y-36056798D01*
X125008720Y-36065489D01*
X124997259Y-36070027D01*
X124997255Y-36070028D01*
X124989883Y-36072948D01*
X124983467Y-36077609D01*
X124983464Y-36077611D01*
X124954125Y-36098927D01*
X124944207Y-36105443D01*
X124912959Y-36123923D01*
X124912956Y-36123925D01*
X124906137Y-36127958D01*
X124900536Y-36133557D01*
X124900529Y-36133564D01*
X124891804Y-36142289D01*
X124876782Y-36155118D01*
X124866811Y-36162363D01*
X124866802Y-36162371D01*
X124860393Y-36167028D01*
X124855346Y-36173128D01*
X124855338Y-36173136D01*
X124832210Y-36201093D01*
X124824223Y-36209870D01*
X123447276Y-37586817D01*
X123386581Y-37620480D01*
X123317268Y-37616895D01*
X123301876Y-37611610D01*
X123301867Y-37611607D01*
X123296951Y-37609920D01*
X123229629Y-37598686D01*
X123071849Y-37572357D01*
X123071846Y-37572356D01*
X123066712Y-37571500D01*
X122833288Y-37571500D01*
X122828154Y-37572356D01*
X122828150Y-37572357D01*
X122608188Y-37609062D01*
X122608182Y-37609063D01*
X122603049Y-37609920D01*
X122598127Y-37611609D01*
X122598118Y-37611612D01*
X122387205Y-37684019D01*
X122387196Y-37684022D01*
X122382273Y-37685713D01*
X122377694Y-37688190D01*
X122377687Y-37688194D01*
X122181564Y-37794330D01*
X122181556Y-37794335D01*
X122176983Y-37796810D01*
X122010485Y-37926402D01*
X122010274Y-37926566D01*
X121956999Y-37950805D01*
X121898521Y-37948358D01*
X121847457Y-37919754D01*
X121814827Y-37871165D01*
X121804039Y-37842239D01*
X121804036Y-37842233D01*
X121800889Y-37833796D01*
X121781926Y-37808465D01*
X121718659Y-37723950D01*
X121713261Y-37716739D01*
X121675743Y-37688653D01*
X121603417Y-37634510D01*
X121603414Y-37634508D01*
X121596204Y-37629111D01*
X121587766Y-37625964D01*
X121587763Y-37625962D01*
X121466580Y-37580763D01*
X121466578Y-37580762D01*
X121459201Y-37578011D01*
X121451373Y-37577169D01*
X121451367Y-37577168D01*
X121401988Y-37571860D01*
X121401985Y-37571859D01*
X121398638Y-37571500D01*
X119501362Y-37571500D01*
X119498015Y-37571859D01*
X119498011Y-37571860D01*
X119448632Y-37577168D01*
X119448625Y-37577169D01*
X119440799Y-37578011D01*
X119433423Y-37580761D01*
X119433419Y-37580763D01*
X119312236Y-37625962D01*
X119312230Y-37625965D01*
X119303796Y-37629111D01*
X119296588Y-37634506D01*
X119296582Y-37634510D01*
X119193950Y-37711340D01*
X119193946Y-37711343D01*
X119186739Y-37716739D01*
X119181343Y-37723946D01*
X119181340Y-37723950D01*
X119104510Y-37826582D01*
X119104506Y-37826588D01*
X119099111Y-37833796D01*
X119095965Y-37842230D01*
X119095962Y-37842236D01*
X119050763Y-37963419D01*
X119050761Y-37963423D01*
X119048011Y-37970799D01*
X119047169Y-37978625D01*
X119047168Y-37978632D01*
X119042244Y-38024439D01*
X119041500Y-38031362D01*
X119041500Y-38034731D01*
X119041500Y-39440405D01*
X119031909Y-39488623D01*
X119004595Y-39529500D01*
X118674500Y-39859595D01*
X118633623Y-39886909D01*
X118585405Y-39896500D01*
X113855912Y-39896500D01*
X113791414Y-39878741D01*
X113745098Y-39830469D01*
X113730020Y-39765293D01*
X113750429Y-39701584D01*
X113779693Y-39656790D01*
X113784637Y-39647655D01*
X113874181Y-39443516D01*
X113877554Y-39433691D01*
X113932275Y-39217602D01*
X113933987Y-39207348D01*
X113952396Y-38985189D01*
X113952396Y-38974811D01*
X113933987Y-38752651D01*
X113932275Y-38742397D01*
X113877554Y-38526308D01*
X113874181Y-38516483D01*
X113784637Y-38312344D01*
X113779690Y-38303203D01*
X113706890Y-38191773D01*
X113698796Y-38183926D01*
X113689262Y-38189947D01*
X112629095Y-39250115D01*
X112572611Y-39282727D01*
X112507389Y-39282727D01*
X112450905Y-39250115D01*
X112269885Y-39069095D01*
X112237273Y-39012611D01*
X112237273Y-38947389D01*
X112269885Y-38890905D01*
X113328649Y-37832139D01*
X113335417Y-37819836D01*
X113327179Y-37808465D01*
X113316856Y-37800430D01*
X113308161Y-37794749D01*
X113112111Y-37688653D01*
X113102594Y-37684478D01*
X112891758Y-37612098D01*
X112881688Y-37609548D01*
X112661807Y-37572857D01*
X112651459Y-37572000D01*
X112648092Y-37572000D01*
X112646318Y-37571574D01*
X112646268Y-37571570D01*
X112646268Y-37571562D01*
X112590889Y-37558267D01*
X112546156Y-37520061D01*
X112523643Y-37465711D01*
X112528259Y-37407064D01*
X112558994Y-37356908D01*
X115396598Y-34519305D01*
X115437476Y-34491991D01*
X115485694Y-34482400D01*
X120945233Y-34482400D01*
X120956416Y-34482927D01*
X120963909Y-34484602D01*
X121031985Y-34482462D01*
X121035945Y-34482400D01*
X121059894Y-34482400D01*
X121063856Y-34482400D01*
X121067856Y-34481894D01*
X121079699Y-34480961D01*
X121123889Y-34479573D01*
X121143333Y-34473923D01*
X121162702Y-34469912D01*
X121182797Y-34467374D01*
X121223915Y-34451093D01*
X121235117Y-34447257D01*
X121277593Y-34434918D01*
X121295039Y-34424599D01*
X121312769Y-34415913D01*
X121331617Y-34408452D01*
X121367387Y-34382461D01*
X121377298Y-34375951D01*
X121415362Y-34353442D01*
X121429688Y-34339115D01*
X121444717Y-34326278D01*
X121461107Y-34314372D01*
X121489294Y-34280297D01*
X121497272Y-34271530D01*
X123960514Y-31808288D01*
X125881500Y-31808288D01*
X125881666Y-31810558D01*
X125881667Y-31810581D01*
X125896130Y-32008188D01*
X125896131Y-32008197D01*
X125896467Y-32012783D01*
X125955937Y-32279753D01*
X125957581Y-32284053D01*
X125957582Y-32284054D01*
X126035123Y-32486793D01*
X126053645Y-32535219D01*
X126055897Y-32539231D01*
X126055900Y-32539238D01*
X126185253Y-32769721D01*
X126185257Y-32769727D01*
X126187507Y-32773736D01*
X126354671Y-32990220D01*
X126421133Y-33054298D01*
X126533584Y-33162715D01*
X126551574Y-33180059D01*
X126555314Y-33182735D01*
X126555318Y-33182738D01*
X126721873Y-33301898D01*
X126774019Y-33339205D01*
X127017266Y-33464267D01*
X127276130Y-33552579D01*
X127545093Y-33602259D01*
X127818424Y-33612248D01*
X128090296Y-33582334D01*
X128354916Y-33513153D01*
X128606643Y-33406181D01*
X128840112Y-33263697D01*
X129050347Y-33088738D01*
X129232867Y-32885033D01*
X129297462Y-32787396D01*
X129340880Y-32747040D01*
X129397945Y-32731002D01*
X129456028Y-32742831D01*
X129502271Y-32779906D01*
X129664671Y-32990220D01*
X129731133Y-33054298D01*
X129843584Y-33162715D01*
X129861574Y-33180059D01*
X129865314Y-33182735D01*
X129865318Y-33182738D01*
X130031873Y-33301898D01*
X130084019Y-33339205D01*
X130327266Y-33464267D01*
X130586130Y-33552579D01*
X130855093Y-33602259D01*
X131128424Y-33612248D01*
X131400296Y-33582334D01*
X131664916Y-33513153D01*
X131916643Y-33406181D01*
X132150112Y-33263697D01*
X132360347Y-33088738D01*
X132542867Y-32885033D01*
X132693783Y-32656923D01*
X132809877Y-32409271D01*
X132888676Y-32147355D01*
X132928500Y-31876757D01*
X132928500Y-31151712D01*
X132913533Y-30947217D01*
X132854063Y-30680247D01*
X132756355Y-30424781D01*
X132646290Y-30228665D01*
X132624746Y-30190278D01*
X132624744Y-30190275D01*
X132622493Y-30186264D01*
X132455329Y-29969780D01*
X132341069Y-29859619D01*
X132261735Y-29783131D01*
X132261732Y-29783129D01*
X132258426Y-29779941D01*
X132254686Y-29777265D01*
X132254681Y-29777261D01*
X132039730Y-29623477D01*
X132039728Y-29623475D01*
X132035981Y-29620795D01*
X132024694Y-29614992D01*
X131796829Y-29497838D01*
X131796824Y-29497836D01*
X131792734Y-29495733D01*
X131533870Y-29407421D01*
X131512296Y-29403436D01*
X131269436Y-29358577D01*
X131269428Y-29358576D01*
X131264907Y-29357741D01*
X131260316Y-29357573D01*
X131260305Y-29357572D01*
X130996179Y-29347920D01*
X130996176Y-29347920D01*
X130991576Y-29347752D01*
X130987008Y-29348254D01*
X130986996Y-29348255D01*
X130724277Y-29377162D01*
X130724265Y-29377164D01*
X130719704Y-29377666D01*
X130715261Y-29378827D01*
X130715253Y-29378829D01*
X130459539Y-29445682D01*
X130459535Y-29445683D01*
X130455084Y-29446847D01*
X130450857Y-29448643D01*
X130450846Y-29448647D01*
X130207588Y-29552020D01*
X130207576Y-29552025D01*
X130203357Y-29553819D01*
X130199436Y-29556211D01*
X130199430Y-29556215D01*
X129973819Y-29693903D01*
X129973809Y-29693909D01*
X129969888Y-29696303D01*
X129966361Y-29699237D01*
X129966350Y-29699246D01*
X129763187Y-29868320D01*
X129763179Y-29868327D01*
X129759653Y-29871262D01*
X129756584Y-29874686D01*
X129756581Y-29874690D01*
X129580211Y-30071530D01*
X129580201Y-30071542D01*
X129577133Y-30074967D01*
X129574595Y-30078802D01*
X129574582Y-30078820D01*
X129512535Y-30172604D01*
X129469118Y-30212960D01*
X129412053Y-30228997D01*
X129353970Y-30217167D01*
X129307727Y-30180092D01*
X129145329Y-29969780D01*
X129031069Y-29859619D01*
X128951735Y-29783131D01*
X128951732Y-29783129D01*
X128948426Y-29779941D01*
X128944686Y-29777265D01*
X128944681Y-29777261D01*
X128729730Y-29623477D01*
X128729728Y-29623475D01*
X128725981Y-29620795D01*
X128714694Y-29614992D01*
X128486829Y-29497838D01*
X128486824Y-29497836D01*
X128482734Y-29495733D01*
X128223870Y-29407421D01*
X128202296Y-29403436D01*
X127959436Y-29358577D01*
X127959428Y-29358576D01*
X127954907Y-29357741D01*
X127950316Y-29357573D01*
X127950305Y-29357572D01*
X127686179Y-29347920D01*
X127686176Y-29347920D01*
X127681576Y-29347752D01*
X127677008Y-29348254D01*
X127676996Y-29348255D01*
X127414277Y-29377162D01*
X127414265Y-29377164D01*
X127409704Y-29377666D01*
X127405261Y-29378827D01*
X127405253Y-29378829D01*
X127149539Y-29445682D01*
X127149535Y-29445683D01*
X127145084Y-29446847D01*
X127140857Y-29448643D01*
X127140846Y-29448647D01*
X126897588Y-29552020D01*
X126897576Y-29552025D01*
X126893357Y-29553819D01*
X126889436Y-29556211D01*
X126889430Y-29556215D01*
X126663819Y-29693903D01*
X126663809Y-29693909D01*
X126659888Y-29696303D01*
X126656361Y-29699237D01*
X126656350Y-29699246D01*
X126453187Y-29868320D01*
X126453179Y-29868327D01*
X126449653Y-29871262D01*
X126446584Y-29874686D01*
X126446581Y-29874690D01*
X126270211Y-30071530D01*
X126270201Y-30071542D01*
X126267133Y-30074967D01*
X126264593Y-30078805D01*
X126264590Y-30078810D01*
X126130831Y-30280988D01*
X126116217Y-30303077D01*
X126114268Y-30307234D01*
X126114261Y-30307247D01*
X126002077Y-30546560D01*
X126000123Y-30550729D01*
X125998801Y-30555122D01*
X125998796Y-30555136D01*
X125922651Y-30808232D01*
X125922649Y-30808240D01*
X125921324Y-30812645D01*
X125920653Y-30817201D01*
X125920652Y-30817208D01*
X125882171Y-31078681D01*
X125881500Y-31083243D01*
X125881500Y-31808288D01*
X123960514Y-31808288D01*
X128548398Y-27220405D01*
X128589276Y-27193091D01*
X128637494Y-27183500D01*
X138508006Y-27183500D01*
X138565209Y-27197233D01*
G37*
%TD.AperFunction*%
%TA.AperFunction,Conductor*%
G36*
X190601351Y-30163563D02*
G01*
X190647026Y-30206408D01*
X190666433Y-30265950D01*
X190654777Y-30327481D01*
X190556332Y-30537485D01*
X190550123Y-30550729D01*
X190548801Y-30555122D01*
X190548796Y-30555136D01*
X190472651Y-30808232D01*
X190472649Y-30808240D01*
X190471324Y-30812645D01*
X190470653Y-30817201D01*
X190470652Y-30817208D01*
X190432171Y-31078681D01*
X190431500Y-31083243D01*
X190431500Y-31808288D01*
X190431666Y-31810558D01*
X190431667Y-31810581D01*
X190446130Y-32008188D01*
X190446131Y-32008197D01*
X190446467Y-32012783D01*
X190505937Y-32279753D01*
X190507581Y-32284053D01*
X190507582Y-32284054D01*
X190585123Y-32486793D01*
X190603645Y-32535219D01*
X190605897Y-32539231D01*
X190605900Y-32539238D01*
X190735253Y-32769721D01*
X190735257Y-32769727D01*
X190737507Y-32773736D01*
X190904671Y-32990220D01*
X190971133Y-33054298D01*
X191083584Y-33162715D01*
X191101574Y-33180059D01*
X191105314Y-33182735D01*
X191105318Y-33182738D01*
X191271873Y-33301898D01*
X191324019Y-33339205D01*
X191567266Y-33464267D01*
X191744786Y-33524828D01*
X191797554Y-33559567D01*
X191826828Y-33615559D01*
X191825242Y-33678721D01*
X191793193Y-33733172D01*
X190696771Y-34829595D01*
X190655894Y-34856909D01*
X190607676Y-34866500D01*
X188378767Y-34866500D01*
X188367583Y-34865972D01*
X188360091Y-34864298D01*
X188352165Y-34864547D01*
X188292001Y-34866438D01*
X188288043Y-34866500D01*
X188260144Y-34866500D01*
X188256219Y-34866995D01*
X188256198Y-34866997D01*
X188256124Y-34867007D01*
X188244313Y-34867936D01*
X188208034Y-34869076D01*
X188208026Y-34869077D01*
X188200111Y-34869326D01*
X188192500Y-34871536D01*
X188192493Y-34871538D01*
X188180648Y-34874979D01*
X188161303Y-34878985D01*
X188149072Y-34880530D01*
X188149059Y-34880533D01*
X188141203Y-34881526D01*
X188133839Y-34884441D01*
X188133829Y-34884444D01*
X188100092Y-34897802D01*
X188088865Y-34901646D01*
X188054018Y-34911770D01*
X188054013Y-34911772D01*
X188046407Y-34913982D01*
X188039590Y-34918012D01*
X188039581Y-34918017D01*
X188028960Y-34924298D01*
X188011221Y-34932989D01*
X187999749Y-34937531D01*
X187999746Y-34937532D01*
X187992383Y-34940448D01*
X187985976Y-34945102D01*
X187985972Y-34945105D01*
X187956611Y-34966437D01*
X187946693Y-34972951D01*
X187915465Y-34991419D01*
X187915457Y-34991425D01*
X187908638Y-34995458D01*
X187903036Y-35001058D01*
X187903029Y-35001065D01*
X187894308Y-35009786D01*
X187879287Y-35022615D01*
X187869307Y-35029866D01*
X187869298Y-35029873D01*
X187862893Y-35034528D01*
X187857845Y-35040628D01*
X187857836Y-35040638D01*
X187834700Y-35068604D01*
X187826713Y-35077381D01*
X187107747Y-35796347D01*
X187099460Y-35803888D01*
X187092982Y-35808000D01*
X187087562Y-35813771D01*
X187087559Y-35813774D01*
X187046370Y-35857636D01*
X187043621Y-35860472D01*
X187026667Y-35877427D01*
X187026660Y-35877434D01*
X187023865Y-35880230D01*
X187021442Y-35883352D01*
X187021426Y-35883371D01*
X187021365Y-35883451D01*
X187013690Y-35892435D01*
X186988838Y-35918902D01*
X186988835Y-35918904D01*
X186983414Y-35924679D01*
X186979600Y-35931614D01*
X186979592Y-35931627D01*
X186973650Y-35942436D01*
X186962803Y-35958949D01*
X186955243Y-35968695D01*
X186955237Y-35968704D01*
X186950386Y-35974959D01*
X186947242Y-35982223D01*
X186947238Y-35982231D01*
X186932824Y-36015540D01*
X186927604Y-36026195D01*
X186910125Y-36057989D01*
X186910121Y-36057997D01*
X186906305Y-36064940D01*
X186904333Y-36072616D01*
X186904331Y-36072624D01*
X186901266Y-36084562D01*
X186894865Y-36103259D01*
X186889968Y-36114576D01*
X186889966Y-36114581D01*
X186886819Y-36121855D01*
X186885579Y-36129680D01*
X186885577Y-36129689D01*
X186879901Y-36165524D01*
X186877495Y-36177144D01*
X186868471Y-36212289D01*
X186868469Y-36212297D01*
X186866500Y-36219970D01*
X186866500Y-36227899D01*
X186866500Y-36240224D01*
X186864949Y-36259935D01*
X186863019Y-36272114D01*
X186863018Y-36272121D01*
X186861780Y-36279943D01*
X186862525Y-36287826D01*
X186862525Y-36287834D01*
X186865941Y-36323961D01*
X186866500Y-36335819D01*
X186866500Y-37646227D01*
X186848741Y-37710724D01*
X186800470Y-37757040D01*
X186731568Y-37794327D01*
X186731552Y-37794336D01*
X186726983Y-37796810D01*
X186560485Y-37926402D01*
X186560274Y-37926566D01*
X186506999Y-37950805D01*
X186448521Y-37948358D01*
X186397457Y-37919754D01*
X186364827Y-37871165D01*
X186354039Y-37842239D01*
X186354036Y-37842233D01*
X186350889Y-37833796D01*
X186331926Y-37808465D01*
X186268659Y-37723950D01*
X186263261Y-37716739D01*
X186225743Y-37688653D01*
X186153417Y-37634510D01*
X186153414Y-37634508D01*
X186146204Y-37629111D01*
X186137766Y-37625964D01*
X186137763Y-37625962D01*
X186016580Y-37580763D01*
X186016578Y-37580762D01*
X186009201Y-37578011D01*
X186001373Y-37577169D01*
X186001367Y-37577168D01*
X185951988Y-37571860D01*
X185951985Y-37571859D01*
X185948638Y-37571500D01*
X184051362Y-37571500D01*
X184048015Y-37571859D01*
X184048011Y-37571860D01*
X183998632Y-37577168D01*
X183998625Y-37577169D01*
X183990799Y-37578011D01*
X183983423Y-37580761D01*
X183983419Y-37580763D01*
X183862236Y-37625962D01*
X183862230Y-37625965D01*
X183853796Y-37629111D01*
X183846588Y-37634506D01*
X183846582Y-37634510D01*
X183743950Y-37711340D01*
X183743946Y-37711343D01*
X183736739Y-37716739D01*
X183731343Y-37723946D01*
X183731340Y-37723950D01*
X183654510Y-37826582D01*
X183654506Y-37826588D01*
X183649111Y-37833796D01*
X183645965Y-37842230D01*
X183645962Y-37842236D01*
X183600763Y-37963419D01*
X183600761Y-37963423D01*
X183598011Y-37970799D01*
X183597169Y-37978625D01*
X183597168Y-37978632D01*
X183592244Y-38024439D01*
X183591500Y-38031362D01*
X183591500Y-38034731D01*
X183591500Y-39471400D01*
X183574619Y-39534400D01*
X183528500Y-39580519D01*
X183465500Y-39597400D01*
X178537827Y-39597400D01*
X178480163Y-39583431D01*
X178435286Y-39544621D01*
X178413145Y-39489575D01*
X178417844Y-39439141D01*
X178416275Y-39438744D01*
X178472275Y-39217602D01*
X178473987Y-39207348D01*
X178492396Y-38985189D01*
X178492396Y-38974811D01*
X178473987Y-38752651D01*
X178472275Y-38742397D01*
X178417554Y-38526308D01*
X178414181Y-38516483D01*
X178324637Y-38312344D01*
X178319690Y-38303203D01*
X178246890Y-38191773D01*
X178238796Y-38183926D01*
X178229262Y-38189947D01*
X177169095Y-39250115D01*
X177112611Y-39282727D01*
X177047389Y-39282727D01*
X176990905Y-39250115D01*
X176809885Y-39069095D01*
X176777273Y-39012611D01*
X176777273Y-38947389D01*
X176809885Y-38890905D01*
X177868649Y-37832139D01*
X177875417Y-37819836D01*
X177867179Y-37808465D01*
X177856856Y-37800430D01*
X177848161Y-37794749D01*
X177652111Y-37688653D01*
X177642594Y-37684478D01*
X177431758Y-37612098D01*
X177421688Y-37609548D01*
X177201807Y-37572857D01*
X177191459Y-37572000D01*
X177188095Y-37572000D01*
X177186322Y-37571574D01*
X177186268Y-37571570D01*
X177186268Y-37571561D01*
X177130892Y-37558267D01*
X177086159Y-37520061D01*
X177063646Y-37465711D01*
X177068262Y-37407064D01*
X177099000Y-37356905D01*
X177195500Y-37260405D01*
X177236377Y-37233091D01*
X177284595Y-37223500D01*
X180567933Y-37223500D01*
X180579116Y-37224027D01*
X180586609Y-37225702D01*
X180654685Y-37223562D01*
X180658645Y-37223500D01*
X180682594Y-37223500D01*
X180686556Y-37223500D01*
X180690556Y-37222994D01*
X180702399Y-37222061D01*
X180746589Y-37220673D01*
X180766033Y-37215023D01*
X180785402Y-37211012D01*
X180805497Y-37208474D01*
X180846615Y-37192193D01*
X180857817Y-37188357D01*
X180900293Y-37176018D01*
X180917739Y-37165699D01*
X180935469Y-37157013D01*
X180954317Y-37149552D01*
X180990087Y-37123561D01*
X180999998Y-37117051D01*
X181038062Y-37094542D01*
X181052388Y-37080215D01*
X181067417Y-37067378D01*
X181083807Y-37055472D01*
X181111994Y-37021397D01*
X181119972Y-37012630D01*
X187947699Y-30184905D01*
X187988577Y-30157591D01*
X188036795Y-30148000D01*
X190540690Y-30148000D01*
X190601351Y-30163563D01*
G37*
%TD.AperFunction*%
%TA.AperFunction,Conductor*%
G36*
X172113623Y-37223091D02*
G01*
X172154500Y-37250405D01*
X172260500Y-37356405D01*
X172291238Y-37406564D01*
X172295854Y-37465211D01*
X172273341Y-37519561D01*
X172228608Y-37557767D01*
X172171405Y-37571500D01*
X171131362Y-37571500D01*
X171128015Y-37571859D01*
X171128011Y-37571860D01*
X171078632Y-37577168D01*
X171078625Y-37577169D01*
X171070799Y-37578011D01*
X171063423Y-37580761D01*
X171063419Y-37580763D01*
X170942236Y-37625962D01*
X170942230Y-37625965D01*
X170933796Y-37629111D01*
X170926588Y-37634506D01*
X170926582Y-37634510D01*
X170823950Y-37711340D01*
X170823946Y-37711343D01*
X170816739Y-37716739D01*
X170811343Y-37723946D01*
X170811340Y-37723950D01*
X170734510Y-37826582D01*
X170734506Y-37826588D01*
X170729111Y-37833796D01*
X170725965Y-37842230D01*
X170725962Y-37842236D01*
X170680763Y-37963419D01*
X170680761Y-37963423D01*
X170678011Y-37970799D01*
X170677169Y-37978625D01*
X170677168Y-37978632D01*
X170672244Y-38024439D01*
X170671500Y-38031362D01*
X170671500Y-38034731D01*
X170671500Y-39440405D01*
X170661909Y-39488623D01*
X170634595Y-39529500D01*
X170629200Y-39534895D01*
X170588323Y-39562209D01*
X170540105Y-39571800D01*
X165644465Y-39571800D01*
X165589126Y-39558997D01*
X165545033Y-39523191D01*
X165521147Y-39471657D01*
X165522321Y-39414869D01*
X165572275Y-39217602D01*
X165573987Y-39207348D01*
X165592396Y-38985189D01*
X165592396Y-38974811D01*
X165573987Y-38752651D01*
X165572275Y-38742397D01*
X165517554Y-38526308D01*
X165514181Y-38516483D01*
X165424637Y-38312344D01*
X165419690Y-38303203D01*
X165346890Y-38191773D01*
X165338796Y-38183926D01*
X165329262Y-38189947D01*
X164269095Y-39250115D01*
X164212611Y-39282727D01*
X164147389Y-39282727D01*
X164090905Y-39250115D01*
X163909885Y-39069095D01*
X163877273Y-39012611D01*
X163877273Y-38947389D01*
X163909885Y-38890905D01*
X164968649Y-37832139D01*
X164975417Y-37819836D01*
X164967179Y-37808465D01*
X164956856Y-37800430D01*
X164948161Y-37794749D01*
X164752111Y-37688653D01*
X164742594Y-37684478D01*
X164531758Y-37612098D01*
X164521688Y-37609548D01*
X164301807Y-37572857D01*
X164291459Y-37572000D01*
X164288095Y-37572000D01*
X164286322Y-37571574D01*
X164286268Y-37571570D01*
X164286268Y-37571561D01*
X164230892Y-37558267D01*
X164186159Y-37520061D01*
X164163646Y-37465711D01*
X164168262Y-37407064D01*
X164199000Y-37356905D01*
X164305500Y-37250405D01*
X164346377Y-37223091D01*
X164394595Y-37213500D01*
X172065405Y-37213500D01*
X172113623Y-37223091D01*
G37*
%TD.AperFunction*%
%TA.AperFunction,Conductor*%
G36*
X195782685Y-34340546D02*
G01*
X195828847Y-34387072D01*
X195845396Y-34450489D01*
X195827854Y-34513639D01*
X195815352Y-34534778D01*
X195809107Y-34549210D01*
X195769097Y-34686919D01*
X195768512Y-34698368D01*
X195779667Y-34701000D01*
X197373000Y-34701000D01*
X197436000Y-34717881D01*
X197482119Y-34764000D01*
X197499000Y-34827000D01*
X197499000Y-38286409D01*
X197502506Y-38299492D01*
X197515590Y-38302999D01*
X197636906Y-38302999D01*
X197694109Y-38316732D01*
X197738842Y-38354938D01*
X197761355Y-38409288D01*
X197756739Y-38467935D01*
X197726001Y-38518094D01*
X197394500Y-38849595D01*
X197353623Y-38876909D01*
X197305405Y-38886500D01*
X192248763Y-38886500D01*
X192237579Y-38885972D01*
X192230091Y-38884299D01*
X192222176Y-38884547D01*
X192222168Y-38884547D01*
X192162033Y-38886438D01*
X192158075Y-38886500D01*
X192130144Y-38886500D01*
X192126232Y-38886993D01*
X192126199Y-38886996D01*
X192126101Y-38887009D01*
X192114300Y-38887937D01*
X192078030Y-38889077D01*
X192078022Y-38889078D01*
X192070110Y-38889327D01*
X192062504Y-38891536D01*
X192062501Y-38891537D01*
X192050655Y-38894979D01*
X192031306Y-38898986D01*
X192019062Y-38900533D01*
X192011203Y-38901526D01*
X192003841Y-38904440D01*
X192003832Y-38904443D01*
X191970097Y-38917800D01*
X191958870Y-38921645D01*
X191924012Y-38931772D01*
X191924008Y-38931773D01*
X191916407Y-38933982D01*
X191909593Y-38938011D01*
X191909585Y-38938015D01*
X191898961Y-38944298D01*
X191881220Y-38952989D01*
X191869759Y-38957527D01*
X191869755Y-38957528D01*
X191862383Y-38960448D01*
X191855967Y-38965109D01*
X191855964Y-38965111D01*
X191826625Y-38986427D01*
X191816707Y-38992943D01*
X191785459Y-39011423D01*
X191785456Y-39011425D01*
X191778637Y-39015458D01*
X191773036Y-39021057D01*
X191773029Y-39021064D01*
X191764304Y-39029789D01*
X191749282Y-39042618D01*
X191739311Y-39049863D01*
X191739302Y-39049871D01*
X191732893Y-39054528D01*
X191727846Y-39060628D01*
X191727838Y-39060636D01*
X191704715Y-39088587D01*
X191696728Y-39097364D01*
X191619621Y-39174471D01*
X191567475Y-39205837D01*
X191506711Y-39209105D01*
X191451501Y-39183514D01*
X191414724Y-39135033D01*
X191404956Y-39074970D01*
X191412396Y-38985188D01*
X191412396Y-38974811D01*
X191393987Y-38752651D01*
X191392275Y-38742397D01*
X191337554Y-38526308D01*
X191334181Y-38516483D01*
X191244637Y-38312344D01*
X191239690Y-38303203D01*
X191166890Y-38191773D01*
X191158796Y-38183926D01*
X191149262Y-38189947D01*
X190089095Y-39250115D01*
X190032611Y-39282727D01*
X189967389Y-39282727D01*
X189910905Y-39250115D01*
X189729885Y-39069095D01*
X189697273Y-39012611D01*
X189697273Y-38947389D01*
X189729885Y-38890905D01*
X190788649Y-37832139D01*
X190795417Y-37819836D01*
X190784017Y-37804100D01*
X190749781Y-37760112D01*
X190748366Y-37751631D01*
X195768512Y-37751631D01*
X195769097Y-37763080D01*
X195809107Y-37900789D01*
X195815352Y-37915221D01*
X195891911Y-38044677D01*
X195901550Y-38057103D01*
X196007896Y-38163449D01*
X196020322Y-38173088D01*
X196149778Y-38249647D01*
X196164210Y-38255892D01*
X196310064Y-38298268D01*
X196322666Y-38300570D01*
X196351084Y-38302806D01*
X196356014Y-38303000D01*
X196974410Y-38303000D01*
X196987493Y-38299493D01*
X196991000Y-38286410D01*
X196991000Y-37765590D01*
X196987493Y-37752506D01*
X196974410Y-37749000D01*
X195779667Y-37749000D01*
X195768512Y-37751631D01*
X190748366Y-37751631D01*
X190739599Y-37699094D01*
X190759687Y-37640584D01*
X190805200Y-37598686D01*
X190865169Y-37583500D01*
X191651233Y-37583500D01*
X191662416Y-37584027D01*
X191669909Y-37585702D01*
X191737985Y-37583562D01*
X191741945Y-37583500D01*
X191765894Y-37583500D01*
X191769856Y-37583500D01*
X191773856Y-37582994D01*
X191785699Y-37582061D01*
X191829889Y-37580673D01*
X191849333Y-37575023D01*
X191868702Y-37571012D01*
X191888797Y-37568474D01*
X191929915Y-37552193D01*
X191941117Y-37548357D01*
X191983593Y-37536018D01*
X192001039Y-37525699D01*
X192018769Y-37517013D01*
X192037617Y-37509552D01*
X192073387Y-37483561D01*
X192083298Y-37477051D01*
X192121362Y-37454542D01*
X192135688Y-37440215D01*
X192150717Y-37427378D01*
X192167107Y-37415472D01*
X192195294Y-37381397D01*
X192203272Y-37372630D01*
X192337534Y-37238368D01*
X195768512Y-37238368D01*
X195779667Y-37241000D01*
X196974410Y-37241000D01*
X196987493Y-37237493D01*
X196991000Y-37224410D01*
X196991000Y-36495590D01*
X196987493Y-36482506D01*
X196974410Y-36479000D01*
X195779667Y-36479000D01*
X195768512Y-36481631D01*
X195769097Y-36493080D01*
X195809107Y-36630789D01*
X195815352Y-36645221D01*
X195891910Y-36774675D01*
X195898192Y-36782774D01*
X195921598Y-36832514D01*
X195921598Y-36887486D01*
X195898192Y-36937226D01*
X195891910Y-36945324D01*
X195815352Y-37074778D01*
X195809107Y-37089210D01*
X195769097Y-37226919D01*
X195768512Y-37238368D01*
X192337534Y-37238368D01*
X193607534Y-35968368D01*
X195768512Y-35968368D01*
X195779667Y-35971000D01*
X196974410Y-35971000D01*
X196987493Y-35967493D01*
X196991000Y-35954410D01*
X196991000Y-35225590D01*
X196987493Y-35212506D01*
X196974410Y-35209000D01*
X195779667Y-35209000D01*
X195768512Y-35211631D01*
X195769097Y-35223080D01*
X195809107Y-35360789D01*
X195815352Y-35375221D01*
X195891910Y-35504675D01*
X195898192Y-35512774D01*
X195921598Y-35562514D01*
X195921598Y-35617486D01*
X195898192Y-35667226D01*
X195891910Y-35675324D01*
X195815352Y-35804778D01*
X195809107Y-35819210D01*
X195769097Y-35956919D01*
X195768512Y-35968368D01*
X193607534Y-35968368D01*
X195215498Y-34360405D01*
X195256376Y-34333091D01*
X195304594Y-34323500D01*
X195719400Y-34323500D01*
X195782685Y-34340546D01*
G37*
%TD.AperFunction*%
%TA.AperFunction,Conductor*%
G36*
X206635923Y-25680498D02*
G01*
X206644084Y-25680767D01*
X206723648Y-25685982D01*
X206901461Y-25698699D01*
X206917024Y-25700796D01*
X207028397Y-25722949D01*
X207030394Y-25723364D01*
X207170143Y-25753765D01*
X207183806Y-25757557D01*
X207297737Y-25796232D01*
X207301067Y-25797417D01*
X207428725Y-25845031D01*
X207440393Y-25850070D01*
X207477803Y-25868518D01*
X207521824Y-25890228D01*
X207573978Y-25938141D01*
X207592048Y-26006619D01*
X207570325Y-26074027D01*
X207515672Y-26119069D01*
X207445355Y-26127515D01*
X207387538Y-26117867D01*
X207376401Y-26118443D01*
X207374000Y-26129336D01*
X207374000Y-27578000D01*
X207357119Y-27641000D01*
X207311000Y-27687119D01*
X207248000Y-27704000D01*
X205797840Y-27704000D01*
X205786751Y-27706565D01*
X205786986Y-27717943D01*
X205829900Y-27887408D01*
X205833270Y-27897223D01*
X205867337Y-27974886D01*
X205877520Y-28035904D01*
X205857433Y-28094415D01*
X205811920Y-28136314D01*
X205751950Y-28151500D01*
X205011967Y-28151500D01*
X205000783Y-28150972D01*
X204993291Y-28149298D01*
X204985365Y-28149547D01*
X204925214Y-28151438D01*
X204921255Y-28151500D01*
X204893344Y-28151500D01*
X204889418Y-28151995D01*
X204889400Y-28151997D01*
X204889308Y-28152009D01*
X204877503Y-28152937D01*
X204841230Y-28154077D01*
X204841222Y-28154078D01*
X204833310Y-28154327D01*
X204825703Y-28156536D01*
X204825702Y-28156537D01*
X204813855Y-28159979D01*
X204794506Y-28163986D01*
X204782262Y-28165533D01*
X204774403Y-28166526D01*
X204767036Y-28169442D01*
X204759355Y-28171415D01*
X204758999Y-28170028D01*
X204707648Y-28176731D01*
X204702439Y-28174743D01*
X204675191Y-28201593D01*
X204662165Y-28209296D01*
X204644420Y-28217989D01*
X204632959Y-28222527D01*
X204632955Y-28222528D01*
X204625583Y-28225448D01*
X204619167Y-28230109D01*
X204619164Y-28230111D01*
X204589825Y-28251427D01*
X204579907Y-28257943D01*
X204548659Y-28276423D01*
X204548656Y-28276425D01*
X204541837Y-28280458D01*
X204536236Y-28286057D01*
X204536229Y-28286064D01*
X204527504Y-28294789D01*
X204512482Y-28307618D01*
X204502511Y-28314863D01*
X204502502Y-28314871D01*
X204496093Y-28319528D01*
X204491046Y-28325628D01*
X204491038Y-28325636D01*
X204467915Y-28353587D01*
X204459929Y-28362364D01*
X204252700Y-28569595D01*
X204211822Y-28596909D01*
X204163604Y-28606500D01*
X203804500Y-28606500D01*
X203741500Y-28589619D01*
X203695381Y-28543500D01*
X203678500Y-28480500D01*
X203678500Y-28390968D01*
X203678500Y-28388498D01*
X203675562Y-28351169D01*
X203629145Y-28191399D01*
X203625571Y-28185356D01*
X203616059Y-28121691D01*
X203639616Y-28061306D01*
X203690074Y-28020622D01*
X203754081Y-28010404D01*
X203776295Y-28012674D01*
X203782697Y-28013000D01*
X203809410Y-28013000D01*
X203822493Y-28009493D01*
X203826000Y-27996410D01*
X204334000Y-27996410D01*
X204337506Y-28009493D01*
X204350590Y-28013000D01*
X204377303Y-28013000D01*
X204383692Y-28012674D01*
X204477488Y-28003092D01*
X204490851Y-28000231D01*
X204571421Y-27973533D01*
X204632116Y-27968910D01*
X204632316Y-27968997D01*
X204656255Y-27944357D01*
X204797091Y-27857488D01*
X204808532Y-27848441D01*
X204923441Y-27733532D01*
X204932488Y-27722091D01*
X205017807Y-27583767D01*
X205023964Y-27570564D01*
X205075232Y-27415846D01*
X205078092Y-27402488D01*
X205087674Y-27308692D01*
X205088000Y-27302303D01*
X205088000Y-27193434D01*
X205786751Y-27193434D01*
X205797840Y-27196000D01*
X206849410Y-27196000D01*
X206862493Y-27192493D01*
X206866000Y-27179410D01*
X206866000Y-26129336D01*
X206863598Y-26118443D01*
X206852461Y-26117867D01*
X206790627Y-26128185D01*
X206780557Y-26130735D01*
X206577559Y-26200424D01*
X206568042Y-26204599D01*
X206379281Y-26306752D01*
X206370588Y-26312431D01*
X206201211Y-26444262D01*
X206193567Y-26451299D01*
X206048210Y-26609200D01*
X206041822Y-26617406D01*
X205924431Y-26797086D01*
X205919488Y-26806221D01*
X205833270Y-27002776D01*
X205829900Y-27012591D01*
X205786986Y-27182056D01*
X205786751Y-27193434D01*
X205088000Y-27193434D01*
X205088000Y-27050590D01*
X205084493Y-27037506D01*
X205071410Y-27034000D01*
X204350590Y-27034000D01*
X204337506Y-27037506D01*
X204334000Y-27050590D01*
X204334000Y-27996410D01*
X203826000Y-27996410D01*
X203826000Y-26652000D01*
X203842881Y-26589000D01*
X203889000Y-26542881D01*
X203952000Y-26526000D01*
X205071410Y-26526000D01*
X205084493Y-26522493D01*
X205088000Y-26509410D01*
X205088000Y-26257698D01*
X205087674Y-26251307D01*
X205078092Y-26157511D01*
X205075232Y-26144153D01*
X205023964Y-25989435D01*
X205017807Y-25976232D01*
X204953607Y-25872147D01*
X204934878Y-25808748D01*
X204950824Y-25744594D01*
X204997056Y-25697342D01*
X205060848Y-25680000D01*
X205567464Y-25680000D01*
X206635923Y-25680498D01*
G37*
%TD.AperFunction*%
%TD*%
M02*
