%TF.GenerationSoftware,KiCad,Pcbnew,(6.0.1)*%
%TF.CreationDate,2022-09-16T10:26:10-07:00*%
%TF.ProjectId,8-pots-1-mux-rounded,382d706f-7473-42d3-912d-6d75782d726f,rev?*%
%TF.SameCoordinates,Original*%
%TF.FileFunction,Legend,Top*%
%TF.FilePolarity,Positive*%
%FSLAX46Y46*%
G04 Gerber Fmt 4.6, Leading zero omitted, Abs format (unit mm)*
G04 Created by KiCad (PCBNEW (6.0.1)) date 2022-09-16 10:26:10*
%MOMM*%
%LPD*%
G01*
G04 APERTURE LIST*
%ADD10C,0.300000*%
%ADD11C,0.150000*%
%ADD12C,0.120000*%
G04 APERTURE END LIST*
D10*
X193545714Y-40051428D02*
X193402857Y-39980000D01*
X193331428Y-39908571D01*
X193260000Y-39765714D01*
X193260000Y-39694285D01*
X193331428Y-39551428D01*
X193402857Y-39480000D01*
X193545714Y-39408571D01*
X193831428Y-39408571D01*
X193974285Y-39480000D01*
X194045714Y-39551428D01*
X194117142Y-39694285D01*
X194117142Y-39765714D01*
X194045714Y-39908571D01*
X193974285Y-39980000D01*
X193831428Y-40051428D01*
X193545714Y-40051428D01*
X193402857Y-40122857D01*
X193331428Y-40194285D01*
X193260000Y-40337142D01*
X193260000Y-40622857D01*
X193331428Y-40765714D01*
X193402857Y-40837142D01*
X193545714Y-40908571D01*
X193831428Y-40908571D01*
X193974285Y-40837142D01*
X194045714Y-40765714D01*
X194117142Y-40622857D01*
X194117142Y-40337142D01*
X194045714Y-40194285D01*
X193974285Y-40122857D01*
X193831428Y-40051428D01*
X194760000Y-40908571D02*
X194760000Y-39408571D01*
X195331428Y-39408571D01*
X195474285Y-39480000D01*
X195545714Y-39551428D01*
X195617142Y-39694285D01*
X195617142Y-39908571D01*
X195545714Y-40051428D01*
X195474285Y-40122857D01*
X195331428Y-40194285D01*
X194760000Y-40194285D01*
X196474285Y-40908571D02*
X196331428Y-40837142D01*
X196260000Y-40765714D01*
X196188571Y-40622857D01*
X196188571Y-40194285D01*
X196260000Y-40051428D01*
X196331428Y-39980000D01*
X196474285Y-39908571D01*
X196688571Y-39908571D01*
X196831428Y-39980000D01*
X196902857Y-40051428D01*
X196974285Y-40194285D01*
X196974285Y-40622857D01*
X196902857Y-40765714D01*
X196831428Y-40837142D01*
X196688571Y-40908571D01*
X196474285Y-40908571D01*
X197402857Y-39908571D02*
X197974285Y-39908571D01*
X197617142Y-39408571D02*
X197617142Y-40694285D01*
X197688571Y-40837142D01*
X197831428Y-40908571D01*
X197974285Y-40908571D01*
X198402857Y-40837142D02*
X198545714Y-40908571D01*
X198831428Y-40908571D01*
X198974285Y-40837142D01*
X199045714Y-40694285D01*
X199045714Y-40622857D01*
X198974285Y-40480000D01*
X198831428Y-40408571D01*
X198617142Y-40408571D01*
X198474285Y-40337142D01*
X198402857Y-40194285D01*
X198402857Y-40122857D01*
X198474285Y-39980000D01*
X198617142Y-39908571D01*
X198831428Y-39908571D01*
X198974285Y-39980000D01*
X200474285Y-40908571D02*
X199617142Y-40908571D01*
X200045714Y-40908571D02*
X200045714Y-39408571D01*
X199902857Y-39622857D01*
X199760000Y-39765714D01*
X199617142Y-39837142D01*
X201117142Y-40908571D02*
X201117142Y-39408571D01*
X201617142Y-40480000D01*
X202117142Y-39408571D01*
X202117142Y-40908571D01*
X203474285Y-39908571D02*
X203474285Y-40908571D01*
X202831428Y-39908571D02*
X202831428Y-40694285D01*
X202902857Y-40837142D01*
X203045714Y-40908571D01*
X203260000Y-40908571D01*
X203402857Y-40837142D01*
X203474285Y-40765714D01*
X204045714Y-40908571D02*
X204831428Y-39908571D01*
X204045714Y-39908571D02*
X204831428Y-40908571D01*
D11*
%TO.C,C1*%
X202963333Y-25457142D02*
X202915714Y-25504761D01*
X202772857Y-25552380D01*
X202677619Y-25552380D01*
X202534761Y-25504761D01*
X202439523Y-25409523D01*
X202391904Y-25314285D01*
X202344285Y-25123809D01*
X202344285Y-24980952D01*
X202391904Y-24790476D01*
X202439523Y-24695238D01*
X202534761Y-24600000D01*
X202677619Y-24552380D01*
X202772857Y-24552380D01*
X202915714Y-24600000D01*
X202963333Y-24647619D01*
X203915714Y-25552380D02*
X203344285Y-25552380D01*
X203630000Y-25552380D02*
X203630000Y-24552380D01*
X203534761Y-24695238D01*
X203439523Y-24790476D01*
X203344285Y-24838095D01*
%TO.C,RV5*%
X148004761Y-31972380D02*
X147671428Y-31496190D01*
X147433333Y-31972380D02*
X147433333Y-30972380D01*
X147814285Y-30972380D01*
X147909523Y-31020000D01*
X147957142Y-31067619D01*
X148004761Y-31162857D01*
X148004761Y-31305714D01*
X147957142Y-31400952D01*
X147909523Y-31448571D01*
X147814285Y-31496190D01*
X147433333Y-31496190D01*
X148290476Y-30972380D02*
X148623809Y-31972380D01*
X148957142Y-30972380D01*
X149766666Y-30972380D02*
X149290476Y-30972380D01*
X149242857Y-31448571D01*
X149290476Y-31400952D01*
X149385714Y-31353333D01*
X149623809Y-31353333D01*
X149719047Y-31400952D01*
X149766666Y-31448571D01*
X149814285Y-31543809D01*
X149814285Y-31781904D01*
X149766666Y-31877142D01*
X149719047Y-31924761D01*
X149623809Y-31972380D01*
X149385714Y-31972380D01*
X149290476Y-31924761D01*
X149242857Y-31877142D01*
%TO.C,RV6*%
X160974761Y-31792380D02*
X160641428Y-31316190D01*
X160403333Y-31792380D02*
X160403333Y-30792380D01*
X160784285Y-30792380D01*
X160879523Y-30840000D01*
X160927142Y-30887619D01*
X160974761Y-30982857D01*
X160974761Y-31125714D01*
X160927142Y-31220952D01*
X160879523Y-31268571D01*
X160784285Y-31316190D01*
X160403333Y-31316190D01*
X161260476Y-30792380D02*
X161593809Y-31792380D01*
X161927142Y-30792380D01*
X162689047Y-30792380D02*
X162498571Y-30792380D01*
X162403333Y-30840000D01*
X162355714Y-30887619D01*
X162260476Y-31030476D01*
X162212857Y-31220952D01*
X162212857Y-31601904D01*
X162260476Y-31697142D01*
X162308095Y-31744761D01*
X162403333Y-31792380D01*
X162593809Y-31792380D01*
X162689047Y-31744761D01*
X162736666Y-31697142D01*
X162784285Y-31601904D01*
X162784285Y-31363809D01*
X162736666Y-31268571D01*
X162689047Y-31220952D01*
X162593809Y-31173333D01*
X162403333Y-31173333D01*
X162308095Y-31220952D01*
X162260476Y-31268571D01*
X162212857Y-31363809D01*
%TO.C,RV1*%
X96594761Y-31892380D02*
X96261428Y-31416190D01*
X96023333Y-31892380D02*
X96023333Y-30892380D01*
X96404285Y-30892380D01*
X96499523Y-30940000D01*
X96547142Y-30987619D01*
X96594761Y-31082857D01*
X96594761Y-31225714D01*
X96547142Y-31320952D01*
X96499523Y-31368571D01*
X96404285Y-31416190D01*
X96023333Y-31416190D01*
X96880476Y-30892380D02*
X97213809Y-31892380D01*
X97547142Y-30892380D01*
X98404285Y-31892380D02*
X97832857Y-31892380D01*
X98118571Y-31892380D02*
X98118571Y-30892380D01*
X98023333Y-31035238D01*
X97928095Y-31130476D01*
X97832857Y-31178095D01*
%TO.C,RV7*%
X173984761Y-31992380D02*
X173651428Y-31516190D01*
X173413333Y-31992380D02*
X173413333Y-30992380D01*
X173794285Y-30992380D01*
X173889523Y-31040000D01*
X173937142Y-31087619D01*
X173984761Y-31182857D01*
X173984761Y-31325714D01*
X173937142Y-31420952D01*
X173889523Y-31468571D01*
X173794285Y-31516190D01*
X173413333Y-31516190D01*
X174270476Y-30992380D02*
X174603809Y-31992380D01*
X174937142Y-30992380D01*
X175175238Y-30992380D02*
X175841904Y-30992380D01*
X175413333Y-31992380D01*
%TO.C,RV3*%
X122264761Y-31902380D02*
X121931428Y-31426190D01*
X121693333Y-31902380D02*
X121693333Y-30902380D01*
X122074285Y-30902380D01*
X122169523Y-30950000D01*
X122217142Y-30997619D01*
X122264761Y-31092857D01*
X122264761Y-31235714D01*
X122217142Y-31330952D01*
X122169523Y-31378571D01*
X122074285Y-31426190D01*
X121693333Y-31426190D01*
X122550476Y-30902380D02*
X122883809Y-31902380D01*
X123217142Y-30902380D01*
X123455238Y-30902380D02*
X124074285Y-30902380D01*
X123740952Y-31283333D01*
X123883809Y-31283333D01*
X123979047Y-31330952D01*
X124026666Y-31378571D01*
X124074285Y-31473809D01*
X124074285Y-31711904D01*
X124026666Y-31807142D01*
X123979047Y-31854761D01*
X123883809Y-31902380D01*
X123598095Y-31902380D01*
X123502857Y-31854761D01*
X123455238Y-31807142D01*
%TO.C,U1*%
X198958095Y-26602380D02*
X198958095Y-27411904D01*
X199005714Y-27507142D01*
X199053333Y-27554761D01*
X199148571Y-27602380D01*
X199339047Y-27602380D01*
X199434285Y-27554761D01*
X199481904Y-27507142D01*
X199529523Y-27411904D01*
X199529523Y-26602380D01*
X200529523Y-27602380D02*
X199958095Y-27602380D01*
X200243809Y-27602380D02*
X200243809Y-26602380D01*
X200148571Y-26745238D01*
X200053333Y-26840476D01*
X199958095Y-26888095D01*
%TO.C,RV8*%
X186694761Y-31962380D02*
X186361428Y-31486190D01*
X186123333Y-31962380D02*
X186123333Y-30962380D01*
X186504285Y-30962380D01*
X186599523Y-31010000D01*
X186647142Y-31057619D01*
X186694761Y-31152857D01*
X186694761Y-31295714D01*
X186647142Y-31390952D01*
X186599523Y-31438571D01*
X186504285Y-31486190D01*
X186123333Y-31486190D01*
X186980476Y-30962380D02*
X187313809Y-31962380D01*
X187647142Y-30962380D01*
X188123333Y-31390952D02*
X188028095Y-31343333D01*
X187980476Y-31295714D01*
X187932857Y-31200476D01*
X187932857Y-31152857D01*
X187980476Y-31057619D01*
X188028095Y-31010000D01*
X188123333Y-30962380D01*
X188313809Y-30962380D01*
X188409047Y-31010000D01*
X188456666Y-31057619D01*
X188504285Y-31152857D01*
X188504285Y-31200476D01*
X188456666Y-31295714D01*
X188409047Y-31343333D01*
X188313809Y-31390952D01*
X188123333Y-31390952D01*
X188028095Y-31438571D01*
X187980476Y-31486190D01*
X187932857Y-31581428D01*
X187932857Y-31771904D01*
X187980476Y-31867142D01*
X188028095Y-31914761D01*
X188123333Y-31962380D01*
X188313809Y-31962380D01*
X188409047Y-31914761D01*
X188456666Y-31867142D01*
X188504285Y-31771904D01*
X188504285Y-31581428D01*
X188456666Y-31486190D01*
X188409047Y-31438571D01*
X188313809Y-31390952D01*
%TO.C,RV4*%
X135384761Y-31822380D02*
X135051428Y-31346190D01*
X134813333Y-31822380D02*
X134813333Y-30822380D01*
X135194285Y-30822380D01*
X135289523Y-30870000D01*
X135337142Y-30917619D01*
X135384761Y-31012857D01*
X135384761Y-31155714D01*
X135337142Y-31250952D01*
X135289523Y-31298571D01*
X135194285Y-31346190D01*
X134813333Y-31346190D01*
X135670476Y-30822380D02*
X136003809Y-31822380D01*
X136337142Y-30822380D01*
X137099047Y-31155714D02*
X137099047Y-31822380D01*
X136860952Y-30774761D02*
X136622857Y-31489047D01*
X137241904Y-31489047D01*
%TO.C,J1*%
X211166666Y-42372380D02*
X211166666Y-43086666D01*
X211119047Y-43229523D01*
X211023809Y-43324761D01*
X210880952Y-43372380D01*
X210785714Y-43372380D01*
X212166666Y-43372380D02*
X211595238Y-43372380D01*
X211880952Y-43372380D02*
X211880952Y-42372380D01*
X211785714Y-42515238D01*
X211690476Y-42610476D01*
X211595238Y-42658095D01*
%TO.C,RV2*%
X109354761Y-31892380D02*
X109021428Y-31416190D01*
X108783333Y-31892380D02*
X108783333Y-30892380D01*
X109164285Y-30892380D01*
X109259523Y-30940000D01*
X109307142Y-30987619D01*
X109354761Y-31082857D01*
X109354761Y-31225714D01*
X109307142Y-31320952D01*
X109259523Y-31368571D01*
X109164285Y-31416190D01*
X108783333Y-31416190D01*
X109640476Y-30892380D02*
X109973809Y-31892380D01*
X110307142Y-30892380D01*
X110592857Y-30987619D02*
X110640476Y-30940000D01*
X110735714Y-30892380D01*
X110973809Y-30892380D01*
X111069047Y-30940000D01*
X111116666Y-30987619D01*
X111164285Y-31082857D01*
X111164285Y-31178095D01*
X111116666Y-31320952D01*
X110545238Y-31892380D01*
X111164285Y-31892380D01*
D12*
%TO.C,C1*%
X202868748Y-26045000D02*
X203391252Y-26045000D01*
X202868748Y-27515000D02*
X203391252Y-27515000D01*
%TO.C,RV5*%
X150450000Y-38100000D02*
X149620000Y-38100000D01*
X153660000Y-38100000D02*
X152170000Y-38100000D01*
X153660000Y-29570000D02*
X153660000Y-26510000D01*
X153660000Y-26510000D02*
X143920000Y-26510000D01*
X143920000Y-29570000D02*
X143920000Y-26510000D01*
X143910000Y-38100000D02*
X143910000Y-33380000D01*
X153660000Y-38100000D02*
X153660000Y-33380000D01*
X145100000Y-38100000D02*
X143920000Y-38100000D01*
X148000000Y-38100000D02*
X147470000Y-38100000D01*
%TO.C,RV6*%
X166550000Y-26510000D02*
X156810000Y-26510000D01*
X166550000Y-38100000D02*
X165060000Y-38100000D01*
X163340000Y-38100000D02*
X162510000Y-38100000D01*
X160890000Y-38100000D02*
X160360000Y-38100000D01*
X166550000Y-29570000D02*
X166550000Y-26510000D01*
X156800000Y-38100000D02*
X156800000Y-33380000D01*
X166550000Y-38100000D02*
X166550000Y-33380000D01*
X157990000Y-38100000D02*
X156810000Y-38100000D01*
X156810000Y-29570000D02*
X156810000Y-26510000D01*
%TO.C,RV1*%
X93450000Y-38100000D02*
X92270000Y-38100000D01*
X92270000Y-29570000D02*
X92270000Y-26510000D01*
X102010000Y-38100000D02*
X100520000Y-38100000D01*
X98800000Y-38100000D02*
X97970000Y-38100000D01*
X96350000Y-38100000D02*
X95820000Y-38100000D01*
X102010000Y-38100000D02*
X102010000Y-33380000D01*
X102010000Y-29570000D02*
X102010000Y-26510000D01*
X102010000Y-26510000D02*
X92270000Y-26510000D01*
X92260000Y-38100000D02*
X92260000Y-33380000D01*
%TO.C,RV7*%
X179450000Y-29570000D02*
X179450000Y-26510000D01*
X169700000Y-38100000D02*
X169700000Y-33380000D01*
X176240000Y-38100000D02*
X175410000Y-38100000D01*
X173790000Y-38100000D02*
X173260000Y-38100000D01*
X179450000Y-26510000D02*
X169710000Y-26510000D01*
X169710000Y-29570000D02*
X169710000Y-26510000D01*
X179450000Y-38100000D02*
X177960000Y-38100000D01*
X170890000Y-38100000D02*
X169710000Y-38100000D01*
X179450000Y-38100000D02*
X179450000Y-33380000D01*
%TO.C,RV3*%
X127820000Y-29570000D02*
X127820000Y-26510000D01*
X122160000Y-38100000D02*
X121630000Y-38100000D01*
X118080000Y-29570000D02*
X118080000Y-26510000D01*
X124610000Y-38100000D02*
X123780000Y-38100000D01*
X127820000Y-38100000D02*
X127820000Y-33380000D01*
X127820000Y-26510000D02*
X118080000Y-26510000D01*
X127820000Y-38100000D02*
X126330000Y-38100000D01*
X119260000Y-38100000D02*
X118080000Y-38100000D01*
X118070000Y-38100000D02*
X118070000Y-33380000D01*
%TO.C,U1*%
X199720000Y-27990000D02*
X201670000Y-27990000D01*
X199720000Y-27990000D02*
X196270000Y-27990000D01*
X199720000Y-38110000D02*
X197770000Y-38110000D01*
X199720000Y-38110000D02*
X201670000Y-38110000D01*
%TO.C,RV8*%
X182620000Y-38100000D02*
X182620000Y-33380000D01*
X192370000Y-26510000D02*
X182630000Y-26510000D01*
X192370000Y-38100000D02*
X190880000Y-38100000D01*
X189160000Y-38100000D02*
X188330000Y-38100000D01*
X192370000Y-29570000D02*
X192370000Y-26510000D01*
X192370000Y-38100000D02*
X192370000Y-33380000D01*
X186710000Y-38100000D02*
X186180000Y-38100000D01*
X182630000Y-29570000D02*
X182630000Y-26510000D01*
X183810000Y-38100000D02*
X182630000Y-38100000D01*
%TO.C,RV4*%
X140730000Y-26510000D02*
X130990000Y-26510000D01*
X140730000Y-29570000D02*
X140730000Y-26510000D01*
X135070000Y-38100000D02*
X134540000Y-38100000D01*
X140730000Y-38100000D02*
X139240000Y-38100000D01*
X132170000Y-38100000D02*
X130990000Y-38100000D01*
X130990000Y-29570000D02*
X130990000Y-26510000D01*
X137520000Y-38100000D02*
X136690000Y-38100000D01*
X140730000Y-38100000D02*
X140730000Y-33380000D01*
X130980000Y-38100000D02*
X130980000Y-33380000D01*
%TO.C,J1*%
X217210000Y-33800000D02*
X208580000Y-33800000D01*
X217210000Y-41241905D02*
X208580000Y-41241905D01*
X217210000Y-40533335D02*
X208580000Y-40533335D01*
X217210000Y-40887620D02*
X208580000Y-40887620D01*
X217210000Y-38998100D02*
X208580000Y-38998100D01*
X217210000Y-41005715D02*
X208580000Y-41005715D01*
X217210000Y-39824765D02*
X208580000Y-39824765D01*
X208580000Y-27810000D02*
X208170000Y-27810000D01*
X217210000Y-39706670D02*
X208580000Y-39706670D01*
X217210000Y-39588575D02*
X208580000Y-39588575D01*
X217210000Y-36340000D02*
X208580000Y-36340000D01*
X217210000Y-40179050D02*
X208580000Y-40179050D01*
X208580000Y-27090000D02*
X208170000Y-27090000D01*
X206010000Y-41480000D02*
X206010000Y-40150000D01*
X208580000Y-40510000D02*
X208230000Y-40510000D01*
X217210000Y-38880000D02*
X208580000Y-38880000D01*
X208580000Y-35430000D02*
X208170000Y-35430000D01*
X208580000Y-41480000D02*
X208580000Y-26120000D01*
X217210000Y-39234290D02*
X208580000Y-39234290D01*
X208580000Y-29630000D02*
X208170000Y-29630000D01*
X217210000Y-40769525D02*
X208580000Y-40769525D01*
X217210000Y-41480000D02*
X208580000Y-41480000D01*
X208580000Y-32890000D02*
X208170000Y-32890000D01*
X217210000Y-39116195D02*
X208580000Y-39116195D01*
X208580000Y-39790000D02*
X208230000Y-39790000D01*
X217210000Y-41480000D02*
X217210000Y-26120000D01*
X208580000Y-32170000D02*
X208170000Y-32170000D01*
X208580000Y-37250000D02*
X208170000Y-37250000D01*
X217210000Y-39352385D02*
X208580000Y-39352385D01*
X217210000Y-39942860D02*
X208580000Y-39942860D01*
X208580000Y-30350000D02*
X208170000Y-30350000D01*
X217210000Y-40651430D02*
X208580000Y-40651430D01*
X217210000Y-26120000D02*
X208580000Y-26120000D01*
X208580000Y-34710000D02*
X208170000Y-34710000D01*
X217210000Y-31260000D02*
X208580000Y-31260000D01*
X208580000Y-37970000D02*
X208170000Y-37970000D01*
X217210000Y-39470480D02*
X208580000Y-39470480D01*
X207120000Y-41480000D02*
X206010000Y-41480000D01*
X217210000Y-28720000D02*
X208580000Y-28720000D01*
X217210000Y-41123810D02*
X208580000Y-41123810D01*
X217210000Y-40415240D02*
X208580000Y-40415240D01*
X217210000Y-41360000D02*
X208580000Y-41360000D01*
X217210000Y-40297145D02*
X208580000Y-40297145D01*
X217210000Y-40060955D02*
X208580000Y-40060955D01*
%TO.C,RV2*%
X114910000Y-38100000D02*
X114910000Y-33380000D01*
X114910000Y-38100000D02*
X113420000Y-38100000D01*
X105170000Y-29570000D02*
X105170000Y-26510000D01*
X106350000Y-38100000D02*
X105170000Y-38100000D01*
X109250000Y-38100000D02*
X108720000Y-38100000D01*
X111700000Y-38100000D02*
X110870000Y-38100000D01*
X105160000Y-38100000D02*
X105160000Y-33380000D01*
X114910000Y-29570000D02*
X114910000Y-26510000D01*
X114910000Y-26510000D02*
X105170000Y-26510000D01*
%TD*%
M02*
