%TF.GenerationSoftware,KiCad,Pcbnew,(6.0.1)*%
%TF.CreationDate,2022-09-16T10:26:10-07:00*%
%TF.ProjectId,8-pots-1-mux-rounded,382d706f-7473-42d3-912d-6d75782d726f,rev?*%
%TF.SameCoordinates,Original*%
%TF.FileFunction,Copper,L2,Bot*%
%TF.FilePolarity,Positive*%
%FSLAX46Y46*%
G04 Gerber Fmt 4.6, Leading zero omitted, Abs format (unit mm)*
G04 Created by KiCad (PCBNEW (6.0.1)) date 2022-09-16 10:26:10*
%MOMM*%
%LPD*%
G01*
G04 APERTURE LIST*
%TA.AperFunction,ComponentPad*%
%ADD10O,2.720000X3.240000*%
%TD*%
%TA.AperFunction,ComponentPad*%
%ADD11R,1.800000X1.800000*%
%TD*%
%TA.AperFunction,ComponentPad*%
%ADD12C,1.800000*%
%TD*%
%TA.AperFunction,ComponentPad*%
%ADD13R,1.700000X1.700000*%
%TD*%
%TA.AperFunction,ComponentPad*%
%ADD14O,1.700000X1.700000*%
%TD*%
%TA.AperFunction,ViaPad*%
%ADD15C,0.800000*%
%TD*%
%TA.AperFunction,Conductor*%
%ADD16C,0.250000*%
%TD*%
G04 APERTURE END LIST*
D10*
%TO.P,RV5,*%
%TO.N,*%
X143990000Y-31480000D03*
X153590000Y-31480000D03*
D11*
%TO.P,RV5,1,1*%
%TO.N,+3V3*%
X146290000Y-38980000D03*
D12*
%TO.P,RV5,2,2*%
%TO.N,MUX_IN_5*%
X148790000Y-38980000D03*
%TO.P,RV5,3,3*%
%TO.N,GND*%
X151290000Y-38980000D03*
%TD*%
D10*
%TO.P,RV6,*%
%TO.N,*%
X166480000Y-31480000D03*
X156880000Y-31480000D03*
D11*
%TO.P,RV6,1,1*%
%TO.N,+3V3*%
X159180000Y-38980000D03*
D12*
%TO.P,RV6,2,2*%
%TO.N,MUX_IN_6*%
X161680000Y-38980000D03*
%TO.P,RV6,3,3*%
%TO.N,GND*%
X164180000Y-38980000D03*
%TD*%
D10*
%TO.P,RV1,*%
%TO.N,*%
X92340000Y-31480000D03*
X101940000Y-31480000D03*
D11*
%TO.P,RV1,1,1*%
%TO.N,+3V3*%
X94640000Y-38980000D03*
D12*
%TO.P,RV1,2,2*%
%TO.N,MUX_IN_1*%
X97140000Y-38980000D03*
%TO.P,RV1,3,3*%
%TO.N,GND*%
X99640000Y-38980000D03*
%TD*%
D10*
%TO.P,RV7,*%
%TO.N,*%
X179380000Y-31480000D03*
X169780000Y-31480000D03*
D11*
%TO.P,RV7,1,1*%
%TO.N,+3V3*%
X172080000Y-38980000D03*
D12*
%TO.P,RV7,2,2*%
%TO.N,MUX_IN_7*%
X174580000Y-38980000D03*
%TO.P,RV7,3,3*%
%TO.N,GND*%
X177080000Y-38980000D03*
%TD*%
D10*
%TO.P,RV3,*%
%TO.N,*%
X127750000Y-31480000D03*
X118150000Y-31480000D03*
D11*
%TO.P,RV3,1,1*%
%TO.N,+3V3*%
X120450000Y-38980000D03*
D12*
%TO.P,RV3,2,2*%
%TO.N,MUX_IN_3*%
X122950000Y-38980000D03*
%TO.P,RV3,3,3*%
%TO.N,GND*%
X125450000Y-38980000D03*
%TD*%
D10*
%TO.P,RV8,*%
%TO.N,*%
X192300000Y-31480000D03*
X182700000Y-31480000D03*
D11*
%TO.P,RV8,1,1*%
%TO.N,+3V3*%
X185000000Y-38980000D03*
D12*
%TO.P,RV8,2,2*%
%TO.N,MUX_IN_8*%
X187500000Y-38980000D03*
%TO.P,RV8,3,3*%
%TO.N,GND*%
X190000000Y-38980000D03*
%TD*%
D10*
%TO.P,RV4,*%
%TO.N,*%
X131060000Y-31480000D03*
X140660000Y-31480000D03*
D11*
%TO.P,RV4,1,1*%
%TO.N,+3V3*%
X133360000Y-38980000D03*
D12*
%TO.P,RV4,2,2*%
%TO.N,MUX_IN_4*%
X135860000Y-38980000D03*
%TO.P,RV4,3,3*%
%TO.N,GND*%
X138360000Y-38980000D03*
%TD*%
D13*
%TO.P,J1,1,Pin_1*%
%TO.N,+3V3*%
X207120000Y-40150000D03*
D14*
%TO.P,J1,2,Pin_2*%
%TO.N,CHANNEL_SELECT_A*%
X207120000Y-37610000D03*
%TO.P,J1,3,Pin_3*%
%TO.N,CHANNEL_SELECT_B*%
X207120000Y-35070000D03*
%TO.P,J1,4,Pin_4*%
%TO.N,CHANNEL_SELECT_C*%
X207120000Y-32530000D03*
%TO.P,J1,5,Pin_5*%
%TO.N,MUX_OUT*%
X207120000Y-29990000D03*
%TO.P,J1,6,Pin_6*%
%TO.N,GND*%
X207120000Y-27450000D03*
%TD*%
D10*
%TO.P,RV2,*%
%TO.N,*%
X114840000Y-31480000D03*
X105240000Y-31480000D03*
D11*
%TO.P,RV2,1,1*%
%TO.N,+3V3*%
X107540000Y-38980000D03*
D12*
%TO.P,RV2,2,2*%
%TO.N,MUX_IN_2*%
X110040000Y-38980000D03*
%TO.P,RV2,3,3*%
%TO.N,GND*%
X112540000Y-38980000D03*
%TD*%
D15*
%TO.N,+3V3*%
X200150000Y-27960000D03*
%TD*%
D16*
%TO.N,+3V3*%
X200149999Y-36059527D02*
G75*
G02*
X198954653Y-38945343I-4081165J3D01*
G01*
X201210659Y-38810659D02*
G75*
G02*
X200150000Y-36059527I2801729J2660193D01*
G01*
X143148923Y-37140001D02*
G75*
G02*
X145369999Y-38060001I1J-3141075D01*
G01*
X174623589Y-40470000D02*
G75*
G02*
X172825000Y-39725000I3J2543595D01*
G01*
X105448282Y-40205300D02*
G75*
G03*
X106927350Y-39592650I-4J2091727D01*
G01*
X134279999Y-38059999D02*
G75*
G02*
X132440001Y-38059999I-919999J920001D01*
G01*
X147209999Y-38059999D02*
G75*
G02*
X145370001Y-38059999I-919999J920001D01*
G01*
X196005016Y-40204510D02*
G75*
G03*
X198890832Y-39009165I-4J4081170D01*
G01*
X147210000Y-38060000D02*
G75*
G02*
X149431076Y-37140000I2221074J-2221072D01*
G01*
X156038923Y-37140001D02*
G75*
G02*
X158259999Y-38060001I1J-3141075D01*
G01*
X130201852Y-37130000D02*
G75*
G02*
X132435000Y-38055000I3J-3158141D01*
G01*
X184387745Y-39592256D02*
G75*
G02*
X185612255Y-39592255I612255J-612253D01*
G01*
X187090371Y-40204510D02*
G75*
G02*
X185612256Y-39592254I3J2090378D01*
G01*
X96731717Y-40205300D02*
G75*
G02*
X95252650Y-39592650I1J2091718D01*
G01*
X121375000Y-38055000D02*
G75*
G02*
X123608147Y-37130000I2233143J-2233136D01*
G01*
X134280000Y-38060000D02*
G75*
G02*
X136501076Y-37140000I2221074J-2221072D01*
G01*
X182456410Y-40469999D02*
G75*
G03*
X184255000Y-39725000I-3J2543599D01*
G01*
X204240472Y-40149999D02*
G75*
G02*
X201354656Y-38954654I4J4081170D01*
G01*
X201210659Y-38810659D02*
X201354655Y-38954655D01*
X204240472Y-40150000D02*
X207120000Y-40150000D01*
X196005016Y-40204511D02*
X187090371Y-40204511D01*
X200150000Y-36059527D02*
X200150000Y-27960000D01*
X198954654Y-38945344D02*
X198890833Y-39009166D01*
X106927350Y-39592650D02*
X107540000Y-38980000D01*
X95252650Y-39592650D02*
X94640000Y-38980000D01*
X143148923Y-37140000D02*
X136501076Y-37140000D01*
X172825000Y-39725000D02*
X172080000Y-38980000D01*
X121375000Y-38055000D02*
X120450000Y-38980000D01*
X174623589Y-40470000D02*
X182456410Y-40470000D01*
X105448282Y-40205300D02*
X96731717Y-40205300D01*
X158260000Y-38060000D02*
X159180000Y-38980000D01*
X132440000Y-38060000D02*
X132435000Y-38055000D01*
X149431076Y-37140000D02*
X156038923Y-37140000D01*
X184387744Y-39592255D02*
X184255000Y-39725000D01*
X130201852Y-37130000D02*
X123608147Y-37130000D01*
%TD*%
%TA.AperFunction,Conductor*%
%TO.N,GND*%
G36*
X206161288Y-26188000D02*
G01*
X206229409Y-26208002D01*
X206275902Y-26261658D01*
X206286005Y-26331932D01*
X206256512Y-26396512D01*
X206236941Y-26414760D01*
X206219433Y-26427905D01*
X206211726Y-26434748D01*
X206064590Y-26588717D01*
X206058104Y-26596727D01*
X205938098Y-26772649D01*
X205933000Y-26781623D01*
X205843338Y-26974783D01*
X205839775Y-26984470D01*
X205784389Y-27184183D01*
X205785912Y-27192607D01*
X205798292Y-27196000D01*
X207248000Y-27196000D01*
X207316121Y-27216002D01*
X207362614Y-27269658D01*
X207374000Y-27322000D01*
X207374000Y-27578000D01*
X207353998Y-27646121D01*
X207300342Y-27692614D01*
X207248000Y-27704000D01*
X205803225Y-27704000D01*
X205789694Y-27707973D01*
X205788257Y-27717966D01*
X205818565Y-27852446D01*
X205821645Y-27862275D01*
X205901770Y-28059603D01*
X205906413Y-28068794D01*
X206017694Y-28250388D01*
X206023777Y-28258699D01*
X206163213Y-28419667D01*
X206170580Y-28426883D01*
X206334434Y-28562916D01*
X206342881Y-28568831D01*
X206411969Y-28609203D01*
X206460693Y-28660842D01*
X206473764Y-28730625D01*
X206447033Y-28796396D01*
X206406584Y-28829752D01*
X206393607Y-28836507D01*
X206389474Y-28839610D01*
X206389471Y-28839612D01*
X206219100Y-28967530D01*
X206214965Y-28970635D01*
X206060629Y-29132138D01*
X205934743Y-29316680D01*
X205889374Y-29414420D01*
X205848166Y-29503196D01*
X205840688Y-29519305D01*
X205780989Y-29734570D01*
X205757251Y-29956695D01*
X205770110Y-30179715D01*
X205771247Y-30184761D01*
X205771248Y-30184767D01*
X205783973Y-30241231D01*
X205819222Y-30397639D01*
X205903266Y-30604616D01*
X205905965Y-30609020D01*
X206002628Y-30766760D01*
X206019987Y-30795088D01*
X206166250Y-30963938D01*
X206338126Y-31106632D01*
X206363005Y-31121170D01*
X206411445Y-31149476D01*
X206460169Y-31201114D01*
X206473240Y-31270897D01*
X206446509Y-31336669D01*
X206406055Y-31370027D01*
X206393607Y-31376507D01*
X206389474Y-31379610D01*
X206389471Y-31379612D01*
X206219100Y-31507530D01*
X206214965Y-31510635D01*
X206060629Y-31672138D01*
X205934743Y-31856680D01*
X205840688Y-32059305D01*
X205780989Y-32274570D01*
X205757251Y-32496695D01*
X205757548Y-32501848D01*
X205757548Y-32501851D01*
X205763153Y-32599060D01*
X205770110Y-32719715D01*
X205771247Y-32724761D01*
X205771248Y-32724767D01*
X205787845Y-32798412D01*
X205819222Y-32937639D01*
X205838296Y-32984612D01*
X205892253Y-33117493D01*
X205903266Y-33144616D01*
X206019987Y-33335088D01*
X206166250Y-33503938D01*
X206338126Y-33646632D01*
X206408595Y-33687811D01*
X206411445Y-33689476D01*
X206460169Y-33741114D01*
X206473240Y-33810897D01*
X206446509Y-33876669D01*
X206406055Y-33910027D01*
X206393607Y-33916507D01*
X206389474Y-33919610D01*
X206389471Y-33919612D01*
X206219100Y-34047530D01*
X206214965Y-34050635D01*
X206060629Y-34212138D01*
X205934743Y-34396680D01*
X205840688Y-34599305D01*
X205780989Y-34814570D01*
X205757251Y-35036695D01*
X205770110Y-35259715D01*
X205771247Y-35264761D01*
X205771248Y-35264767D01*
X205795304Y-35371508D01*
X205819222Y-35477639D01*
X205903266Y-35684616D01*
X206019987Y-35875088D01*
X206166250Y-36043938D01*
X206338126Y-36186632D01*
X206362473Y-36200859D01*
X206411445Y-36229476D01*
X206460169Y-36281114D01*
X206473240Y-36350897D01*
X206446509Y-36416669D01*
X206406055Y-36450027D01*
X206393607Y-36456507D01*
X206389474Y-36459610D01*
X206389471Y-36459612D01*
X206254568Y-36560900D01*
X206214965Y-36590635D01*
X206211393Y-36594373D01*
X206074013Y-36738133D01*
X206060629Y-36752138D01*
X205934743Y-36936680D01*
X205840688Y-37139305D01*
X205780989Y-37354570D01*
X205757251Y-37576695D01*
X205757548Y-37581848D01*
X205757548Y-37581851D01*
X205763978Y-37693373D01*
X205770110Y-37799715D01*
X205771247Y-37804761D01*
X205771248Y-37804767D01*
X205779573Y-37841705D01*
X205819222Y-38017639D01*
X205874764Y-38154424D01*
X205890909Y-38194183D01*
X205903266Y-38224616D01*
X205905965Y-38229020D01*
X206013828Y-38405037D01*
X206019987Y-38415088D01*
X206166250Y-38583938D01*
X206170230Y-38587242D01*
X206174981Y-38591187D01*
X206214616Y-38650090D01*
X206216113Y-38721071D01*
X206178997Y-38781593D01*
X206138724Y-38806112D01*
X206023295Y-38849385D01*
X205906739Y-38936739D01*
X205819385Y-39053295D01*
X205768255Y-39189684D01*
X205761500Y-39251866D01*
X205761500Y-39390500D01*
X205741498Y-39458621D01*
X205687842Y-39505114D01*
X205635500Y-39516500D01*
X204290491Y-39516500D01*
X204274045Y-39515422D01*
X204254687Y-39512873D01*
X204254683Y-39512873D01*
X204247156Y-39511882D01*
X204239609Y-39512715D01*
X204239603Y-39512715D01*
X204226135Y-39514202D01*
X204206130Y-39514811D01*
X204020115Y-39505673D01*
X203908721Y-39500201D01*
X203896425Y-39498989D01*
X203573991Y-39451161D01*
X203561870Y-39448751D01*
X203403860Y-39409171D01*
X203245675Y-39369547D01*
X203233843Y-39365958D01*
X202926938Y-39256146D01*
X202915514Y-39251414D01*
X202717733Y-39157871D01*
X202620846Y-39112047D01*
X202609945Y-39106220D01*
X202520049Y-39052338D01*
X202404308Y-38982966D01*
X202330360Y-38938643D01*
X202320079Y-38931773D01*
X202058271Y-38737602D01*
X202048713Y-38729758D01*
X201833592Y-38534785D01*
X201818246Y-38518129D01*
X201815224Y-38514190D01*
X201815218Y-38514184D01*
X201810598Y-38508163D01*
X201804674Y-38503417D01*
X201804672Y-38503415D01*
X201783166Y-38486186D01*
X201772850Y-38476946D01*
X201700942Y-38405037D01*
X201688122Y-38390031D01*
X201682484Y-38382276D01*
X201678015Y-38376128D01*
X201672209Y-38371224D01*
X201672205Y-38371220D01*
X201661834Y-38362461D01*
X201647625Y-38348383D01*
X201467964Y-38139592D01*
X201460391Y-38129866D01*
X201329150Y-37943155D01*
X201285764Y-37881431D01*
X201279178Y-37871013D01*
X201129657Y-37606685D01*
X201124120Y-37595672D01*
X201001151Y-37318013D01*
X200996716Y-37306510D01*
X200941484Y-37139305D01*
X200901463Y-37018146D01*
X200898176Y-37006272D01*
X200896785Y-37000082D01*
X200841039Y-36752138D01*
X200831565Y-36710001D01*
X200829452Y-36697856D01*
X200794611Y-36416669D01*
X200792109Y-36396472D01*
X200791194Y-36384179D01*
X200784696Y-36128392D01*
X200784752Y-36120244D01*
X200785494Y-36101364D01*
X200786560Y-36090398D01*
X200786617Y-36088728D01*
X200787784Y-36081228D01*
X200787424Y-36077075D01*
X200787432Y-36076976D01*
X200788013Y-36072891D01*
X200788153Y-36059527D01*
X200784413Y-36028620D01*
X200783500Y-36013485D01*
X200783500Y-28662524D01*
X200803502Y-28594403D01*
X200815858Y-28578221D01*
X200889040Y-28496944D01*
X200984527Y-28331556D01*
X201043542Y-28149928D01*
X201044933Y-28136700D01*
X201062814Y-27966565D01*
X201063504Y-27960000D01*
X201043542Y-27770072D01*
X200984527Y-27588444D01*
X200889040Y-27423056D01*
X200761253Y-27281134D01*
X200606752Y-27168882D01*
X200600724Y-27166198D01*
X200600722Y-27166197D01*
X200438319Y-27093891D01*
X200438318Y-27093891D01*
X200432288Y-27091206D01*
X200338888Y-27071353D01*
X200251944Y-27052872D01*
X200251939Y-27052872D01*
X200245487Y-27051500D01*
X200054513Y-27051500D01*
X200048061Y-27052872D01*
X200048056Y-27052872D01*
X199961112Y-27071353D01*
X199867712Y-27091206D01*
X199861682Y-27093891D01*
X199861681Y-27093891D01*
X199699278Y-27166197D01*
X199699276Y-27166198D01*
X199693248Y-27168882D01*
X199538747Y-27281134D01*
X199410960Y-27423056D01*
X199315473Y-27588444D01*
X199256458Y-27770072D01*
X199236496Y-27960000D01*
X199237186Y-27966565D01*
X199255068Y-28136700D01*
X199256458Y-28149928D01*
X199315473Y-28331556D01*
X199410960Y-28496944D01*
X199484137Y-28578215D01*
X199514853Y-28642221D01*
X199516500Y-28662524D01*
X199516500Y-35996571D01*
X199514790Y-36017256D01*
X199513155Y-36027077D01*
X199513154Y-36027088D01*
X199512478Y-36031149D01*
X199512024Y-36044506D01*
X199512423Y-36048614D01*
X199512426Y-36048711D01*
X199511882Y-36052844D01*
X199512709Y-36060332D01*
X199512714Y-36060584D01*
X199512680Y-36063826D01*
X199512822Y-36066013D01*
X199513705Y-36110270D01*
X199513578Y-36118965D01*
X199510416Y-36183327D01*
X199502064Y-36353357D01*
X199500201Y-36391273D01*
X199498989Y-36403574D01*
X199467917Y-36613051D01*
X199451162Y-36726005D01*
X199448751Y-36738129D01*
X199425226Y-36832046D01*
X199369547Y-37054324D01*
X199365958Y-37066156D01*
X199256146Y-37373061D01*
X199251414Y-37384485D01*
X199112049Y-37679148D01*
X199106220Y-37690053D01*
X198938642Y-37969639D01*
X198931772Y-37979920D01*
X198737607Y-38241722D01*
X198729762Y-38251281D01*
X198534776Y-38466413D01*
X198518125Y-38481755D01*
X198514190Y-38484775D01*
X198508162Y-38489401D01*
X198503412Y-38495330D01*
X198503410Y-38495332D01*
X198486816Y-38516044D01*
X198465187Y-38537226D01*
X198450365Y-38548599D01*
X198450363Y-38548601D01*
X198444341Y-38553222D01*
X198439595Y-38559146D01*
X198439593Y-38559148D01*
X198431114Y-38569732D01*
X198417396Y-38584311D01*
X198196775Y-38784269D01*
X198187217Y-38792113D01*
X197925409Y-38986284D01*
X197915128Y-38993154D01*
X197827522Y-39045663D01*
X197640315Y-39157871D01*
X197635543Y-39160731D01*
X197624642Y-39166558D01*
X197531713Y-39210510D01*
X197329974Y-39305925D01*
X197318550Y-39310657D01*
X197011645Y-39420469D01*
X196999813Y-39424058D01*
X196807463Y-39472240D01*
X196683618Y-39503262D01*
X196671497Y-39505672D01*
X196349063Y-39553500D01*
X196336767Y-39554712D01*
X196158998Y-39563445D01*
X196046776Y-39568958D01*
X196024150Y-39568032D01*
X196019231Y-39567384D01*
X196019225Y-39567384D01*
X196011698Y-39566393D01*
X195979271Y-39569973D01*
X195976762Y-39570250D01*
X195962935Y-39571011D01*
X191462035Y-39571011D01*
X191393914Y-39551009D01*
X191347421Y-39497353D01*
X191337317Y-39427079D01*
X191341477Y-39408382D01*
X191379415Y-39283517D01*
X191381594Y-39273436D01*
X191410702Y-39052338D01*
X191411221Y-39045663D01*
X191412744Y-38983364D01*
X191412550Y-38976646D01*
X191394279Y-38754400D01*
X191392596Y-38744238D01*
X191338710Y-38529708D01*
X191335389Y-38519953D01*
X191247193Y-38317118D01*
X191242315Y-38308020D01*
X191169224Y-38195038D01*
X191158538Y-38185835D01*
X191148973Y-38190238D01*
X190089095Y-39250115D01*
X190026783Y-39284141D01*
X189955967Y-39279076D01*
X189910905Y-39250115D01*
X188853866Y-38193077D01*
X188842329Y-38186777D01*
X188832877Y-38194183D01*
X188766918Y-38220450D01*
X188697229Y-38206887D01*
X188649377Y-38163440D01*
X188645762Y-38157851D01*
X188619764Y-38117665D01*
X188463887Y-37946358D01*
X188459836Y-37943159D01*
X188459832Y-37943155D01*
X188304790Y-37820711D01*
X189205508Y-37820711D01*
X189212251Y-37833040D01*
X189987189Y-38607979D01*
X190001132Y-38615592D01*
X190002966Y-38615461D01*
X190009580Y-38611210D01*
X190788994Y-37831795D01*
X190796011Y-37818944D01*
X190788237Y-37808274D01*
X190785902Y-37806430D01*
X190777320Y-37800729D01*
X190583678Y-37693833D01*
X190574272Y-37689606D01*
X190365772Y-37615772D01*
X190355809Y-37613140D01*
X190138047Y-37574350D01*
X190127796Y-37573381D01*
X189906616Y-37570679D01*
X189896332Y-37571399D01*
X189677693Y-37604855D01*
X189667666Y-37607244D01*
X189457426Y-37675961D01*
X189447916Y-37679958D01*
X189251725Y-37782089D01*
X189243007Y-37787578D01*
X189213961Y-37809386D01*
X189205508Y-37820711D01*
X188304790Y-37820711D01*
X188286177Y-37806011D01*
X188286172Y-37806008D01*
X188282123Y-37802810D01*
X188277607Y-37800317D01*
X188277604Y-37800315D01*
X188083879Y-37693373D01*
X188083875Y-37693371D01*
X188079355Y-37690876D01*
X188074486Y-37689152D01*
X188074482Y-37689150D01*
X187865903Y-37615288D01*
X187865899Y-37615287D01*
X187861028Y-37613562D01*
X187855935Y-37612655D01*
X187855932Y-37612654D01*
X187638095Y-37573851D01*
X187638089Y-37573850D01*
X187633006Y-37572945D01*
X187560096Y-37572054D01*
X187406581Y-37570179D01*
X187406579Y-37570179D01*
X187401411Y-37570116D01*
X187172464Y-37605150D01*
X186952314Y-37677106D01*
X186947726Y-37679494D01*
X186947722Y-37679496D01*
X186760175Y-37777127D01*
X186746872Y-37784052D01*
X186742739Y-37787155D01*
X186742736Y-37787157D01*
X186561655Y-37923117D01*
X186560976Y-37922213D01*
X186501730Y-37950131D01*
X186431341Y-37940869D01*
X186377132Y-37895022D01*
X186364325Y-37869866D01*
X186353768Y-37841705D01*
X186353767Y-37841703D01*
X186350615Y-37833295D01*
X186263261Y-37716739D01*
X186146705Y-37629385D01*
X186010316Y-37578255D01*
X185948134Y-37571500D01*
X184051866Y-37571500D01*
X183989684Y-37578255D01*
X183853295Y-37629385D01*
X183736739Y-37716739D01*
X183649385Y-37833295D01*
X183598255Y-37969684D01*
X183591500Y-38031866D01*
X183591500Y-39392945D01*
X183571498Y-39461066D01*
X183535503Y-39497709D01*
X183425757Y-39571039D01*
X183418323Y-39576006D01*
X183404051Y-39584246D01*
X183194773Y-39687451D01*
X183179545Y-39693758D01*
X182958600Y-39768758D01*
X182942681Y-39773024D01*
X182713823Y-39818547D01*
X182697482Y-39820698D01*
X182496668Y-39833860D01*
X182471987Y-39833053D01*
X182470900Y-39832910D01*
X182470620Y-39832873D01*
X182470619Y-39832873D01*
X182463092Y-39831882D01*
X182428156Y-39835739D01*
X182414329Y-39836500D01*
X178430172Y-39836500D01*
X178362051Y-39816498D01*
X178315558Y-39762842D01*
X178305454Y-39692568D01*
X178317215Y-39654673D01*
X178391318Y-39504737D01*
X178395117Y-39495142D01*
X178459415Y-39283517D01*
X178461594Y-39273436D01*
X178490702Y-39052338D01*
X178491221Y-39045663D01*
X178492744Y-38983364D01*
X178492550Y-38976646D01*
X178474279Y-38754400D01*
X178472596Y-38744238D01*
X178418710Y-38529708D01*
X178415389Y-38519953D01*
X178327193Y-38317118D01*
X178322315Y-38308020D01*
X178249224Y-38195038D01*
X178238538Y-38185835D01*
X178228973Y-38190238D01*
X177169095Y-39250115D01*
X177106783Y-39284141D01*
X177035967Y-39279076D01*
X176990905Y-39250115D01*
X175933866Y-38193077D01*
X175922329Y-38186777D01*
X175912877Y-38194183D01*
X175846918Y-38220450D01*
X175777229Y-38206887D01*
X175729377Y-38163440D01*
X175725762Y-38157851D01*
X175699764Y-38117665D01*
X175543887Y-37946358D01*
X175539836Y-37943159D01*
X175539832Y-37943155D01*
X175384790Y-37820711D01*
X176285508Y-37820711D01*
X176292251Y-37833040D01*
X177067189Y-38607979D01*
X177081132Y-38615592D01*
X177082966Y-38615461D01*
X177089580Y-38611210D01*
X177868994Y-37831795D01*
X177876011Y-37818944D01*
X177868237Y-37808274D01*
X177865902Y-37806430D01*
X177857320Y-37800729D01*
X177663678Y-37693833D01*
X177654272Y-37689606D01*
X177445772Y-37615772D01*
X177435809Y-37613140D01*
X177218047Y-37574350D01*
X177207796Y-37573381D01*
X176986616Y-37570679D01*
X176976332Y-37571399D01*
X176757693Y-37604855D01*
X176747666Y-37607244D01*
X176537426Y-37675961D01*
X176527916Y-37679958D01*
X176331725Y-37782089D01*
X176323007Y-37787578D01*
X176293961Y-37809386D01*
X176285508Y-37820711D01*
X175384790Y-37820711D01*
X175366177Y-37806011D01*
X175366172Y-37806008D01*
X175362123Y-37802810D01*
X175357607Y-37800317D01*
X175357604Y-37800315D01*
X175163879Y-37693373D01*
X175163875Y-37693371D01*
X175159355Y-37690876D01*
X175154486Y-37689152D01*
X175154482Y-37689150D01*
X174945903Y-37615288D01*
X174945899Y-37615287D01*
X174941028Y-37613562D01*
X174935935Y-37612655D01*
X174935932Y-37612654D01*
X174718095Y-37573851D01*
X174718089Y-37573850D01*
X174713006Y-37572945D01*
X174640096Y-37572054D01*
X174486581Y-37570179D01*
X174486579Y-37570179D01*
X174481411Y-37570116D01*
X174252464Y-37605150D01*
X174032314Y-37677106D01*
X174027726Y-37679494D01*
X174027722Y-37679496D01*
X173840175Y-37777127D01*
X173826872Y-37784052D01*
X173822739Y-37787155D01*
X173822736Y-37787157D01*
X173641655Y-37923117D01*
X173640976Y-37922213D01*
X173581730Y-37950131D01*
X173511341Y-37940869D01*
X173457132Y-37895022D01*
X173444325Y-37869866D01*
X173433768Y-37841705D01*
X173433767Y-37841703D01*
X173430615Y-37833295D01*
X173343261Y-37716739D01*
X173226705Y-37629385D01*
X173090316Y-37578255D01*
X173028134Y-37571500D01*
X171131866Y-37571500D01*
X171069684Y-37578255D01*
X170933295Y-37629385D01*
X170816739Y-37716739D01*
X170729385Y-37833295D01*
X170678255Y-37969684D01*
X170671500Y-38031866D01*
X170671500Y-39928134D01*
X170678255Y-39990316D01*
X170729385Y-40126705D01*
X170816739Y-40243261D01*
X170933295Y-40330615D01*
X171069684Y-40381745D01*
X171131866Y-40388500D01*
X172568331Y-40388500D01*
X172636452Y-40408502D01*
X172643382Y-40413292D01*
X172856365Y-40571250D01*
X172859005Y-40572833D01*
X172859015Y-40572839D01*
X173054797Y-40690185D01*
X173124114Y-40731732D01*
X173126893Y-40733046D01*
X173126896Y-40733048D01*
X173403511Y-40863878D01*
X173403520Y-40863882D01*
X173406303Y-40865198D01*
X173494295Y-40896682D01*
X173697311Y-40969323D01*
X173697319Y-40969325D01*
X173700216Y-40970362D01*
X173850244Y-41007942D01*
X174000019Y-41045459D01*
X174000023Y-41045460D01*
X174003022Y-41046211D01*
X174006084Y-41046665D01*
X174006088Y-41046666D01*
X174139778Y-41066497D01*
X174311804Y-41092015D01*
X174314888Y-41092166D01*
X174314893Y-41092167D01*
X174543078Y-41103376D01*
X174543003Y-41104895D01*
X174545542Y-41104572D01*
X174545595Y-41103500D01*
X174548169Y-41103627D01*
X174551636Y-41103797D01*
X174551637Y-41103797D01*
X174574450Y-41104918D01*
X174590063Y-41105685D01*
X174601629Y-41106790D01*
X174606125Y-41107430D01*
X174606132Y-41107431D01*
X174610224Y-41108013D01*
X174617673Y-41108091D01*
X174619468Y-41108110D01*
X174619470Y-41108110D01*
X174623588Y-41108153D01*
X174627678Y-41107658D01*
X174627679Y-41107658D01*
X174643982Y-41105685D01*
X174654495Y-41104413D01*
X174669630Y-41103500D01*
X182402416Y-41103500D01*
X182420170Y-41104757D01*
X182443047Y-41108013D01*
X182449243Y-41108078D01*
X182452278Y-41108110D01*
X182452283Y-41108110D01*
X182456411Y-41108153D01*
X182460508Y-41107657D01*
X182460510Y-41107657D01*
X182461713Y-41107511D01*
X182463388Y-41107308D01*
X182472340Y-41106548D01*
X182555558Y-41102460D01*
X182765106Y-41092166D01*
X182765111Y-41092166D01*
X182768195Y-41092014D01*
X182940215Y-41066497D01*
X183073911Y-41046665D01*
X183073915Y-41046664D01*
X183076977Y-41046210D01*
X183079976Y-41045459D01*
X183079980Y-41045458D01*
X183229755Y-41007941D01*
X183379783Y-40970361D01*
X183382680Y-40969324D01*
X183382688Y-40969322D01*
X183515203Y-40921907D01*
X183673695Y-40865198D01*
X183676478Y-40863882D01*
X183676487Y-40863878D01*
X183953103Y-40733048D01*
X183953106Y-40733046D01*
X183955885Y-40731732D01*
X184025202Y-40690185D01*
X184220984Y-40572839D01*
X184220994Y-40572833D01*
X184223634Y-40571250D01*
X184436611Y-40413296D01*
X184503240Y-40388782D01*
X184511668Y-40388500D01*
X185548511Y-40388500D01*
X185621422Y-40411738D01*
X185638901Y-40424140D01*
X185641993Y-40425849D01*
X185641998Y-40425852D01*
X185744474Y-40482488D01*
X185906666Y-40572128D01*
X186189316Y-40689206D01*
X186483297Y-40773901D01*
X186784913Y-40825148D01*
X187009329Y-40837751D01*
X187009254Y-40839089D01*
X187010341Y-40838954D01*
X187010341Y-40838011D01*
X187010418Y-40838011D01*
X187013941Y-40838110D01*
X187013947Y-40838011D01*
X187016695Y-40838165D01*
X187016696Y-40838165D01*
X187021711Y-40838446D01*
X187021715Y-40838447D01*
X187056011Y-40840373D01*
X187060362Y-40840617D01*
X187071044Y-40841676D01*
X187077006Y-40842524D01*
X187084167Y-40842599D01*
X187086250Y-40842621D01*
X187086252Y-40842621D01*
X187090370Y-40842664D01*
X187094460Y-40842169D01*
X187094461Y-40842169D01*
X187107285Y-40840617D01*
X187121277Y-40838924D01*
X187136412Y-40838011D01*
X195951022Y-40838011D01*
X195968776Y-40839268D01*
X195991653Y-40842524D01*
X195998150Y-40842592D01*
X196000890Y-40842621D01*
X196000894Y-40842621D01*
X196005017Y-40842664D01*
X196011127Y-40841925D01*
X196012366Y-40841775D01*
X196022550Y-40840960D01*
X196375210Y-40827103D01*
X196377655Y-40826814D01*
X196377663Y-40826813D01*
X196597768Y-40800761D01*
X196743121Y-40783557D01*
X196871012Y-40758118D01*
X197104050Y-40711764D01*
X197104061Y-40711761D01*
X197106481Y-40711280D01*
X197108857Y-40710610D01*
X197108869Y-40710607D01*
X197460661Y-40611391D01*
X197460666Y-40611389D01*
X197463050Y-40610717D01*
X197810631Y-40482488D01*
X197824024Y-40476314D01*
X198070669Y-40362608D01*
X198147078Y-40327383D01*
X198149217Y-40326185D01*
X198149227Y-40326180D01*
X198386055Y-40193550D01*
X198470320Y-40146360D01*
X198499736Y-40126705D01*
X198776297Y-39941913D01*
X198776301Y-39941910D01*
X198778362Y-39940533D01*
X198931057Y-39820158D01*
X199067357Y-39712708D01*
X199067362Y-39712704D01*
X199069305Y-39711172D01*
X199072827Y-39707917D01*
X199316822Y-39482370D01*
X199326696Y-39474137D01*
X199329222Y-39472240D01*
X199329225Y-39472238D01*
X199332526Y-39469759D01*
X199337012Y-39465366D01*
X199339122Y-39463301D01*
X199339126Y-39463297D01*
X199342075Y-39460409D01*
X199344621Y-39457162D01*
X199344629Y-39457153D01*
X199358003Y-39440096D01*
X199381503Y-39417083D01*
X199396348Y-39405937D01*
X199399401Y-39402947D01*
X199402946Y-39399476D01*
X199402952Y-39399469D01*
X199405896Y-39396586D01*
X199408443Y-39393338D01*
X199408447Y-39393333D01*
X199410471Y-39390752D01*
X199417098Y-39382972D01*
X199429508Y-39369547D01*
X199656660Y-39123817D01*
X199658177Y-39121893D01*
X199658187Y-39121881D01*
X199884485Y-38834821D01*
X199886021Y-38832873D01*
X200034646Y-38610441D01*
X200089122Y-38564913D01*
X200159565Y-38556065D01*
X200223609Y-38586706D01*
X200247351Y-38615445D01*
X200259433Y-38635510D01*
X200259439Y-38635520D01*
X200260851Y-38637864D01*
X200491180Y-38954441D01*
X200670652Y-39160731D01*
X200705147Y-39200381D01*
X200704414Y-39201019D01*
X200705925Y-39202213D01*
X200706117Y-39202021D01*
X200706532Y-39202436D01*
X200707446Y-39203416D01*
X200707761Y-39203665D01*
X200709633Y-39205537D01*
X200728766Y-39227529D01*
X200729923Y-39228859D01*
X200733764Y-39233736D01*
X200733787Y-39233717D01*
X200736385Y-39236906D01*
X200738779Y-39240273D01*
X200747879Y-39250061D01*
X200776150Y-39273436D01*
X200779541Y-39276240D01*
X200788346Y-39284251D01*
X200868521Y-39364426D01*
X200880186Y-39377868D01*
X200889860Y-39390752D01*
X200894062Y-39396349D01*
X200903413Y-39405898D01*
X200906657Y-39408441D01*
X200906663Y-39408447D01*
X200909234Y-39410462D01*
X200917017Y-39417090D01*
X201004232Y-39497711D01*
X201133792Y-39617475D01*
X201176183Y-39656661D01*
X201178126Y-39658193D01*
X201178131Y-39658197D01*
X201316269Y-39767096D01*
X201467126Y-39886022D01*
X201469187Y-39887399D01*
X201469191Y-39887402D01*
X201773113Y-40090476D01*
X201775168Y-40091849D01*
X201777320Y-40093054D01*
X202096261Y-40271669D01*
X202096271Y-40271674D01*
X202098410Y-40272872D01*
X202100651Y-40273905D01*
X202431519Y-40426438D01*
X202434857Y-40427977D01*
X202782438Y-40556206D01*
X202784822Y-40556878D01*
X202784827Y-40556880D01*
X203136619Y-40656096D01*
X203136631Y-40656099D01*
X203139007Y-40656769D01*
X203141427Y-40657250D01*
X203141438Y-40657253D01*
X203321398Y-40693049D01*
X203502367Y-40729046D01*
X203647720Y-40746250D01*
X203867825Y-40772302D01*
X203867833Y-40772303D01*
X203870278Y-40772592D01*
X204207091Y-40785826D01*
X204219883Y-40786985D01*
X204227107Y-40788013D01*
X204234268Y-40788088D01*
X204236351Y-40788110D01*
X204236353Y-40788110D01*
X204240471Y-40788153D01*
X204244561Y-40787658D01*
X204244562Y-40787658D01*
X204252218Y-40786731D01*
X204271378Y-40784413D01*
X204286513Y-40783500D01*
X205635500Y-40783500D01*
X205703621Y-40803502D01*
X205750114Y-40857158D01*
X205761500Y-40909500D01*
X205761500Y-41048134D01*
X205768255Y-41110316D01*
X205819385Y-41246705D01*
X205841534Y-41276258D01*
X205866380Y-41342763D01*
X205851327Y-41412145D01*
X205801152Y-41462375D01*
X205740713Y-41477821D01*
X96369314Y-41482010D01*
X96349934Y-41480510D01*
X96339640Y-41478908D01*
X96335141Y-41478207D01*
X96335140Y-41478207D01*
X96326270Y-41476826D01*
X96306946Y-41479353D01*
X96284430Y-41480265D01*
X95983899Y-41465500D01*
X95971605Y-41464290D01*
X95644866Y-41415822D01*
X95632744Y-41413412D01*
X95539777Y-41390125D01*
X95312328Y-41333151D01*
X95300496Y-41329562D01*
X94989493Y-41218284D01*
X94978069Y-41213552D01*
X94754925Y-41108013D01*
X94679467Y-41072324D01*
X94668566Y-41066497D01*
X94637930Y-41048134D01*
X94385248Y-40896682D01*
X94374967Y-40889812D01*
X94109663Y-40693049D01*
X94100105Y-40685205D01*
X94014767Y-40607860D01*
X93977725Y-40547293D01*
X93979309Y-40476314D01*
X94019015Y-40417459D01*
X94084238Y-40389414D01*
X94099383Y-40388500D01*
X95188314Y-40388500D01*
X95261225Y-40411738D01*
X95279530Y-40424726D01*
X95282617Y-40426432D01*
X95282627Y-40426438D01*
X95385586Y-40483341D01*
X95547427Y-40572787D01*
X95830217Y-40689923D01*
X95833612Y-40690901D01*
X95833615Y-40690902D01*
X95873803Y-40702480D01*
X96124344Y-40774659D01*
X96426109Y-40825931D01*
X96643941Y-40838165D01*
X96650689Y-40838544D01*
X96650614Y-40839877D01*
X96651687Y-40839743D01*
X96651687Y-40838800D01*
X96651712Y-40838800D01*
X96655263Y-40838900D01*
X96655269Y-40838801D01*
X96658020Y-40838956D01*
X96658023Y-40838956D01*
X96663092Y-40839240D01*
X96663097Y-40839241D01*
X96701736Y-40841411D01*
X96712413Y-40842468D01*
X96714281Y-40842734D01*
X96714287Y-40842734D01*
X96718353Y-40843313D01*
X96724533Y-40843378D01*
X96727597Y-40843410D01*
X96727599Y-40843410D01*
X96731717Y-40843453D01*
X96735807Y-40842958D01*
X96735808Y-40842958D01*
X96750665Y-40841160D01*
X96762624Y-40839713D01*
X96777759Y-40838800D01*
X105394288Y-40838800D01*
X105412042Y-40840057D01*
X105434919Y-40843313D01*
X105441159Y-40843378D01*
X105444151Y-40843410D01*
X105444155Y-40843410D01*
X105448283Y-40843453D01*
X105452380Y-40842957D01*
X105454906Y-40842818D01*
X105457867Y-40842556D01*
X105655488Y-40831457D01*
X105753891Y-40825931D01*
X106055656Y-40774659D01*
X106338929Y-40693049D01*
X106346385Y-40690901D01*
X106346386Y-40690901D01*
X106349783Y-40689922D01*
X106353052Y-40688568D01*
X106629304Y-40574141D01*
X106629309Y-40574138D01*
X106632572Y-40572787D01*
X106636859Y-40570418D01*
X106838044Y-40459226D01*
X106900469Y-40424725D01*
X106918771Y-40411739D01*
X106991683Y-40388500D01*
X108488134Y-40388500D01*
X108550316Y-40381745D01*
X108686705Y-40330615D01*
X108803261Y-40243261D01*
X108890615Y-40126705D01*
X108905686Y-40086504D01*
X108948328Y-40029739D01*
X109014890Y-40005040D01*
X109084239Y-40020248D01*
X109104150Y-40033788D01*
X109229349Y-40137730D01*
X109429322Y-40254584D01*
X109645694Y-40337209D01*
X109650760Y-40338240D01*
X109650761Y-40338240D01*
X109703846Y-40349040D01*
X109872656Y-40383385D01*
X110002089Y-40388131D01*
X110098949Y-40391683D01*
X110098953Y-40391683D01*
X110104113Y-40391872D01*
X110109233Y-40391216D01*
X110109235Y-40391216D01*
X110183166Y-40381745D01*
X110333847Y-40362442D01*
X110338795Y-40360957D01*
X110338802Y-40360956D01*
X110550747Y-40297369D01*
X110555690Y-40295886D01*
X110602668Y-40272872D01*
X110759049Y-40196262D01*
X110759052Y-40196260D01*
X110763684Y-40193991D01*
X110837406Y-40141406D01*
X111743423Y-40141406D01*
X111748704Y-40148461D01*
X111925080Y-40251527D01*
X111934363Y-40255974D01*
X112141003Y-40334883D01*
X112150901Y-40337759D01*
X112367653Y-40381857D01*
X112377883Y-40383076D01*
X112598914Y-40391182D01*
X112609223Y-40390714D01*
X112828623Y-40362608D01*
X112838688Y-40360468D01*
X113050557Y-40296905D01*
X113060152Y-40293144D01*
X113258778Y-40195838D01*
X113267636Y-40190559D01*
X113325097Y-40149572D01*
X113333497Y-40138874D01*
X113326510Y-40125721D01*
X113128923Y-39928134D01*
X119041500Y-39928134D01*
X119048255Y-39990316D01*
X119099385Y-40126705D01*
X119186739Y-40243261D01*
X119303295Y-40330615D01*
X119439684Y-40381745D01*
X119501866Y-40388500D01*
X121398134Y-40388500D01*
X121460316Y-40381745D01*
X121596705Y-40330615D01*
X121713261Y-40243261D01*
X121800615Y-40126705D01*
X121815686Y-40086504D01*
X121858328Y-40029739D01*
X121924890Y-40005040D01*
X121994239Y-40020248D01*
X122014150Y-40033788D01*
X122139349Y-40137730D01*
X122339322Y-40254584D01*
X122555694Y-40337209D01*
X122560760Y-40338240D01*
X122560761Y-40338240D01*
X122613846Y-40349040D01*
X122782656Y-40383385D01*
X122912089Y-40388131D01*
X123008949Y-40391683D01*
X123008953Y-40391683D01*
X123014113Y-40391872D01*
X123019233Y-40391216D01*
X123019235Y-40391216D01*
X123093166Y-40381745D01*
X123243847Y-40362442D01*
X123248795Y-40360957D01*
X123248802Y-40360956D01*
X123460747Y-40297369D01*
X123465690Y-40295886D01*
X123512668Y-40272872D01*
X123669049Y-40196262D01*
X123669052Y-40196260D01*
X123673684Y-40193991D01*
X123747406Y-40141406D01*
X124653423Y-40141406D01*
X124658704Y-40148461D01*
X124835080Y-40251527D01*
X124844363Y-40255974D01*
X125051003Y-40334883D01*
X125060901Y-40337759D01*
X125277653Y-40381857D01*
X125287883Y-40383076D01*
X125508914Y-40391182D01*
X125519223Y-40390714D01*
X125738623Y-40362608D01*
X125748688Y-40360468D01*
X125960557Y-40296905D01*
X125970152Y-40293144D01*
X126168778Y-40195838D01*
X126177636Y-40190559D01*
X126235097Y-40149572D01*
X126243497Y-40138874D01*
X126236510Y-40125721D01*
X125462811Y-39352021D01*
X125448868Y-39344408D01*
X125447034Y-39344539D01*
X125440420Y-39348790D01*
X124660180Y-40129031D01*
X124653423Y-40141406D01*
X123747406Y-40141406D01*
X123862243Y-40059494D01*
X124026303Y-39896005D01*
X124100714Y-39792451D01*
X124156709Y-39748803D01*
X124227412Y-39742357D01*
X124287572Y-39772543D01*
X124290555Y-39775242D01*
X124299330Y-39771459D01*
X125077979Y-38992811D01*
X125084356Y-38981132D01*
X125814408Y-38981132D01*
X125814539Y-38982966D01*
X125818790Y-38989580D01*
X126596307Y-39767096D01*
X126608313Y-39773652D01*
X126620052Y-39764684D01*
X126658010Y-39711859D01*
X126663321Y-39703020D01*
X126761318Y-39504737D01*
X126765117Y-39495142D01*
X126829415Y-39283517D01*
X126831594Y-39273436D01*
X126860702Y-39052338D01*
X126861221Y-39045663D01*
X126862744Y-38983364D01*
X126862550Y-38976646D01*
X126844279Y-38754400D01*
X126842596Y-38744238D01*
X126788710Y-38529708D01*
X126785389Y-38519953D01*
X126697193Y-38317118D01*
X126692315Y-38308020D01*
X126619224Y-38195038D01*
X126608538Y-38185835D01*
X126598973Y-38190238D01*
X125822021Y-38967189D01*
X125814408Y-38981132D01*
X125084356Y-38981132D01*
X125085592Y-38978868D01*
X125085461Y-38977034D01*
X125081210Y-38970420D01*
X124303862Y-38193073D01*
X124292331Y-38186776D01*
X124282877Y-38194183D01*
X124216918Y-38220450D01*
X124147229Y-38206887D01*
X124099377Y-38163440D01*
X124095762Y-38157851D01*
X124069764Y-38117665D01*
X123939310Y-37974297D01*
X123908260Y-37910454D01*
X123916655Y-37839955D01*
X123961831Y-37785187D01*
X124032505Y-37763500D01*
X124549517Y-37763500D01*
X124617638Y-37783502D01*
X124660063Y-37829039D01*
X124662252Y-37833041D01*
X125437189Y-38607979D01*
X125451132Y-38615592D01*
X125452966Y-38615461D01*
X125459580Y-38611210D01*
X126238995Y-37831794D01*
X126240459Y-37829113D01*
X126290662Y-37778911D01*
X126351045Y-37763500D01*
X130151835Y-37763500D01*
X130168281Y-37764578D01*
X130187639Y-37767127D01*
X130187643Y-37767127D01*
X130195170Y-37768118D01*
X130209967Y-37766484D01*
X130214726Y-37765959D01*
X130235618Y-37765396D01*
X130295123Y-37768738D01*
X130477462Y-37778977D01*
X130491494Y-37780558D01*
X130604241Y-37799715D01*
X130756663Y-37825613D01*
X130770438Y-37828757D01*
X131028893Y-37903216D01*
X131042230Y-37907883D01*
X131144347Y-37950181D01*
X131290723Y-38010812D01*
X131303446Y-38016939D01*
X131538858Y-38147047D01*
X131550806Y-38154554D01*
X131770183Y-38310210D01*
X131781222Y-38319015D01*
X131909460Y-38433617D01*
X131946925Y-38493923D01*
X131951500Y-38527567D01*
X131951500Y-39928134D01*
X131958255Y-39990316D01*
X132009385Y-40126705D01*
X132096739Y-40243261D01*
X132213295Y-40330615D01*
X132349684Y-40381745D01*
X132411866Y-40388500D01*
X134308134Y-40388500D01*
X134370316Y-40381745D01*
X134506705Y-40330615D01*
X134623261Y-40243261D01*
X134710615Y-40126705D01*
X134725686Y-40086504D01*
X134768328Y-40029739D01*
X134834890Y-40005040D01*
X134904239Y-40020248D01*
X134924150Y-40033788D01*
X135049349Y-40137730D01*
X135249322Y-40254584D01*
X135465694Y-40337209D01*
X135470760Y-40338240D01*
X135470761Y-40338240D01*
X135523846Y-40349040D01*
X135692656Y-40383385D01*
X135822089Y-40388131D01*
X135918949Y-40391683D01*
X135918953Y-40391683D01*
X135924113Y-40391872D01*
X135929233Y-40391216D01*
X135929235Y-40391216D01*
X136003166Y-40381745D01*
X136153847Y-40362442D01*
X136158795Y-40360957D01*
X136158802Y-40360956D01*
X136370747Y-40297369D01*
X136375690Y-40295886D01*
X136422668Y-40272872D01*
X136579049Y-40196262D01*
X136579052Y-40196260D01*
X136583684Y-40193991D01*
X136657406Y-40141406D01*
X137563423Y-40141406D01*
X137568704Y-40148461D01*
X137745080Y-40251527D01*
X137754363Y-40255974D01*
X137961003Y-40334883D01*
X137970901Y-40337759D01*
X138187653Y-40381857D01*
X138197883Y-40383076D01*
X138418914Y-40391182D01*
X138429223Y-40390714D01*
X138648623Y-40362608D01*
X138658688Y-40360468D01*
X138870557Y-40296905D01*
X138880152Y-40293144D01*
X139078778Y-40195838D01*
X139087636Y-40190559D01*
X139145097Y-40149572D01*
X139153497Y-40138874D01*
X139146510Y-40125721D01*
X138372811Y-39352021D01*
X138358868Y-39344408D01*
X138357034Y-39344539D01*
X138350420Y-39348790D01*
X137570180Y-40129031D01*
X137563423Y-40141406D01*
X136657406Y-40141406D01*
X136772243Y-40059494D01*
X136936303Y-39896005D01*
X137010714Y-39792451D01*
X137066709Y-39748803D01*
X137137412Y-39742357D01*
X137197572Y-39772543D01*
X137200555Y-39775242D01*
X137209330Y-39771459D01*
X137987979Y-38992811D01*
X137994356Y-38981132D01*
X138724408Y-38981132D01*
X138724539Y-38982966D01*
X138728790Y-38989580D01*
X139506307Y-39767096D01*
X139518313Y-39773652D01*
X139530052Y-39764684D01*
X139568010Y-39711859D01*
X139573321Y-39703020D01*
X139671318Y-39504737D01*
X139675117Y-39495142D01*
X139739415Y-39283517D01*
X139741594Y-39273436D01*
X139770702Y-39052338D01*
X139771221Y-39045663D01*
X139772744Y-38983364D01*
X139772550Y-38976646D01*
X139754279Y-38754400D01*
X139752596Y-38744238D01*
X139698710Y-38529708D01*
X139695389Y-38519953D01*
X139607193Y-38317118D01*
X139602315Y-38308020D01*
X139529224Y-38195038D01*
X139518538Y-38185835D01*
X139508973Y-38190238D01*
X138732021Y-38967189D01*
X138724408Y-38981132D01*
X137994356Y-38981132D01*
X137995592Y-38978868D01*
X137995461Y-38977034D01*
X137991210Y-38970420D01*
X137213862Y-38193073D01*
X137202331Y-38186776D01*
X137192877Y-38194183D01*
X137126918Y-38220450D01*
X137057229Y-38206887D01*
X137009377Y-38163440D01*
X137005762Y-38157851D01*
X136979764Y-38117665D01*
X136948571Y-38083384D01*
X136858411Y-37984299D01*
X136827359Y-37920453D01*
X136835755Y-37849955D01*
X136880932Y-37795187D01*
X136951605Y-37773500D01*
X137464986Y-37773500D01*
X137533107Y-37793502D01*
X137558731Y-37821006D01*
X137559474Y-37820263D01*
X138347189Y-38607979D01*
X138361132Y-38615592D01*
X138362966Y-38615461D01*
X138369580Y-38611210D01*
X139161802Y-37818987D01*
X139163463Y-37820648D01*
X139195197Y-37788913D01*
X139255584Y-37773500D01*
X143098905Y-37773500D01*
X143115351Y-37774578D01*
X143134709Y-37777127D01*
X143134713Y-37777127D01*
X143142240Y-37778118D01*
X143155335Y-37776672D01*
X143161790Y-37775960D01*
X143182680Y-37775397D01*
X143289086Y-37781372D01*
X143422622Y-37788871D01*
X143436654Y-37790452D01*
X143541544Y-37808274D01*
X143699935Y-37835186D01*
X143713710Y-37838330D01*
X143970325Y-37912260D01*
X143983662Y-37916927D01*
X144230387Y-38019123D01*
X144243117Y-38025254D01*
X144476833Y-38154424D01*
X144488798Y-38161941D01*
X144532680Y-38193077D01*
X144706609Y-38316487D01*
X144717642Y-38325285D01*
X144782530Y-38383273D01*
X144839460Y-38434149D01*
X144876925Y-38494456D01*
X144881500Y-38528100D01*
X144881500Y-39928134D01*
X144888255Y-39990316D01*
X144939385Y-40126705D01*
X145026739Y-40243261D01*
X145143295Y-40330615D01*
X145279684Y-40381745D01*
X145341866Y-40388500D01*
X147238134Y-40388500D01*
X147300316Y-40381745D01*
X147436705Y-40330615D01*
X147553261Y-40243261D01*
X147640615Y-40126705D01*
X147655686Y-40086504D01*
X147698328Y-40029739D01*
X147764890Y-40005040D01*
X147834239Y-40020248D01*
X147854150Y-40033788D01*
X147979349Y-40137730D01*
X148179322Y-40254584D01*
X148395694Y-40337209D01*
X148400760Y-40338240D01*
X148400761Y-40338240D01*
X148453846Y-40349040D01*
X148622656Y-40383385D01*
X148752089Y-40388131D01*
X148848949Y-40391683D01*
X148848953Y-40391683D01*
X148854113Y-40391872D01*
X148859233Y-40391216D01*
X148859235Y-40391216D01*
X148933166Y-40381745D01*
X149083847Y-40362442D01*
X149088795Y-40360957D01*
X149088802Y-40360956D01*
X149300747Y-40297369D01*
X149305690Y-40295886D01*
X149352668Y-40272872D01*
X149509049Y-40196262D01*
X149509052Y-40196260D01*
X149513684Y-40193991D01*
X149587406Y-40141406D01*
X150493423Y-40141406D01*
X150498704Y-40148461D01*
X150675080Y-40251527D01*
X150684363Y-40255974D01*
X150891003Y-40334883D01*
X150900901Y-40337759D01*
X151117653Y-40381857D01*
X151127883Y-40383076D01*
X151348914Y-40391182D01*
X151359223Y-40390714D01*
X151578623Y-40362608D01*
X151588688Y-40360468D01*
X151800557Y-40296905D01*
X151810152Y-40293144D01*
X152008778Y-40195838D01*
X152017636Y-40190559D01*
X152075097Y-40149572D01*
X152083497Y-40138874D01*
X152076510Y-40125721D01*
X151302811Y-39352021D01*
X151288868Y-39344408D01*
X151287034Y-39344539D01*
X151280420Y-39348790D01*
X150500180Y-40129031D01*
X150493423Y-40141406D01*
X149587406Y-40141406D01*
X149702243Y-40059494D01*
X149866303Y-39896005D01*
X149940714Y-39792451D01*
X149996709Y-39748803D01*
X150067412Y-39742357D01*
X150127572Y-39772543D01*
X150130555Y-39775242D01*
X150139330Y-39771459D01*
X150917979Y-38992811D01*
X150924356Y-38981132D01*
X151654408Y-38981132D01*
X151654539Y-38982966D01*
X151658790Y-38989580D01*
X152436307Y-39767096D01*
X152448313Y-39773652D01*
X152460052Y-39764684D01*
X152498010Y-39711859D01*
X152503321Y-39703020D01*
X152601318Y-39504737D01*
X152605117Y-39495142D01*
X152669415Y-39283517D01*
X152671594Y-39273436D01*
X152700702Y-39052338D01*
X152701221Y-39045663D01*
X152702744Y-38983364D01*
X152702550Y-38976646D01*
X152684279Y-38754400D01*
X152682596Y-38744238D01*
X152628710Y-38529708D01*
X152625389Y-38519953D01*
X152537193Y-38317118D01*
X152532315Y-38308020D01*
X152459224Y-38195038D01*
X152448538Y-38185835D01*
X152438973Y-38190238D01*
X151662021Y-38967189D01*
X151654408Y-38981132D01*
X150924356Y-38981132D01*
X150925592Y-38978868D01*
X150925461Y-38977034D01*
X150921210Y-38970420D01*
X150143862Y-38193073D01*
X150132331Y-38186776D01*
X150122877Y-38194183D01*
X150056918Y-38220450D01*
X149987229Y-38206887D01*
X149939377Y-38163440D01*
X149935762Y-38157851D01*
X149909764Y-38117665D01*
X149878571Y-38083384D01*
X149788411Y-37984299D01*
X149757359Y-37920453D01*
X149765755Y-37849955D01*
X149810932Y-37795187D01*
X149881605Y-37773500D01*
X150394986Y-37773500D01*
X150463107Y-37793502D01*
X150488731Y-37821006D01*
X150489474Y-37820263D01*
X151277189Y-38607979D01*
X151291132Y-38615592D01*
X151292966Y-38615461D01*
X151299580Y-38611210D01*
X152091802Y-37818987D01*
X152093463Y-37820648D01*
X152125197Y-37788913D01*
X152185584Y-37773500D01*
X155988905Y-37773500D01*
X156005351Y-37774578D01*
X156024709Y-37777127D01*
X156024713Y-37777127D01*
X156032240Y-37778118D01*
X156045335Y-37776672D01*
X156051790Y-37775960D01*
X156072680Y-37775397D01*
X156179086Y-37781372D01*
X156312622Y-37788871D01*
X156326654Y-37790452D01*
X156431544Y-37808274D01*
X156589935Y-37835186D01*
X156603710Y-37838330D01*
X156860325Y-37912260D01*
X156873662Y-37916927D01*
X157120387Y-38019123D01*
X157133117Y-38025254D01*
X157366833Y-38154424D01*
X157378798Y-38161941D01*
X157422680Y-38193077D01*
X157596609Y-38316487D01*
X157607642Y-38325285D01*
X157672530Y-38383273D01*
X157729460Y-38434149D01*
X157766925Y-38494456D01*
X157771500Y-38528100D01*
X157771500Y-39928134D01*
X157778255Y-39990316D01*
X157829385Y-40126705D01*
X157916739Y-40243261D01*
X158033295Y-40330615D01*
X158169684Y-40381745D01*
X158231866Y-40388500D01*
X160128134Y-40388500D01*
X160190316Y-40381745D01*
X160326705Y-40330615D01*
X160443261Y-40243261D01*
X160530615Y-40126705D01*
X160545686Y-40086504D01*
X160588328Y-40029739D01*
X160654890Y-40005040D01*
X160724239Y-40020248D01*
X160744150Y-40033788D01*
X160869349Y-40137730D01*
X161069322Y-40254584D01*
X161285694Y-40337209D01*
X161290760Y-40338240D01*
X161290761Y-40338240D01*
X161343846Y-40349040D01*
X161512656Y-40383385D01*
X161642089Y-40388131D01*
X161738949Y-40391683D01*
X161738953Y-40391683D01*
X161744113Y-40391872D01*
X161749233Y-40391216D01*
X161749235Y-40391216D01*
X161823166Y-40381745D01*
X161973847Y-40362442D01*
X161978795Y-40360957D01*
X161978802Y-40360956D01*
X162190747Y-40297369D01*
X162195690Y-40295886D01*
X162242668Y-40272872D01*
X162399049Y-40196262D01*
X162399052Y-40196260D01*
X162403684Y-40193991D01*
X162477406Y-40141406D01*
X163383423Y-40141406D01*
X163388704Y-40148461D01*
X163565080Y-40251527D01*
X163574363Y-40255974D01*
X163781003Y-40334883D01*
X163790901Y-40337759D01*
X164007653Y-40381857D01*
X164017883Y-40383076D01*
X164238914Y-40391182D01*
X164249223Y-40390714D01*
X164468623Y-40362608D01*
X164478688Y-40360468D01*
X164690557Y-40296905D01*
X164700152Y-40293144D01*
X164898778Y-40195838D01*
X164907636Y-40190559D01*
X164965097Y-40149572D01*
X164973497Y-40138874D01*
X164966510Y-40125721D01*
X164192811Y-39352021D01*
X164178868Y-39344408D01*
X164177034Y-39344539D01*
X164170420Y-39348790D01*
X163390180Y-40129031D01*
X163383423Y-40141406D01*
X162477406Y-40141406D01*
X162592243Y-40059494D01*
X162756303Y-39896005D01*
X162830714Y-39792451D01*
X162886709Y-39748803D01*
X162957412Y-39742357D01*
X163017572Y-39772543D01*
X163020555Y-39775242D01*
X163029330Y-39771459D01*
X163807979Y-38992811D01*
X163814356Y-38981132D01*
X164544408Y-38981132D01*
X164544539Y-38982966D01*
X164548790Y-38989580D01*
X165326307Y-39767096D01*
X165338313Y-39773652D01*
X165350052Y-39764684D01*
X165388010Y-39711859D01*
X165393321Y-39703020D01*
X165491318Y-39504737D01*
X165495117Y-39495142D01*
X165559415Y-39283517D01*
X165561594Y-39273436D01*
X165590702Y-39052338D01*
X165591221Y-39045663D01*
X165592744Y-38983364D01*
X165592550Y-38976646D01*
X165574279Y-38754400D01*
X165572596Y-38744238D01*
X165518710Y-38529708D01*
X165515389Y-38519953D01*
X165427193Y-38317118D01*
X165422315Y-38308020D01*
X165349224Y-38195038D01*
X165338538Y-38185835D01*
X165328973Y-38190238D01*
X164552021Y-38967189D01*
X164544408Y-38981132D01*
X163814356Y-38981132D01*
X163815592Y-38978868D01*
X163815461Y-38977034D01*
X163811210Y-38970420D01*
X163033862Y-38193073D01*
X163022331Y-38186776D01*
X163012877Y-38194183D01*
X162946918Y-38220450D01*
X162877229Y-38206887D01*
X162829377Y-38163440D01*
X162825762Y-38157851D01*
X162799764Y-38117665D01*
X162643887Y-37946358D01*
X162639836Y-37943159D01*
X162639832Y-37943155D01*
X162484790Y-37820711D01*
X163385508Y-37820711D01*
X163392251Y-37833040D01*
X164167189Y-38607979D01*
X164181132Y-38615592D01*
X164182966Y-38615461D01*
X164189580Y-38611210D01*
X164968994Y-37831795D01*
X164976011Y-37818944D01*
X164968237Y-37808274D01*
X164965902Y-37806430D01*
X164957320Y-37800729D01*
X164763678Y-37693833D01*
X164754272Y-37689606D01*
X164545772Y-37615772D01*
X164535809Y-37613140D01*
X164318047Y-37574350D01*
X164307796Y-37573381D01*
X164086616Y-37570679D01*
X164076332Y-37571399D01*
X163857693Y-37604855D01*
X163847666Y-37607244D01*
X163637426Y-37675961D01*
X163627916Y-37679958D01*
X163431725Y-37782089D01*
X163423007Y-37787578D01*
X163393961Y-37809386D01*
X163385508Y-37820711D01*
X162484790Y-37820711D01*
X162466177Y-37806011D01*
X162466172Y-37806008D01*
X162462123Y-37802810D01*
X162457607Y-37800317D01*
X162457604Y-37800315D01*
X162263879Y-37693373D01*
X162263875Y-37693371D01*
X162259355Y-37690876D01*
X162254486Y-37689152D01*
X162254482Y-37689150D01*
X162045903Y-37615288D01*
X162045899Y-37615287D01*
X162041028Y-37613562D01*
X162035935Y-37612655D01*
X162035932Y-37612654D01*
X161818095Y-37573851D01*
X161818089Y-37573850D01*
X161813006Y-37572945D01*
X161740096Y-37572054D01*
X161586581Y-37570179D01*
X161586579Y-37570179D01*
X161581411Y-37570116D01*
X161352464Y-37605150D01*
X161132314Y-37677106D01*
X161127726Y-37679494D01*
X161127722Y-37679496D01*
X160940175Y-37777127D01*
X160926872Y-37784052D01*
X160922739Y-37787155D01*
X160922736Y-37787157D01*
X160741655Y-37923117D01*
X160740976Y-37922213D01*
X160681730Y-37950131D01*
X160611341Y-37940869D01*
X160557132Y-37895022D01*
X160544325Y-37869866D01*
X160533768Y-37841705D01*
X160533767Y-37841703D01*
X160530615Y-37833295D01*
X160443261Y-37716739D01*
X160326705Y-37629385D01*
X160190316Y-37578255D01*
X160128134Y-37571500D01*
X158718016Y-37571500D01*
X158649895Y-37551498D01*
X158632892Y-37538397D01*
X158469521Y-37388694D01*
X158469507Y-37388682D01*
X158467485Y-37386829D01*
X158432139Y-37359707D01*
X158208184Y-37187859D01*
X158208177Y-37187854D01*
X158205994Y-37186179D01*
X158132416Y-37139305D01*
X157930339Y-37010568D01*
X157930333Y-37010564D01*
X157928009Y-37009084D01*
X157913164Y-37001356D01*
X157638094Y-36858163D01*
X157638088Y-36858160D01*
X157635648Y-36856890D01*
X157633104Y-36855836D01*
X157596225Y-36840560D01*
X157331134Y-36730756D01*
X157105338Y-36659563D01*
X157019416Y-36632472D01*
X157019411Y-36632471D01*
X157016786Y-36631643D01*
X156694996Y-36560304D01*
X156692276Y-36559946D01*
X156692271Y-36559945D01*
X156570408Y-36543902D01*
X156368212Y-36517282D01*
X156073664Y-36504422D01*
X156061409Y-36503285D01*
X156052287Y-36501987D01*
X156045375Y-36501915D01*
X156043043Y-36501890D01*
X156043041Y-36501890D01*
X156038923Y-36501847D01*
X156034833Y-36502342D01*
X156034832Y-36502342D01*
X156034824Y-36502343D01*
X156008016Y-36505587D01*
X155992881Y-36506500D01*
X149485071Y-36506500D01*
X149467317Y-36505243D01*
X149444440Y-36501987D01*
X149438200Y-36501922D01*
X149435208Y-36501890D01*
X149435204Y-36501890D01*
X149431076Y-36501847D01*
X149426980Y-36502343D01*
X149426977Y-36502343D01*
X149422211Y-36502920D01*
X149412571Y-36503712D01*
X149104547Y-36517160D01*
X149104536Y-36517161D01*
X149101787Y-36517281D01*
X148899591Y-36543901D01*
X148777728Y-36559944D01*
X148777723Y-36559945D01*
X148775003Y-36560303D01*
X148453213Y-36631642D01*
X148450588Y-36632470D01*
X148450583Y-36632471D01*
X148364661Y-36659562D01*
X148138865Y-36730755D01*
X147873774Y-36840559D01*
X147854667Y-36848474D01*
X147834351Y-36856889D01*
X147831911Y-36858159D01*
X147831905Y-36858162D01*
X147556833Y-37001356D01*
X147541990Y-37009083D01*
X147539666Y-37010563D01*
X147539660Y-37010567D01*
X147344951Y-37134610D01*
X147264005Y-37186178D01*
X147261822Y-37187853D01*
X147261815Y-37187858D01*
X147004703Y-37385147D01*
X147004695Y-37385153D01*
X147002513Y-37386828D01*
X146837105Y-37538398D01*
X146773370Y-37569671D01*
X146751982Y-37571500D01*
X145828016Y-37571500D01*
X145759895Y-37551498D01*
X145742892Y-37538397D01*
X145579521Y-37388694D01*
X145579507Y-37388682D01*
X145577485Y-37386829D01*
X145542139Y-37359707D01*
X145318184Y-37187859D01*
X145318177Y-37187854D01*
X145315994Y-37186179D01*
X145242416Y-37139305D01*
X145040339Y-37010568D01*
X145040333Y-37010564D01*
X145038009Y-37009084D01*
X145023164Y-37001356D01*
X144748094Y-36858163D01*
X144748088Y-36858160D01*
X144745648Y-36856890D01*
X144743104Y-36855836D01*
X144706225Y-36840560D01*
X144441134Y-36730756D01*
X144215338Y-36659563D01*
X144129416Y-36632472D01*
X144129411Y-36632471D01*
X144126786Y-36631643D01*
X143804996Y-36560304D01*
X143802276Y-36559946D01*
X143802271Y-36559945D01*
X143680408Y-36543902D01*
X143478212Y-36517282D01*
X143183664Y-36504422D01*
X143171409Y-36503285D01*
X143162287Y-36501987D01*
X143155375Y-36501915D01*
X143153043Y-36501890D01*
X143153041Y-36501890D01*
X143148923Y-36501847D01*
X143144833Y-36502342D01*
X143144832Y-36502342D01*
X143144824Y-36502343D01*
X143118016Y-36505587D01*
X143102881Y-36506500D01*
X136555071Y-36506500D01*
X136537317Y-36505243D01*
X136514440Y-36501987D01*
X136508200Y-36501922D01*
X136505208Y-36501890D01*
X136505204Y-36501890D01*
X136501076Y-36501847D01*
X136496980Y-36502343D01*
X136496977Y-36502343D01*
X136492211Y-36502920D01*
X136482571Y-36503712D01*
X136174547Y-36517160D01*
X136174536Y-36517161D01*
X136171787Y-36517281D01*
X135969591Y-36543901D01*
X135847728Y-36559944D01*
X135847723Y-36559945D01*
X135845003Y-36560303D01*
X135523213Y-36631642D01*
X135520588Y-36632470D01*
X135520583Y-36632471D01*
X135434661Y-36659562D01*
X135208865Y-36730755D01*
X134943774Y-36840559D01*
X134924667Y-36848474D01*
X134904351Y-36856889D01*
X134901911Y-36858159D01*
X134901905Y-36858162D01*
X134626833Y-37001356D01*
X134611990Y-37009083D01*
X134609666Y-37010563D01*
X134609660Y-37010567D01*
X134414951Y-37134610D01*
X134334005Y-37186178D01*
X134331822Y-37187853D01*
X134331815Y-37187858D01*
X134074703Y-37385147D01*
X134074695Y-37385153D01*
X134072513Y-37386828D01*
X133907105Y-37538398D01*
X133843370Y-37569671D01*
X133821982Y-37571500D01*
X132898500Y-37571500D01*
X132830379Y-37551498D01*
X132813376Y-37538397D01*
X132643433Y-37382673D01*
X132643422Y-37382664D01*
X132641399Y-37380810D01*
X132638896Y-37378889D01*
X132385815Y-37184694D01*
X132378724Y-37179253D01*
X132099482Y-37001356D01*
X131805798Y-36848474D01*
X131499908Y-36721770D01*
X131497288Y-36720944D01*
X131497280Y-36720941D01*
X131186768Y-36623037D01*
X131186761Y-36623035D01*
X131184138Y-36622208D01*
X130860892Y-36550546D01*
X130858173Y-36550188D01*
X130858167Y-36550187D01*
X130735176Y-36533995D01*
X130532630Y-36507330D01*
X130529881Y-36507210D01*
X130529870Y-36507209D01*
X130366384Y-36500071D01*
X130236405Y-36494396D01*
X130224178Y-36493262D01*
X130215215Y-36491987D01*
X130208054Y-36491912D01*
X130205971Y-36491890D01*
X130205969Y-36491890D01*
X130201851Y-36491847D01*
X130197761Y-36492342D01*
X130197760Y-36492342D01*
X130195901Y-36492567D01*
X130170944Y-36495587D01*
X130155809Y-36496500D01*
X123662143Y-36496500D01*
X123644389Y-36495243D01*
X123638445Y-36494397D01*
X123621512Y-36491987D01*
X123615316Y-36491922D01*
X123612281Y-36491890D01*
X123612276Y-36491890D01*
X123608148Y-36491847D01*
X123604046Y-36492343D01*
X123604037Y-36492344D01*
X123599492Y-36492894D01*
X123589851Y-36493687D01*
X123481930Y-36498399D01*
X123277369Y-36507330D01*
X123113238Y-36528938D01*
X122951846Y-36550185D01*
X122951837Y-36550187D01*
X122949107Y-36550546D01*
X122946412Y-36551143D01*
X122946409Y-36551144D01*
X122768278Y-36590635D01*
X122625862Y-36622208D01*
X122623245Y-36623033D01*
X122623238Y-36623035D01*
X122593308Y-36632472D01*
X122310092Y-36721769D01*
X122004201Y-36848474D01*
X121710517Y-37001356D01*
X121431275Y-37179253D01*
X121429107Y-37180917D01*
X121429095Y-37180925D01*
X121420059Y-37187859D01*
X121168601Y-37380810D01*
X121166579Y-37382662D01*
X121166574Y-37382667D01*
X120996626Y-37538397D01*
X120932889Y-37569672D01*
X120911501Y-37571500D01*
X119501866Y-37571500D01*
X119439684Y-37578255D01*
X119303295Y-37629385D01*
X119186739Y-37716739D01*
X119099385Y-37833295D01*
X119048255Y-37969684D01*
X119041500Y-38031866D01*
X119041500Y-39928134D01*
X113128923Y-39928134D01*
X112552811Y-39352021D01*
X112538868Y-39344408D01*
X112537034Y-39344539D01*
X112530420Y-39348790D01*
X111750180Y-40129031D01*
X111743423Y-40141406D01*
X110837406Y-40141406D01*
X110952243Y-40059494D01*
X111116303Y-39896005D01*
X111190714Y-39792451D01*
X111246709Y-39748803D01*
X111317412Y-39742357D01*
X111377572Y-39772543D01*
X111380555Y-39775242D01*
X111389330Y-39771459D01*
X112167979Y-38992811D01*
X112174356Y-38981132D01*
X112904408Y-38981132D01*
X112904539Y-38982966D01*
X112908790Y-38989580D01*
X113686307Y-39767096D01*
X113698313Y-39773652D01*
X113710052Y-39764684D01*
X113748010Y-39711859D01*
X113753321Y-39703020D01*
X113851318Y-39504737D01*
X113855117Y-39495142D01*
X113919415Y-39283517D01*
X113921594Y-39273436D01*
X113950702Y-39052338D01*
X113951221Y-39045663D01*
X113952744Y-38983364D01*
X113952550Y-38976646D01*
X113934279Y-38754400D01*
X113932596Y-38744238D01*
X113878710Y-38529708D01*
X113875389Y-38519953D01*
X113787193Y-38317118D01*
X113782315Y-38308020D01*
X113709224Y-38195038D01*
X113698538Y-38185835D01*
X113688973Y-38190238D01*
X112912021Y-38967189D01*
X112904408Y-38981132D01*
X112174356Y-38981132D01*
X112175592Y-38978868D01*
X112175461Y-38977034D01*
X112171210Y-38970420D01*
X111393862Y-38193073D01*
X111382331Y-38186776D01*
X111372877Y-38194183D01*
X111306918Y-38220450D01*
X111237229Y-38206887D01*
X111189377Y-38163440D01*
X111185762Y-38157851D01*
X111159764Y-38117665D01*
X111003887Y-37946358D01*
X110999836Y-37943159D01*
X110999832Y-37943155D01*
X110844790Y-37820711D01*
X111745508Y-37820711D01*
X111752251Y-37833040D01*
X112527189Y-38607979D01*
X112541132Y-38615592D01*
X112542966Y-38615461D01*
X112549580Y-38611210D01*
X113328994Y-37831795D01*
X113336011Y-37818944D01*
X113328237Y-37808274D01*
X113325902Y-37806430D01*
X113317320Y-37800729D01*
X113123678Y-37693833D01*
X113114272Y-37689606D01*
X112905772Y-37615772D01*
X112895809Y-37613140D01*
X112678047Y-37574350D01*
X112667796Y-37573381D01*
X112446616Y-37570679D01*
X112436332Y-37571399D01*
X112217693Y-37604855D01*
X112207666Y-37607244D01*
X111997426Y-37675961D01*
X111987916Y-37679958D01*
X111791725Y-37782089D01*
X111783007Y-37787578D01*
X111753961Y-37809386D01*
X111745508Y-37820711D01*
X110844790Y-37820711D01*
X110826177Y-37806011D01*
X110826172Y-37806008D01*
X110822123Y-37802810D01*
X110817607Y-37800317D01*
X110817604Y-37800315D01*
X110623879Y-37693373D01*
X110623875Y-37693371D01*
X110619355Y-37690876D01*
X110614486Y-37689152D01*
X110614482Y-37689150D01*
X110405903Y-37615288D01*
X110405899Y-37615287D01*
X110401028Y-37613562D01*
X110395935Y-37612655D01*
X110395932Y-37612654D01*
X110178095Y-37573851D01*
X110178089Y-37573850D01*
X110173006Y-37572945D01*
X110100096Y-37572054D01*
X109946581Y-37570179D01*
X109946579Y-37570179D01*
X109941411Y-37570116D01*
X109712464Y-37605150D01*
X109492314Y-37677106D01*
X109487726Y-37679494D01*
X109487722Y-37679496D01*
X109300175Y-37777127D01*
X109286872Y-37784052D01*
X109282739Y-37787155D01*
X109282736Y-37787157D01*
X109101655Y-37923117D01*
X109100976Y-37922213D01*
X109041730Y-37950131D01*
X108971341Y-37940869D01*
X108917132Y-37895022D01*
X108904325Y-37869866D01*
X108893768Y-37841705D01*
X108893767Y-37841703D01*
X108890615Y-37833295D01*
X108803261Y-37716739D01*
X108686705Y-37629385D01*
X108550316Y-37578255D01*
X108488134Y-37571500D01*
X106591866Y-37571500D01*
X106529684Y-37578255D01*
X106393295Y-37629385D01*
X106276739Y-37716739D01*
X106189385Y-37833295D01*
X106138255Y-37969684D01*
X106131500Y-38031866D01*
X106131500Y-39320714D01*
X106111498Y-39388835D01*
X106061230Y-39433719D01*
X106013717Y-39457150D01*
X105998498Y-39463453D01*
X105833516Y-39519457D01*
X105817596Y-39523723D01*
X105646715Y-39557713D01*
X105630376Y-39559864D01*
X105530775Y-39566393D01*
X105491645Y-39568958D01*
X105488548Y-39569161D01*
X105463857Y-39568353D01*
X105462493Y-39568173D01*
X105462490Y-39568173D01*
X105454964Y-39567182D01*
X105420282Y-39571011D01*
X105420028Y-39571039D01*
X105406201Y-39571800D01*
X101101795Y-39571800D01*
X101033674Y-39551798D01*
X100987181Y-39498142D01*
X100977077Y-39427868D01*
X100981237Y-39409171D01*
X101019415Y-39283516D01*
X101021594Y-39273436D01*
X101050702Y-39052338D01*
X101051221Y-39045663D01*
X101052744Y-38983364D01*
X101052550Y-38976646D01*
X101034279Y-38754400D01*
X101032596Y-38744238D01*
X100978710Y-38529708D01*
X100975389Y-38519953D01*
X100887193Y-38317118D01*
X100882315Y-38308020D01*
X100809224Y-38195038D01*
X100798538Y-38185835D01*
X100788973Y-38190238D01*
X99729095Y-39250115D01*
X99666783Y-39284141D01*
X99595967Y-39279076D01*
X99550905Y-39250115D01*
X98493866Y-38193077D01*
X98482329Y-38186777D01*
X98472877Y-38194183D01*
X98406918Y-38220450D01*
X98337229Y-38206887D01*
X98289377Y-38163440D01*
X98285762Y-38157851D01*
X98259764Y-38117665D01*
X98103887Y-37946358D01*
X98099836Y-37943159D01*
X98099832Y-37943155D01*
X97944790Y-37820711D01*
X98845508Y-37820711D01*
X98852251Y-37833040D01*
X99627189Y-38607979D01*
X99641132Y-38615592D01*
X99642966Y-38615461D01*
X99649580Y-38611210D01*
X100428994Y-37831795D01*
X100436011Y-37818944D01*
X100428237Y-37808274D01*
X100425902Y-37806430D01*
X100417320Y-37800729D01*
X100223678Y-37693833D01*
X100214272Y-37689606D01*
X100005772Y-37615772D01*
X99995809Y-37613140D01*
X99778047Y-37574350D01*
X99767796Y-37573381D01*
X99546616Y-37570679D01*
X99536332Y-37571399D01*
X99317693Y-37604855D01*
X99307666Y-37607244D01*
X99097426Y-37675961D01*
X99087916Y-37679958D01*
X98891725Y-37782089D01*
X98883007Y-37787578D01*
X98853961Y-37809386D01*
X98845508Y-37820711D01*
X97944790Y-37820711D01*
X97926177Y-37806011D01*
X97926172Y-37806008D01*
X97922123Y-37802810D01*
X97917607Y-37800317D01*
X97917604Y-37800315D01*
X97723879Y-37693373D01*
X97723875Y-37693371D01*
X97719355Y-37690876D01*
X97714486Y-37689152D01*
X97714482Y-37689150D01*
X97505903Y-37615288D01*
X97505899Y-37615287D01*
X97501028Y-37613562D01*
X97495935Y-37612655D01*
X97495932Y-37612654D01*
X97278095Y-37573851D01*
X97278089Y-37573850D01*
X97273006Y-37572945D01*
X97200096Y-37572054D01*
X97046581Y-37570179D01*
X97046579Y-37570179D01*
X97041411Y-37570116D01*
X96812464Y-37605150D01*
X96592314Y-37677106D01*
X96587726Y-37679494D01*
X96587722Y-37679496D01*
X96400175Y-37777127D01*
X96386872Y-37784052D01*
X96382739Y-37787155D01*
X96382736Y-37787157D01*
X96201655Y-37923117D01*
X96200976Y-37922213D01*
X96141730Y-37950131D01*
X96071341Y-37940869D01*
X96017132Y-37895022D01*
X96004325Y-37869866D01*
X95993768Y-37841705D01*
X95993767Y-37841703D01*
X95990615Y-37833295D01*
X95903261Y-37716739D01*
X95786705Y-37629385D01*
X95650316Y-37578255D01*
X95588134Y-37571500D01*
X93691866Y-37571500D01*
X93629684Y-37578255D01*
X93493295Y-37629385D01*
X93376739Y-37716739D01*
X93289385Y-37833295D01*
X93238255Y-37969684D01*
X93231500Y-38031866D01*
X93231500Y-38985020D01*
X93211498Y-39053141D01*
X93157842Y-39099634D01*
X93087568Y-39109738D01*
X93022988Y-39080244D01*
X92986864Y-39027464D01*
X92980437Y-39009500D01*
X92976849Y-38997672D01*
X92910781Y-38733915D01*
X92896588Y-38677256D01*
X92894177Y-38665131D01*
X92886179Y-38611210D01*
X92845710Y-38338395D01*
X92844499Y-38326095D01*
X92844027Y-38316481D01*
X92830097Y-38032934D01*
X92831446Y-38007370D01*
X92833174Y-37996270D01*
X92830715Y-37977461D01*
X92829052Y-37964749D01*
X92827988Y-37948411D01*
X92827988Y-33642548D01*
X92847990Y-33574427D01*
X92901646Y-33527934D01*
X92913155Y-33523465D01*
X92915832Y-33522810D01*
X92920058Y-33521098D01*
X92920062Y-33521097D01*
X93162931Y-33422725D01*
X93162932Y-33422725D01*
X93167160Y-33421012D01*
X93401161Y-33283999D01*
X93612932Y-33114641D01*
X93734399Y-32984612D01*
X93794921Y-32919824D01*
X93794923Y-32919821D01*
X93798037Y-32916488D01*
X93952598Y-32693688D01*
X93990226Y-32618054D01*
X94071346Y-32454997D01*
X94071347Y-32454994D01*
X94073379Y-32450910D01*
X94157847Y-32193240D01*
X94158627Y-32188748D01*
X94203579Y-31929856D01*
X94203580Y-31929848D01*
X94204235Y-31926075D01*
X94208500Y-31840400D01*
X94208500Y-31808884D01*
X100071500Y-31808884D01*
X100071665Y-31811152D01*
X100071665Y-31811164D01*
X100079725Y-31922238D01*
X100086125Y-32010451D01*
X100087109Y-32014906D01*
X100087109Y-32014909D01*
X100143338Y-32269588D01*
X100144585Y-32275237D01*
X100240655Y-32528810D01*
X100284951Y-32608557D01*
X100361837Y-32746978D01*
X100372324Y-32765859D01*
X100536833Y-32981417D01*
X100730736Y-33170970D01*
X100949972Y-33330547D01*
X101189947Y-33456804D01*
X101194248Y-33458323D01*
X101194253Y-33458325D01*
X101312356Y-33500031D01*
X101445634Y-33547096D01*
X101543653Y-33566415D01*
X101707206Y-33598652D01*
X101707212Y-33598653D01*
X101711678Y-33599533D01*
X101716232Y-33599760D01*
X101716234Y-33599760D01*
X101977936Y-33612789D01*
X101977942Y-33612789D01*
X101982505Y-33613016D01*
X102252441Y-33587262D01*
X102256870Y-33586178D01*
X102256877Y-33586177D01*
X102416584Y-33547096D01*
X102515832Y-33522810D01*
X102675039Y-33458325D01*
X102762931Y-33422725D01*
X102762932Y-33422725D01*
X102767160Y-33421012D01*
X103001161Y-33283999D01*
X103212932Y-33114641D01*
X103334399Y-32984612D01*
X103394921Y-32919824D01*
X103394923Y-32919821D01*
X103398037Y-32916488D01*
X103484711Y-32791547D01*
X103539973Y-32746978D01*
X103610560Y-32739360D01*
X103674060Y-32771114D01*
X103688401Y-32786925D01*
X103803423Y-32937639D01*
X103836833Y-32981417D01*
X104030736Y-33170970D01*
X104249972Y-33330547D01*
X104489947Y-33456804D01*
X104494248Y-33458323D01*
X104494253Y-33458325D01*
X104612356Y-33500031D01*
X104745634Y-33547096D01*
X104843653Y-33566415D01*
X105007206Y-33598652D01*
X105007212Y-33598653D01*
X105011678Y-33599533D01*
X105016232Y-33599760D01*
X105016234Y-33599760D01*
X105277936Y-33612789D01*
X105277942Y-33612789D01*
X105282505Y-33613016D01*
X105552441Y-33587262D01*
X105556870Y-33586178D01*
X105556877Y-33586177D01*
X105716584Y-33547096D01*
X105815832Y-33522810D01*
X105975039Y-33458325D01*
X106062931Y-33422725D01*
X106062932Y-33422725D01*
X106067160Y-33421012D01*
X106301161Y-33283999D01*
X106512932Y-33114641D01*
X106634399Y-32984612D01*
X106694921Y-32919824D01*
X106694923Y-32919821D01*
X106698037Y-32916488D01*
X106852598Y-32693688D01*
X106890226Y-32618054D01*
X106971346Y-32454997D01*
X106971347Y-32454994D01*
X106973379Y-32450910D01*
X107057847Y-32193240D01*
X107058627Y-32188748D01*
X107103579Y-31929856D01*
X107103580Y-31929848D01*
X107104235Y-31926075D01*
X107108500Y-31840400D01*
X107108500Y-31808884D01*
X112971500Y-31808884D01*
X112971665Y-31811152D01*
X112971665Y-31811164D01*
X112979725Y-31922238D01*
X112986125Y-32010451D01*
X112987109Y-32014906D01*
X112987109Y-32014909D01*
X113043338Y-32269588D01*
X113044585Y-32275237D01*
X113140655Y-32528810D01*
X113184951Y-32608557D01*
X113261837Y-32746978D01*
X113272324Y-32765859D01*
X113436833Y-32981417D01*
X113630736Y-33170970D01*
X113849972Y-33330547D01*
X114089947Y-33456804D01*
X114094248Y-33458323D01*
X114094253Y-33458325D01*
X114212356Y-33500031D01*
X114345634Y-33547096D01*
X114443653Y-33566415D01*
X114607206Y-33598652D01*
X114607212Y-33598653D01*
X114611678Y-33599533D01*
X114616232Y-33599760D01*
X114616234Y-33599760D01*
X114877936Y-33612789D01*
X114877942Y-33612789D01*
X114882505Y-33613016D01*
X115152441Y-33587262D01*
X115156870Y-33586178D01*
X115156877Y-33586177D01*
X115316584Y-33547096D01*
X115415832Y-33522810D01*
X115575039Y-33458325D01*
X115662931Y-33422725D01*
X115662932Y-33422725D01*
X115667160Y-33421012D01*
X115901161Y-33283999D01*
X116112932Y-33114641D01*
X116234399Y-32984612D01*
X116294921Y-32919824D01*
X116294923Y-32919821D01*
X116298037Y-32916488D01*
X116389472Y-32784684D01*
X116444735Y-32740113D01*
X116515322Y-32732496D01*
X116578822Y-32764250D01*
X116593161Y-32780059D01*
X116746833Y-32981417D01*
X116940736Y-33170970D01*
X117159972Y-33330547D01*
X117399947Y-33456804D01*
X117404248Y-33458323D01*
X117404253Y-33458325D01*
X117522356Y-33500031D01*
X117655634Y-33547096D01*
X117753653Y-33566415D01*
X117917206Y-33598652D01*
X117917212Y-33598653D01*
X117921678Y-33599533D01*
X117926232Y-33599760D01*
X117926234Y-33599760D01*
X118187936Y-33612789D01*
X118187942Y-33612789D01*
X118192505Y-33613016D01*
X118462441Y-33587262D01*
X118466870Y-33586178D01*
X118466877Y-33586177D01*
X118626584Y-33547096D01*
X118725832Y-33522810D01*
X118885039Y-33458325D01*
X118972931Y-33422725D01*
X118972932Y-33422725D01*
X118977160Y-33421012D01*
X119211161Y-33283999D01*
X119422932Y-33114641D01*
X119544399Y-32984612D01*
X119604921Y-32919824D01*
X119604923Y-32919821D01*
X119608037Y-32916488D01*
X119762598Y-32693688D01*
X119800226Y-32618054D01*
X119881346Y-32454997D01*
X119881347Y-32454994D01*
X119883379Y-32450910D01*
X119967847Y-32193240D01*
X119968627Y-32188748D01*
X120013579Y-31929856D01*
X120013580Y-31929848D01*
X120014235Y-31926075D01*
X120018500Y-31840400D01*
X120018500Y-31808884D01*
X125881500Y-31808884D01*
X125881665Y-31811152D01*
X125881665Y-31811164D01*
X125889725Y-31922238D01*
X125896125Y-32010451D01*
X125897109Y-32014906D01*
X125897109Y-32014909D01*
X125953338Y-32269588D01*
X125954585Y-32275237D01*
X126050655Y-32528810D01*
X126094951Y-32608557D01*
X126171837Y-32746978D01*
X126182324Y-32765859D01*
X126346833Y-32981417D01*
X126540736Y-33170970D01*
X126759972Y-33330547D01*
X126999947Y-33456804D01*
X127004248Y-33458323D01*
X127004253Y-33458325D01*
X127122356Y-33500031D01*
X127255634Y-33547096D01*
X127353653Y-33566415D01*
X127517206Y-33598652D01*
X127517212Y-33598653D01*
X127521678Y-33599533D01*
X127526232Y-33599760D01*
X127526234Y-33599760D01*
X127787936Y-33612789D01*
X127787942Y-33612789D01*
X127792505Y-33613016D01*
X128062441Y-33587262D01*
X128066870Y-33586178D01*
X128066877Y-33586177D01*
X128226584Y-33547096D01*
X128325832Y-33522810D01*
X128485039Y-33458325D01*
X128572931Y-33422725D01*
X128572932Y-33422725D01*
X128577160Y-33421012D01*
X128811161Y-33283999D01*
X129022932Y-33114641D01*
X129144399Y-32984612D01*
X129204921Y-32919824D01*
X129204923Y-32919821D01*
X129208037Y-32916488D01*
X129299472Y-32784684D01*
X129354735Y-32740113D01*
X129425322Y-32732496D01*
X129488822Y-32764250D01*
X129503161Y-32780059D01*
X129656833Y-32981417D01*
X129850736Y-33170970D01*
X130069972Y-33330547D01*
X130309947Y-33456804D01*
X130314248Y-33458323D01*
X130314253Y-33458325D01*
X130432356Y-33500031D01*
X130565634Y-33547096D01*
X130663653Y-33566415D01*
X130827206Y-33598652D01*
X130827212Y-33598653D01*
X130831678Y-33599533D01*
X130836232Y-33599760D01*
X130836234Y-33599760D01*
X131097936Y-33612789D01*
X131097942Y-33612789D01*
X131102505Y-33613016D01*
X131372441Y-33587262D01*
X131376870Y-33586178D01*
X131376877Y-33586177D01*
X131536584Y-33547096D01*
X131635832Y-33522810D01*
X131795039Y-33458325D01*
X131882931Y-33422725D01*
X131882932Y-33422725D01*
X131887160Y-33421012D01*
X132121161Y-33283999D01*
X132332932Y-33114641D01*
X132454399Y-32984612D01*
X132514921Y-32919824D01*
X132514923Y-32919821D01*
X132518037Y-32916488D01*
X132672598Y-32693688D01*
X132710226Y-32618054D01*
X132791346Y-32454997D01*
X132791347Y-32454994D01*
X132793379Y-32450910D01*
X132877847Y-32193240D01*
X132878627Y-32188748D01*
X132923579Y-31929856D01*
X132923580Y-31929848D01*
X132924235Y-31926075D01*
X132928500Y-31840400D01*
X132928500Y-31808884D01*
X138791500Y-31808884D01*
X138791665Y-31811152D01*
X138791665Y-31811164D01*
X138799725Y-31922238D01*
X138806125Y-32010451D01*
X138807109Y-32014906D01*
X138807109Y-32014909D01*
X138863338Y-32269588D01*
X138864585Y-32275237D01*
X138960655Y-32528810D01*
X139004951Y-32608557D01*
X139081837Y-32746978D01*
X139092324Y-32765859D01*
X139256833Y-32981417D01*
X139450736Y-33170970D01*
X139669972Y-33330547D01*
X139909947Y-33456804D01*
X139914248Y-33458323D01*
X139914253Y-33458325D01*
X140032356Y-33500031D01*
X140165634Y-33547096D01*
X140263653Y-33566415D01*
X140427206Y-33598652D01*
X140427212Y-33598653D01*
X140431678Y-33599533D01*
X140436232Y-33599760D01*
X140436234Y-33599760D01*
X140697936Y-33612789D01*
X140697942Y-33612789D01*
X140702505Y-33613016D01*
X140972441Y-33587262D01*
X140976870Y-33586178D01*
X140976877Y-33586177D01*
X141136584Y-33547096D01*
X141235832Y-33522810D01*
X141395039Y-33458325D01*
X141482931Y-33422725D01*
X141482932Y-33422725D01*
X141487160Y-33421012D01*
X141721161Y-33283999D01*
X141932932Y-33114641D01*
X142054399Y-32984612D01*
X142114921Y-32919824D01*
X142114923Y-32919821D01*
X142118037Y-32916488D01*
X142203156Y-32793789D01*
X142218995Y-32770957D01*
X142274258Y-32726386D01*
X142344845Y-32718769D01*
X142408345Y-32750523D01*
X142422686Y-32766334D01*
X142557075Y-32942425D01*
X142586833Y-32981417D01*
X142780736Y-33170970D01*
X142999972Y-33330547D01*
X143239947Y-33456804D01*
X143244248Y-33458323D01*
X143244253Y-33458325D01*
X143362356Y-33500031D01*
X143495634Y-33547096D01*
X143593653Y-33566415D01*
X143757206Y-33598652D01*
X143757212Y-33598653D01*
X143761678Y-33599533D01*
X143766232Y-33599760D01*
X143766234Y-33599760D01*
X144027936Y-33612789D01*
X144027942Y-33612789D01*
X144032505Y-33613016D01*
X144302441Y-33587262D01*
X144306870Y-33586178D01*
X144306877Y-33586177D01*
X144466584Y-33547096D01*
X144565832Y-33522810D01*
X144725039Y-33458325D01*
X144812931Y-33422725D01*
X144812932Y-33422725D01*
X144817160Y-33421012D01*
X145051161Y-33283999D01*
X145262932Y-33114641D01*
X145384399Y-32984612D01*
X145444921Y-32919824D01*
X145444923Y-32919821D01*
X145448037Y-32916488D01*
X145602598Y-32693688D01*
X145640226Y-32618054D01*
X145721346Y-32454997D01*
X145721347Y-32454994D01*
X145723379Y-32450910D01*
X145807847Y-32193240D01*
X145808627Y-32188748D01*
X145853579Y-31929856D01*
X145853580Y-31929848D01*
X145854235Y-31926075D01*
X145858500Y-31840400D01*
X145858500Y-31808884D01*
X151721500Y-31808884D01*
X151721665Y-31811152D01*
X151721665Y-31811164D01*
X151729725Y-31922238D01*
X151736125Y-32010451D01*
X151737109Y-32014906D01*
X151737109Y-32014909D01*
X151793338Y-32269588D01*
X151794585Y-32275237D01*
X151890655Y-32528810D01*
X151934951Y-32608557D01*
X152011837Y-32746978D01*
X152022324Y-32765859D01*
X152186833Y-32981417D01*
X152380736Y-33170970D01*
X152599972Y-33330547D01*
X152839947Y-33456804D01*
X152844248Y-33458323D01*
X152844253Y-33458325D01*
X152962356Y-33500031D01*
X153095634Y-33547096D01*
X153193653Y-33566415D01*
X153357206Y-33598652D01*
X153357212Y-33598653D01*
X153361678Y-33599533D01*
X153366232Y-33599760D01*
X153366234Y-33599760D01*
X153627936Y-33612789D01*
X153627942Y-33612789D01*
X153632505Y-33613016D01*
X153902441Y-33587262D01*
X153906870Y-33586178D01*
X153906877Y-33586177D01*
X154066584Y-33547096D01*
X154165832Y-33522810D01*
X154325039Y-33458325D01*
X154412931Y-33422725D01*
X154412932Y-33422725D01*
X154417160Y-33421012D01*
X154651161Y-33283999D01*
X154862932Y-33114641D01*
X154984399Y-32984612D01*
X155044921Y-32919824D01*
X155044923Y-32919821D01*
X155048037Y-32916488D01*
X155129949Y-32798412D01*
X155185213Y-32753841D01*
X155255799Y-32746224D01*
X155319299Y-32777978D01*
X155333637Y-32793786D01*
X155476833Y-32981417D01*
X155670736Y-33170970D01*
X155889972Y-33330547D01*
X156129947Y-33456804D01*
X156134248Y-33458323D01*
X156134253Y-33458325D01*
X156252356Y-33500031D01*
X156385634Y-33547096D01*
X156483653Y-33566415D01*
X156647206Y-33598652D01*
X156647212Y-33598653D01*
X156651678Y-33599533D01*
X156656232Y-33599760D01*
X156656234Y-33599760D01*
X156917936Y-33612789D01*
X156917942Y-33612789D01*
X156922505Y-33613016D01*
X157192441Y-33587262D01*
X157196870Y-33586178D01*
X157196877Y-33586177D01*
X157356584Y-33547096D01*
X157455832Y-33522810D01*
X157615039Y-33458325D01*
X157702931Y-33422725D01*
X157702932Y-33422725D01*
X157707160Y-33421012D01*
X157941161Y-33283999D01*
X158152932Y-33114641D01*
X158274399Y-32984612D01*
X158334921Y-32919824D01*
X158334923Y-32919821D01*
X158338037Y-32916488D01*
X158492598Y-32693688D01*
X158530226Y-32618054D01*
X158611346Y-32454997D01*
X158611347Y-32454994D01*
X158613379Y-32450910D01*
X158697847Y-32193240D01*
X158698627Y-32188748D01*
X158743579Y-31929856D01*
X158743580Y-31929848D01*
X158744235Y-31926075D01*
X158748500Y-31840400D01*
X158748500Y-31808884D01*
X164611500Y-31808884D01*
X164611665Y-31811152D01*
X164611665Y-31811164D01*
X164619725Y-31922238D01*
X164626125Y-32010451D01*
X164627109Y-32014906D01*
X164627109Y-32014909D01*
X164683338Y-32269588D01*
X164684585Y-32275237D01*
X164780655Y-32528810D01*
X164824951Y-32608557D01*
X164901837Y-32746978D01*
X164912324Y-32765859D01*
X165076833Y-32981417D01*
X165270736Y-33170970D01*
X165489972Y-33330547D01*
X165729947Y-33456804D01*
X165734248Y-33458323D01*
X165734253Y-33458325D01*
X165852356Y-33500031D01*
X165985634Y-33547096D01*
X166083653Y-33566415D01*
X166247206Y-33598652D01*
X166247212Y-33598653D01*
X166251678Y-33599533D01*
X166256232Y-33599760D01*
X166256234Y-33599760D01*
X166517936Y-33612789D01*
X166517942Y-33612789D01*
X166522505Y-33613016D01*
X166792441Y-33587262D01*
X166796870Y-33586178D01*
X166796877Y-33586177D01*
X166956584Y-33547096D01*
X167055832Y-33522810D01*
X167215039Y-33458325D01*
X167302931Y-33422725D01*
X167302932Y-33422725D01*
X167307160Y-33421012D01*
X167541161Y-33283999D01*
X167752932Y-33114641D01*
X167874399Y-32984612D01*
X167934921Y-32919824D01*
X167934923Y-32919821D01*
X167938037Y-32916488D01*
X168024711Y-32791547D01*
X168079973Y-32746978D01*
X168150560Y-32739360D01*
X168214060Y-32771114D01*
X168228401Y-32786925D01*
X168343423Y-32937639D01*
X168376833Y-32981417D01*
X168570736Y-33170970D01*
X168789972Y-33330547D01*
X169029947Y-33456804D01*
X169034248Y-33458323D01*
X169034253Y-33458325D01*
X169152356Y-33500031D01*
X169285634Y-33547096D01*
X169383653Y-33566415D01*
X169547206Y-33598652D01*
X169547212Y-33598653D01*
X169551678Y-33599533D01*
X169556232Y-33599760D01*
X169556234Y-33599760D01*
X169817936Y-33612789D01*
X169817942Y-33612789D01*
X169822505Y-33613016D01*
X170092441Y-33587262D01*
X170096870Y-33586178D01*
X170096877Y-33586177D01*
X170256584Y-33547096D01*
X170355832Y-33522810D01*
X170515039Y-33458325D01*
X170602931Y-33422725D01*
X170602932Y-33422725D01*
X170607160Y-33421012D01*
X170841161Y-33283999D01*
X171052932Y-33114641D01*
X171174399Y-32984612D01*
X171234921Y-32919824D01*
X171234923Y-32919821D01*
X171238037Y-32916488D01*
X171392598Y-32693688D01*
X171430226Y-32618054D01*
X171511346Y-32454997D01*
X171511347Y-32454994D01*
X171513379Y-32450910D01*
X171597847Y-32193240D01*
X171598627Y-32188748D01*
X171643579Y-31929856D01*
X171643580Y-31929848D01*
X171644235Y-31926075D01*
X171648500Y-31840400D01*
X171648500Y-31808884D01*
X177511500Y-31808884D01*
X177511665Y-31811152D01*
X177511665Y-31811164D01*
X177519725Y-31922238D01*
X177526125Y-32010451D01*
X177527109Y-32014906D01*
X177527109Y-32014909D01*
X177583338Y-32269588D01*
X177584585Y-32275237D01*
X177680655Y-32528810D01*
X177724951Y-32608557D01*
X177801837Y-32746978D01*
X177812324Y-32765859D01*
X177976833Y-32981417D01*
X178170736Y-33170970D01*
X178389972Y-33330547D01*
X178629947Y-33456804D01*
X178634248Y-33458323D01*
X178634253Y-33458325D01*
X178752356Y-33500031D01*
X178885634Y-33547096D01*
X178983653Y-33566415D01*
X179147206Y-33598652D01*
X179147212Y-33598653D01*
X179151678Y-33599533D01*
X179156232Y-33599760D01*
X179156234Y-33599760D01*
X179417936Y-33612789D01*
X179417942Y-33612789D01*
X179422505Y-33613016D01*
X179692441Y-33587262D01*
X179696870Y-33586178D01*
X179696877Y-33586177D01*
X179856584Y-33547096D01*
X179955832Y-33522810D01*
X180115039Y-33458325D01*
X180202931Y-33422725D01*
X180202932Y-33422725D01*
X180207160Y-33421012D01*
X180441161Y-33283999D01*
X180652932Y-33114641D01*
X180774399Y-32984612D01*
X180834921Y-32919824D01*
X180834923Y-32919821D01*
X180838037Y-32916488D01*
X180923156Y-32793789D01*
X180934234Y-32777820D01*
X180989497Y-32733249D01*
X181060084Y-32725632D01*
X181123584Y-32757386D01*
X181137920Y-32773191D01*
X181296833Y-32981417D01*
X181490736Y-33170970D01*
X181709972Y-33330547D01*
X181949947Y-33456804D01*
X181954248Y-33458323D01*
X181954253Y-33458325D01*
X182072356Y-33500031D01*
X182205634Y-33547096D01*
X182303653Y-33566415D01*
X182467206Y-33598652D01*
X182467212Y-33598653D01*
X182471678Y-33599533D01*
X182476232Y-33599760D01*
X182476234Y-33599760D01*
X182737936Y-33612789D01*
X182737942Y-33612789D01*
X182742505Y-33613016D01*
X183012441Y-33587262D01*
X183016870Y-33586178D01*
X183016877Y-33586177D01*
X183176584Y-33547096D01*
X183275832Y-33522810D01*
X183435039Y-33458325D01*
X183522931Y-33422725D01*
X183522932Y-33422725D01*
X183527160Y-33421012D01*
X183761161Y-33283999D01*
X183972932Y-33114641D01*
X184094399Y-32984612D01*
X184154921Y-32919824D01*
X184154923Y-32919821D01*
X184158037Y-32916488D01*
X184312598Y-32693688D01*
X184350226Y-32618054D01*
X184431346Y-32454997D01*
X184431347Y-32454994D01*
X184433379Y-32450910D01*
X184517847Y-32193240D01*
X184518627Y-32188748D01*
X184563579Y-31929856D01*
X184563580Y-31929848D01*
X184564235Y-31926075D01*
X184568500Y-31840400D01*
X184568500Y-31808884D01*
X190431500Y-31808884D01*
X190431665Y-31811152D01*
X190431665Y-31811164D01*
X190439725Y-31922238D01*
X190446125Y-32010451D01*
X190447109Y-32014906D01*
X190447109Y-32014909D01*
X190503338Y-32269588D01*
X190504585Y-32275237D01*
X190600655Y-32528810D01*
X190644951Y-32608557D01*
X190721837Y-32746978D01*
X190732324Y-32765859D01*
X190896833Y-32981417D01*
X191090736Y-33170970D01*
X191309972Y-33330547D01*
X191549947Y-33456804D01*
X191554248Y-33458323D01*
X191554253Y-33458325D01*
X191672356Y-33500031D01*
X191805634Y-33547096D01*
X191903653Y-33566415D01*
X192067206Y-33598652D01*
X192067212Y-33598653D01*
X192071678Y-33599533D01*
X192076232Y-33599760D01*
X192076234Y-33599760D01*
X192337936Y-33612789D01*
X192337942Y-33612789D01*
X192342505Y-33613016D01*
X192612441Y-33587262D01*
X192616870Y-33586178D01*
X192616877Y-33586177D01*
X192776584Y-33547096D01*
X192875832Y-33522810D01*
X193035039Y-33458325D01*
X193122931Y-33422725D01*
X193122932Y-33422725D01*
X193127160Y-33421012D01*
X193361161Y-33283999D01*
X193572932Y-33114641D01*
X193694399Y-32984612D01*
X193754921Y-32919824D01*
X193754923Y-32919821D01*
X193758037Y-32916488D01*
X193912598Y-32693688D01*
X193950226Y-32618054D01*
X194031346Y-32454997D01*
X194031347Y-32454994D01*
X194033379Y-32450910D01*
X194117847Y-32193240D01*
X194118627Y-32188748D01*
X194163579Y-31929856D01*
X194163580Y-31929848D01*
X194164235Y-31926075D01*
X194168500Y-31840400D01*
X194168500Y-31151116D01*
X194166429Y-31122563D01*
X194158771Y-31017022D01*
X194153875Y-30949549D01*
X194142491Y-30897987D01*
X194096400Y-30689223D01*
X194096399Y-30689219D01*
X194095415Y-30684763D01*
X193999345Y-30431190D01*
X193889601Y-30233614D01*
X193869894Y-30198134D01*
X193869893Y-30198133D01*
X193867676Y-30194141D01*
X193703167Y-29978583D01*
X193509264Y-29789030D01*
X193290028Y-29629453D01*
X193050053Y-29503196D01*
X193045752Y-29501677D01*
X193045747Y-29501675D01*
X192912913Y-29454767D01*
X192794366Y-29412904D01*
X192696347Y-29393585D01*
X192532794Y-29361348D01*
X192532788Y-29361347D01*
X192528322Y-29360467D01*
X192523768Y-29360240D01*
X192523766Y-29360240D01*
X192262064Y-29347211D01*
X192262058Y-29347211D01*
X192257495Y-29346984D01*
X191987559Y-29372738D01*
X191983130Y-29373822D01*
X191983123Y-29373823D01*
X191853069Y-29405648D01*
X191724168Y-29437190D01*
X191719933Y-29438905D01*
X191719931Y-29438906D01*
X191521435Y-29519305D01*
X191472840Y-29538988D01*
X191238839Y-29676001D01*
X191027068Y-29845359D01*
X191023947Y-29848700D01*
X190899224Y-29982215D01*
X190841963Y-30043512D01*
X190687402Y-30266312D01*
X190685374Y-30270388D01*
X190685373Y-30270390D01*
X190603252Y-30435460D01*
X190566621Y-30509090D01*
X190482153Y-30766760D01*
X190481373Y-30771251D01*
X190481373Y-30771252D01*
X190447344Y-30967240D01*
X190435765Y-31033925D01*
X190435574Y-31037762D01*
X190432016Y-31109242D01*
X190431500Y-31119600D01*
X190431500Y-31808884D01*
X184568500Y-31808884D01*
X184568500Y-31151116D01*
X184566429Y-31122563D01*
X184558771Y-31017022D01*
X184553875Y-30949549D01*
X184542491Y-30897987D01*
X184496400Y-30689223D01*
X184496399Y-30689219D01*
X184495415Y-30684763D01*
X184399345Y-30431190D01*
X184289601Y-30233614D01*
X184269894Y-30198134D01*
X184269893Y-30198133D01*
X184267676Y-30194141D01*
X184103167Y-29978583D01*
X183909264Y-29789030D01*
X183690028Y-29629453D01*
X183450053Y-29503196D01*
X183445752Y-29501677D01*
X183445747Y-29501675D01*
X183312913Y-29454767D01*
X183194366Y-29412904D01*
X183096347Y-29393585D01*
X182932794Y-29361348D01*
X182932788Y-29361347D01*
X182928322Y-29360467D01*
X182923768Y-29360240D01*
X182923766Y-29360240D01*
X182662064Y-29347211D01*
X182662058Y-29347211D01*
X182657495Y-29346984D01*
X182387559Y-29372738D01*
X182383130Y-29373822D01*
X182383123Y-29373823D01*
X182253069Y-29405648D01*
X182124168Y-29437190D01*
X182119933Y-29438905D01*
X182119931Y-29438906D01*
X181921435Y-29519305D01*
X181872840Y-29538988D01*
X181638839Y-29676001D01*
X181427068Y-29845359D01*
X181423947Y-29848700D01*
X181299224Y-29982215D01*
X181241963Y-30043512D01*
X181239363Y-30047260D01*
X181145766Y-30182180D01*
X181090503Y-30226751D01*
X181019916Y-30234368D01*
X180956416Y-30202614D01*
X180942080Y-30186809D01*
X180783167Y-29978583D01*
X180589264Y-29789030D01*
X180370028Y-29629453D01*
X180130053Y-29503196D01*
X180125752Y-29501677D01*
X180125747Y-29501675D01*
X179992913Y-29454767D01*
X179874366Y-29412904D01*
X179776347Y-29393585D01*
X179612794Y-29361348D01*
X179612788Y-29361347D01*
X179608322Y-29360467D01*
X179603768Y-29360240D01*
X179603766Y-29360240D01*
X179342064Y-29347211D01*
X179342058Y-29347211D01*
X179337495Y-29346984D01*
X179067559Y-29372738D01*
X179063130Y-29373822D01*
X179063123Y-29373823D01*
X178933069Y-29405648D01*
X178804168Y-29437190D01*
X178799933Y-29438905D01*
X178799931Y-29438906D01*
X178601435Y-29519305D01*
X178552840Y-29538988D01*
X178318839Y-29676001D01*
X178107068Y-29845359D01*
X178103947Y-29848700D01*
X177979224Y-29982215D01*
X177921963Y-30043512D01*
X177767402Y-30266312D01*
X177765374Y-30270388D01*
X177765373Y-30270390D01*
X177683252Y-30435460D01*
X177646621Y-30509090D01*
X177562153Y-30766760D01*
X177561373Y-30771251D01*
X177561373Y-30771252D01*
X177527344Y-30967240D01*
X177515765Y-31033925D01*
X177515574Y-31037762D01*
X177512016Y-31109242D01*
X177511500Y-31119600D01*
X177511500Y-31808884D01*
X171648500Y-31808884D01*
X171648500Y-31151116D01*
X171646429Y-31122563D01*
X171638771Y-31017022D01*
X171633875Y-30949549D01*
X171622491Y-30897987D01*
X171576400Y-30689223D01*
X171576399Y-30689219D01*
X171575415Y-30684763D01*
X171479345Y-30431190D01*
X171369601Y-30233614D01*
X171349894Y-30198134D01*
X171349893Y-30198133D01*
X171347676Y-30194141D01*
X171183167Y-29978583D01*
X170989264Y-29789030D01*
X170770028Y-29629453D01*
X170530053Y-29503196D01*
X170525752Y-29501677D01*
X170525747Y-29501675D01*
X170392913Y-29454767D01*
X170274366Y-29412904D01*
X170176347Y-29393585D01*
X170012794Y-29361348D01*
X170012788Y-29361347D01*
X170008322Y-29360467D01*
X170003768Y-29360240D01*
X170003766Y-29360240D01*
X169742064Y-29347211D01*
X169742058Y-29347211D01*
X169737495Y-29346984D01*
X169467559Y-29372738D01*
X169463130Y-29373822D01*
X169463123Y-29373823D01*
X169333069Y-29405648D01*
X169204168Y-29437190D01*
X169199933Y-29438905D01*
X169199931Y-29438906D01*
X169001435Y-29519305D01*
X168952840Y-29538988D01*
X168718839Y-29676001D01*
X168507068Y-29845359D01*
X168503947Y-29848700D01*
X168379224Y-29982215D01*
X168321963Y-30043512D01*
X168236845Y-30166211D01*
X168235290Y-30168452D01*
X168180027Y-30213022D01*
X168109440Y-30220640D01*
X168045940Y-30188886D01*
X168031599Y-30173075D01*
X167885939Y-29982215D01*
X167885938Y-29982214D01*
X167883167Y-29978583D01*
X167689264Y-29789030D01*
X167470028Y-29629453D01*
X167230053Y-29503196D01*
X167225752Y-29501677D01*
X167225747Y-29501675D01*
X167092913Y-29454767D01*
X166974366Y-29412904D01*
X166876347Y-29393585D01*
X166712794Y-29361348D01*
X166712788Y-29361347D01*
X166708322Y-29360467D01*
X166703768Y-29360240D01*
X166703766Y-29360240D01*
X166442064Y-29347211D01*
X166442058Y-29347211D01*
X166437495Y-29346984D01*
X166167559Y-29372738D01*
X166163130Y-29373822D01*
X166163123Y-29373823D01*
X166033069Y-29405648D01*
X165904168Y-29437190D01*
X165899933Y-29438905D01*
X165899931Y-29438906D01*
X165701435Y-29519305D01*
X165652840Y-29538988D01*
X165418839Y-29676001D01*
X165207068Y-29845359D01*
X165203947Y-29848700D01*
X165079224Y-29982215D01*
X165021963Y-30043512D01*
X164867402Y-30266312D01*
X164865374Y-30270388D01*
X164865373Y-30270390D01*
X164783252Y-30435460D01*
X164746621Y-30509090D01*
X164662153Y-30766760D01*
X164661373Y-30771251D01*
X164661373Y-30771252D01*
X164627344Y-30967240D01*
X164615765Y-31033925D01*
X164615574Y-31037762D01*
X164612016Y-31109242D01*
X164611500Y-31119600D01*
X164611500Y-31808884D01*
X158748500Y-31808884D01*
X158748500Y-31151116D01*
X158746429Y-31122563D01*
X158738771Y-31017022D01*
X158733875Y-30949549D01*
X158722491Y-30897987D01*
X158676400Y-30689223D01*
X158676399Y-30689219D01*
X158675415Y-30684763D01*
X158579345Y-30431190D01*
X158469601Y-30233614D01*
X158449894Y-30198134D01*
X158449893Y-30198133D01*
X158447676Y-30194141D01*
X158283167Y-29978583D01*
X158089264Y-29789030D01*
X157870028Y-29629453D01*
X157630053Y-29503196D01*
X157625752Y-29501677D01*
X157625747Y-29501675D01*
X157492913Y-29454767D01*
X157374366Y-29412904D01*
X157276347Y-29393585D01*
X157112794Y-29361348D01*
X157112788Y-29361347D01*
X157108322Y-29360467D01*
X157103768Y-29360240D01*
X157103766Y-29360240D01*
X156842064Y-29347211D01*
X156842058Y-29347211D01*
X156837495Y-29346984D01*
X156567559Y-29372738D01*
X156563130Y-29373822D01*
X156563123Y-29373823D01*
X156433069Y-29405648D01*
X156304168Y-29437190D01*
X156299933Y-29438905D01*
X156299931Y-29438906D01*
X156101435Y-29519305D01*
X156052840Y-29538988D01*
X155818839Y-29676001D01*
X155607068Y-29845359D01*
X155603947Y-29848700D01*
X155479224Y-29982215D01*
X155421963Y-30043512D01*
X155419363Y-30047260D01*
X155340051Y-30161588D01*
X155284787Y-30206159D01*
X155214201Y-30213776D01*
X155150701Y-30182022D01*
X155136360Y-30166211D01*
X154995939Y-29982215D01*
X154995938Y-29982214D01*
X154993167Y-29978583D01*
X154799264Y-29789030D01*
X154580028Y-29629453D01*
X154340053Y-29503196D01*
X154335752Y-29501677D01*
X154335747Y-29501675D01*
X154202913Y-29454767D01*
X154084366Y-29412904D01*
X153986347Y-29393585D01*
X153822794Y-29361348D01*
X153822788Y-29361347D01*
X153818322Y-29360467D01*
X153813768Y-29360240D01*
X153813766Y-29360240D01*
X153552064Y-29347211D01*
X153552058Y-29347211D01*
X153547495Y-29346984D01*
X153277559Y-29372738D01*
X153273130Y-29373822D01*
X153273123Y-29373823D01*
X153143069Y-29405648D01*
X153014168Y-29437190D01*
X153009933Y-29438905D01*
X153009931Y-29438906D01*
X152811435Y-29519305D01*
X152762840Y-29538988D01*
X152528839Y-29676001D01*
X152317068Y-29845359D01*
X152313947Y-29848700D01*
X152189224Y-29982215D01*
X152131963Y-30043512D01*
X151977402Y-30266312D01*
X151975374Y-30270388D01*
X151975373Y-30270390D01*
X151893252Y-30435460D01*
X151856621Y-30509090D01*
X151772153Y-30766760D01*
X151771373Y-30771251D01*
X151771373Y-30771252D01*
X151737344Y-30967240D01*
X151725765Y-31033925D01*
X151725574Y-31037762D01*
X151722016Y-31109242D01*
X151721500Y-31119600D01*
X151721500Y-31808884D01*
X145858500Y-31808884D01*
X145858500Y-31151116D01*
X145856429Y-31122563D01*
X145848771Y-31017022D01*
X145843875Y-30949549D01*
X145832491Y-30897987D01*
X145786400Y-30689223D01*
X145786399Y-30689219D01*
X145785415Y-30684763D01*
X145689345Y-30431190D01*
X145579601Y-30233614D01*
X145559894Y-30198134D01*
X145559893Y-30198133D01*
X145557676Y-30194141D01*
X145393167Y-29978583D01*
X145199264Y-29789030D01*
X144980028Y-29629453D01*
X144740053Y-29503196D01*
X144735752Y-29501677D01*
X144735747Y-29501675D01*
X144602913Y-29454767D01*
X144484366Y-29412904D01*
X144386347Y-29393585D01*
X144222794Y-29361348D01*
X144222788Y-29361347D01*
X144218322Y-29360467D01*
X144213768Y-29360240D01*
X144213766Y-29360240D01*
X143952064Y-29347211D01*
X143952058Y-29347211D01*
X143947495Y-29346984D01*
X143677559Y-29372738D01*
X143673130Y-29373822D01*
X143673123Y-29373823D01*
X143543069Y-29405648D01*
X143414168Y-29437190D01*
X143409933Y-29438905D01*
X143409931Y-29438906D01*
X143211435Y-29519305D01*
X143162840Y-29538988D01*
X142928839Y-29676001D01*
X142717068Y-29845359D01*
X142713947Y-29848700D01*
X142589224Y-29982215D01*
X142531963Y-30043512D01*
X142529363Y-30047260D01*
X142431005Y-30189043D01*
X142375742Y-30233614D01*
X142305155Y-30241231D01*
X142241655Y-30209477D01*
X142227314Y-30193666D01*
X142065939Y-29982215D01*
X142065938Y-29982214D01*
X142063167Y-29978583D01*
X141869264Y-29789030D01*
X141650028Y-29629453D01*
X141410053Y-29503196D01*
X141405752Y-29501677D01*
X141405747Y-29501675D01*
X141272913Y-29454767D01*
X141154366Y-29412904D01*
X141056347Y-29393585D01*
X140892794Y-29361348D01*
X140892788Y-29361347D01*
X140888322Y-29360467D01*
X140883768Y-29360240D01*
X140883766Y-29360240D01*
X140622064Y-29347211D01*
X140622058Y-29347211D01*
X140617495Y-29346984D01*
X140347559Y-29372738D01*
X140343130Y-29373822D01*
X140343123Y-29373823D01*
X140213069Y-29405648D01*
X140084168Y-29437190D01*
X140079933Y-29438905D01*
X140079931Y-29438906D01*
X139881435Y-29519305D01*
X139832840Y-29538988D01*
X139598839Y-29676001D01*
X139387068Y-29845359D01*
X139383947Y-29848700D01*
X139259224Y-29982215D01*
X139201963Y-30043512D01*
X139047402Y-30266312D01*
X139045374Y-30270388D01*
X139045373Y-30270390D01*
X138963252Y-30435460D01*
X138926621Y-30509090D01*
X138842153Y-30766760D01*
X138841373Y-30771251D01*
X138841373Y-30771252D01*
X138807344Y-30967240D01*
X138795765Y-31033925D01*
X138795574Y-31037762D01*
X138792016Y-31109242D01*
X138791500Y-31119600D01*
X138791500Y-31808884D01*
X132928500Y-31808884D01*
X132928500Y-31151116D01*
X132926429Y-31122563D01*
X132918771Y-31017022D01*
X132913875Y-30949549D01*
X132902491Y-30897987D01*
X132856400Y-30689223D01*
X132856399Y-30689219D01*
X132855415Y-30684763D01*
X132759345Y-30431190D01*
X132649601Y-30233614D01*
X132629894Y-30198134D01*
X132629893Y-30198133D01*
X132627676Y-30194141D01*
X132463167Y-29978583D01*
X132269264Y-29789030D01*
X132050028Y-29629453D01*
X131810053Y-29503196D01*
X131805752Y-29501677D01*
X131805747Y-29501675D01*
X131672913Y-29454767D01*
X131554366Y-29412904D01*
X131456347Y-29393585D01*
X131292794Y-29361348D01*
X131292788Y-29361347D01*
X131288322Y-29360467D01*
X131283768Y-29360240D01*
X131283766Y-29360240D01*
X131022064Y-29347211D01*
X131022058Y-29347211D01*
X131017495Y-29346984D01*
X130747559Y-29372738D01*
X130743130Y-29373822D01*
X130743123Y-29373823D01*
X130613069Y-29405648D01*
X130484168Y-29437190D01*
X130479933Y-29438905D01*
X130479931Y-29438906D01*
X130281435Y-29519305D01*
X130232840Y-29538988D01*
X129998839Y-29676001D01*
X129787068Y-29845359D01*
X129783947Y-29848700D01*
X129659224Y-29982215D01*
X129601963Y-30043512D01*
X129512083Y-30173075D01*
X129510528Y-30175316D01*
X129455265Y-30219887D01*
X129384678Y-30227504D01*
X129321178Y-30195750D01*
X129306837Y-30179939D01*
X129298071Y-30168452D01*
X129153167Y-29978583D01*
X128959264Y-29789030D01*
X128740028Y-29629453D01*
X128500053Y-29503196D01*
X128495752Y-29501677D01*
X128495747Y-29501675D01*
X128362913Y-29454767D01*
X128244366Y-29412904D01*
X128146347Y-29393585D01*
X127982794Y-29361348D01*
X127982788Y-29361347D01*
X127978322Y-29360467D01*
X127973768Y-29360240D01*
X127973766Y-29360240D01*
X127712064Y-29347211D01*
X127712058Y-29347211D01*
X127707495Y-29346984D01*
X127437559Y-29372738D01*
X127433130Y-29373822D01*
X127433123Y-29373823D01*
X127303069Y-29405648D01*
X127174168Y-29437190D01*
X127169933Y-29438905D01*
X127169931Y-29438906D01*
X126971435Y-29519305D01*
X126922840Y-29538988D01*
X126688839Y-29676001D01*
X126477068Y-29845359D01*
X126473947Y-29848700D01*
X126349224Y-29982215D01*
X126291963Y-30043512D01*
X126137402Y-30266312D01*
X126135374Y-30270388D01*
X126135373Y-30270390D01*
X126053252Y-30435460D01*
X126016621Y-30509090D01*
X125932153Y-30766760D01*
X125931373Y-30771251D01*
X125931373Y-30771252D01*
X125897344Y-30967240D01*
X125885765Y-31033925D01*
X125885574Y-31037762D01*
X125882016Y-31109242D01*
X125881500Y-31119600D01*
X125881500Y-31808884D01*
X120018500Y-31808884D01*
X120018500Y-31151116D01*
X120016429Y-31122563D01*
X120008771Y-31017022D01*
X120003875Y-30949549D01*
X119992491Y-30897987D01*
X119946400Y-30689223D01*
X119946399Y-30689219D01*
X119945415Y-30684763D01*
X119849345Y-30431190D01*
X119739601Y-30233614D01*
X119719894Y-30198134D01*
X119719893Y-30198133D01*
X119717676Y-30194141D01*
X119553167Y-29978583D01*
X119359264Y-29789030D01*
X119140028Y-29629453D01*
X118900053Y-29503196D01*
X118895752Y-29501677D01*
X118895747Y-29501675D01*
X118762913Y-29454767D01*
X118644366Y-29412904D01*
X118546347Y-29393585D01*
X118382794Y-29361348D01*
X118382788Y-29361347D01*
X118378322Y-29360467D01*
X118373768Y-29360240D01*
X118373766Y-29360240D01*
X118112064Y-29347211D01*
X118112058Y-29347211D01*
X118107495Y-29346984D01*
X117837559Y-29372738D01*
X117833130Y-29373822D01*
X117833123Y-29373823D01*
X117703069Y-29405648D01*
X117574168Y-29437190D01*
X117569933Y-29438905D01*
X117569931Y-29438906D01*
X117371435Y-29519305D01*
X117322840Y-29538988D01*
X117088839Y-29676001D01*
X116877068Y-29845359D01*
X116873947Y-29848700D01*
X116749224Y-29982215D01*
X116691963Y-30043512D01*
X116602083Y-30173075D01*
X116600528Y-30175316D01*
X116545265Y-30219887D01*
X116474678Y-30227504D01*
X116411178Y-30195750D01*
X116396837Y-30179939D01*
X116388071Y-30168452D01*
X116243167Y-29978583D01*
X116049264Y-29789030D01*
X115830028Y-29629453D01*
X115590053Y-29503196D01*
X115585752Y-29501677D01*
X115585747Y-29501675D01*
X115452913Y-29454767D01*
X115334366Y-29412904D01*
X115236347Y-29393585D01*
X115072794Y-29361348D01*
X115072788Y-29361347D01*
X115068322Y-29360467D01*
X115063768Y-29360240D01*
X115063766Y-29360240D01*
X114802064Y-29347211D01*
X114802058Y-29347211D01*
X114797495Y-29346984D01*
X114527559Y-29372738D01*
X114523130Y-29373822D01*
X114523123Y-29373823D01*
X114393069Y-29405648D01*
X114264168Y-29437190D01*
X114259933Y-29438905D01*
X114259931Y-29438906D01*
X114061435Y-29519305D01*
X114012840Y-29538988D01*
X113778839Y-29676001D01*
X113567068Y-29845359D01*
X113563947Y-29848700D01*
X113439224Y-29982215D01*
X113381963Y-30043512D01*
X113227402Y-30266312D01*
X113225374Y-30270388D01*
X113225373Y-30270390D01*
X113143252Y-30435460D01*
X113106621Y-30509090D01*
X113022153Y-30766760D01*
X113021373Y-30771251D01*
X113021373Y-30771252D01*
X112987344Y-30967240D01*
X112975765Y-31033925D01*
X112975574Y-31037762D01*
X112972016Y-31109242D01*
X112971500Y-31119600D01*
X112971500Y-31808884D01*
X107108500Y-31808884D01*
X107108500Y-31151116D01*
X107106429Y-31122563D01*
X107098771Y-31017022D01*
X107093875Y-30949549D01*
X107082491Y-30897987D01*
X107036400Y-30689223D01*
X107036399Y-30689219D01*
X107035415Y-30684763D01*
X106939345Y-30431190D01*
X106829601Y-30233614D01*
X106809894Y-30198134D01*
X106809893Y-30198133D01*
X106807676Y-30194141D01*
X106643167Y-29978583D01*
X106449264Y-29789030D01*
X106230028Y-29629453D01*
X105990053Y-29503196D01*
X105985752Y-29501677D01*
X105985747Y-29501675D01*
X105852913Y-29454767D01*
X105734366Y-29412904D01*
X105636347Y-29393585D01*
X105472794Y-29361348D01*
X105472788Y-29361347D01*
X105468322Y-29360467D01*
X105463768Y-29360240D01*
X105463766Y-29360240D01*
X105202064Y-29347211D01*
X105202058Y-29347211D01*
X105197495Y-29346984D01*
X104927559Y-29372738D01*
X104923130Y-29373822D01*
X104923123Y-29373823D01*
X104793069Y-29405648D01*
X104664168Y-29437190D01*
X104659933Y-29438905D01*
X104659931Y-29438906D01*
X104461435Y-29519305D01*
X104412840Y-29538988D01*
X104178839Y-29676001D01*
X103967068Y-29845359D01*
X103963947Y-29848700D01*
X103839224Y-29982215D01*
X103781963Y-30043512D01*
X103696845Y-30166211D01*
X103695290Y-30168452D01*
X103640027Y-30213022D01*
X103569440Y-30220640D01*
X103505940Y-30188886D01*
X103491599Y-30173075D01*
X103345939Y-29982215D01*
X103345938Y-29982214D01*
X103343167Y-29978583D01*
X103149264Y-29789030D01*
X102930028Y-29629453D01*
X102690053Y-29503196D01*
X102685752Y-29501677D01*
X102685747Y-29501675D01*
X102552913Y-29454767D01*
X102434366Y-29412904D01*
X102336347Y-29393585D01*
X102172794Y-29361348D01*
X102172788Y-29361347D01*
X102168322Y-29360467D01*
X102163768Y-29360240D01*
X102163766Y-29360240D01*
X101902064Y-29347211D01*
X101902058Y-29347211D01*
X101897495Y-29346984D01*
X101627559Y-29372738D01*
X101623130Y-29373822D01*
X101623123Y-29373823D01*
X101493069Y-29405648D01*
X101364168Y-29437190D01*
X101359933Y-29438905D01*
X101359931Y-29438906D01*
X101161435Y-29519305D01*
X101112840Y-29538988D01*
X100878839Y-29676001D01*
X100667068Y-29845359D01*
X100663947Y-29848700D01*
X100539224Y-29982215D01*
X100481963Y-30043512D01*
X100327402Y-30266312D01*
X100325374Y-30270388D01*
X100325373Y-30270390D01*
X100243252Y-30435460D01*
X100206621Y-30509090D01*
X100122153Y-30766760D01*
X100121373Y-30771251D01*
X100121373Y-30771252D01*
X100087344Y-30967240D01*
X100075765Y-31033925D01*
X100075574Y-31037762D01*
X100072016Y-31109242D01*
X100071500Y-31119600D01*
X100071500Y-31808884D01*
X94208500Y-31808884D01*
X94208500Y-31151116D01*
X94206429Y-31122563D01*
X94198771Y-31017022D01*
X94193875Y-30949549D01*
X94182491Y-30897987D01*
X94136400Y-30689223D01*
X94136399Y-30689219D01*
X94135415Y-30684763D01*
X94039345Y-30431190D01*
X93929601Y-30233614D01*
X93909894Y-30198134D01*
X93909893Y-30198133D01*
X93907676Y-30194141D01*
X93743167Y-29978583D01*
X93549264Y-29789030D01*
X93330028Y-29629453D01*
X93090053Y-29503196D01*
X93085752Y-29501677D01*
X93085747Y-29501675D01*
X92931604Y-29447242D01*
X92874031Y-29405698D01*
X92848058Y-29339623D01*
X92848924Y-29309944D01*
X92894177Y-29004869D01*
X92896589Y-28992741D01*
X92976849Y-28672328D01*
X92980438Y-28660496D01*
X93091716Y-28349493D01*
X93096448Y-28338069D01*
X93237674Y-28039471D01*
X93243503Y-28028566D01*
X93413318Y-27745248D01*
X93420188Y-27734967D01*
X93616951Y-27469663D01*
X93624795Y-27460105D01*
X93846617Y-27215361D01*
X93855361Y-27206617D01*
X94100105Y-26984795D01*
X94109663Y-26976951D01*
X94374967Y-26780188D01*
X94385248Y-26773318D01*
X94668566Y-26603503D01*
X94679471Y-26597674D01*
X94681474Y-26596727D01*
X94813167Y-26534441D01*
X94978069Y-26456448D01*
X94989493Y-26451716D01*
X95300496Y-26340438D01*
X95312328Y-26336849D01*
X95612505Y-26261658D01*
X95632744Y-26256588D01*
X95644866Y-26254178D01*
X95971605Y-26205710D01*
X95983899Y-26204500D01*
X96277066Y-26190097D01*
X96302630Y-26191446D01*
X96313730Y-26193174D01*
X96322632Y-26192010D01*
X96322635Y-26192010D01*
X96345251Y-26189052D01*
X96361589Y-26187988D01*
X98374544Y-26187988D01*
X206161288Y-26188000D01*
G37*
%TD.AperFunction*%
%TD*%
M02*
