%TF.GenerationSoftware,KiCad,Pcbnew,(6.0.1)*%
%TF.CreationDate,2022-09-16T10:26:10-07:00*%
%TF.ProjectId,8-pots-1-mux-rounded,382d706f-7473-42d3-912d-6d75782d726f,rev?*%
%TF.SameCoordinates,Original*%
%TF.FileFunction,Copper,L1,Top*%
%TF.FilePolarity,Positive*%
%FSLAX46Y46*%
G04 Gerber Fmt 4.6, Leading zero omitted, Abs format (unit mm)*
G04 Created by KiCad (PCBNEW (6.0.1)) date 2022-09-16 10:26:10*
%MOMM*%
%LPD*%
G01*
G04 APERTURE LIST*
G04 Aperture macros list*
%AMRoundRect*
0 Rectangle with rounded corners*
0 $1 Rounding radius*
0 $2 $3 $4 $5 $6 $7 $8 $9 X,Y pos of 4 corners*
0 Add a 4 corners polygon primitive as box body*
4,1,4,$2,$3,$4,$5,$6,$7,$8,$9,$2,$3,0*
0 Add four circle primitives for the rounded corners*
1,1,$1+$1,$2,$3*
1,1,$1+$1,$4,$5*
1,1,$1+$1,$6,$7*
1,1,$1+$1,$8,$9*
0 Add four rect primitives between the rounded corners*
20,1,$1+$1,$2,$3,$4,$5,0*
20,1,$1+$1,$4,$5,$6,$7,0*
20,1,$1+$1,$6,$7,$8,$9,0*
20,1,$1+$1,$8,$9,$2,$3,0*%
G04 Aperture macros list end*
%TA.AperFunction,SMDPad,CuDef*%
%ADD10RoundRect,0.250000X-0.250000X-0.475000X0.250000X-0.475000X0.250000X0.475000X-0.250000X0.475000X0*%
%TD*%
%TA.AperFunction,ComponentPad*%
%ADD11O,2.720000X3.240000*%
%TD*%
%TA.AperFunction,ComponentPad*%
%ADD12R,1.800000X1.800000*%
%TD*%
%TA.AperFunction,ComponentPad*%
%ADD13C,1.800000*%
%TD*%
%TA.AperFunction,SMDPad,CuDef*%
%ADD14RoundRect,0.150000X-0.825000X-0.150000X0.825000X-0.150000X0.825000X0.150000X-0.825000X0.150000X0*%
%TD*%
%TA.AperFunction,ComponentPad*%
%ADD15R,1.700000X1.700000*%
%TD*%
%TA.AperFunction,ComponentPad*%
%ADD16O,1.700000X1.700000*%
%TD*%
%TA.AperFunction,ViaPad*%
%ADD17C,0.800000*%
%TD*%
%TA.AperFunction,Conductor*%
%ADD18C,0.250000*%
%TD*%
G04 APERTURE END LIST*
D10*
%TO.P,C1,1*%
%TO.N,+3V3*%
X202180000Y-26780000D03*
%TO.P,C1,2*%
%TO.N,GND*%
X204080000Y-26780000D03*
%TD*%
D11*
%TO.P,RV5,*%
%TO.N,*%
X143990000Y-31480000D03*
X153590000Y-31480000D03*
D12*
%TO.P,RV5,1,1*%
%TO.N,+3V3*%
X146290000Y-38980000D03*
D13*
%TO.P,RV5,2,2*%
%TO.N,MUX_IN_5*%
X148790000Y-38980000D03*
%TO.P,RV5,3,3*%
%TO.N,GND*%
X151290000Y-38980000D03*
%TD*%
D11*
%TO.P,RV6,*%
%TO.N,*%
X166480000Y-31480000D03*
X156880000Y-31480000D03*
D12*
%TO.P,RV6,1,1*%
%TO.N,+3V3*%
X159180000Y-38980000D03*
D13*
%TO.P,RV6,2,2*%
%TO.N,MUX_IN_6*%
X161680000Y-38980000D03*
%TO.P,RV6,3,3*%
%TO.N,GND*%
X164180000Y-38980000D03*
%TD*%
D11*
%TO.P,RV1,*%
%TO.N,*%
X92340000Y-31480000D03*
X101940000Y-31480000D03*
D12*
%TO.P,RV1,1,1*%
%TO.N,+3V3*%
X94640000Y-38980000D03*
D13*
%TO.P,RV1,2,2*%
%TO.N,MUX_IN_1*%
X97140000Y-38980000D03*
%TO.P,RV1,3,3*%
%TO.N,GND*%
X99640000Y-38980000D03*
%TD*%
D11*
%TO.P,RV7,*%
%TO.N,*%
X179380000Y-31480000D03*
X169780000Y-31480000D03*
D12*
%TO.P,RV7,1,1*%
%TO.N,+3V3*%
X172080000Y-38980000D03*
D13*
%TO.P,RV7,2,2*%
%TO.N,MUX_IN_7*%
X174580000Y-38980000D03*
%TO.P,RV7,3,3*%
%TO.N,GND*%
X177080000Y-38980000D03*
%TD*%
D11*
%TO.P,RV3,*%
%TO.N,*%
X127750000Y-31480000D03*
X118150000Y-31480000D03*
D12*
%TO.P,RV3,1,1*%
%TO.N,+3V3*%
X120450000Y-38980000D03*
D13*
%TO.P,RV3,2,2*%
%TO.N,MUX_IN_3*%
X122950000Y-38980000D03*
%TO.P,RV3,3,3*%
%TO.N,GND*%
X125450000Y-38980000D03*
%TD*%
D14*
%TO.P,U1,1,X4*%
%TO.N,MUX_IN_5*%
X197245000Y-28605000D03*
%TO.P,U1,2,X6*%
%TO.N,MUX_IN_7*%
X197245000Y-29875000D03*
%TO.P,U1,3,X*%
%TO.N,MUX_OUT*%
X197245000Y-31145000D03*
%TO.P,U1,4,X7*%
%TO.N,MUX_IN_8*%
X197245000Y-32415000D03*
%TO.P,U1,5,X5*%
%TO.N,MUX_IN_6*%
X197245000Y-33685000D03*
%TO.P,U1,6,Inh*%
%TO.N,GND*%
X197245000Y-34955000D03*
%TO.P,U1,7,VEE*%
X197245000Y-36225000D03*
%TO.P,U1,8,VSS*%
X197245000Y-37495000D03*
%TO.P,U1,9,C*%
%TO.N,CHANNEL_SELECT_C*%
X202195000Y-37495000D03*
%TO.P,U1,10,B*%
%TO.N,CHANNEL_SELECT_B*%
X202195000Y-36225000D03*
%TO.P,U1,11,A*%
%TO.N,CHANNEL_SELECT_A*%
X202195000Y-34955000D03*
%TO.P,U1,12,X3*%
%TO.N,MUX_IN_4*%
X202195000Y-33685000D03*
%TO.P,U1,13,X0*%
%TO.N,MUX_IN_1*%
X202195000Y-32415000D03*
%TO.P,U1,14,X1*%
%TO.N,MUX_IN_2*%
X202195000Y-31145000D03*
%TO.P,U1,15,X2*%
%TO.N,MUX_IN_3*%
X202195000Y-29875000D03*
%TO.P,U1,16,VDD*%
%TO.N,+3V3*%
X202195000Y-28605000D03*
%TD*%
D11*
%TO.P,RV8,*%
%TO.N,*%
X192300000Y-31480000D03*
X182700000Y-31480000D03*
D12*
%TO.P,RV8,1,1*%
%TO.N,+3V3*%
X185000000Y-38980000D03*
D13*
%TO.P,RV8,2,2*%
%TO.N,MUX_IN_8*%
X187500000Y-38980000D03*
%TO.P,RV8,3,3*%
%TO.N,GND*%
X190000000Y-38980000D03*
%TD*%
D11*
%TO.P,RV4,*%
%TO.N,*%
X131060000Y-31480000D03*
X140660000Y-31480000D03*
D12*
%TO.P,RV4,1,1*%
%TO.N,+3V3*%
X133360000Y-38980000D03*
D13*
%TO.P,RV4,2,2*%
%TO.N,MUX_IN_4*%
X135860000Y-38980000D03*
%TO.P,RV4,3,3*%
%TO.N,GND*%
X138360000Y-38980000D03*
%TD*%
D15*
%TO.P,J1,1,Pin_1*%
%TO.N,+3V3*%
X207120000Y-40150000D03*
D16*
%TO.P,J1,2,Pin_2*%
%TO.N,CHANNEL_SELECT_A*%
X207120000Y-37610000D03*
%TO.P,J1,3,Pin_3*%
%TO.N,CHANNEL_SELECT_B*%
X207120000Y-35070000D03*
%TO.P,J1,4,Pin_4*%
%TO.N,CHANNEL_SELECT_C*%
X207120000Y-32530000D03*
%TO.P,J1,5,Pin_5*%
%TO.N,MUX_OUT*%
X207120000Y-29990000D03*
%TO.P,J1,6,Pin_6*%
%TO.N,GND*%
X207120000Y-27450000D03*
%TD*%
D11*
%TO.P,RV2,*%
%TO.N,*%
X114840000Y-31480000D03*
X105240000Y-31480000D03*
D12*
%TO.P,RV2,1,1*%
%TO.N,+3V3*%
X107540000Y-38980000D03*
D13*
%TO.P,RV2,2,2*%
%TO.N,MUX_IN_2*%
X110040000Y-38980000D03*
%TO.P,RV2,3,3*%
%TO.N,GND*%
X112540000Y-38980000D03*
%TD*%
D17*
%TO.N,+3V3*%
X200150000Y-27960000D03*
%TD*%
D18*
%TO.N,MUX_IN_6*%
X172842255Y-37042255D02*
X172923107Y-37123108D01*
%TO.N,MUX_IN_8*%
X187900000Y-35900000D02*
G75*
G02*
X188865685Y-35500000I965682J-965677D01*
G01*
X192862560Y-33559709D02*
G75*
G02*
X195626135Y-32415000I2763574J-2763576D01*
G01*
X189611135Y-35499999D02*
G75*
G03*
X191849382Y-34572886I-1J3165362D01*
G01*
X187500000Y-36865685D02*
G75*
G02*
X187900000Y-35900000I1365677J3D01*
G01*
%TO.N,MUX_IN_7*%
X196629588Y-29514500D02*
G75*
G02*
X197064750Y-29694750I0J-615412D01*
G01*
X186526855Y-30709844D02*
G75*
G02*
X189412672Y-29514500I2885813J-2885809D01*
G01*
X175775000Y-37785000D02*
G75*
G02*
X178659985Y-36590000I2884983J-2884979D01*
G01*
X178956227Y-36589999D02*
G75*
G03*
X181842043Y-35394654I-4J4081170D01*
G01*
%TO.N,MUX_IN_6*%
X197236464Y-33689999D02*
G75*
G03*
X197242500Y-33687500I-2J8542D01*
G01*
X162884655Y-37775344D02*
G75*
G02*
X165770472Y-36580000I2885813J-2885809D01*
G01*
X174628107Y-40230900D02*
G75*
G02*
X173304511Y-38907304I-1J1323595D01*
G01*
X173304510Y-38043899D02*
G75*
G03*
X172923106Y-37123109I-1302200J-2D01*
G01*
X171726272Y-36580001D02*
G75*
G02*
X172842254Y-37042256I0J-1578239D01*
G01*
X190240000Y-36949999D02*
G75*
G03*
X192783587Y-35896409I-4J3597183D01*
G01*
X188750000Y-38440000D02*
G75*
G02*
X190240000Y-36950000I1489997J3D01*
G01*
X194194504Y-34485495D02*
G75*
G02*
X196115000Y-33690000I1920494J-1920492D01*
G01*
X187449980Y-40230900D02*
G75*
G03*
X188750000Y-38930880I0J1300020D01*
G01*
%TO.N,MUX_IN_5*%
X161987555Y-29800344D02*
G75*
G02*
X164873372Y-28605000I2885813J-2885809D01*
G01*
X151844655Y-35925344D02*
G75*
G02*
X154730472Y-34730000I2885813J-2885809D01*
G01*
X155367427Y-34729999D02*
G75*
G03*
X158253243Y-33534654I-4J4081170D01*
G01*
%TO.N,MUX_IN_4*%
X191579250Y-40110750D02*
G75*
G02*
X193005446Y-39520000I1426191J-1426184D01*
G01*
X198940000Y-35184998D02*
G75*
G02*
X200439998Y-33685000I1499997J1D01*
G01*
X190153053Y-40701500D02*
G75*
G03*
X191579250Y-40110750I-1J2016949D01*
G01*
X198280000Y-38860000D02*
G75*
G03*
X198940000Y-37266619I-1593390J1593385D01*
G01*
X138798784Y-40701500D02*
G75*
G02*
X136720750Y-39840750I2J2938787D01*
G01*
X196686619Y-39520000D02*
G75*
G03*
X198280000Y-38860000I-4J2253390D01*
G01*
%TO.N,MUX_IN_3*%
X201284848Y-29874999D02*
G75*
G02*
X199731121Y-29231425I1J2197304D01*
G01*
X124123750Y-37806250D02*
G75*
G02*
X126957433Y-36632500I2833678J-2833671D01*
G01*
X196354459Y-27520000D02*
G75*
G02*
X199197196Y-28697500I1J-4020235D01*
G01*
X128568627Y-36632499D02*
G75*
G03*
X131454443Y-35437154I-4J4081170D01*
G01*
X138176255Y-28715344D02*
G75*
G02*
X141062072Y-27520000I2885813J-2885809D01*
G01*
%TO.N,MUX_IN_2*%
X119333527Y-33848899D02*
G75*
G03*
X122219343Y-32653554I-4J4081170D01*
G01*
X204705700Y-29012500D02*
G75*
G02*
X205254933Y-28785000I549231J-549228D01*
G01*
X113975755Y-35044244D02*
G75*
G02*
X116861572Y-33848900I2885813J-2885809D01*
G01*
X202293158Y-31202499D02*
G75*
G02*
X202223750Y-31173750I-1J98155D01*
G01*
X207095850Y-28785000D02*
G75*
G02*
X208304600Y-29993750I1J-1208749D01*
G01*
X127127555Y-27745344D02*
G75*
G02*
X130013372Y-26550000I2885813J-2885809D01*
G01*
X207095850Y-31202500D02*
G75*
G03*
X208304600Y-29993750I-1J1208751D01*
G01*
X201356802Y-29239999D02*
G75*
G02*
X199681445Y-28546043I-1J2369311D01*
G01*
X195994927Y-26550000D02*
G75*
G02*
X198880744Y-27745344I4J-4081153D01*
G01*
X204156466Y-29240000D02*
G75*
G03*
X204705700Y-29012500I-4J776743D01*
G01*
%TO.N,MUX_IN_1*%
X203527500Y-34320000D02*
G75*
G03*
X204480000Y-33367500I-1J952501D01*
G01*
X203527500Y-32415000D02*
G75*
G02*
X204480000Y-33367500I1J-952499D01*
G01*
X100894781Y-41179499D02*
G75*
G02*
X98239751Y-40079749I0J3754780D01*
G01*
X198655250Y-40074750D02*
G75*
G03*
X199760000Y-37407647I-2667116J2667108D01*
G01*
X195988147Y-41179499D02*
G75*
G03*
X198655249Y-40074749I-5J3771865D01*
G01*
X199760000Y-35819998D02*
G75*
G02*
X201259998Y-34320000I1499997J1D01*
G01*
%TO.N,MUX_OUT*%
X197562500Y-30827500D02*
G75*
G02*
X198329012Y-30510000I766508J-766502D01*
G01*
X204102304Y-30509999D02*
G75*
G03*
X204729999Y-30249999I-2J887701D01*
G01*
X204730000Y-30250000D02*
G75*
G02*
X205357695Y-29990000I627692J-627686D01*
G01*
%TO.N,CHANNEL_SELECT_C*%
X207150801Y-36245400D02*
G75*
G03*
X208304600Y-35091601I0J1153799D01*
G01*
X203291399Y-37495000D02*
G75*
G03*
X204799800Y-36870200I-5J2133213D01*
G01*
X204799800Y-36870200D02*
G75*
G02*
X206308200Y-36245400I1508397J-1508393D01*
G01*
X208304600Y-34552238D02*
G75*
G03*
X207712300Y-33122300I-2022239J-1D01*
G01*
%TO.N,CHANNEL_SELECT_B*%
X202660000Y-36225000D02*
G75*
G03*
X203453804Y-35896195I-3J1122614D01*
G01*
X203702500Y-35647500D02*
G75*
G02*
X205096708Y-35070000I1394206J-1394203D01*
G01*
%TO.N,CHANNEL_SELECT_A*%
X202039998Y-39000000D02*
G75*
G02*
X200540000Y-37500001I1J1499999D01*
G01*
X200540000Y-35782500D02*
G75*
G02*
X201367500Y-34955000I827500J0D01*
G01*
X204747121Y-39000000D02*
G75*
G03*
X206425000Y-38305000I-3J2372887D01*
G01*
%TO.N,+3V3*%
X169988282Y-40205300D02*
G75*
G03*
X171467350Y-39592650I-4J2091727D01*
G01*
X201890801Y-27273695D02*
G75*
G02*
X202035401Y-26924601I493689J2D01*
G01*
X161271717Y-40205300D02*
G75*
G02*
X159792650Y-39592650I1J2091718D01*
G01*
X117803984Y-40529999D02*
G75*
G03*
X119674999Y-39754999I-1J2646019D01*
G01*
X110186015Y-40529999D02*
G75*
G02*
X108315001Y-39754999I0J2646014D01*
G01*
X200731781Y-28300800D02*
G75*
G02*
X200320400Y-28130400I2J581784D01*
G01*
X201890800Y-28085698D02*
G75*
G02*
X201675698Y-28300800I-215102J0D01*
G01*
X201675698Y-28300801D02*
G75*
G02*
X202042899Y-28452901I2J-519297D01*
G01*
X202042900Y-28452900D02*
G75*
G02*
X201890800Y-28085698I367198J367200D01*
G01*
X200150000Y-27960000D02*
X200320400Y-28130400D01*
X200731781Y-28300800D02*
X201675698Y-28300800D01*
%TO.N,MUX_IN_3*%
X126957433Y-36632500D02*
X128568627Y-36632500D01*
X131454444Y-35437155D02*
X138176255Y-28715344D01*
X196354459Y-27520000D02*
X141062072Y-27520000D01*
X199731121Y-29231425D02*
X199197196Y-28697500D01*
X201284848Y-29875000D02*
X202195000Y-29875000D01*
%TO.N,MUX_IN_2*%
X202223750Y-31173750D02*
X202195000Y-31145000D01*
X205254933Y-28785000D02*
X207095850Y-28785000D01*
X201356802Y-29240000D02*
X204156466Y-29240000D01*
X199681444Y-28546044D02*
X198880744Y-27745344D01*
X130013372Y-26550000D02*
X195994927Y-26550000D01*
X122219344Y-32653555D02*
X127127555Y-27745344D01*
X119333527Y-33848900D02*
X116861572Y-33848900D01*
X113975755Y-35044244D02*
X110040000Y-38980000D01*
%TO.N,MUX_IN_3*%
X124123750Y-37806250D02*
X122950000Y-38980000D01*
%TO.N,MUX_IN_2*%
X202293158Y-31202500D02*
X207095850Y-31202500D01*
%TO.N,+3V3*%
X169988282Y-40205300D02*
X161271717Y-40205300D01*
X119675000Y-39755000D02*
X120450000Y-38980000D01*
X201890800Y-27273695D02*
X201890800Y-28085698D01*
X117803984Y-40530000D02*
X110186015Y-40530000D01*
X171467350Y-39592650D02*
X172080000Y-38980000D01*
X108315000Y-39755000D02*
X107540000Y-38980000D01*
X159792650Y-39592650D02*
X159180000Y-38980000D01*
X202035400Y-26924600D02*
X202180000Y-26780000D01*
X202042900Y-28452900D02*
X202195000Y-28605000D01*
%TO.N,CHANNEL_SELECT_A*%
X206425000Y-38305000D02*
X207120000Y-37610000D01*
X201367500Y-34955000D02*
X202195000Y-34955000D01*
X202039998Y-39000000D02*
X204747121Y-39000000D01*
X200540000Y-37500001D02*
X200540000Y-35782500D01*
%TO.N,CHANNEL_SELECT_B*%
X202660000Y-36225000D02*
X202195000Y-36225000D01*
X203453804Y-35896195D02*
X203702500Y-35647500D01*
X205096708Y-35070000D02*
X207120000Y-35070000D01*
%TO.N,CHANNEL_SELECT_C*%
X208304600Y-35091601D02*
X208304600Y-34552238D01*
X203291399Y-37495000D02*
X202195000Y-37495000D01*
X207150801Y-36245400D02*
X206308200Y-36245400D01*
X207712300Y-33122300D02*
X207120000Y-32530000D01*
%TO.N,MUX_OUT*%
X205357695Y-29990000D02*
X207120000Y-29990000D01*
X198329012Y-30510000D02*
X204102304Y-30510000D01*
X197562500Y-30827500D02*
X197245000Y-31145000D01*
%TO.N,MUX_IN_1*%
X203527500Y-32415000D02*
X202195000Y-32415000D01*
X199760000Y-37407647D02*
X199760000Y-35819998D01*
X100894781Y-41179500D02*
X195988147Y-41179500D01*
X98239750Y-40079750D02*
X97140000Y-38980000D01*
X203527500Y-34320000D02*
X201259998Y-34320000D01*
%TO.N,MUX_IN_4*%
X193005446Y-39520000D02*
X196686619Y-39520000D01*
X190153053Y-40701500D02*
X138798784Y-40701500D01*
X200439998Y-33685000D02*
X202195000Y-33685000D01*
X136720750Y-39840750D02*
X135860000Y-38980000D01*
X198940000Y-35184998D02*
X198940000Y-37266619D01*
%TO.N,MUX_IN_5*%
X151844655Y-35925344D02*
X148790000Y-38980000D01*
X154730472Y-34730000D02*
X155367427Y-34730000D01*
X161987555Y-29800344D02*
X158253244Y-33534655D01*
X164873372Y-28605000D02*
X197245000Y-28605000D01*
%TO.N,MUX_IN_6*%
X188750000Y-38440000D02*
X188750000Y-38930880D01*
X197242500Y-33687500D02*
X197245000Y-33685000D01*
X192783588Y-35896410D02*
X194194504Y-34485495D01*
X162884655Y-37775344D02*
X161680000Y-38980000D01*
X197236464Y-33690000D02*
X196115000Y-33690000D01*
X174628107Y-40230900D02*
X187449980Y-40230900D01*
X173304511Y-38907304D02*
X173304511Y-38043899D01*
X165770472Y-36580000D02*
X171726272Y-36580000D01*
%TO.N,MUX_IN_7*%
X196629588Y-29514500D02*
X189412672Y-29514500D01*
X178659985Y-36590000D02*
X178956227Y-36590000D01*
X197064750Y-29694750D02*
X197245000Y-29875000D01*
X175775000Y-37785000D02*
X174580000Y-38980000D01*
X186526855Y-30709844D02*
X181842044Y-35394655D01*
%TO.N,MUX_IN_8*%
X192862560Y-33559709D02*
X191849383Y-34572887D01*
X188865685Y-35500000D02*
X189611135Y-35500000D01*
X195626135Y-32415000D02*
X197245000Y-32415000D01*
X187500000Y-36865685D02*
X187500000Y-38980000D01*
%TD*%
%TA.AperFunction,Conductor*%
%TO.N,GND*%
G36*
X127816022Y-26187991D02*
G01*
X127884143Y-26207993D01*
X127930636Y-26261649D01*
X127940739Y-26331923D01*
X127911246Y-26396503D01*
X127873270Y-26426221D01*
X127871309Y-26427125D01*
X127869170Y-26428323D01*
X127869160Y-26428328D01*
X127556363Y-26603503D01*
X127548067Y-26608149D01*
X127546014Y-26609521D01*
X127546012Y-26609522D01*
X127288445Y-26781623D01*
X127240025Y-26813976D01*
X126949081Y-27043338D01*
X126701560Y-27272145D01*
X126691693Y-27280372D01*
X126689866Y-27281744D01*
X126685861Y-27284751D01*
X126676312Y-27294102D01*
X126657090Y-27318618D01*
X126647039Y-27329956D01*
X121806762Y-32170232D01*
X121794371Y-32181099D01*
X121772852Y-32197611D01*
X121768103Y-32203539D01*
X121759625Y-32214121D01*
X121745907Y-32228700D01*
X121525286Y-32428658D01*
X121515728Y-32436502D01*
X121253920Y-32630673D01*
X121243639Y-32637543D01*
X121156771Y-32689610D01*
X120975246Y-32798412D01*
X120964054Y-32805120D01*
X120953153Y-32810947D01*
X120901407Y-32835421D01*
X120658485Y-32950314D01*
X120647061Y-32955046D01*
X120340156Y-33064858D01*
X120328324Y-33068447D01*
X120118113Y-33121103D01*
X120012129Y-33147651D01*
X120000008Y-33150061D01*
X119677574Y-33197889D01*
X119665280Y-33199100D01*
X119638994Y-33200392D01*
X119569974Y-33183757D01*
X119520905Y-33132447D01*
X119507365Y-33062754D01*
X119533654Y-32996803D01*
X119540737Y-32988532D01*
X119604921Y-32919824D01*
X119604923Y-32919821D01*
X119608037Y-32916488D01*
X119762598Y-32693688D01*
X119792112Y-32634363D01*
X119881346Y-32454997D01*
X119881347Y-32454994D01*
X119883379Y-32450910D01*
X119967847Y-32193240D01*
X119974488Y-32154992D01*
X120013579Y-31929856D01*
X120013580Y-31929848D01*
X120014235Y-31926075D01*
X120017614Y-31858193D01*
X120018422Y-31841971D01*
X120018422Y-31841963D01*
X120018500Y-31840400D01*
X120018500Y-31151116D01*
X120017948Y-31143500D01*
X120004205Y-30954100D01*
X120003875Y-30949549D01*
X119999773Y-30930968D01*
X119946400Y-30689223D01*
X119946399Y-30689219D01*
X119945415Y-30684763D01*
X119849345Y-30431190D01*
X119738672Y-30231941D01*
X119719894Y-30198134D01*
X119719893Y-30198133D01*
X119717676Y-30194141D01*
X119585601Y-30021082D01*
X119555939Y-29982215D01*
X119555938Y-29982214D01*
X119553167Y-29978583D01*
X119359264Y-29789030D01*
X119344765Y-29778476D01*
X119143721Y-29632141D01*
X119140028Y-29629453D01*
X118900053Y-29503196D01*
X118895752Y-29501677D01*
X118895747Y-29501675D01*
X118762363Y-29454573D01*
X118644366Y-29412904D01*
X118523295Y-29389041D01*
X118382794Y-29361348D01*
X118382788Y-29361347D01*
X118378322Y-29360467D01*
X118373768Y-29360240D01*
X118373766Y-29360240D01*
X118112064Y-29347211D01*
X118112058Y-29347211D01*
X118107495Y-29346984D01*
X117837559Y-29372738D01*
X117833130Y-29373822D01*
X117833123Y-29373823D01*
X117703069Y-29405648D01*
X117574168Y-29437190D01*
X117569933Y-29438905D01*
X117569931Y-29438906D01*
X117327069Y-29537275D01*
X117322840Y-29538988D01*
X117088839Y-29676001D01*
X116995683Y-29750500D01*
X116913336Y-29816355D01*
X116877068Y-29845359D01*
X116873947Y-29848700D01*
X116709033Y-30025239D01*
X116691963Y-30043512D01*
X116602083Y-30173075D01*
X116600528Y-30175316D01*
X116545265Y-30219887D01*
X116474678Y-30227504D01*
X116411178Y-30195750D01*
X116396837Y-30179939D01*
X116388071Y-30168452D01*
X116243167Y-29978583D01*
X116049264Y-29789030D01*
X116034765Y-29778476D01*
X115833721Y-29632141D01*
X115830028Y-29629453D01*
X115590053Y-29503196D01*
X115585752Y-29501677D01*
X115585747Y-29501675D01*
X115452363Y-29454573D01*
X115334366Y-29412904D01*
X115213295Y-29389041D01*
X115072794Y-29361348D01*
X115072788Y-29361347D01*
X115068322Y-29360467D01*
X115063768Y-29360240D01*
X115063766Y-29360240D01*
X114802064Y-29347211D01*
X114802058Y-29347211D01*
X114797495Y-29346984D01*
X114527559Y-29372738D01*
X114523130Y-29373822D01*
X114523123Y-29373823D01*
X114393069Y-29405648D01*
X114264168Y-29437190D01*
X114259933Y-29438905D01*
X114259931Y-29438906D01*
X114017069Y-29537275D01*
X114012840Y-29538988D01*
X113778839Y-29676001D01*
X113685683Y-29750500D01*
X113603336Y-29816355D01*
X113567068Y-29845359D01*
X113563947Y-29848700D01*
X113399033Y-30025239D01*
X113381963Y-30043512D01*
X113227402Y-30266312D01*
X113225374Y-30270388D01*
X113225373Y-30270390D01*
X113143252Y-30435460D01*
X113106621Y-30509090D01*
X113022153Y-30766760D01*
X113021373Y-30771251D01*
X113021373Y-30771252D01*
X112992987Y-30934739D01*
X112975765Y-31033925D01*
X112971500Y-31119600D01*
X112971500Y-31808884D01*
X112971665Y-31811152D01*
X112971665Y-31811164D01*
X112980528Y-31933309D01*
X112986125Y-32010451D01*
X112987109Y-32014906D01*
X112987109Y-32014909D01*
X113043338Y-32269588D01*
X113044585Y-32275237D01*
X113140655Y-32528810D01*
X113201051Y-32637543D01*
X113261837Y-32746978D01*
X113272324Y-32765859D01*
X113277924Y-32773197D01*
X113430238Y-32972775D01*
X113436833Y-32981417D01*
X113440099Y-32984610D01*
X113440101Y-32984612D01*
X113524322Y-33066943D01*
X113630736Y-33170970D01*
X113634428Y-33173657D01*
X113634430Y-33173659D01*
X113739420Y-33250079D01*
X113849972Y-33330547D01*
X114089947Y-33456804D01*
X114094248Y-33458323D01*
X114094253Y-33458325D01*
X114173912Y-33486455D01*
X114345634Y-33547096D01*
X114350101Y-33547976D01*
X114350103Y-33547977D01*
X114385751Y-33555003D01*
X114522512Y-33581958D01*
X114585478Y-33614756D01*
X114620718Y-33676389D01*
X114617042Y-33747291D01*
X114575617Y-33804949D01*
X114559712Y-33815514D01*
X114398439Y-33905832D01*
X114398427Y-33905839D01*
X114396267Y-33907049D01*
X114394214Y-33908421D01*
X114394212Y-33908422D01*
X114114371Y-34095406D01*
X114088225Y-34112876D01*
X113797281Y-34342238D01*
X113549760Y-34571045D01*
X113539893Y-34579272D01*
X113534061Y-34583651D01*
X113524512Y-34593002D01*
X113505290Y-34617518D01*
X113495239Y-34628856D01*
X110538112Y-37585983D01*
X110475800Y-37620009D01*
X110411087Y-37615924D01*
X110410906Y-37616610D01*
X110407437Y-37615694D01*
X110406967Y-37615664D01*
X110405914Y-37615291D01*
X110405900Y-37615287D01*
X110401028Y-37613562D01*
X110395935Y-37612655D01*
X110395932Y-37612654D01*
X110178095Y-37573851D01*
X110178089Y-37573850D01*
X110173006Y-37572945D01*
X110100096Y-37572054D01*
X109946581Y-37570179D01*
X109946579Y-37570179D01*
X109941411Y-37570116D01*
X109712464Y-37605150D01*
X109492314Y-37677106D01*
X109487726Y-37679494D01*
X109487722Y-37679496D01*
X109311868Y-37771040D01*
X109286872Y-37784052D01*
X109282739Y-37787155D01*
X109282736Y-37787157D01*
X109101655Y-37923117D01*
X109100976Y-37922213D01*
X109041730Y-37950131D01*
X108971341Y-37940869D01*
X108917132Y-37895022D01*
X108904325Y-37869866D01*
X108893768Y-37841705D01*
X108893767Y-37841703D01*
X108890615Y-37833295D01*
X108803261Y-37716739D01*
X108686705Y-37629385D01*
X108550316Y-37578255D01*
X108488134Y-37571500D01*
X106591866Y-37571500D01*
X106529684Y-37578255D01*
X106393295Y-37629385D01*
X106276739Y-37716739D01*
X106189385Y-37833295D01*
X106138255Y-37969684D01*
X106131500Y-38031866D01*
X106131500Y-39928134D01*
X106138255Y-39990316D01*
X106189385Y-40126705D01*
X106276739Y-40243261D01*
X106283919Y-40248642D01*
X106283920Y-40248643D01*
X106378029Y-40319174D01*
X106420544Y-40376033D01*
X106425570Y-40446852D01*
X106391510Y-40509145D01*
X106329179Y-40543135D01*
X106302464Y-40546000D01*
X100944799Y-40546000D01*
X100928353Y-40544922D01*
X100908995Y-40542373D01*
X100908991Y-40542373D01*
X100901464Y-40541382D01*
X100893917Y-40542215D01*
X100893910Y-40542215D01*
X100880442Y-40543702D01*
X100860437Y-40544311D01*
X100704004Y-40536626D01*
X100595020Y-40531272D01*
X100582724Y-40530062D01*
X100291965Y-40486931D01*
X100279847Y-40484521D01*
X100276481Y-40483677D01*
X100215266Y-40447717D01*
X100183211Y-40384369D01*
X100190492Y-40313747D01*
X100234799Y-40258272D01*
X100251678Y-40248305D01*
X100358788Y-40195833D01*
X100367636Y-40190559D01*
X100425097Y-40149572D01*
X100433497Y-40138874D01*
X100426509Y-40125720D01*
X99281922Y-38981132D01*
X100004408Y-38981132D01*
X100004539Y-38982966D01*
X100008790Y-38989580D01*
X100786307Y-39767096D01*
X100798313Y-39773652D01*
X100810052Y-39764684D01*
X100848010Y-39711859D01*
X100853321Y-39703020D01*
X100951318Y-39504737D01*
X100955117Y-39495142D01*
X101019415Y-39283517D01*
X101021594Y-39273436D01*
X101050702Y-39052338D01*
X101051221Y-39045663D01*
X101052744Y-38983364D01*
X101052550Y-38976646D01*
X101034279Y-38754400D01*
X101032596Y-38744238D01*
X100978710Y-38529708D01*
X100975389Y-38519953D01*
X100887193Y-38317118D01*
X100882315Y-38308020D01*
X100809224Y-38195038D01*
X100798538Y-38185835D01*
X100788973Y-38190238D01*
X100012021Y-38967189D01*
X100004408Y-38981132D01*
X99281922Y-38981132D01*
X99280790Y-38980000D01*
X98493864Y-38193075D01*
X98482330Y-38186777D01*
X98472876Y-38194184D01*
X98406917Y-38220450D01*
X98337228Y-38206887D01*
X98289377Y-38163440D01*
X98262571Y-38122004D01*
X98259764Y-38117665D01*
X98254820Y-38112231D01*
X98170973Y-38020085D01*
X98103887Y-37946358D01*
X98099836Y-37943159D01*
X98099832Y-37943155D01*
X97944790Y-37820711D01*
X98845508Y-37820711D01*
X98852251Y-37833040D01*
X99627189Y-38607979D01*
X99641132Y-38615592D01*
X99642966Y-38615461D01*
X99649580Y-38611210D01*
X100428994Y-37831795D01*
X100436011Y-37818944D01*
X100428237Y-37808274D01*
X100425902Y-37806430D01*
X100417320Y-37800729D01*
X100223678Y-37693833D01*
X100214272Y-37689606D01*
X100005772Y-37615772D01*
X99995809Y-37613140D01*
X99778047Y-37574350D01*
X99767796Y-37573381D01*
X99546616Y-37570679D01*
X99536332Y-37571399D01*
X99317693Y-37604855D01*
X99307666Y-37607244D01*
X99097426Y-37675961D01*
X99087916Y-37679958D01*
X98891725Y-37782089D01*
X98883007Y-37787578D01*
X98853961Y-37809386D01*
X98845508Y-37820711D01*
X97944790Y-37820711D01*
X97926177Y-37806011D01*
X97926172Y-37806008D01*
X97922123Y-37802810D01*
X97917607Y-37800317D01*
X97917604Y-37800315D01*
X97723879Y-37693373D01*
X97723875Y-37693371D01*
X97719355Y-37690876D01*
X97714486Y-37689152D01*
X97714482Y-37689150D01*
X97505903Y-37615288D01*
X97505899Y-37615287D01*
X97501028Y-37613562D01*
X97495935Y-37612655D01*
X97495932Y-37612654D01*
X97278095Y-37573851D01*
X97278089Y-37573850D01*
X97273006Y-37572945D01*
X97200096Y-37572054D01*
X97046581Y-37570179D01*
X97046579Y-37570179D01*
X97041411Y-37570116D01*
X96812464Y-37605150D01*
X96592314Y-37677106D01*
X96587726Y-37679494D01*
X96587722Y-37679496D01*
X96411868Y-37771040D01*
X96386872Y-37784052D01*
X96382739Y-37787155D01*
X96382736Y-37787157D01*
X96201655Y-37923117D01*
X96200976Y-37922213D01*
X96141730Y-37950131D01*
X96071341Y-37940869D01*
X96017132Y-37895022D01*
X96004325Y-37869866D01*
X95993768Y-37841705D01*
X95993767Y-37841703D01*
X95990615Y-37833295D01*
X95903261Y-37716739D01*
X95786705Y-37629385D01*
X95650316Y-37578255D01*
X95588134Y-37571500D01*
X93691866Y-37571500D01*
X93629684Y-37578255D01*
X93493295Y-37629385D01*
X93376739Y-37716739D01*
X93289385Y-37833295D01*
X93238255Y-37969684D01*
X93231500Y-38031866D01*
X93231500Y-38985020D01*
X93211498Y-39053141D01*
X93157842Y-39099634D01*
X93087568Y-39109738D01*
X93022988Y-39080244D01*
X92986864Y-39027464D01*
X92980437Y-39009500D01*
X92976849Y-38997672D01*
X92896589Y-38677259D01*
X92894177Y-38665131D01*
X92878040Y-38556343D01*
X92845710Y-38338395D01*
X92844499Y-38326095D01*
X92843813Y-38312131D01*
X92830097Y-38032934D01*
X92831446Y-38007370D01*
X92833174Y-37996270D01*
X92830715Y-37977461D01*
X92829052Y-37964749D01*
X92827988Y-37948411D01*
X92827988Y-33642548D01*
X92847990Y-33574427D01*
X92901646Y-33527934D01*
X92913155Y-33523465D01*
X92915832Y-33522810D01*
X92920058Y-33521098D01*
X92920062Y-33521097D01*
X93162931Y-33422725D01*
X93162932Y-33422725D01*
X93167160Y-33421012D01*
X93401161Y-33283999D01*
X93569943Y-33149020D01*
X93609366Y-33117493D01*
X93609368Y-33117492D01*
X93612932Y-33114641D01*
X93659105Y-33065213D01*
X93794921Y-32919824D01*
X93794923Y-32919821D01*
X93798037Y-32916488D01*
X93952598Y-32693688D01*
X93982112Y-32634363D01*
X94071346Y-32454997D01*
X94071347Y-32454994D01*
X94073379Y-32450910D01*
X94157847Y-32193240D01*
X94164488Y-32154992D01*
X94203579Y-31929856D01*
X94203580Y-31929848D01*
X94204235Y-31926075D01*
X94207614Y-31858193D01*
X94208422Y-31841971D01*
X94208422Y-31841963D01*
X94208500Y-31840400D01*
X94208500Y-31808884D01*
X100071500Y-31808884D01*
X100071665Y-31811152D01*
X100071665Y-31811164D01*
X100080528Y-31933309D01*
X100086125Y-32010451D01*
X100087109Y-32014906D01*
X100087109Y-32014909D01*
X100143338Y-32269588D01*
X100144585Y-32275237D01*
X100240655Y-32528810D01*
X100301051Y-32637543D01*
X100361837Y-32746978D01*
X100372324Y-32765859D01*
X100377924Y-32773197D01*
X100530238Y-32972775D01*
X100536833Y-32981417D01*
X100540099Y-32984610D01*
X100540101Y-32984612D01*
X100624322Y-33066943D01*
X100730736Y-33170970D01*
X100734428Y-33173657D01*
X100734430Y-33173659D01*
X100839420Y-33250079D01*
X100949972Y-33330547D01*
X101189947Y-33456804D01*
X101194248Y-33458323D01*
X101194253Y-33458325D01*
X101273912Y-33486455D01*
X101445634Y-33547096D01*
X101543653Y-33566415D01*
X101707206Y-33598652D01*
X101707212Y-33598653D01*
X101711678Y-33599533D01*
X101716232Y-33599760D01*
X101716234Y-33599760D01*
X101977936Y-33612789D01*
X101977942Y-33612789D01*
X101982505Y-33613016D01*
X102252441Y-33587262D01*
X102256870Y-33586178D01*
X102256877Y-33586177D01*
X102416584Y-33547096D01*
X102515832Y-33522810D01*
X102535216Y-33514959D01*
X102762931Y-33422725D01*
X102762932Y-33422725D01*
X102767160Y-33421012D01*
X103001161Y-33283999D01*
X103169943Y-33149020D01*
X103209366Y-33117493D01*
X103209368Y-33117492D01*
X103212932Y-33114641D01*
X103259105Y-33065213D01*
X103394921Y-32919824D01*
X103394923Y-32919821D01*
X103398037Y-32916488D01*
X103484711Y-32791547D01*
X103539973Y-32746978D01*
X103610560Y-32739360D01*
X103674060Y-32771114D01*
X103688401Y-32786925D01*
X103830238Y-32972775D01*
X103836833Y-32981417D01*
X103840099Y-32984610D01*
X103840101Y-32984612D01*
X103924322Y-33066943D01*
X104030736Y-33170970D01*
X104034428Y-33173657D01*
X104034430Y-33173659D01*
X104139420Y-33250079D01*
X104249972Y-33330547D01*
X104489947Y-33456804D01*
X104494248Y-33458323D01*
X104494253Y-33458325D01*
X104573912Y-33486455D01*
X104745634Y-33547096D01*
X104843653Y-33566415D01*
X105007206Y-33598652D01*
X105007212Y-33598653D01*
X105011678Y-33599533D01*
X105016232Y-33599760D01*
X105016234Y-33599760D01*
X105277936Y-33612789D01*
X105277942Y-33612789D01*
X105282505Y-33613016D01*
X105552441Y-33587262D01*
X105556870Y-33586178D01*
X105556877Y-33586177D01*
X105716584Y-33547096D01*
X105815832Y-33522810D01*
X105835216Y-33514959D01*
X106062931Y-33422725D01*
X106062932Y-33422725D01*
X106067160Y-33421012D01*
X106301161Y-33283999D01*
X106469943Y-33149020D01*
X106509366Y-33117493D01*
X106509368Y-33117492D01*
X106512932Y-33114641D01*
X106559105Y-33065213D01*
X106694921Y-32919824D01*
X106694923Y-32919821D01*
X106698037Y-32916488D01*
X106852598Y-32693688D01*
X106882112Y-32634363D01*
X106971346Y-32454997D01*
X106971347Y-32454994D01*
X106973379Y-32450910D01*
X107057847Y-32193240D01*
X107064488Y-32154992D01*
X107103579Y-31929856D01*
X107103580Y-31929848D01*
X107104235Y-31926075D01*
X107107614Y-31858193D01*
X107108422Y-31841971D01*
X107108422Y-31841963D01*
X107108500Y-31840400D01*
X107108500Y-31151116D01*
X107107948Y-31143500D01*
X107094205Y-30954100D01*
X107093875Y-30949549D01*
X107089773Y-30930968D01*
X107036400Y-30689223D01*
X107036399Y-30689219D01*
X107035415Y-30684763D01*
X106939345Y-30431190D01*
X106828672Y-30231941D01*
X106809894Y-30198134D01*
X106809893Y-30198133D01*
X106807676Y-30194141D01*
X106675601Y-30021082D01*
X106645939Y-29982215D01*
X106645938Y-29982214D01*
X106643167Y-29978583D01*
X106449264Y-29789030D01*
X106434765Y-29778476D01*
X106233721Y-29632141D01*
X106230028Y-29629453D01*
X105990053Y-29503196D01*
X105985752Y-29501677D01*
X105985747Y-29501675D01*
X105852363Y-29454573D01*
X105734366Y-29412904D01*
X105613295Y-29389041D01*
X105472794Y-29361348D01*
X105472788Y-29361347D01*
X105468322Y-29360467D01*
X105463768Y-29360240D01*
X105463766Y-29360240D01*
X105202064Y-29347211D01*
X105202058Y-29347211D01*
X105197495Y-29346984D01*
X104927559Y-29372738D01*
X104923130Y-29373822D01*
X104923123Y-29373823D01*
X104793069Y-29405648D01*
X104664168Y-29437190D01*
X104659933Y-29438905D01*
X104659931Y-29438906D01*
X104417069Y-29537275D01*
X104412840Y-29538988D01*
X104178839Y-29676001D01*
X104085683Y-29750500D01*
X104003336Y-29816355D01*
X103967068Y-29845359D01*
X103963947Y-29848700D01*
X103799033Y-30025239D01*
X103781963Y-30043512D01*
X103696845Y-30166211D01*
X103695290Y-30168452D01*
X103640027Y-30213022D01*
X103569440Y-30220640D01*
X103505940Y-30188886D01*
X103491599Y-30173075D01*
X103345939Y-29982215D01*
X103345938Y-29982214D01*
X103343167Y-29978583D01*
X103149264Y-29789030D01*
X103134765Y-29778476D01*
X102933721Y-29632141D01*
X102930028Y-29629453D01*
X102690053Y-29503196D01*
X102685752Y-29501677D01*
X102685747Y-29501675D01*
X102552363Y-29454573D01*
X102434366Y-29412904D01*
X102313295Y-29389041D01*
X102172794Y-29361348D01*
X102172788Y-29361347D01*
X102168322Y-29360467D01*
X102163768Y-29360240D01*
X102163766Y-29360240D01*
X101902064Y-29347211D01*
X101902058Y-29347211D01*
X101897495Y-29346984D01*
X101627559Y-29372738D01*
X101623130Y-29373822D01*
X101623123Y-29373823D01*
X101493069Y-29405648D01*
X101364168Y-29437190D01*
X101359933Y-29438905D01*
X101359931Y-29438906D01*
X101117069Y-29537275D01*
X101112840Y-29538988D01*
X100878839Y-29676001D01*
X100785683Y-29750500D01*
X100703336Y-29816355D01*
X100667068Y-29845359D01*
X100663947Y-29848700D01*
X100499033Y-30025239D01*
X100481963Y-30043512D01*
X100327402Y-30266312D01*
X100325374Y-30270388D01*
X100325373Y-30270390D01*
X100243252Y-30435460D01*
X100206621Y-30509090D01*
X100122153Y-30766760D01*
X100121373Y-30771251D01*
X100121373Y-30771252D01*
X100092987Y-30934739D01*
X100075765Y-31033925D01*
X100071500Y-31119600D01*
X100071500Y-31808884D01*
X94208500Y-31808884D01*
X94208500Y-31151116D01*
X94207948Y-31143500D01*
X94194205Y-30954100D01*
X94193875Y-30949549D01*
X94189773Y-30930968D01*
X94136400Y-30689223D01*
X94136399Y-30689219D01*
X94135415Y-30684763D01*
X94039345Y-30431190D01*
X93928672Y-30231941D01*
X93909894Y-30198134D01*
X93909893Y-30198133D01*
X93907676Y-30194141D01*
X93775601Y-30021082D01*
X93745939Y-29982215D01*
X93745938Y-29982214D01*
X93743167Y-29978583D01*
X93549264Y-29789030D01*
X93534765Y-29778476D01*
X93333721Y-29632141D01*
X93330028Y-29629453D01*
X93090053Y-29503196D01*
X93085752Y-29501677D01*
X93085747Y-29501675D01*
X92931604Y-29447242D01*
X92874031Y-29405698D01*
X92848058Y-29339623D01*
X92848924Y-29309944D01*
X92881592Y-29089709D01*
X92894178Y-29004866D01*
X92896589Y-28992741D01*
X92910782Y-28936082D01*
X92927936Y-28867596D01*
X92976849Y-28672328D01*
X92980438Y-28660496D01*
X93091716Y-28349493D01*
X93096448Y-28338069D01*
X93237674Y-28039471D01*
X93243503Y-28028566D01*
X93252146Y-28014147D01*
X93353016Y-27845855D01*
X93413318Y-27745248D01*
X93420188Y-27734967D01*
X93616951Y-27469663D01*
X93624795Y-27460105D01*
X93846617Y-27215361D01*
X93855361Y-27206617D01*
X94100105Y-26984795D01*
X94109663Y-26976951D01*
X94374967Y-26780188D01*
X94385248Y-26773318D01*
X94668566Y-26603503D01*
X94679471Y-26597674D01*
X94681474Y-26596727D01*
X94859658Y-26512452D01*
X94978069Y-26456448D01*
X94989493Y-26451716D01*
X95300496Y-26340438D01*
X95312328Y-26336849D01*
X95612541Y-26261649D01*
X95632744Y-26256588D01*
X95644866Y-26254178D01*
X95971605Y-26205710D01*
X95983899Y-26204500D01*
X96277066Y-26190097D01*
X96302630Y-26191446D01*
X96313730Y-26193174D01*
X96322632Y-26192010D01*
X96322635Y-26192010D01*
X96345251Y-26189052D01*
X96361589Y-26187988D01*
X96772543Y-26187988D01*
X127816022Y-26187991D01*
G37*
%TD.AperFunction*%
%TA.AperFunction,Conductor*%
G36*
X162937997Y-28173502D02*
G01*
X162984490Y-28227158D01*
X162994594Y-28297432D01*
X162965100Y-28362012D01*
X162922627Y-28393926D01*
X162731309Y-28482125D01*
X162729170Y-28483323D01*
X162729160Y-28483328D01*
X162509221Y-28606500D01*
X162408067Y-28663149D01*
X162406014Y-28664521D01*
X162406012Y-28664522D01*
X162394330Y-28672328D01*
X162100025Y-28868976D01*
X161809081Y-29098338D01*
X161561560Y-29327145D01*
X161551693Y-29335372D01*
X161545861Y-29339751D01*
X161536312Y-29349102D01*
X161517779Y-29372738D01*
X161517101Y-29373603D01*
X161507042Y-29384952D01*
X158963595Y-31928399D01*
X158901283Y-31962425D01*
X158830468Y-31957360D01*
X158773632Y-31914813D01*
X158748821Y-31848293D01*
X158748500Y-31839304D01*
X158748500Y-31151116D01*
X158747948Y-31143500D01*
X158734205Y-30954100D01*
X158733875Y-30949549D01*
X158729773Y-30930968D01*
X158676400Y-30689223D01*
X158676399Y-30689219D01*
X158675415Y-30684763D01*
X158579345Y-30431190D01*
X158468672Y-30231941D01*
X158449894Y-30198134D01*
X158449893Y-30198133D01*
X158447676Y-30194141D01*
X158315601Y-30021082D01*
X158285939Y-29982215D01*
X158285938Y-29982214D01*
X158283167Y-29978583D01*
X158089264Y-29789030D01*
X158074765Y-29778476D01*
X157873721Y-29632141D01*
X157870028Y-29629453D01*
X157630053Y-29503196D01*
X157625752Y-29501677D01*
X157625747Y-29501675D01*
X157492363Y-29454573D01*
X157374366Y-29412904D01*
X157253295Y-29389041D01*
X157112794Y-29361348D01*
X157112788Y-29361347D01*
X157108322Y-29360467D01*
X157103768Y-29360240D01*
X157103766Y-29360240D01*
X156842064Y-29347211D01*
X156842058Y-29347211D01*
X156837495Y-29346984D01*
X156567559Y-29372738D01*
X156563130Y-29373822D01*
X156563123Y-29373823D01*
X156433069Y-29405648D01*
X156304168Y-29437190D01*
X156299933Y-29438905D01*
X156299931Y-29438906D01*
X156057069Y-29537275D01*
X156052840Y-29538988D01*
X155818839Y-29676001D01*
X155725683Y-29750500D01*
X155643336Y-29816355D01*
X155607068Y-29845359D01*
X155603947Y-29848700D01*
X155439033Y-30025239D01*
X155421963Y-30043512D01*
X155419363Y-30047260D01*
X155340051Y-30161588D01*
X155284787Y-30206159D01*
X155214201Y-30213776D01*
X155150701Y-30182022D01*
X155136360Y-30166211D01*
X155135825Y-30165509D01*
X154993167Y-29978583D01*
X154799264Y-29789030D01*
X154784765Y-29778476D01*
X154583721Y-29632141D01*
X154580028Y-29629453D01*
X154340053Y-29503196D01*
X154335752Y-29501677D01*
X154335747Y-29501675D01*
X154202363Y-29454573D01*
X154084366Y-29412904D01*
X153963295Y-29389041D01*
X153822794Y-29361348D01*
X153822788Y-29361347D01*
X153818322Y-29360467D01*
X153813768Y-29360240D01*
X153813766Y-29360240D01*
X153552064Y-29347211D01*
X153552058Y-29347211D01*
X153547495Y-29346984D01*
X153277559Y-29372738D01*
X153273130Y-29373822D01*
X153273123Y-29373823D01*
X153143069Y-29405648D01*
X153014168Y-29437190D01*
X153009933Y-29438905D01*
X153009931Y-29438906D01*
X152767069Y-29537275D01*
X152762840Y-29538988D01*
X152528839Y-29676001D01*
X152435683Y-29750500D01*
X152353336Y-29816355D01*
X152317068Y-29845359D01*
X152313947Y-29848700D01*
X152149033Y-30025239D01*
X152131963Y-30043512D01*
X151977402Y-30266312D01*
X151975374Y-30270388D01*
X151975373Y-30270390D01*
X151893252Y-30435460D01*
X151856621Y-30509090D01*
X151772153Y-30766760D01*
X151771373Y-30771251D01*
X151771373Y-30771252D01*
X151742987Y-30934739D01*
X151725765Y-31033925D01*
X151721500Y-31119600D01*
X151721500Y-31808884D01*
X151721665Y-31811152D01*
X151721665Y-31811164D01*
X151730528Y-31933309D01*
X151736125Y-32010451D01*
X151737109Y-32014906D01*
X151737109Y-32014909D01*
X151793338Y-32269588D01*
X151794585Y-32275237D01*
X151890655Y-32528810D01*
X151951051Y-32637543D01*
X152011837Y-32746978D01*
X152022324Y-32765859D01*
X152027924Y-32773197D01*
X152180238Y-32972775D01*
X152186833Y-32981417D01*
X152190099Y-32984610D01*
X152190101Y-32984612D01*
X152274322Y-33066943D01*
X152380736Y-33170970D01*
X152384428Y-33173657D01*
X152384430Y-33173659D01*
X152489420Y-33250079D01*
X152599972Y-33330547D01*
X152839947Y-33456804D01*
X152844248Y-33458323D01*
X152844253Y-33458325D01*
X152923912Y-33486455D01*
X153095634Y-33547096D01*
X153193653Y-33566415D01*
X153357206Y-33598652D01*
X153357212Y-33598653D01*
X153361678Y-33599533D01*
X153366232Y-33599760D01*
X153366234Y-33599760D01*
X153627936Y-33612789D01*
X153627942Y-33612789D01*
X153632505Y-33613016D01*
X153902441Y-33587262D01*
X153906870Y-33586178D01*
X153906877Y-33586177D01*
X154066584Y-33547096D01*
X154165832Y-33522810D01*
X154185216Y-33514959D01*
X154412931Y-33422725D01*
X154412932Y-33422725D01*
X154417160Y-33421012D01*
X154651161Y-33283999D01*
X154819943Y-33149020D01*
X154859366Y-33117493D01*
X154859368Y-33117492D01*
X154862932Y-33114641D01*
X154909105Y-33065213D01*
X155044921Y-32919824D01*
X155044923Y-32919821D01*
X155048037Y-32916488D01*
X155109006Y-32828601D01*
X155129949Y-32798412D01*
X155185213Y-32753841D01*
X155255799Y-32746224D01*
X155319299Y-32777978D01*
X155333637Y-32793786D01*
X155365412Y-32835421D01*
X155470238Y-32972775D01*
X155476833Y-32981417D01*
X155480099Y-32984610D01*
X155480101Y-32984612D01*
X155564322Y-33066943D01*
X155670736Y-33170970D01*
X155674428Y-33173657D01*
X155674430Y-33173659D01*
X155779420Y-33250079D01*
X155889972Y-33330547D01*
X156129947Y-33456804D01*
X156134248Y-33458323D01*
X156134253Y-33458325D01*
X156213912Y-33486455D01*
X156385634Y-33547096D01*
X156530683Y-33575685D01*
X156648730Y-33598952D01*
X156711697Y-33631750D01*
X156746936Y-33693384D01*
X156743260Y-33764285D01*
X156701835Y-33821943D01*
X156666812Y-33841209D01*
X156374056Y-33945958D01*
X156362224Y-33949547D01*
X156169874Y-33997729D01*
X156046029Y-34028751D01*
X156033908Y-34031161D01*
X155711474Y-34078989D01*
X155699178Y-34080201D01*
X155521409Y-34088934D01*
X155409187Y-34094447D01*
X155386561Y-34093521D01*
X155381642Y-34092873D01*
X155381636Y-34092873D01*
X155374109Y-34091882D01*
X155339173Y-34095739D01*
X155325346Y-34096500D01*
X154784468Y-34096500D01*
X154766714Y-34095243D01*
X154761121Y-34094447D01*
X154743837Y-34091987D01*
X154736858Y-34091914D01*
X154734593Y-34091890D01*
X154734591Y-34091890D01*
X154730473Y-34091847D01*
X154723136Y-34092735D01*
X154712960Y-34093550D01*
X154360279Y-34107407D01*
X154357836Y-34107696D01*
X154357825Y-34107697D01*
X154150034Y-34132291D01*
X153992368Y-34150952D01*
X153629007Y-34223228D01*
X153626632Y-34223898D01*
X153626627Y-34223899D01*
X153574835Y-34238506D01*
X153272437Y-34323791D01*
X152924857Y-34452020D01*
X152922622Y-34453050D01*
X152922618Y-34453052D01*
X152820978Y-34499909D01*
X152588409Y-34607125D01*
X152586270Y-34608323D01*
X152586260Y-34608328D01*
X152267320Y-34786943D01*
X152265167Y-34788149D01*
X152263114Y-34789521D01*
X152263112Y-34789522D01*
X151982430Y-34977068D01*
X151957125Y-34993976D01*
X151666181Y-35223338D01*
X151418660Y-35452145D01*
X151408793Y-35460372D01*
X151402961Y-35464751D01*
X151393412Y-35474102D01*
X151390863Y-35477353D01*
X151374201Y-35498603D01*
X151364142Y-35509952D01*
X150301119Y-36572976D01*
X149288112Y-37585983D01*
X149225800Y-37620008D01*
X149161087Y-37615924D01*
X149160906Y-37616610D01*
X149157437Y-37615694D01*
X149156967Y-37615664D01*
X149155914Y-37615291D01*
X149155900Y-37615287D01*
X149151028Y-37613562D01*
X149145935Y-37612655D01*
X149145932Y-37612654D01*
X148928095Y-37573851D01*
X148928089Y-37573850D01*
X148923006Y-37572945D01*
X148850096Y-37572054D01*
X148696581Y-37570179D01*
X148696579Y-37570179D01*
X148691411Y-37570116D01*
X148462464Y-37605150D01*
X148242314Y-37677106D01*
X148237726Y-37679494D01*
X148237722Y-37679496D01*
X148061868Y-37771040D01*
X148036872Y-37784052D01*
X148032739Y-37787155D01*
X148032736Y-37787157D01*
X147851655Y-37923117D01*
X147850976Y-37922213D01*
X147791730Y-37950131D01*
X147721341Y-37940869D01*
X147667132Y-37895022D01*
X147654325Y-37869866D01*
X147643768Y-37841705D01*
X147643767Y-37841703D01*
X147640615Y-37833295D01*
X147553261Y-37716739D01*
X147436705Y-37629385D01*
X147300316Y-37578255D01*
X147238134Y-37571500D01*
X145341866Y-37571500D01*
X145279684Y-37578255D01*
X145143295Y-37629385D01*
X145026739Y-37716739D01*
X144939385Y-37833295D01*
X144888255Y-37969684D01*
X144881500Y-38031866D01*
X144881500Y-39928134D01*
X144881869Y-39931531D01*
X144882053Y-39934928D01*
X144880342Y-39935021D01*
X144868994Y-39998287D01*
X144820668Y-40050297D01*
X144756265Y-40068000D01*
X139557794Y-40068000D01*
X139489673Y-40047998D01*
X139443180Y-39994342D01*
X139433076Y-39924068D01*
X139455471Y-39868474D01*
X139568010Y-39711859D01*
X139573321Y-39703020D01*
X139671318Y-39504737D01*
X139675117Y-39495142D01*
X139739415Y-39283517D01*
X139741594Y-39273436D01*
X139770702Y-39052338D01*
X139771221Y-39045663D01*
X139772744Y-38983364D01*
X139772550Y-38976646D01*
X139754279Y-38754400D01*
X139752596Y-38744238D01*
X139698710Y-38529708D01*
X139695389Y-38519953D01*
X139607193Y-38317118D01*
X139602315Y-38308020D01*
X139529224Y-38195038D01*
X139518538Y-38185835D01*
X139508973Y-38190238D01*
X138719210Y-38980000D01*
X138449095Y-39250116D01*
X138386783Y-39284141D01*
X138315967Y-39279076D01*
X138270905Y-39250115D01*
X138000790Y-38980000D01*
X137213866Y-38193077D01*
X137202330Y-38186777D01*
X137192876Y-38194184D01*
X137126917Y-38220450D01*
X137057228Y-38206887D01*
X137009377Y-38163440D01*
X136982571Y-38122004D01*
X136979764Y-38117665D01*
X136974820Y-38112231D01*
X136890973Y-38020085D01*
X136823887Y-37946358D01*
X136819836Y-37943159D01*
X136819832Y-37943155D01*
X136664790Y-37820711D01*
X137565508Y-37820711D01*
X137572251Y-37833040D01*
X138347189Y-38607979D01*
X138361132Y-38615592D01*
X138362966Y-38615461D01*
X138369580Y-38611210D01*
X139148994Y-37831795D01*
X139156011Y-37818944D01*
X139148237Y-37808274D01*
X139145902Y-37806430D01*
X139137320Y-37800729D01*
X138943678Y-37693833D01*
X138934272Y-37689606D01*
X138725772Y-37615772D01*
X138715809Y-37613140D01*
X138498047Y-37574350D01*
X138487796Y-37573381D01*
X138266616Y-37570679D01*
X138256332Y-37571399D01*
X138037693Y-37604855D01*
X138027666Y-37607244D01*
X137817426Y-37675961D01*
X137807916Y-37679958D01*
X137611725Y-37782089D01*
X137603007Y-37787578D01*
X137573961Y-37809386D01*
X137565508Y-37820711D01*
X136664790Y-37820711D01*
X136646177Y-37806011D01*
X136646172Y-37806008D01*
X136642123Y-37802810D01*
X136637607Y-37800317D01*
X136637604Y-37800315D01*
X136443879Y-37693373D01*
X136443875Y-37693371D01*
X136439355Y-37690876D01*
X136434486Y-37689152D01*
X136434482Y-37689150D01*
X136225903Y-37615288D01*
X136225899Y-37615287D01*
X136221028Y-37613562D01*
X136215935Y-37612655D01*
X136215932Y-37612654D01*
X135998095Y-37573851D01*
X135998089Y-37573850D01*
X135993006Y-37572945D01*
X135920096Y-37572054D01*
X135766581Y-37570179D01*
X135766579Y-37570179D01*
X135761411Y-37570116D01*
X135532464Y-37605150D01*
X135312314Y-37677106D01*
X135307726Y-37679494D01*
X135307722Y-37679496D01*
X135131868Y-37771040D01*
X135106872Y-37784052D01*
X135102739Y-37787155D01*
X135102736Y-37787157D01*
X134921655Y-37923117D01*
X134920976Y-37922213D01*
X134861730Y-37950131D01*
X134791341Y-37940869D01*
X134737132Y-37895022D01*
X134724325Y-37869866D01*
X134713768Y-37841705D01*
X134713767Y-37841703D01*
X134710615Y-37833295D01*
X134623261Y-37716739D01*
X134506705Y-37629385D01*
X134370316Y-37578255D01*
X134308134Y-37571500D01*
X132411866Y-37571500D01*
X132349684Y-37578255D01*
X132213295Y-37629385D01*
X132096739Y-37716739D01*
X132009385Y-37833295D01*
X131958255Y-37969684D01*
X131951500Y-38031866D01*
X131951500Y-39928134D01*
X131958255Y-39990316D01*
X132009385Y-40126705D01*
X132096739Y-40243261D01*
X132103919Y-40248642D01*
X132103920Y-40248643D01*
X132198029Y-40319174D01*
X132240544Y-40376033D01*
X132245570Y-40446852D01*
X132211510Y-40509145D01*
X132149179Y-40543135D01*
X132122464Y-40546000D01*
X125988735Y-40546000D01*
X125920614Y-40525998D01*
X125874121Y-40472342D01*
X125864017Y-40402068D01*
X125893511Y-40337488D01*
X125952527Y-40299315D01*
X125960549Y-40296908D01*
X125970152Y-40293144D01*
X126168778Y-40195838D01*
X126177636Y-40190559D01*
X126235097Y-40149572D01*
X126243497Y-40138874D01*
X126236510Y-40125721D01*
X125462811Y-39352021D01*
X125448868Y-39344408D01*
X125447034Y-39344539D01*
X125440420Y-39348790D01*
X124660180Y-40129031D01*
X124653423Y-40141406D01*
X124658704Y-40148461D01*
X124835080Y-40251527D01*
X124844363Y-40255974D01*
X124965650Y-40302290D01*
X125022153Y-40345278D01*
X125046446Y-40411989D01*
X125030816Y-40481244D01*
X124980224Y-40531054D01*
X124920701Y-40546000D01*
X123490471Y-40546000D01*
X123422350Y-40525998D01*
X123375857Y-40472342D01*
X123365753Y-40402068D01*
X123395247Y-40337488D01*
X123454262Y-40299314D01*
X123465690Y-40295886D01*
X123490381Y-40283790D01*
X123669049Y-40196262D01*
X123669052Y-40196260D01*
X123673684Y-40193991D01*
X123862243Y-40059494D01*
X124026303Y-39896005D01*
X124035898Y-39882653D01*
X124100714Y-39792451D01*
X124156709Y-39748803D01*
X124227412Y-39742357D01*
X124287572Y-39772543D01*
X124290555Y-39775242D01*
X124299330Y-39771459D01*
X125089658Y-38981132D01*
X125814408Y-38981132D01*
X125814539Y-38982966D01*
X125818790Y-38989580D01*
X126596307Y-39767096D01*
X126608313Y-39773652D01*
X126620052Y-39764684D01*
X126658010Y-39711859D01*
X126663321Y-39703020D01*
X126761318Y-39504737D01*
X126765117Y-39495142D01*
X126829415Y-39283517D01*
X126831594Y-39273436D01*
X126860702Y-39052338D01*
X126861221Y-39045663D01*
X126862744Y-38983364D01*
X126862550Y-38976646D01*
X126844279Y-38754400D01*
X126842596Y-38744238D01*
X126788710Y-38529708D01*
X126785389Y-38519953D01*
X126697193Y-38317118D01*
X126692315Y-38308020D01*
X126619224Y-38195038D01*
X126608538Y-38185835D01*
X126598973Y-38190238D01*
X125822021Y-38967189D01*
X125814408Y-38981132D01*
X125089658Y-38981132D01*
X125450000Y-38620790D01*
X126238992Y-37831797D01*
X126246010Y-37818944D01*
X126238236Y-37808273D01*
X126235902Y-37806430D01*
X126227320Y-37800729D01*
X126033678Y-37693833D01*
X126024276Y-37689607D01*
X125943751Y-37661092D01*
X125886215Y-37619498D01*
X125860299Y-37553400D01*
X125874233Y-37483784D01*
X125923592Y-37432753D01*
X125943365Y-37423684D01*
X125972209Y-37413364D01*
X125984039Y-37409775D01*
X126047296Y-37393930D01*
X126293221Y-37332329D01*
X126305327Y-37329922D01*
X126620611Y-37283153D01*
X126632907Y-37281943D01*
X126864690Y-37270556D01*
X126915663Y-37268052D01*
X126938290Y-37268978D01*
X126943216Y-37269627D01*
X126943222Y-37269627D01*
X126950749Y-37270618D01*
X126985685Y-37266761D01*
X126999512Y-37266000D01*
X128514633Y-37266000D01*
X128532387Y-37267257D01*
X128555264Y-37270513D01*
X128561761Y-37270581D01*
X128564501Y-37270610D01*
X128564505Y-37270610D01*
X128568628Y-37270653D01*
X128574738Y-37269914D01*
X128575977Y-37269764D01*
X128586161Y-37268949D01*
X128938821Y-37255092D01*
X128941266Y-37254803D01*
X128941274Y-37254802D01*
X129167606Y-37228013D01*
X129306732Y-37211546D01*
X129464223Y-37180219D01*
X129667661Y-37139753D01*
X129667672Y-37139750D01*
X129670092Y-37139269D01*
X129672468Y-37138599D01*
X129672480Y-37138596D01*
X130024272Y-37039380D01*
X130024277Y-37039378D01*
X130026661Y-37038706D01*
X130374242Y-36910477D01*
X130483323Y-36860190D01*
X130708448Y-36756405D01*
X130710689Y-36755372D01*
X130712828Y-36754174D01*
X130712838Y-36754169D01*
X131004177Y-36591012D01*
X131033931Y-36574349D01*
X131094514Y-36533869D01*
X131339908Y-36369902D01*
X131339912Y-36369899D01*
X131341973Y-36368522D01*
X131554363Y-36201087D01*
X131630968Y-36140697D01*
X131630973Y-36140693D01*
X131632916Y-36139161D01*
X131634787Y-36137432D01*
X131880433Y-35910359D01*
X131890307Y-35902126D01*
X131892833Y-35900229D01*
X131892836Y-35900227D01*
X131896137Y-35897748D01*
X131900623Y-35893355D01*
X131902733Y-35891290D01*
X131902737Y-35891286D01*
X131905686Y-35888398D01*
X131924906Y-35863886D01*
X131934965Y-35852538D01*
X135978619Y-31808884D01*
X138791500Y-31808884D01*
X138791665Y-31811152D01*
X138791665Y-31811164D01*
X138800528Y-31933309D01*
X138806125Y-32010451D01*
X138807109Y-32014906D01*
X138807109Y-32014909D01*
X138863338Y-32269588D01*
X138864585Y-32275237D01*
X138960655Y-32528810D01*
X139021051Y-32637543D01*
X139081837Y-32746978D01*
X139092324Y-32765859D01*
X139097924Y-32773197D01*
X139250238Y-32972775D01*
X139256833Y-32981417D01*
X139260099Y-32984610D01*
X139260101Y-32984612D01*
X139344322Y-33066943D01*
X139450736Y-33170970D01*
X139454428Y-33173657D01*
X139454430Y-33173659D01*
X139559420Y-33250079D01*
X139669972Y-33330547D01*
X139909947Y-33456804D01*
X139914248Y-33458323D01*
X139914253Y-33458325D01*
X139993912Y-33486455D01*
X140165634Y-33547096D01*
X140263653Y-33566415D01*
X140427206Y-33598652D01*
X140427212Y-33598653D01*
X140431678Y-33599533D01*
X140436232Y-33599760D01*
X140436234Y-33599760D01*
X140697936Y-33612789D01*
X140697942Y-33612789D01*
X140702505Y-33613016D01*
X140972441Y-33587262D01*
X140976870Y-33586178D01*
X140976877Y-33586177D01*
X141136584Y-33547096D01*
X141235832Y-33522810D01*
X141255216Y-33514959D01*
X141482931Y-33422725D01*
X141482932Y-33422725D01*
X141487160Y-33421012D01*
X141721161Y-33283999D01*
X141889943Y-33149020D01*
X141929366Y-33117493D01*
X141929368Y-33117492D01*
X141932932Y-33114641D01*
X141979105Y-33065213D01*
X142114921Y-32919824D01*
X142114923Y-32919821D01*
X142118037Y-32916488D01*
X142203156Y-32793789D01*
X142218995Y-32770957D01*
X142274258Y-32726386D01*
X142344845Y-32718769D01*
X142408345Y-32750523D01*
X142422686Y-32766334D01*
X142584061Y-32977785D01*
X142586833Y-32981417D01*
X142590099Y-32984610D01*
X142590101Y-32984612D01*
X142674322Y-33066943D01*
X142780736Y-33170970D01*
X142784428Y-33173657D01*
X142784430Y-33173659D01*
X142889420Y-33250079D01*
X142999972Y-33330547D01*
X143239947Y-33456804D01*
X143244248Y-33458323D01*
X143244253Y-33458325D01*
X143323912Y-33486455D01*
X143495634Y-33547096D01*
X143593653Y-33566415D01*
X143757206Y-33598652D01*
X143757212Y-33598653D01*
X143761678Y-33599533D01*
X143766232Y-33599760D01*
X143766234Y-33599760D01*
X144027936Y-33612789D01*
X144027942Y-33612789D01*
X144032505Y-33613016D01*
X144302441Y-33587262D01*
X144306870Y-33586178D01*
X144306877Y-33586177D01*
X144466584Y-33547096D01*
X144565832Y-33522810D01*
X144585216Y-33514959D01*
X144812931Y-33422725D01*
X144812932Y-33422725D01*
X144817160Y-33421012D01*
X145051161Y-33283999D01*
X145219943Y-33149020D01*
X145259366Y-33117493D01*
X145259368Y-33117492D01*
X145262932Y-33114641D01*
X145309105Y-33065213D01*
X145444921Y-32919824D01*
X145444923Y-32919821D01*
X145448037Y-32916488D01*
X145602598Y-32693688D01*
X145632112Y-32634363D01*
X145721346Y-32454997D01*
X145721347Y-32454994D01*
X145723379Y-32450910D01*
X145807847Y-32193240D01*
X145814488Y-32154992D01*
X145853579Y-31929856D01*
X145853580Y-31929848D01*
X145854235Y-31926075D01*
X145857614Y-31858193D01*
X145858422Y-31841971D01*
X145858422Y-31841963D01*
X145858500Y-31840400D01*
X145858500Y-31151116D01*
X145857948Y-31143500D01*
X145844205Y-30954100D01*
X145843875Y-30949549D01*
X145839773Y-30930968D01*
X145786400Y-30689223D01*
X145786399Y-30689219D01*
X145785415Y-30684763D01*
X145689345Y-30431190D01*
X145578672Y-30231941D01*
X145559894Y-30198134D01*
X145559893Y-30198133D01*
X145557676Y-30194141D01*
X145425601Y-30021082D01*
X145395939Y-29982215D01*
X145395938Y-29982214D01*
X145393167Y-29978583D01*
X145199264Y-29789030D01*
X145184765Y-29778476D01*
X144983721Y-29632141D01*
X144980028Y-29629453D01*
X144740053Y-29503196D01*
X144735752Y-29501677D01*
X144735747Y-29501675D01*
X144602363Y-29454573D01*
X144484366Y-29412904D01*
X144363295Y-29389041D01*
X144222794Y-29361348D01*
X144222788Y-29361347D01*
X144218322Y-29360467D01*
X144213768Y-29360240D01*
X144213766Y-29360240D01*
X143952064Y-29347211D01*
X143952058Y-29347211D01*
X143947495Y-29346984D01*
X143677559Y-29372738D01*
X143673130Y-29373822D01*
X143673123Y-29373823D01*
X143543069Y-29405648D01*
X143414168Y-29437190D01*
X143409933Y-29438905D01*
X143409931Y-29438906D01*
X143167069Y-29537275D01*
X143162840Y-29538988D01*
X142928839Y-29676001D01*
X142835683Y-29750500D01*
X142753336Y-29816355D01*
X142717068Y-29845359D01*
X142713947Y-29848700D01*
X142549033Y-30025239D01*
X142531963Y-30043512D01*
X142529363Y-30047260D01*
X142431005Y-30189043D01*
X142375742Y-30233614D01*
X142305155Y-30241231D01*
X142241655Y-30209477D01*
X142227314Y-30193666D01*
X142065939Y-29982215D01*
X142065938Y-29982214D01*
X142063167Y-29978583D01*
X141869264Y-29789030D01*
X141854765Y-29778476D01*
X141653721Y-29632141D01*
X141650028Y-29629453D01*
X141410053Y-29503196D01*
X141405752Y-29501677D01*
X141405747Y-29501675D01*
X141272363Y-29454573D01*
X141154366Y-29412904D01*
X141033295Y-29389041D01*
X140892794Y-29361348D01*
X140892788Y-29361347D01*
X140888322Y-29360467D01*
X140883768Y-29360240D01*
X140883766Y-29360240D01*
X140622064Y-29347211D01*
X140622058Y-29347211D01*
X140617495Y-29346984D01*
X140347559Y-29372738D01*
X140343130Y-29373822D01*
X140343123Y-29373823D01*
X140213069Y-29405648D01*
X140084168Y-29437190D01*
X140079933Y-29438905D01*
X140079931Y-29438906D01*
X139837069Y-29537275D01*
X139832840Y-29538988D01*
X139598839Y-29676001D01*
X139505683Y-29750500D01*
X139423336Y-29816355D01*
X139387068Y-29845359D01*
X139383947Y-29848700D01*
X139219033Y-30025239D01*
X139201963Y-30043512D01*
X139047402Y-30266312D01*
X139045374Y-30270388D01*
X139045373Y-30270390D01*
X138963252Y-30435460D01*
X138926621Y-30509090D01*
X138842153Y-30766760D01*
X138841373Y-30771251D01*
X138841373Y-30771252D01*
X138812987Y-30934739D01*
X138795765Y-31033925D01*
X138791500Y-31119600D01*
X138791500Y-31808884D01*
X135978619Y-31808884D01*
X138588836Y-29198667D01*
X138601227Y-29187800D01*
X138616720Y-29175912D01*
X138616721Y-29175911D01*
X138622747Y-29171287D01*
X138635975Y-29154776D01*
X138649693Y-29140197D01*
X138870313Y-28940239D01*
X138879871Y-28932395D01*
X139141679Y-28738225D01*
X139151960Y-28731355D01*
X139361537Y-28605739D01*
X139431549Y-28563776D01*
X139442445Y-28557951D01*
X139602766Y-28482125D01*
X139737122Y-28418580D01*
X139748545Y-28413849D01*
X139893418Y-28362012D01*
X140055442Y-28304038D01*
X140067268Y-28300451D01*
X140383464Y-28221249D01*
X140395591Y-28218837D01*
X140625210Y-28184776D01*
X140718024Y-28171009D01*
X140730320Y-28169798D01*
X140968067Y-28158118D01*
X141020302Y-28155552D01*
X141042929Y-28156478D01*
X141047855Y-28157127D01*
X141047861Y-28157127D01*
X141055388Y-28158118D01*
X141090324Y-28154261D01*
X141104151Y-28153500D01*
X162869876Y-28153500D01*
X162937997Y-28173502D01*
G37*
%TD.AperFunction*%
%TA.AperFunction,Conductor*%
G36*
X165816124Y-29258502D02*
G01*
X165862617Y-29312158D01*
X165872721Y-29382432D01*
X165843227Y-29447012D01*
X165795305Y-29481284D01*
X165652840Y-29538988D01*
X165418839Y-29676001D01*
X165325683Y-29750500D01*
X165243336Y-29816355D01*
X165207068Y-29845359D01*
X165203947Y-29848700D01*
X165039033Y-30025239D01*
X165021963Y-30043512D01*
X164867402Y-30266312D01*
X164865374Y-30270388D01*
X164865373Y-30270390D01*
X164783252Y-30435460D01*
X164746621Y-30509090D01*
X164662153Y-30766760D01*
X164661373Y-30771251D01*
X164661373Y-30771252D01*
X164632987Y-30934739D01*
X164615765Y-31033925D01*
X164611500Y-31119600D01*
X164611500Y-31808884D01*
X164611665Y-31811152D01*
X164611665Y-31811164D01*
X164620528Y-31933309D01*
X164626125Y-32010451D01*
X164627109Y-32014906D01*
X164627109Y-32014909D01*
X164683338Y-32269588D01*
X164684585Y-32275237D01*
X164780655Y-32528810D01*
X164841051Y-32637543D01*
X164901837Y-32746978D01*
X164912324Y-32765859D01*
X164917924Y-32773197D01*
X165070238Y-32972775D01*
X165076833Y-32981417D01*
X165080099Y-32984610D01*
X165080101Y-32984612D01*
X165164322Y-33066943D01*
X165270736Y-33170970D01*
X165274428Y-33173657D01*
X165274430Y-33173659D01*
X165379420Y-33250079D01*
X165489972Y-33330547D01*
X165729947Y-33456804D01*
X165734248Y-33458323D01*
X165734253Y-33458325D01*
X165813912Y-33486455D01*
X165985634Y-33547096D01*
X166083653Y-33566415D01*
X166247206Y-33598652D01*
X166247212Y-33598653D01*
X166251678Y-33599533D01*
X166256232Y-33599760D01*
X166256234Y-33599760D01*
X166517936Y-33612789D01*
X166517942Y-33612789D01*
X166522505Y-33613016D01*
X166792441Y-33587262D01*
X166796870Y-33586178D01*
X166796877Y-33586177D01*
X166956584Y-33547096D01*
X167055832Y-33522810D01*
X167075216Y-33514959D01*
X167302931Y-33422725D01*
X167302932Y-33422725D01*
X167307160Y-33421012D01*
X167541161Y-33283999D01*
X167709943Y-33149020D01*
X167749366Y-33117493D01*
X167749368Y-33117492D01*
X167752932Y-33114641D01*
X167799105Y-33065213D01*
X167934921Y-32919824D01*
X167934923Y-32919821D01*
X167938037Y-32916488D01*
X168024711Y-32791547D01*
X168079973Y-32746978D01*
X168150560Y-32739360D01*
X168214060Y-32771114D01*
X168228401Y-32786925D01*
X168370238Y-32972775D01*
X168376833Y-32981417D01*
X168380099Y-32984610D01*
X168380101Y-32984612D01*
X168464322Y-33066943D01*
X168570736Y-33170970D01*
X168574428Y-33173657D01*
X168574430Y-33173659D01*
X168679420Y-33250079D01*
X168789972Y-33330547D01*
X169029947Y-33456804D01*
X169034248Y-33458323D01*
X169034253Y-33458325D01*
X169113912Y-33486455D01*
X169285634Y-33547096D01*
X169383653Y-33566415D01*
X169547206Y-33598652D01*
X169547212Y-33598653D01*
X169551678Y-33599533D01*
X169556232Y-33599760D01*
X169556234Y-33599760D01*
X169817936Y-33612789D01*
X169817942Y-33612789D01*
X169822505Y-33613016D01*
X170092441Y-33587262D01*
X170096870Y-33586178D01*
X170096877Y-33586177D01*
X170256584Y-33547096D01*
X170355832Y-33522810D01*
X170375216Y-33514959D01*
X170602931Y-33422725D01*
X170602932Y-33422725D01*
X170607160Y-33421012D01*
X170841161Y-33283999D01*
X171009943Y-33149020D01*
X171049366Y-33117493D01*
X171049368Y-33117492D01*
X171052932Y-33114641D01*
X171099105Y-33065213D01*
X171234921Y-32919824D01*
X171234923Y-32919821D01*
X171238037Y-32916488D01*
X171392598Y-32693688D01*
X171422112Y-32634363D01*
X171511346Y-32454997D01*
X171511347Y-32454994D01*
X171513379Y-32450910D01*
X171597847Y-32193240D01*
X171604488Y-32154992D01*
X171643579Y-31929856D01*
X171643580Y-31929848D01*
X171644235Y-31926075D01*
X171647614Y-31858193D01*
X171648422Y-31841971D01*
X171648422Y-31841963D01*
X171648500Y-31840400D01*
X171648500Y-31151116D01*
X171647948Y-31143500D01*
X171634205Y-30954100D01*
X171633875Y-30949549D01*
X171629773Y-30930968D01*
X171576400Y-30689223D01*
X171576399Y-30689219D01*
X171575415Y-30684763D01*
X171479345Y-30431190D01*
X171368672Y-30231941D01*
X171349894Y-30198134D01*
X171349893Y-30198133D01*
X171347676Y-30194141D01*
X171215601Y-30021082D01*
X171185939Y-29982215D01*
X171185938Y-29982214D01*
X171183167Y-29978583D01*
X170989264Y-29789030D01*
X170974765Y-29778476D01*
X170773721Y-29632141D01*
X170770028Y-29629453D01*
X170530053Y-29503196D01*
X170525752Y-29501677D01*
X170525747Y-29501675D01*
X170473740Y-29483310D01*
X170416167Y-29441766D01*
X170390194Y-29375691D01*
X170404067Y-29306063D01*
X170453381Y-29254988D01*
X170515696Y-29238500D01*
X178648003Y-29238500D01*
X178716124Y-29258502D01*
X178762617Y-29312158D01*
X178772721Y-29382432D01*
X178743227Y-29447012D01*
X178695305Y-29481284D01*
X178552840Y-29538988D01*
X178318839Y-29676001D01*
X178225683Y-29750500D01*
X178143336Y-29816355D01*
X178107068Y-29845359D01*
X178103947Y-29848700D01*
X177939033Y-30025239D01*
X177921963Y-30043512D01*
X177767402Y-30266312D01*
X177765374Y-30270388D01*
X177765373Y-30270390D01*
X177683252Y-30435460D01*
X177646621Y-30509090D01*
X177562153Y-30766760D01*
X177561373Y-30771251D01*
X177561373Y-30771252D01*
X177532987Y-30934739D01*
X177515765Y-31033925D01*
X177511500Y-31119600D01*
X177511500Y-31808884D01*
X177511665Y-31811152D01*
X177511665Y-31811164D01*
X177520528Y-31933309D01*
X177526125Y-32010451D01*
X177527109Y-32014906D01*
X177527109Y-32014909D01*
X177583338Y-32269588D01*
X177584585Y-32275237D01*
X177680655Y-32528810D01*
X177741051Y-32637543D01*
X177801837Y-32746978D01*
X177812324Y-32765859D01*
X177817924Y-32773197D01*
X177970238Y-32972775D01*
X177976833Y-32981417D01*
X177980099Y-32984610D01*
X177980101Y-32984612D01*
X178064322Y-33066943D01*
X178170736Y-33170970D01*
X178174428Y-33173657D01*
X178174430Y-33173659D01*
X178279420Y-33250079D01*
X178389972Y-33330547D01*
X178629947Y-33456804D01*
X178634248Y-33458323D01*
X178634253Y-33458325D01*
X178713912Y-33486455D01*
X178885634Y-33547096D01*
X178983653Y-33566415D01*
X179147206Y-33598652D01*
X179147212Y-33598653D01*
X179151678Y-33599533D01*
X179156232Y-33599760D01*
X179156234Y-33599760D01*
X179417936Y-33612789D01*
X179417942Y-33612789D01*
X179422505Y-33613016D01*
X179692441Y-33587262D01*
X179696870Y-33586178D01*
X179696877Y-33586177D01*
X179856584Y-33547096D01*
X179955832Y-33522810D01*
X179975216Y-33514959D01*
X180202931Y-33422725D01*
X180202932Y-33422725D01*
X180207160Y-33421012D01*
X180441161Y-33283999D01*
X180609943Y-33149020D01*
X180649366Y-33117493D01*
X180649368Y-33117492D01*
X180652932Y-33114641D01*
X180699105Y-33065213D01*
X180834921Y-32919824D01*
X180834923Y-32919821D01*
X180838037Y-32916488D01*
X180923156Y-32793789D01*
X180934234Y-32777820D01*
X180989497Y-32733249D01*
X181060084Y-32725632D01*
X181123584Y-32757386D01*
X181137920Y-32773191D01*
X181296833Y-32981417D01*
X181300099Y-32984610D01*
X181300101Y-32984612D01*
X181384322Y-33066943D01*
X181490736Y-33170970D01*
X181494428Y-33173657D01*
X181494430Y-33173659D01*
X181599420Y-33250079D01*
X181709972Y-33330547D01*
X181949947Y-33456804D01*
X181954248Y-33458323D01*
X181954253Y-33458325D01*
X182033912Y-33486455D01*
X182205634Y-33547096D01*
X182210101Y-33547976D01*
X182210103Y-33547977D01*
X182308623Y-33567395D01*
X182465110Y-33598238D01*
X182528076Y-33631036D01*
X182563316Y-33692669D01*
X182559640Y-33763571D01*
X182529839Y-33810955D01*
X181429462Y-34911332D01*
X181417071Y-34922199D01*
X181395552Y-34938711D01*
X181383438Y-34953832D01*
X181382325Y-34955221D01*
X181368607Y-34969800D01*
X181147986Y-35169758D01*
X181138428Y-35177602D01*
X180876620Y-35371773D01*
X180866339Y-35378643D01*
X180736429Y-35456508D01*
X180617880Y-35527564D01*
X180586754Y-35546220D01*
X180575853Y-35552047D01*
X180519174Y-35578854D01*
X180281185Y-35691414D01*
X180269761Y-35696146D01*
X179962856Y-35805958D01*
X179951024Y-35809547D01*
X179758674Y-35857729D01*
X179634829Y-35888751D01*
X179622708Y-35891161D01*
X179300274Y-35938989D01*
X179287978Y-35940201D01*
X179110209Y-35948934D01*
X178997987Y-35954447D01*
X178975361Y-35953521D01*
X178970442Y-35952873D01*
X178970436Y-35952873D01*
X178962909Y-35951882D01*
X178932466Y-35955243D01*
X178927973Y-35955739D01*
X178914146Y-35956500D01*
X178713980Y-35956500D01*
X178696226Y-35955243D01*
X178684717Y-35953605D01*
X178673349Y-35951987D01*
X178666852Y-35951919D01*
X178664112Y-35951890D01*
X178664108Y-35951890D01*
X178659985Y-35951847D01*
X178654025Y-35952568D01*
X178652636Y-35952736D01*
X178642452Y-35953551D01*
X178289884Y-35967404D01*
X178287441Y-35967693D01*
X178287430Y-35967694D01*
X178054900Y-35995216D01*
X177922065Y-36010938D01*
X177558795Y-36083197D01*
X177556420Y-36083867D01*
X177556415Y-36083868D01*
X177505609Y-36098197D01*
X177202314Y-36183735D01*
X176854820Y-36311932D01*
X176852585Y-36312962D01*
X176852581Y-36312964D01*
X176520704Y-36465961D01*
X176520691Y-36465968D01*
X176518456Y-36466998D01*
X176282139Y-36599342D01*
X176214998Y-36636943D01*
X176195295Y-36647977D01*
X176011991Y-36770457D01*
X175889472Y-36852322D01*
X175887330Y-36853753D01*
X175805228Y-36918477D01*
X175606961Y-37074779D01*
X175596459Y-37083058D01*
X175594645Y-37084735D01*
X175594639Y-37084740D01*
X175349020Y-37311788D01*
X175339153Y-37320017D01*
X175333306Y-37324407D01*
X175323757Y-37333758D01*
X175307432Y-37354578D01*
X175304546Y-37358259D01*
X175294487Y-37369608D01*
X175078112Y-37585983D01*
X175015800Y-37620009D01*
X174951087Y-37615924D01*
X174950906Y-37616610D01*
X174947437Y-37615694D01*
X174946967Y-37615664D01*
X174945914Y-37615291D01*
X174945900Y-37615287D01*
X174941028Y-37613562D01*
X174935935Y-37612655D01*
X174935932Y-37612654D01*
X174718095Y-37573851D01*
X174718089Y-37573850D01*
X174713006Y-37572945D01*
X174640096Y-37572054D01*
X174486581Y-37570179D01*
X174486579Y-37570179D01*
X174481411Y-37570116D01*
X174252464Y-37605150D01*
X174045880Y-37672672D01*
X173974917Y-37674823D01*
X173914056Y-37638267D01*
X173883157Y-37577489D01*
X173876868Y-37545872D01*
X173876064Y-37541830D01*
X173869739Y-37523195D01*
X173795827Y-37305458D01*
X173795826Y-37305457D01*
X173794501Y-37301552D01*
X173728918Y-37168563D01*
X173684100Y-37077680D01*
X173684097Y-37077675D01*
X173682273Y-37073976D01*
X173541301Y-36862996D01*
X173430657Y-36736830D01*
X173431900Y-36735740D01*
X173428400Y-36733014D01*
X173427652Y-36731749D01*
X173418776Y-36722873D01*
X173413140Y-36716856D01*
X173396629Y-36698029D01*
X173390609Y-36690616D01*
X173383701Y-36681415D01*
X173374350Y-36671867D01*
X173349853Y-36652659D01*
X173338504Y-36642600D01*
X173328392Y-36632488D01*
X173316726Y-36619045D01*
X173305328Y-36603864D01*
X173305327Y-36603863D01*
X173302848Y-36600561D01*
X173297619Y-36595221D01*
X173296386Y-36593962D01*
X173296385Y-36593961D01*
X173293497Y-36591012D01*
X173290253Y-36588469D01*
X173290248Y-36588464D01*
X173282407Y-36582317D01*
X173276197Y-36577118D01*
X173107440Y-36426307D01*
X172904841Y-36282555D01*
X172892583Y-36275780D01*
X172690515Y-36164102D01*
X172687421Y-36162392D01*
X172496227Y-36083197D01*
X172461182Y-36068681D01*
X172461181Y-36068681D01*
X172457913Y-36067327D01*
X172450364Y-36065152D01*
X172427079Y-36058444D01*
X172219205Y-35998556D01*
X171974298Y-35956945D01*
X171811338Y-35947793D01*
X171811443Y-35945931D01*
X171806495Y-35946550D01*
X171806302Y-35946500D01*
X171791854Y-35946500D01*
X171784789Y-35946302D01*
X171778184Y-35945931D01*
X171765647Y-35945227D01*
X171754966Y-35944168D01*
X171750627Y-35943551D01*
X171743721Y-35942568D01*
X171743716Y-35942568D01*
X171739636Y-35941987D01*
X171732475Y-35941912D01*
X171730392Y-35941890D01*
X171730390Y-35941890D01*
X171726272Y-35941847D01*
X171722182Y-35942342D01*
X171722181Y-35942342D01*
X171720314Y-35942568D01*
X171695365Y-35945587D01*
X171680230Y-35946500D01*
X165824468Y-35946500D01*
X165806714Y-35945243D01*
X165804487Y-35944926D01*
X165783837Y-35941987D01*
X165776858Y-35941914D01*
X165774593Y-35941890D01*
X165774591Y-35941890D01*
X165770473Y-35941847D01*
X165763136Y-35942735D01*
X165752960Y-35943550D01*
X165400279Y-35957407D01*
X165397836Y-35957696D01*
X165397825Y-35957697D01*
X165186570Y-35982701D01*
X165032368Y-36000952D01*
X164669007Y-36073228D01*
X164666632Y-36073898D01*
X164666627Y-36073899D01*
X164554646Y-36105481D01*
X164312437Y-36173791D01*
X163964857Y-36302020D01*
X163962622Y-36303050D01*
X163962618Y-36303052D01*
X163795404Y-36380139D01*
X163628409Y-36457125D01*
X163626270Y-36458323D01*
X163626260Y-36458328D01*
X163326546Y-36626176D01*
X163305167Y-36638149D01*
X163303114Y-36639521D01*
X163303112Y-36639522D01*
X163013377Y-36833117D01*
X162997125Y-36843976D01*
X162706181Y-37073338D01*
X162458660Y-37302145D01*
X162448793Y-37310372D01*
X162442961Y-37314751D01*
X162433412Y-37324102D01*
X162418818Y-37342715D01*
X162414201Y-37348603D01*
X162404142Y-37359952D01*
X162178111Y-37585983D01*
X162115799Y-37620009D01*
X162051088Y-37615923D01*
X162050906Y-37616610D01*
X162047430Y-37615692D01*
X162046960Y-37615662D01*
X162045910Y-37615290D01*
X162045901Y-37615288D01*
X162041028Y-37613562D01*
X162035935Y-37612655D01*
X162035932Y-37612654D01*
X161818095Y-37573851D01*
X161818089Y-37573850D01*
X161813006Y-37572945D01*
X161740096Y-37572054D01*
X161586581Y-37570179D01*
X161586579Y-37570179D01*
X161581411Y-37570116D01*
X161352464Y-37605150D01*
X161132314Y-37677106D01*
X161127726Y-37679494D01*
X161127722Y-37679496D01*
X160951868Y-37771040D01*
X160926872Y-37784052D01*
X160922739Y-37787155D01*
X160922736Y-37787157D01*
X160741655Y-37923117D01*
X160740976Y-37922213D01*
X160681730Y-37950131D01*
X160611341Y-37940869D01*
X160557132Y-37895022D01*
X160544325Y-37869866D01*
X160533768Y-37841705D01*
X160533767Y-37841703D01*
X160530615Y-37833295D01*
X160443261Y-37716739D01*
X160326705Y-37629385D01*
X160190316Y-37578255D01*
X160128134Y-37571500D01*
X158231866Y-37571500D01*
X158169684Y-37578255D01*
X158033295Y-37629385D01*
X157916739Y-37716739D01*
X157829385Y-37833295D01*
X157778255Y-37969684D01*
X157771500Y-38031866D01*
X157771500Y-39928134D01*
X157771869Y-39931531D01*
X157772053Y-39934928D01*
X157770342Y-39935021D01*
X157758994Y-39998287D01*
X157710668Y-40050297D01*
X157646265Y-40068000D01*
X152487794Y-40068000D01*
X152419673Y-40047998D01*
X152373180Y-39994342D01*
X152363076Y-39924068D01*
X152385471Y-39868474D01*
X152498010Y-39711859D01*
X152503321Y-39703020D01*
X152601318Y-39504737D01*
X152605117Y-39495142D01*
X152669415Y-39283517D01*
X152671594Y-39273436D01*
X152700702Y-39052338D01*
X152701221Y-39045663D01*
X152702744Y-38983364D01*
X152702550Y-38976646D01*
X152684279Y-38754400D01*
X152682596Y-38744238D01*
X152628710Y-38529708D01*
X152625389Y-38519953D01*
X152537193Y-38317118D01*
X152532315Y-38308020D01*
X152459224Y-38195038D01*
X152448538Y-38185835D01*
X152438973Y-38190238D01*
X151379095Y-39250115D01*
X151316783Y-39284141D01*
X151245967Y-39279076D01*
X151200905Y-39250115D01*
X151019885Y-39069095D01*
X150985859Y-39006783D01*
X150990924Y-38935968D01*
X151019885Y-38890905D01*
X152078990Y-37831799D01*
X152086010Y-37818943D01*
X152078237Y-37808274D01*
X152075902Y-37806430D01*
X152067320Y-37800729D01*
X151873678Y-37693833D01*
X151864272Y-37689606D01*
X151655772Y-37615772D01*
X151645809Y-37613140D01*
X151428047Y-37574350D01*
X151417796Y-37573381D01*
X151395438Y-37573108D01*
X151327566Y-37552275D01*
X151281732Y-37498056D01*
X151272487Y-37427664D01*
X151302766Y-37363448D01*
X151307881Y-37358022D01*
X152257236Y-36408667D01*
X152269627Y-36397800D01*
X152285120Y-36385912D01*
X152285121Y-36385911D01*
X152291147Y-36381287D01*
X152304375Y-36364776D01*
X152318093Y-36350197D01*
X152538713Y-36150239D01*
X152548271Y-36142395D01*
X152810079Y-35948225D01*
X152820360Y-35941355D01*
X152968542Y-35852538D01*
X153099949Y-35773776D01*
X153110845Y-35767951D01*
X153247116Y-35703500D01*
X153405522Y-35628580D01*
X153416945Y-35623849D01*
X153542696Y-35578854D01*
X153723842Y-35514038D01*
X153735668Y-35510451D01*
X153758193Y-35504809D01*
X153842561Y-35483676D01*
X154051864Y-35431249D01*
X154063991Y-35428837D01*
X154284910Y-35396067D01*
X154386424Y-35381009D01*
X154398720Y-35379798D01*
X154636630Y-35368110D01*
X154688702Y-35365552D01*
X154711329Y-35366478D01*
X154716255Y-35367127D01*
X154716261Y-35367127D01*
X154723788Y-35368118D01*
X154758724Y-35364261D01*
X154772551Y-35363500D01*
X155313433Y-35363500D01*
X155331187Y-35364757D01*
X155354064Y-35368013D01*
X155360561Y-35368081D01*
X155363301Y-35368110D01*
X155363305Y-35368110D01*
X155367428Y-35368153D01*
X155373538Y-35367414D01*
X155374777Y-35367264D01*
X155384961Y-35366449D01*
X155737621Y-35352592D01*
X155740066Y-35352303D01*
X155740074Y-35352302D01*
X155960179Y-35326250D01*
X156105532Y-35309046D01*
X156233423Y-35283607D01*
X156466461Y-35237253D01*
X156466472Y-35237250D01*
X156468892Y-35236769D01*
X156471268Y-35236099D01*
X156471280Y-35236096D01*
X156823072Y-35136880D01*
X156823077Y-35136878D01*
X156825461Y-35136206D01*
X157173042Y-35007977D01*
X157203413Y-34993976D01*
X157394413Y-34905923D01*
X157509489Y-34852872D01*
X157511628Y-34851674D01*
X157511638Y-34851669D01*
X157830579Y-34673054D01*
X157832731Y-34671849D01*
X157890961Y-34632941D01*
X158138708Y-34467402D01*
X158138712Y-34467399D01*
X158140773Y-34466022D01*
X158408319Y-34255106D01*
X158429768Y-34238197D01*
X158429773Y-34238193D01*
X158431716Y-34236661D01*
X158438109Y-34230752D01*
X158679233Y-34007859D01*
X158689107Y-33999626D01*
X158691633Y-33997729D01*
X158691636Y-33997727D01*
X158694937Y-33995248D01*
X158699423Y-33990855D01*
X158701533Y-33988790D01*
X158701537Y-33988786D01*
X158704486Y-33985898D01*
X158723706Y-33961386D01*
X158733765Y-33950038D01*
X162400136Y-30283667D01*
X162412527Y-30272800D01*
X162428020Y-30260912D01*
X162428021Y-30260911D01*
X162434047Y-30256287D01*
X162447275Y-30239776D01*
X162460993Y-30225197D01*
X162681613Y-30025239D01*
X162691171Y-30017395D01*
X162952979Y-29823225D01*
X162963260Y-29816355D01*
X163168414Y-29693390D01*
X163242849Y-29648776D01*
X163253745Y-29642951D01*
X163402387Y-29572649D01*
X163548422Y-29503580D01*
X163559845Y-29498849D01*
X163643233Y-29469012D01*
X163866742Y-29389038D01*
X163878568Y-29385451D01*
X164194764Y-29306249D01*
X164206891Y-29303837D01*
X164427810Y-29271067D01*
X164529324Y-29256009D01*
X164541620Y-29254798D01*
X164779367Y-29243118D01*
X164831602Y-29240552D01*
X164854229Y-29241478D01*
X164859155Y-29242127D01*
X164859161Y-29242127D01*
X164866688Y-29243118D01*
X164901624Y-29239261D01*
X164915451Y-29238500D01*
X165748003Y-29238500D01*
X165816124Y-29258502D01*
G37*
%TD.AperFunction*%
%TA.AperFunction,Conductor*%
G36*
X138886727Y-27203502D02*
G01*
X138933220Y-27257158D01*
X138943324Y-27327432D01*
X138913830Y-27392012D01*
X138880173Y-27419434D01*
X138596767Y-27578149D01*
X138594714Y-27579521D01*
X138594712Y-27579522D01*
X138317821Y-27764535D01*
X138288725Y-27783976D01*
X137997781Y-28013338D01*
X137750260Y-28242145D01*
X137740393Y-28250372D01*
X137734561Y-28254751D01*
X137725012Y-28264102D01*
X137722463Y-28267353D01*
X137705801Y-28288603D01*
X137695742Y-28299952D01*
X131041862Y-34953832D01*
X131029471Y-34964699D01*
X131007952Y-34981211D01*
X131003203Y-34987139D01*
X130994725Y-34997721D01*
X130981007Y-35012300D01*
X130760386Y-35212258D01*
X130750828Y-35220102D01*
X130489020Y-35414273D01*
X130478739Y-35421143D01*
X130349505Y-35498603D01*
X130301187Y-35527564D01*
X130199154Y-35588720D01*
X130188253Y-35594547D01*
X130126299Y-35623849D01*
X129893585Y-35733914D01*
X129882161Y-35738646D01*
X129575256Y-35848458D01*
X129563424Y-35852047D01*
X129371074Y-35900229D01*
X129247229Y-35931251D01*
X129235108Y-35933661D01*
X128912674Y-35981489D01*
X128900378Y-35982701D01*
X128722609Y-35991434D01*
X128610387Y-35996947D01*
X128587761Y-35996021D01*
X128582842Y-35995373D01*
X128582836Y-35995373D01*
X128575309Y-35994382D01*
X128544866Y-35997743D01*
X128540373Y-35998239D01*
X128526546Y-35999000D01*
X127011429Y-35999000D01*
X126993675Y-35997743D01*
X126987780Y-35996904D01*
X126970798Y-35994487D01*
X126964558Y-35994422D01*
X126961566Y-35994390D01*
X126961562Y-35994390D01*
X126957434Y-35994347D01*
X126955397Y-35994594D01*
X126954420Y-35994364D01*
X126954435Y-35994710D01*
X126555324Y-36012135D01*
X126555313Y-36012136D01*
X126552564Y-36012256D01*
X126304281Y-36044943D01*
X126153501Y-36064793D01*
X126153495Y-36064794D01*
X126150776Y-36065152D01*
X125755127Y-36152865D01*
X125752502Y-36153693D01*
X125752497Y-36153694D01*
X125659354Y-36183062D01*
X125368628Y-36274727D01*
X124994221Y-36429812D01*
X124634755Y-36616938D01*
X124292967Y-36834681D01*
X124159323Y-36937230D01*
X123973624Y-37079721D01*
X123973618Y-37079726D01*
X123971456Y-37081385D01*
X123696040Y-37333758D01*
X123692125Y-37337345D01*
X123688416Y-37340424D01*
X123688479Y-37340497D01*
X123685354Y-37343180D01*
X123682056Y-37345657D01*
X123672507Y-37355008D01*
X123668239Y-37360451D01*
X123653295Y-37379510D01*
X123643236Y-37390859D01*
X123448112Y-37585983D01*
X123385800Y-37620009D01*
X123321087Y-37615924D01*
X123320906Y-37616610D01*
X123317437Y-37615694D01*
X123316967Y-37615664D01*
X123315914Y-37615291D01*
X123315900Y-37615287D01*
X123311028Y-37613562D01*
X123305935Y-37612655D01*
X123305932Y-37612654D01*
X123088095Y-37573851D01*
X123088089Y-37573850D01*
X123083006Y-37572945D01*
X123010096Y-37572054D01*
X122856581Y-37570179D01*
X122856579Y-37570179D01*
X122851411Y-37570116D01*
X122622464Y-37605150D01*
X122402314Y-37677106D01*
X122397726Y-37679494D01*
X122397722Y-37679496D01*
X122221868Y-37771040D01*
X122196872Y-37784052D01*
X122192739Y-37787155D01*
X122192736Y-37787157D01*
X122011655Y-37923117D01*
X122010976Y-37922213D01*
X121951730Y-37950131D01*
X121881341Y-37940869D01*
X121827132Y-37895022D01*
X121814325Y-37869866D01*
X121803768Y-37841705D01*
X121803767Y-37841703D01*
X121800615Y-37833295D01*
X121713261Y-37716739D01*
X121596705Y-37629385D01*
X121460316Y-37578255D01*
X121398134Y-37571500D01*
X119501866Y-37571500D01*
X119439684Y-37578255D01*
X119303295Y-37629385D01*
X119186739Y-37716739D01*
X119099385Y-37833295D01*
X119048255Y-37969684D01*
X119041500Y-38031866D01*
X119041500Y-39404591D01*
X119021498Y-39472712D01*
X118988413Y-39507351D01*
X118971351Y-39519457D01*
X118880475Y-39583936D01*
X118868514Y-39591452D01*
X118683373Y-39693775D01*
X118670648Y-39699903D01*
X118475207Y-39780858D01*
X118461886Y-39785519D01*
X118332336Y-39822842D01*
X118258610Y-39844082D01*
X118244835Y-39847226D01*
X118103236Y-39871285D01*
X118036287Y-39882660D01*
X118022252Y-39884242D01*
X117845042Y-39894193D01*
X117821540Y-39893313D01*
X117810667Y-39891882D01*
X117775731Y-39895739D01*
X117761904Y-39896500D01*
X113859771Y-39896500D01*
X113791650Y-39876498D01*
X113745157Y-39822842D01*
X113735053Y-39752568D01*
X113751035Y-39707662D01*
X113751028Y-39707659D01*
X113751056Y-39707603D01*
X113751765Y-39705610D01*
X113753319Y-39703023D01*
X113851318Y-39504737D01*
X113855117Y-39495142D01*
X113919415Y-39283517D01*
X113921594Y-39273436D01*
X113950702Y-39052338D01*
X113951221Y-39045663D01*
X113952744Y-38983364D01*
X113952550Y-38976646D01*
X113934279Y-38754400D01*
X113932596Y-38744238D01*
X113878710Y-38529708D01*
X113875389Y-38519953D01*
X113787193Y-38317118D01*
X113782315Y-38308020D01*
X113709224Y-38195038D01*
X113698538Y-38185835D01*
X113688973Y-38190238D01*
X112629095Y-39250115D01*
X112566783Y-39284141D01*
X112495967Y-39279076D01*
X112450905Y-39250115D01*
X112269885Y-39069095D01*
X112235859Y-39006783D01*
X112240924Y-38935968D01*
X112269885Y-38890905D01*
X113328990Y-37831799D01*
X113336010Y-37818943D01*
X113328237Y-37808274D01*
X113325902Y-37806430D01*
X113317320Y-37800729D01*
X113123678Y-37693833D01*
X113114272Y-37689606D01*
X112905772Y-37615772D01*
X112895809Y-37613140D01*
X112678047Y-37574350D01*
X112667796Y-37573381D01*
X112645439Y-37573108D01*
X112577567Y-37552275D01*
X112531733Y-37498056D01*
X112522488Y-37427664D01*
X112552767Y-37363448D01*
X112557882Y-37358022D01*
X114388340Y-35527564D01*
X114400723Y-35516703D01*
X114422247Y-35500187D01*
X114435475Y-35483676D01*
X114449193Y-35469097D01*
X114669813Y-35269139D01*
X114679371Y-35261295D01*
X114941179Y-35067125D01*
X114951460Y-35060255D01*
X115113763Y-34962974D01*
X115231049Y-34892676D01*
X115241945Y-34886851D01*
X115416684Y-34804206D01*
X115536622Y-34747480D01*
X115548045Y-34742749D01*
X115673930Y-34697706D01*
X115854942Y-34632938D01*
X115866768Y-34629351D01*
X116182964Y-34550149D01*
X116195091Y-34547737D01*
X116416010Y-34514967D01*
X116517524Y-34499909D01*
X116529820Y-34498698D01*
X116767730Y-34487010D01*
X116819802Y-34484452D01*
X116842429Y-34485378D01*
X116847355Y-34486027D01*
X116847361Y-34486027D01*
X116854888Y-34487018D01*
X116889824Y-34483161D01*
X116903651Y-34482400D01*
X119279533Y-34482400D01*
X119297287Y-34483657D01*
X119320164Y-34486913D01*
X119326661Y-34486981D01*
X119329401Y-34487010D01*
X119329405Y-34487010D01*
X119333528Y-34487053D01*
X119339638Y-34486314D01*
X119340877Y-34486164D01*
X119351061Y-34485349D01*
X119703721Y-34471492D01*
X119706166Y-34471203D01*
X119706174Y-34471202D01*
X119943844Y-34443071D01*
X120071632Y-34427946D01*
X120199523Y-34402507D01*
X120432561Y-34356153D01*
X120432572Y-34356150D01*
X120434992Y-34355669D01*
X120437368Y-34354999D01*
X120437380Y-34354996D01*
X120789172Y-34255780D01*
X120789177Y-34255778D01*
X120791561Y-34255106D01*
X121139142Y-34126877D01*
X121147826Y-34122874D01*
X121430924Y-33992363D01*
X121475589Y-33971772D01*
X121477728Y-33970574D01*
X121477738Y-33970569D01*
X121754172Y-33815759D01*
X121798831Y-33790749D01*
X121884127Y-33733756D01*
X122104808Y-33586302D01*
X122104812Y-33586299D01*
X122106873Y-33584922D01*
X122370951Y-33376740D01*
X122395868Y-33357097D01*
X122395873Y-33357093D01*
X122397816Y-33355561D01*
X122415743Y-33338990D01*
X122645333Y-33126759D01*
X122655207Y-33118526D01*
X122657733Y-33116629D01*
X122657736Y-33116627D01*
X122661037Y-33114148D01*
X122665863Y-33109423D01*
X122667633Y-33107690D01*
X122667637Y-33107686D01*
X122670586Y-33104798D01*
X122689806Y-33080286D01*
X122699865Y-33068938D01*
X123959919Y-31808884D01*
X125881500Y-31808884D01*
X125881665Y-31811152D01*
X125881665Y-31811164D01*
X125890528Y-31933309D01*
X125896125Y-32010451D01*
X125897109Y-32014906D01*
X125897109Y-32014909D01*
X125953338Y-32269588D01*
X125954585Y-32275237D01*
X126050655Y-32528810D01*
X126111051Y-32637543D01*
X126171837Y-32746978D01*
X126182324Y-32765859D01*
X126187924Y-32773197D01*
X126340238Y-32972775D01*
X126346833Y-32981417D01*
X126350099Y-32984610D01*
X126350101Y-32984612D01*
X126434322Y-33066943D01*
X126540736Y-33170970D01*
X126544428Y-33173657D01*
X126544430Y-33173659D01*
X126649420Y-33250079D01*
X126759972Y-33330547D01*
X126999947Y-33456804D01*
X127004248Y-33458323D01*
X127004253Y-33458325D01*
X127083912Y-33486455D01*
X127255634Y-33547096D01*
X127353653Y-33566415D01*
X127517206Y-33598652D01*
X127517212Y-33598653D01*
X127521678Y-33599533D01*
X127526232Y-33599760D01*
X127526234Y-33599760D01*
X127787936Y-33612789D01*
X127787942Y-33612789D01*
X127792505Y-33613016D01*
X128062441Y-33587262D01*
X128066870Y-33586178D01*
X128066877Y-33586177D01*
X128226584Y-33547096D01*
X128325832Y-33522810D01*
X128345216Y-33514959D01*
X128572931Y-33422725D01*
X128572932Y-33422725D01*
X128577160Y-33421012D01*
X128811161Y-33283999D01*
X128979943Y-33149020D01*
X129019366Y-33117493D01*
X129019368Y-33117492D01*
X129022932Y-33114641D01*
X129069105Y-33065213D01*
X129204921Y-32919824D01*
X129204923Y-32919821D01*
X129208037Y-32916488D01*
X129299472Y-32784684D01*
X129354735Y-32740113D01*
X129425322Y-32732496D01*
X129488822Y-32764250D01*
X129503161Y-32780059D01*
X129545412Y-32835421D01*
X129650238Y-32972775D01*
X129656833Y-32981417D01*
X129660099Y-32984610D01*
X129660101Y-32984612D01*
X129744322Y-33066943D01*
X129850736Y-33170970D01*
X129854428Y-33173657D01*
X129854430Y-33173659D01*
X129959420Y-33250079D01*
X130069972Y-33330547D01*
X130309947Y-33456804D01*
X130314248Y-33458323D01*
X130314253Y-33458325D01*
X130393912Y-33486455D01*
X130565634Y-33547096D01*
X130663653Y-33566415D01*
X130827206Y-33598652D01*
X130827212Y-33598653D01*
X130831678Y-33599533D01*
X130836232Y-33599760D01*
X130836234Y-33599760D01*
X131097936Y-33612789D01*
X131097942Y-33612789D01*
X131102505Y-33613016D01*
X131372441Y-33587262D01*
X131376870Y-33586178D01*
X131376877Y-33586177D01*
X131536584Y-33547096D01*
X131635832Y-33522810D01*
X131655216Y-33514959D01*
X131882931Y-33422725D01*
X131882932Y-33422725D01*
X131887160Y-33421012D01*
X132121161Y-33283999D01*
X132289943Y-33149020D01*
X132329366Y-33117493D01*
X132329368Y-33117492D01*
X132332932Y-33114641D01*
X132379105Y-33065213D01*
X132514921Y-32919824D01*
X132514923Y-32919821D01*
X132518037Y-32916488D01*
X132672598Y-32693688D01*
X132702112Y-32634363D01*
X132791346Y-32454997D01*
X132791347Y-32454994D01*
X132793379Y-32450910D01*
X132877847Y-32193240D01*
X132884488Y-32154992D01*
X132923579Y-31929856D01*
X132923580Y-31929848D01*
X132924235Y-31926075D01*
X132927614Y-31858193D01*
X132928422Y-31841971D01*
X132928422Y-31841963D01*
X132928500Y-31840400D01*
X132928500Y-31151116D01*
X132927948Y-31143500D01*
X132914205Y-30954100D01*
X132913875Y-30949549D01*
X132909773Y-30930968D01*
X132856400Y-30689223D01*
X132856399Y-30689219D01*
X132855415Y-30684763D01*
X132759345Y-30431190D01*
X132648672Y-30231941D01*
X132629894Y-30198134D01*
X132629893Y-30198133D01*
X132627676Y-30194141D01*
X132495601Y-30021082D01*
X132465939Y-29982215D01*
X132465938Y-29982214D01*
X132463167Y-29978583D01*
X132269264Y-29789030D01*
X132254765Y-29778476D01*
X132053721Y-29632141D01*
X132050028Y-29629453D01*
X131810053Y-29503196D01*
X131805752Y-29501677D01*
X131805747Y-29501675D01*
X131672363Y-29454573D01*
X131554366Y-29412904D01*
X131433295Y-29389041D01*
X131292794Y-29361348D01*
X131292788Y-29361347D01*
X131288322Y-29360467D01*
X131283768Y-29360240D01*
X131283766Y-29360240D01*
X131022064Y-29347211D01*
X131022058Y-29347211D01*
X131017495Y-29346984D01*
X130747559Y-29372738D01*
X130743130Y-29373822D01*
X130743123Y-29373823D01*
X130613069Y-29405648D01*
X130484168Y-29437190D01*
X130479933Y-29438905D01*
X130479931Y-29438906D01*
X130237069Y-29537275D01*
X130232840Y-29538988D01*
X129998839Y-29676001D01*
X129905683Y-29750500D01*
X129823336Y-29816355D01*
X129787068Y-29845359D01*
X129783947Y-29848700D01*
X129619033Y-30025239D01*
X129601963Y-30043512D01*
X129512083Y-30173075D01*
X129510528Y-30175316D01*
X129455265Y-30219887D01*
X129384678Y-30227504D01*
X129321178Y-30195750D01*
X129306837Y-30179939D01*
X129298071Y-30168452D01*
X129153167Y-29978583D01*
X128959264Y-29789030D01*
X128944765Y-29778476D01*
X128743721Y-29632141D01*
X128740028Y-29629453D01*
X128500053Y-29503196D01*
X128495752Y-29501677D01*
X128495747Y-29501675D01*
X128362363Y-29454573D01*
X128244366Y-29412904D01*
X128123295Y-29389041D01*
X127982794Y-29361348D01*
X127982788Y-29361347D01*
X127978322Y-29360467D01*
X127973768Y-29360240D01*
X127973766Y-29360240D01*
X127712064Y-29347211D01*
X127712058Y-29347211D01*
X127707495Y-29346984D01*
X127437559Y-29372738D01*
X127433130Y-29373822D01*
X127433123Y-29373823D01*
X127303069Y-29405648D01*
X127174168Y-29437190D01*
X127169933Y-29438905D01*
X127169931Y-29438906D01*
X126927069Y-29537275D01*
X126922840Y-29538988D01*
X126688839Y-29676001D01*
X126595683Y-29750500D01*
X126513336Y-29816355D01*
X126477068Y-29845359D01*
X126473947Y-29848700D01*
X126309033Y-30025239D01*
X126291963Y-30043512D01*
X126137402Y-30266312D01*
X126135374Y-30270388D01*
X126135373Y-30270390D01*
X126053252Y-30435460D01*
X126016621Y-30509090D01*
X125932153Y-30766760D01*
X125931373Y-30771251D01*
X125931373Y-30771252D01*
X125902987Y-30934739D01*
X125885765Y-31033925D01*
X125881500Y-31119600D01*
X125881500Y-31808884D01*
X123959919Y-31808884D01*
X127540136Y-28228667D01*
X127552527Y-28217800D01*
X127568020Y-28205912D01*
X127568021Y-28205911D01*
X127574047Y-28201287D01*
X127587275Y-28184776D01*
X127600993Y-28170197D01*
X127821613Y-27970239D01*
X127831171Y-27962395D01*
X128092979Y-27768225D01*
X128103260Y-27761355D01*
X128284239Y-27652880D01*
X128382849Y-27593776D01*
X128393745Y-27587951D01*
X128643845Y-27469663D01*
X128688422Y-27448580D01*
X128699845Y-27443849D01*
X128844718Y-27392012D01*
X129006742Y-27334038D01*
X129018568Y-27330451D01*
X129334764Y-27251249D01*
X129346891Y-27248837D01*
X129572566Y-27215361D01*
X129669324Y-27201009D01*
X129681620Y-27199798D01*
X129919367Y-27188118D01*
X129971602Y-27185552D01*
X129994229Y-27186478D01*
X129999155Y-27187127D01*
X129999161Y-27187127D01*
X130006688Y-27188118D01*
X130041624Y-27184261D01*
X130055451Y-27183500D01*
X138818606Y-27183500D01*
X138886727Y-27203502D01*
G37*
%TD.AperFunction*%
%TA.AperFunction,Conductor*%
G36*
X190610966Y-30168002D02*
G01*
X190657459Y-30221658D01*
X190667563Y-30291932D01*
X190655656Y-30330123D01*
X190571710Y-30498861D01*
X190566621Y-30509090D01*
X190482153Y-30766760D01*
X190481373Y-30771251D01*
X190481373Y-30771252D01*
X190452987Y-30934739D01*
X190435765Y-31033925D01*
X190431500Y-31119600D01*
X190431500Y-31808884D01*
X190431665Y-31811152D01*
X190431665Y-31811164D01*
X190440528Y-31933309D01*
X190446125Y-32010451D01*
X190447109Y-32014906D01*
X190447109Y-32014909D01*
X190503338Y-32269588D01*
X190504585Y-32275237D01*
X190600655Y-32528810D01*
X190661051Y-32637543D01*
X190721837Y-32746978D01*
X190732324Y-32765859D01*
X190737924Y-32773197D01*
X190890238Y-32972775D01*
X190896833Y-32981417D01*
X190900099Y-32984610D01*
X190900101Y-32984612D01*
X190984322Y-33066943D01*
X191090736Y-33170970D01*
X191094428Y-33173657D01*
X191094430Y-33173659D01*
X191199420Y-33250079D01*
X191309972Y-33330547D01*
X191549947Y-33456804D01*
X191554251Y-33458324D01*
X191554265Y-33458330D01*
X191745471Y-33525852D01*
X191803044Y-33567395D01*
X191829017Y-33633470D01*
X191815144Y-33703098D01*
X191792610Y-33733756D01*
X191436805Y-34089561D01*
X191424413Y-34100429D01*
X191409991Y-34111496D01*
X191402891Y-34116944D01*
X191398140Y-34122874D01*
X191390595Y-34132291D01*
X191376221Y-34147461D01*
X191195002Y-34309410D01*
X191183954Y-34318221D01*
X190963933Y-34474333D01*
X190951970Y-34481850D01*
X190859143Y-34533154D01*
X190715858Y-34612345D01*
X190703135Y-34618472D01*
X190453890Y-34721712D01*
X190440559Y-34726377D01*
X190181323Y-34801062D01*
X190167552Y-34804205D01*
X189901584Y-34849395D01*
X189887552Y-34850976D01*
X189652192Y-34864193D01*
X189628691Y-34863313D01*
X189617818Y-34861882D01*
X189587375Y-34865243D01*
X189582882Y-34865739D01*
X189569055Y-34866500D01*
X188919681Y-34866500D01*
X188901927Y-34865243D01*
X188879050Y-34861987D01*
X188872495Y-34861918D01*
X188869812Y-34861890D01*
X188869809Y-34861890D01*
X188865686Y-34861847D01*
X188858508Y-34862715D01*
X188846532Y-34864164D01*
X188838464Y-34864878D01*
X188744770Y-34870140D01*
X188641496Y-34875940D01*
X188420124Y-34913552D01*
X188204356Y-34975714D01*
X188201088Y-34977068D01*
X188201087Y-34977068D01*
X188000172Y-35060289D01*
X188000167Y-35060292D01*
X187996904Y-35061643D01*
X187993810Y-35063353D01*
X187993808Y-35063354D01*
X187986985Y-35067125D01*
X187800378Y-35170260D01*
X187617249Y-35300197D01*
X187614624Y-35302542D01*
X187614625Y-35302542D01*
X187482127Y-35420949D01*
X187473822Y-35427757D01*
X187458305Y-35439408D01*
X187448757Y-35448759D01*
X187436848Y-35463947D01*
X187431662Y-35470140D01*
X187300197Y-35617249D01*
X187170260Y-35800378D01*
X187110431Y-35908629D01*
X187073503Y-35975446D01*
X187061643Y-35996904D01*
X187060292Y-36000167D01*
X187060289Y-36000172D01*
X186993096Y-36162392D01*
X186975714Y-36204356D01*
X186913552Y-36420124D01*
X186899831Y-36500884D01*
X186876714Y-36636943D01*
X186875940Y-36641496D01*
X186869613Y-36754169D01*
X186868365Y-36776389D01*
X186868082Y-36779494D01*
X186866500Y-36785655D01*
X186866500Y-36806056D01*
X186866302Y-36813125D01*
X186865779Y-36822433D01*
X186864720Y-36833117D01*
X186864260Y-36836350D01*
X186861987Y-36852322D01*
X186861847Y-36865686D01*
X186862342Y-36869776D01*
X186862342Y-36869777D01*
X186865587Y-36896590D01*
X186866500Y-36911728D01*
X186866500Y-37645319D01*
X186846498Y-37713440D01*
X186798679Y-37757083D01*
X186779408Y-37767115D01*
X186746872Y-37784052D01*
X186561655Y-37923117D01*
X186560976Y-37922213D01*
X186501730Y-37950131D01*
X186431341Y-37940869D01*
X186377132Y-37895022D01*
X186364325Y-37869866D01*
X186353768Y-37841705D01*
X186353767Y-37841703D01*
X186350615Y-37833295D01*
X186263261Y-37716739D01*
X186146705Y-37629385D01*
X186010316Y-37578255D01*
X185948134Y-37571500D01*
X184051866Y-37571500D01*
X183989684Y-37578255D01*
X183853295Y-37629385D01*
X183736739Y-37716739D01*
X183649385Y-37833295D01*
X183598255Y-37969684D01*
X183591500Y-38031866D01*
X183591500Y-39471400D01*
X183571498Y-39539521D01*
X183517842Y-39586014D01*
X183465500Y-39597400D01*
X178534017Y-39597400D01*
X178465896Y-39577398D01*
X178419403Y-39523742D01*
X178409299Y-39453468D01*
X178413459Y-39434771D01*
X178459415Y-39283516D01*
X178461594Y-39273436D01*
X178490702Y-39052338D01*
X178491221Y-39045663D01*
X178492744Y-38983364D01*
X178492550Y-38976646D01*
X178474279Y-38754400D01*
X178472596Y-38744238D01*
X178418710Y-38529708D01*
X178415389Y-38519953D01*
X178327193Y-38317118D01*
X178322315Y-38308020D01*
X178249224Y-38195038D01*
X178238538Y-38185835D01*
X178228973Y-38190238D01*
X177169095Y-39250115D01*
X177106783Y-39284141D01*
X177035967Y-39279076D01*
X176990905Y-39250115D01*
X176809885Y-39069095D01*
X176775859Y-39006783D01*
X176780924Y-38935968D01*
X176809885Y-38890905D01*
X177868990Y-37831799D01*
X177876010Y-37818943D01*
X177868237Y-37808274D01*
X177865902Y-37806430D01*
X177857320Y-37800729D01*
X177663678Y-37693833D01*
X177654273Y-37689606D01*
X177544323Y-37650671D01*
X177486786Y-37609077D01*
X177460870Y-37542980D01*
X177474804Y-37473364D01*
X177524162Y-37422332D01*
X177543933Y-37413264D01*
X177653698Y-37373989D01*
X177665531Y-37370399D01*
X177690143Y-37364234D01*
X177981619Y-37291223D01*
X177993725Y-37288816D01*
X178316052Y-37241003D01*
X178328348Y-37239792D01*
X178566147Y-37228110D01*
X178618217Y-37225552D01*
X178640845Y-37226478D01*
X178642929Y-37226752D01*
X178645773Y-37227127D01*
X178645775Y-37227127D01*
X178653302Y-37228118D01*
X178688238Y-37224261D01*
X178702065Y-37223500D01*
X178902233Y-37223500D01*
X178919987Y-37224757D01*
X178942864Y-37228013D01*
X178949361Y-37228081D01*
X178952101Y-37228110D01*
X178952105Y-37228110D01*
X178956228Y-37228153D01*
X178962338Y-37227414D01*
X178963577Y-37227264D01*
X178973761Y-37226449D01*
X179326421Y-37212592D01*
X179328866Y-37212303D01*
X179328874Y-37212302D01*
X179566130Y-37184220D01*
X179694332Y-37169046D01*
X179833242Y-37141415D01*
X180055261Y-37097253D01*
X180055272Y-37097250D01*
X180057692Y-37096769D01*
X180060068Y-37096099D01*
X180060080Y-37096096D01*
X180411872Y-36996880D01*
X180411877Y-36996878D01*
X180414261Y-36996206D01*
X180761842Y-36867977D01*
X180775749Y-36861566D01*
X181031442Y-36743689D01*
X181098289Y-36712872D01*
X181100428Y-36711674D01*
X181100438Y-36711669D01*
X181419379Y-36533054D01*
X181421531Y-36531849D01*
X181433142Y-36524091D01*
X181727508Y-36327402D01*
X181727512Y-36327399D01*
X181729573Y-36326022D01*
X181937137Y-36162392D01*
X182018568Y-36098197D01*
X182018573Y-36098193D01*
X182020516Y-36096661D01*
X182034356Y-36083868D01*
X182268033Y-35867859D01*
X182277907Y-35859626D01*
X182280433Y-35857729D01*
X182280436Y-35857727D01*
X182283737Y-35855248D01*
X182288542Y-35850543D01*
X182290333Y-35848790D01*
X182290337Y-35848786D01*
X182293286Y-35845898D01*
X182312506Y-35821386D01*
X182322565Y-35810038D01*
X186939436Y-31193167D01*
X186951827Y-31182300D01*
X186967320Y-31170412D01*
X186967321Y-31170411D01*
X186973347Y-31165787D01*
X186986575Y-31149276D01*
X187000293Y-31134697D01*
X187220913Y-30934739D01*
X187230471Y-30926895D01*
X187492279Y-30732725D01*
X187502560Y-30725855D01*
X187733849Y-30587225D01*
X187782149Y-30558276D01*
X187793045Y-30552451D01*
X187906352Y-30498861D01*
X188087722Y-30413080D01*
X188099145Y-30408349D01*
X188311269Y-30332449D01*
X188406042Y-30298538D01*
X188417868Y-30294951D01*
X188734064Y-30215749D01*
X188746191Y-30213337D01*
X188971341Y-30179939D01*
X189068624Y-30165509D01*
X189080920Y-30164298D01*
X189318667Y-30152618D01*
X189370902Y-30150052D01*
X189393529Y-30150978D01*
X189398455Y-30151627D01*
X189398461Y-30151627D01*
X189405988Y-30152618D01*
X189440924Y-30148761D01*
X189454751Y-30148000D01*
X190542845Y-30148000D01*
X190610966Y-30168002D01*
G37*
%TD.AperFunction*%
%TA.AperFunction,Conductor*%
G36*
X171692700Y-37214578D02*
G01*
X171712058Y-37217127D01*
X171712062Y-37217127D01*
X171719589Y-37218118D01*
X171731329Y-37216822D01*
X171734941Y-37216423D01*
X171758654Y-37216049D01*
X171864185Y-37224355D01*
X171883694Y-37227444D01*
X172008583Y-37257428D01*
X172027366Y-37263532D01*
X172146017Y-37312678D01*
X172163630Y-37321653D01*
X172190417Y-37338069D01*
X172238048Y-37390718D01*
X172249653Y-37460759D01*
X172221548Y-37525956D01*
X172162657Y-37565609D01*
X172124580Y-37571500D01*
X171131866Y-37571500D01*
X171069684Y-37578255D01*
X170933295Y-37629385D01*
X170816739Y-37716739D01*
X170729385Y-37833295D01*
X170678255Y-37969684D01*
X170671500Y-38031866D01*
X170671500Y-39320714D01*
X170651498Y-39388835D01*
X170601230Y-39433719D01*
X170553717Y-39457150D01*
X170538498Y-39463453D01*
X170373516Y-39519457D01*
X170357596Y-39523723D01*
X170186715Y-39557713D01*
X170170376Y-39559864D01*
X170028548Y-39569161D01*
X170003857Y-39568353D01*
X170002493Y-39568173D01*
X170002490Y-39568173D01*
X169994964Y-39567182D01*
X169960028Y-39571039D01*
X169946201Y-39571800D01*
X165641795Y-39571800D01*
X165573674Y-39551798D01*
X165527181Y-39498142D01*
X165517077Y-39427868D01*
X165521237Y-39409171D01*
X165559415Y-39283516D01*
X165561594Y-39273436D01*
X165590702Y-39052338D01*
X165591221Y-39045663D01*
X165592744Y-38983364D01*
X165592550Y-38976646D01*
X165574279Y-38754400D01*
X165572596Y-38744238D01*
X165518710Y-38529708D01*
X165515389Y-38519953D01*
X165427193Y-38317118D01*
X165422315Y-38308020D01*
X165349224Y-38195038D01*
X165338538Y-38185835D01*
X165328973Y-38190238D01*
X164269095Y-39250115D01*
X164206783Y-39284141D01*
X164135967Y-39279076D01*
X164090905Y-39250115D01*
X163909885Y-39069095D01*
X163875859Y-39006783D01*
X163880924Y-38935968D01*
X163909885Y-38890905D01*
X164968990Y-37831799D01*
X164976010Y-37818943D01*
X164968237Y-37808274D01*
X164965902Y-37806430D01*
X164957320Y-37800729D01*
X164763678Y-37693833D01*
X164754273Y-37689606D01*
X164635444Y-37647527D01*
X164577907Y-37605933D01*
X164551991Y-37539836D01*
X164565925Y-37470220D01*
X164615283Y-37419188D01*
X164635054Y-37410120D01*
X164639563Y-37408507D01*
X164763842Y-37364038D01*
X164775668Y-37360451D01*
X164778639Y-37359707D01*
X164846475Y-37342715D01*
X165091864Y-37281249D01*
X165103991Y-37278837D01*
X165359066Y-37241000D01*
X165426424Y-37231009D01*
X165438720Y-37229798D01*
X165676467Y-37218118D01*
X165728702Y-37215552D01*
X165751329Y-37216478D01*
X165756255Y-37217127D01*
X165756261Y-37217127D01*
X165763788Y-37218118D01*
X165798724Y-37214261D01*
X165812551Y-37213500D01*
X171676254Y-37213500D01*
X171692700Y-37214578D01*
G37*
%TD.AperFunction*%
%TA.AperFunction,Conductor*%
G36*
X195744162Y-34380273D02*
G01*
X195798986Y-34425382D01*
X195820720Y-34492970D01*
X195811296Y-34541594D01*
X195811318Y-34541600D01*
X195811248Y-34541840D01*
X195810399Y-34546222D01*
X195809109Y-34549203D01*
X195770061Y-34683605D01*
X195770101Y-34697706D01*
X195777370Y-34701000D01*
X197373000Y-34701000D01*
X197441121Y-34721002D01*
X197487614Y-34774658D01*
X197499000Y-34827000D01*
X197499000Y-38284884D01*
X197503475Y-38300123D01*
X197504865Y-38301328D01*
X197512548Y-38302999D01*
X197621619Y-38302999D01*
X197689740Y-38323001D01*
X197736233Y-38376657D01*
X197746337Y-38446931D01*
X197716843Y-38511511D01*
X197704697Y-38523730D01*
X197678951Y-38546309D01*
X197665875Y-38556343D01*
X197503425Y-38664888D01*
X197489151Y-38673129D01*
X197313925Y-38759541D01*
X197298698Y-38765848D01*
X197113697Y-38828647D01*
X197097778Y-38832913D01*
X196906152Y-38871030D01*
X196889812Y-38873181D01*
X196726885Y-38883861D01*
X196702194Y-38883053D01*
X196700830Y-38882873D01*
X196700827Y-38882873D01*
X196693301Y-38881882D01*
X196662858Y-38885243D01*
X196658365Y-38885739D01*
X196644538Y-38886500D01*
X193059443Y-38886500D01*
X193041689Y-38885243D01*
X193037684Y-38884673D01*
X193018812Y-38881987D01*
X193012701Y-38881923D01*
X193009583Y-38881890D01*
X193009578Y-38881890D01*
X193005448Y-38881847D01*
X193001342Y-38882344D01*
X193000578Y-38882386D01*
X192994058Y-38882964D01*
X192708224Y-38899015D01*
X192414737Y-38948880D01*
X192128680Y-39031292D01*
X192125412Y-39032646D01*
X192125411Y-39032646D01*
X191856916Y-39143859D01*
X191856911Y-39143862D01*
X191853648Y-39145213D01*
X191593101Y-39289213D01*
X191590225Y-39291254D01*
X191587221Y-39293141D01*
X191586297Y-39291670D01*
X191525521Y-39312380D01*
X191456606Y-39295312D01*
X191407859Y-39243696D01*
X191395205Y-39170049D01*
X191410702Y-39052338D01*
X191411221Y-39045663D01*
X191412744Y-38983364D01*
X191412550Y-38976646D01*
X191394279Y-38754400D01*
X191392596Y-38744238D01*
X191338710Y-38529708D01*
X191335389Y-38519953D01*
X191247193Y-38317118D01*
X191242315Y-38308020D01*
X191169224Y-38195038D01*
X191158538Y-38185835D01*
X191148973Y-38190238D01*
X190089095Y-39250115D01*
X190026783Y-39284141D01*
X189955967Y-39279076D01*
X189910905Y-39250115D01*
X189729885Y-39069095D01*
X189695859Y-39006783D01*
X189700924Y-38935968D01*
X189729885Y-38890905D01*
X190788990Y-37831799D01*
X190796010Y-37818943D01*
X190788237Y-37808274D01*
X190785902Y-37806430D01*
X190777320Y-37800729D01*
X190745020Y-37782898D01*
X190723195Y-37760871D01*
X195768456Y-37760871D01*
X195809107Y-37900790D01*
X195815352Y-37915221D01*
X195891911Y-38044678D01*
X195901551Y-38057104D01*
X196007896Y-38163449D01*
X196020322Y-38173089D01*
X196149779Y-38249648D01*
X196164210Y-38255893D01*
X196310065Y-38298269D01*
X196322667Y-38300570D01*
X196351084Y-38302807D01*
X196356014Y-38303000D01*
X196972885Y-38303000D01*
X196988124Y-38298525D01*
X196989329Y-38297135D01*
X196991000Y-38289452D01*
X196991000Y-37767115D01*
X196986525Y-37751876D01*
X196985135Y-37750671D01*
X196977452Y-37749000D01*
X195783122Y-37749000D01*
X195769591Y-37752973D01*
X195768456Y-37760871D01*
X190723195Y-37760871D01*
X190695049Y-37732465D01*
X190680277Y-37663022D01*
X190705393Y-37596617D01*
X190762424Y-37554332D01*
X190789467Y-37547667D01*
X190972611Y-37523556D01*
X190972620Y-37523554D01*
X190975350Y-37523195D01*
X190978045Y-37522598D01*
X190978048Y-37522597D01*
X191333339Y-37443830D01*
X191333338Y-37443830D01*
X191336023Y-37443235D01*
X191338640Y-37442410D01*
X191338647Y-37442408D01*
X191685727Y-37332974D01*
X191685735Y-37332971D01*
X191688355Y-37332145D01*
X192029665Y-37190770D01*
X192032105Y-37189500D01*
X192032111Y-37189497D01*
X192210239Y-37096769D01*
X192357353Y-37020186D01*
X192668928Y-36821691D01*
X192896896Y-36646765D01*
X192959849Y-36598460D01*
X192959855Y-36598455D01*
X192962017Y-36596796D01*
X193077614Y-36490871D01*
X195768456Y-36490871D01*
X195809107Y-36630790D01*
X195815352Y-36645221D01*
X195891912Y-36774678D01*
X195898189Y-36782770D01*
X195924139Y-36848854D01*
X195910241Y-36918477D01*
X195898189Y-36937230D01*
X195891912Y-36945322D01*
X195815352Y-37074779D01*
X195809107Y-37089210D01*
X195770061Y-37223605D01*
X195770101Y-37237706D01*
X195777370Y-37241000D01*
X196972885Y-37241000D01*
X196988124Y-37236525D01*
X196989329Y-37235135D01*
X196991000Y-37227452D01*
X196991000Y-36497115D01*
X196986525Y-36481876D01*
X196985135Y-36480671D01*
X196977452Y-36479000D01*
X195783122Y-36479000D01*
X195769591Y-36482973D01*
X195768456Y-36490871D01*
X193077614Y-36490871D01*
X193212014Y-36367716D01*
X193221485Y-36359853D01*
X193221988Y-36359476D01*
X193221993Y-36359472D01*
X193225281Y-36357003D01*
X193234830Y-36347652D01*
X193243881Y-36336110D01*
X193254045Y-36323147D01*
X193264103Y-36311800D01*
X194355033Y-35220871D01*
X195768456Y-35220871D01*
X195809107Y-35360790D01*
X195815352Y-35375221D01*
X195891912Y-35504678D01*
X195898189Y-35512770D01*
X195924139Y-35578854D01*
X195910241Y-35648477D01*
X195898189Y-35667230D01*
X195891912Y-35675322D01*
X195815352Y-35804779D01*
X195809107Y-35819210D01*
X195770061Y-35953605D01*
X195770101Y-35967706D01*
X195777370Y-35971000D01*
X196972885Y-35971000D01*
X196988124Y-35966525D01*
X196989329Y-35965135D01*
X196991000Y-35957452D01*
X196991000Y-35227115D01*
X196986525Y-35211876D01*
X196985135Y-35210671D01*
X196977452Y-35209000D01*
X195783122Y-35209000D01*
X195769591Y-35212973D01*
X195768456Y-35220871D01*
X194355033Y-35220871D01*
X194607089Y-34968815D01*
X194619472Y-34957954D01*
X194640996Y-34941438D01*
X194653298Y-34926083D01*
X194667669Y-34910916D01*
X194673256Y-34905923D01*
X194811317Y-34782544D01*
X194822349Y-34773746D01*
X195001288Y-34646782D01*
X195013245Y-34639270D01*
X195024697Y-34632941D01*
X195118371Y-34581169D01*
X195205248Y-34533154D01*
X195217974Y-34527025D01*
X195314475Y-34487053D01*
X195420658Y-34443071D01*
X195433995Y-34438404D01*
X195644803Y-34377671D01*
X195658576Y-34374528D01*
X195673653Y-34371966D01*
X195744162Y-34380273D01*
G37*
%TD.AperFunction*%
%TA.AperFunction,Conductor*%
G36*
X206229409Y-26208002D02*
G01*
X206275902Y-26261658D01*
X206286006Y-26331932D01*
X206256512Y-26396512D01*
X206236941Y-26414760D01*
X206219433Y-26427905D01*
X206211726Y-26434748D01*
X206064590Y-26588717D01*
X206058104Y-26596727D01*
X205938098Y-26772649D01*
X205933000Y-26781623D01*
X205843338Y-26974783D01*
X205839775Y-26984470D01*
X205784389Y-27184183D01*
X205785912Y-27192607D01*
X205798292Y-27196000D01*
X207248000Y-27196000D01*
X207316121Y-27216002D01*
X207362614Y-27269658D01*
X207374000Y-27322000D01*
X207374000Y-27578000D01*
X207353998Y-27646121D01*
X207300342Y-27692614D01*
X207248000Y-27704000D01*
X205803225Y-27704000D01*
X205789694Y-27707973D01*
X205788257Y-27717966D01*
X205818565Y-27852446D01*
X205821645Y-27862275D01*
X205868674Y-27978096D01*
X205875770Y-28048737D01*
X205843548Y-28112001D01*
X205782238Y-28147801D01*
X205751931Y-28151500D01*
X205308930Y-28151500D01*
X205291176Y-28150243D01*
X205289335Y-28149981D01*
X205268299Y-28146987D01*
X205261744Y-28146918D01*
X205259061Y-28146890D01*
X205259058Y-28146890D01*
X205254935Y-28146847D01*
X205250847Y-28147342D01*
X205250841Y-28147342D01*
X205229032Y-28149981D01*
X205222138Y-28150623D01*
X205074582Y-28160294D01*
X205074577Y-28160295D01*
X205070467Y-28160564D01*
X205066427Y-28161368D01*
X205066424Y-28161368D01*
X204893205Y-28195823D01*
X204893199Y-28195825D01*
X204889155Y-28196629D01*
X204885249Y-28197955D01*
X204885245Y-28197956D01*
X204725246Y-28252269D01*
X204714102Y-28256052D01*
X204710409Y-28257873D01*
X204710407Y-28257874D01*
X204552007Y-28335988D01*
X204552002Y-28335991D01*
X204548303Y-28337815D01*
X204544870Y-28340109D01*
X204398025Y-28438227D01*
X204398020Y-28438231D01*
X204394594Y-28440520D01*
X204391500Y-28443234D01*
X204391494Y-28443238D01*
X204292462Y-28530088D01*
X204285036Y-28536117D01*
X204267305Y-28549430D01*
X204264005Y-28551908D01*
X204259439Y-28556379D01*
X204259210Y-28556555D01*
X204259029Y-28556780D01*
X204254456Y-28561259D01*
X204254406Y-28561323D01*
X204194856Y-28598230D01*
X204164955Y-28602120D01*
X204163146Y-28601882D01*
X204128213Y-28605739D01*
X204114385Y-28606500D01*
X203804500Y-28606500D01*
X203736379Y-28586498D01*
X203689886Y-28532842D01*
X203678500Y-28480500D01*
X203678500Y-28388498D01*
X203678307Y-28386042D01*
X203676067Y-28357579D01*
X203676066Y-28357574D01*
X203675562Y-28351169D01*
X203646278Y-28250372D01*
X203631357Y-28199012D01*
X203631356Y-28199010D01*
X203629145Y-28191399D01*
X203625576Y-28185364D01*
X203616929Y-28115307D01*
X203647707Y-28051329D01*
X203708188Y-28014147D01*
X203754106Y-28010384D01*
X203776440Y-28012672D01*
X203782854Y-28013000D01*
X203807885Y-28013000D01*
X203823124Y-28008525D01*
X203824329Y-28007135D01*
X203826000Y-27999452D01*
X203826000Y-27994884D01*
X204334000Y-27994884D01*
X204338475Y-28010123D01*
X204339865Y-28011328D01*
X204347548Y-28012999D01*
X204377095Y-28012999D01*
X204383614Y-28012662D01*
X204479206Y-28002743D01*
X204492600Y-27999851D01*
X204646784Y-27948412D01*
X204659962Y-27942239D01*
X204797807Y-27856937D01*
X204809208Y-27847901D01*
X204923739Y-27733171D01*
X204932751Y-27721760D01*
X205017816Y-27583757D01*
X205023963Y-27570576D01*
X205075138Y-27416290D01*
X205078005Y-27402914D01*
X205087672Y-27308562D01*
X205088000Y-27302146D01*
X205088000Y-27052115D01*
X205083525Y-27036876D01*
X205082135Y-27035671D01*
X205074452Y-27034000D01*
X204352115Y-27034000D01*
X204336876Y-27038475D01*
X204335671Y-27039865D01*
X204334000Y-27047548D01*
X204334000Y-27994884D01*
X203826000Y-27994884D01*
X203826000Y-26652000D01*
X203846002Y-26583879D01*
X203899658Y-26537386D01*
X203952000Y-26526000D01*
X205069884Y-26526000D01*
X205085123Y-26521525D01*
X205086328Y-26520135D01*
X205087999Y-26512452D01*
X205087999Y-26314000D01*
X205108001Y-26245879D01*
X205161657Y-26199386D01*
X205213999Y-26188000D01*
X206161288Y-26188000D01*
X206229409Y-26208002D01*
G37*
%TD.AperFunction*%
%TD*%
M02*
