M48
; DRILL file {KiCad (7.0.0)} date Wed Aug  9 19:52:55 2023
; FORMAT={-:-/ absolute / inch / decimal}
; #@! TF.CreationDate,2023-08-09T19:52:55-07:00
; #@! TF.GenerationSoftware,Kicad,Pcbnew,(7.0.0)
; #@! TF.FileFunction,Plated,1,2,PTH
FMAT,2
INCH
; #@! TA.AperFunction,Plated,PTH,ViaDrill
T1C0.0157
; #@! TA.AperFunction,Plated,PTH,ComponentDrill
T2C0.0394
; #@! TA.AperFunction,Plated,PTH,ComponentDrill
T3C0.0433
%
G90
G05
T1
X7.8799Y-1.1008
T2
X3.726Y-1.5346
X3.8244Y-1.5346
X3.9228Y-1.5346
X4.2339Y-1.5346
X4.3323Y-1.5346
X4.4307Y-1.5346
X4.7421Y-1.5346
X4.8406Y-1.5346
X4.939Y-1.5346
X5.2504Y-1.5346
X5.3488Y-1.5346
X5.4472Y-1.5346
X5.7594Y-1.5346
X5.8579Y-1.5346
X5.9563Y-1.5346
X6.2669Y-1.5346
X6.3654Y-1.5346
X6.4638Y-1.5346
X6.7748Y-1.5346
X6.8732Y-1.5346
X6.9717Y-1.5346
X7.2835Y-1.5346
X7.3819Y-1.5346
X7.4803Y-1.5346
X8.1543Y-1.0807
X8.1543Y-1.1807
X8.1543Y-1.2807
X8.1543Y-1.3807
X8.1543Y-1.4807
X8.1543Y-1.5807
T3
G00X3.6354Y-1.2531
M15
G01X3.6354Y-1.2256
M16
G05
G00X4.0134Y-1.2531
M15
G01X4.0134Y-1.2256
M16
G05
G00X4.1433Y-1.2531
M15
G01X4.1433Y-1.2256
M16
G05
G00X4.5213Y-1.2531
M15
G01X4.5213Y-1.2256
M16
G05
G00X4.6516Y-1.2531
M15
G01X4.6516Y-1.2256
M16
G05
G00X5.0295Y-1.2531
M15
G01X5.0295Y-1.2256
M16
G05
G00X5.1598Y-1.2531
M15
G01X5.1598Y-1.2256
M16
G05
G00X5.5378Y-1.2531
M15
G01X5.5378Y-1.2256
M16
G05
G00X5.6689Y-1.2531
M15
G01X5.6689Y-1.2256
M16
G05
G00X6.0469Y-1.2531
M15
G01X6.0469Y-1.2256
M16
G05
G00X6.1764Y-1.2531
M15
G01X6.1764Y-1.2256
M16
G05
G00X6.5543Y-1.2531
M15
G01X6.5543Y-1.2256
M16
G05
G00X6.6843Y-1.2531
M15
G01X6.6843Y-1.2256
M16
G05
G00X7.0622Y-1.2531
M15
G01X7.0622Y-1.2256
M16
G05
G00X7.1929Y-1.2531
M15
G01X7.1929Y-1.2256
M16
G05
G00X7.5709Y-1.2531
M15
G01X7.5709Y-1.2256
M16
G05
T0
M30
