%TF.GenerationSoftware,KiCad,Pcbnew,(7.0.0)*%
%TF.CreationDate,2023-08-09T19:52:53-07:00*%
%TF.ProjectId,8-pots-1-mux,382d706f-7473-42d3-912d-6d75782e6b69,rev?*%
%TF.SameCoordinates,Original*%
%TF.FileFunction,Legend,Bot*%
%TF.FilePolarity,Positive*%
%FSLAX46Y46*%
G04 Gerber Fmt 4.6, Leading zero omitted, Abs format (unit mm)*
G04 Created by KiCad (PCBNEW (7.0.0)) date 2023-08-09 19:52:53*
%MOMM*%
%LPD*%
G01*
G04 APERTURE LIST*
%ADD10C,0.300000*%
%ADD11C,0.150000*%
%ADD12C,0.375000*%
G04 APERTURE END LIST*
D10*
X110875426Y-27491071D02*
X110518283Y-28491071D01*
X110518283Y-28491071D02*
X110161140Y-27491071D01*
X109303997Y-26991071D02*
X109161140Y-26991071D01*
X109161140Y-26991071D02*
X109018283Y-27062500D01*
X109018283Y-27062500D02*
X108946855Y-27133928D01*
X108946855Y-27133928D02*
X108875426Y-27276785D01*
X108875426Y-27276785D02*
X108803997Y-27562500D01*
X108803997Y-27562500D02*
X108803997Y-27919642D01*
X108803997Y-27919642D02*
X108875426Y-28205357D01*
X108875426Y-28205357D02*
X108946855Y-28348214D01*
X108946855Y-28348214D02*
X109018283Y-28419642D01*
X109018283Y-28419642D02*
X109161140Y-28491071D01*
X109161140Y-28491071D02*
X109303997Y-28491071D01*
X109303997Y-28491071D02*
X109446855Y-28419642D01*
X109446855Y-28419642D02*
X109518283Y-28348214D01*
X109518283Y-28348214D02*
X109589712Y-28205357D01*
X109589712Y-28205357D02*
X109661140Y-27919642D01*
X109661140Y-27919642D02*
X109661140Y-27562500D01*
X109661140Y-27562500D02*
X109589712Y-27276785D01*
X109589712Y-27276785D02*
X109518283Y-27133928D01*
X109518283Y-27133928D02*
X109446855Y-27062500D01*
X109446855Y-27062500D02*
X109303997Y-26991071D01*
X108161141Y-28348214D02*
X108089712Y-28419642D01*
X108089712Y-28419642D02*
X108161141Y-28491071D01*
X108161141Y-28491071D02*
X108232569Y-28419642D01*
X108232569Y-28419642D02*
X108161141Y-28348214D01*
X108161141Y-28348214D02*
X108161141Y-28491071D01*
X107518283Y-27133928D02*
X107446855Y-27062500D01*
X107446855Y-27062500D02*
X107303998Y-26991071D01*
X107303998Y-26991071D02*
X106946855Y-26991071D01*
X106946855Y-26991071D02*
X106803998Y-27062500D01*
X106803998Y-27062500D02*
X106732569Y-27133928D01*
X106732569Y-27133928D02*
X106661140Y-27276785D01*
X106661140Y-27276785D02*
X106661140Y-27419642D01*
X106661140Y-27419642D02*
X106732569Y-27633928D01*
X106732569Y-27633928D02*
X107589712Y-28491071D01*
X107589712Y-28491071D02*
X106661140Y-28491071D01*
X105189712Y-27133928D02*
X105118284Y-27062500D01*
X105118284Y-27062500D02*
X104975427Y-26991071D01*
X104975427Y-26991071D02*
X104618284Y-26991071D01*
X104618284Y-26991071D02*
X104475427Y-27062500D01*
X104475427Y-27062500D02*
X104403998Y-27133928D01*
X104403998Y-27133928D02*
X104332569Y-27276785D01*
X104332569Y-27276785D02*
X104332569Y-27419642D01*
X104332569Y-27419642D02*
X104403998Y-27633928D01*
X104403998Y-27633928D02*
X105261141Y-28491071D01*
X105261141Y-28491071D02*
X104332569Y-28491071D01*
X103403998Y-26991071D02*
X103261141Y-26991071D01*
X103261141Y-26991071D02*
X103118284Y-27062500D01*
X103118284Y-27062500D02*
X103046856Y-27133928D01*
X103046856Y-27133928D02*
X102975427Y-27276785D01*
X102975427Y-27276785D02*
X102903998Y-27562500D01*
X102903998Y-27562500D02*
X102903998Y-27919642D01*
X102903998Y-27919642D02*
X102975427Y-28205357D01*
X102975427Y-28205357D02*
X103046856Y-28348214D01*
X103046856Y-28348214D02*
X103118284Y-28419642D01*
X103118284Y-28419642D02*
X103261141Y-28491071D01*
X103261141Y-28491071D02*
X103403998Y-28491071D01*
X103403998Y-28491071D02*
X103546856Y-28419642D01*
X103546856Y-28419642D02*
X103618284Y-28348214D01*
X103618284Y-28348214D02*
X103689713Y-28205357D01*
X103689713Y-28205357D02*
X103761141Y-27919642D01*
X103761141Y-27919642D02*
X103761141Y-27562500D01*
X103761141Y-27562500D02*
X103689713Y-27276785D01*
X103689713Y-27276785D02*
X103618284Y-27133928D01*
X103618284Y-27133928D02*
X103546856Y-27062500D01*
X103546856Y-27062500D02*
X103403998Y-26991071D01*
X102332570Y-27133928D02*
X102261142Y-27062500D01*
X102261142Y-27062500D02*
X102118285Y-26991071D01*
X102118285Y-26991071D02*
X101761142Y-26991071D01*
X101761142Y-26991071D02*
X101618285Y-27062500D01*
X101618285Y-27062500D02*
X101546856Y-27133928D01*
X101546856Y-27133928D02*
X101475427Y-27276785D01*
X101475427Y-27276785D02*
X101475427Y-27419642D01*
X101475427Y-27419642D02*
X101546856Y-27633928D01*
X101546856Y-27633928D02*
X102403999Y-28491071D01*
X102403999Y-28491071D02*
X101475427Y-28491071D01*
X100975428Y-26991071D02*
X100046856Y-26991071D01*
X100046856Y-26991071D02*
X100546856Y-27562500D01*
X100546856Y-27562500D02*
X100332571Y-27562500D01*
X100332571Y-27562500D02*
X100189714Y-27633928D01*
X100189714Y-27633928D02*
X100118285Y-27705357D01*
X100118285Y-27705357D02*
X100046856Y-27848214D01*
X100046856Y-27848214D02*
X100046856Y-28205357D01*
X100046856Y-28205357D02*
X100118285Y-28348214D01*
X100118285Y-28348214D02*
X100189714Y-28419642D01*
X100189714Y-28419642D02*
X100332571Y-28491071D01*
X100332571Y-28491071D02*
X100761142Y-28491071D01*
X100761142Y-28491071D02*
X100903999Y-28419642D01*
X100903999Y-28419642D02*
X100975428Y-28348214D01*
X99404000Y-28348214D02*
X99332571Y-28419642D01*
X99332571Y-28419642D02*
X99404000Y-28491071D01*
X99404000Y-28491071D02*
X99475428Y-28419642D01*
X99475428Y-28419642D02*
X99404000Y-28348214D01*
X99404000Y-28348214D02*
X99404000Y-28491071D01*
X98403999Y-26991071D02*
X98261142Y-26991071D01*
X98261142Y-26991071D02*
X98118285Y-27062500D01*
X98118285Y-27062500D02*
X98046857Y-27133928D01*
X98046857Y-27133928D02*
X97975428Y-27276785D01*
X97975428Y-27276785D02*
X97903999Y-27562500D01*
X97903999Y-27562500D02*
X97903999Y-27919642D01*
X97903999Y-27919642D02*
X97975428Y-28205357D01*
X97975428Y-28205357D02*
X98046857Y-28348214D01*
X98046857Y-28348214D02*
X98118285Y-28419642D01*
X98118285Y-28419642D02*
X98261142Y-28491071D01*
X98261142Y-28491071D02*
X98403999Y-28491071D01*
X98403999Y-28491071D02*
X98546857Y-28419642D01*
X98546857Y-28419642D02*
X98618285Y-28348214D01*
X98618285Y-28348214D02*
X98689714Y-28205357D01*
X98689714Y-28205357D02*
X98761142Y-27919642D01*
X98761142Y-27919642D02*
X98761142Y-27562500D01*
X98761142Y-27562500D02*
X98689714Y-27276785D01*
X98689714Y-27276785D02*
X98618285Y-27133928D01*
X98618285Y-27133928D02*
X98546857Y-27062500D01*
X98546857Y-27062500D02*
X98403999Y-26991071D01*
X97046857Y-27633928D02*
X97189714Y-27562500D01*
X97189714Y-27562500D02*
X97261143Y-27491071D01*
X97261143Y-27491071D02*
X97332571Y-27348214D01*
X97332571Y-27348214D02*
X97332571Y-27276785D01*
X97332571Y-27276785D02*
X97261143Y-27133928D01*
X97261143Y-27133928D02*
X97189714Y-27062500D01*
X97189714Y-27062500D02*
X97046857Y-26991071D01*
X97046857Y-26991071D02*
X96761143Y-26991071D01*
X96761143Y-26991071D02*
X96618286Y-27062500D01*
X96618286Y-27062500D02*
X96546857Y-27133928D01*
X96546857Y-27133928D02*
X96475428Y-27276785D01*
X96475428Y-27276785D02*
X96475428Y-27348214D01*
X96475428Y-27348214D02*
X96546857Y-27491071D01*
X96546857Y-27491071D02*
X96618286Y-27562500D01*
X96618286Y-27562500D02*
X96761143Y-27633928D01*
X96761143Y-27633928D02*
X97046857Y-27633928D01*
X97046857Y-27633928D02*
X97189714Y-27705357D01*
X97189714Y-27705357D02*
X97261143Y-27776785D01*
X97261143Y-27776785D02*
X97332571Y-27919642D01*
X97332571Y-27919642D02*
X97332571Y-28205357D01*
X97332571Y-28205357D02*
X97261143Y-28348214D01*
X97261143Y-28348214D02*
X97189714Y-28419642D01*
X97189714Y-28419642D02*
X97046857Y-28491071D01*
X97046857Y-28491071D02*
X96761143Y-28491071D01*
X96761143Y-28491071D02*
X96618286Y-28419642D01*
X96618286Y-28419642D02*
X96546857Y-28348214D01*
X96546857Y-28348214D02*
X96475428Y-28205357D01*
X96475428Y-28205357D02*
X96475428Y-27919642D01*
X96475428Y-27919642D02*
X96546857Y-27776785D01*
X96546857Y-27776785D02*
X96618286Y-27705357D01*
X96618286Y-27705357D02*
X96761143Y-27633928D01*
X95832572Y-28348214D02*
X95761143Y-28419642D01*
X95761143Y-28419642D02*
X95832572Y-28491071D01*
X95832572Y-28491071D02*
X95904000Y-28419642D01*
X95904000Y-28419642D02*
X95832572Y-28348214D01*
X95832572Y-28348214D02*
X95832572Y-28491071D01*
X94832571Y-26991071D02*
X94689714Y-26991071D01*
X94689714Y-26991071D02*
X94546857Y-27062500D01*
X94546857Y-27062500D02*
X94475429Y-27133928D01*
X94475429Y-27133928D02*
X94404000Y-27276785D01*
X94404000Y-27276785D02*
X94332571Y-27562500D01*
X94332571Y-27562500D02*
X94332571Y-27919642D01*
X94332571Y-27919642D02*
X94404000Y-28205357D01*
X94404000Y-28205357D02*
X94475429Y-28348214D01*
X94475429Y-28348214D02*
X94546857Y-28419642D01*
X94546857Y-28419642D02*
X94689714Y-28491071D01*
X94689714Y-28491071D02*
X94832571Y-28491071D01*
X94832571Y-28491071D02*
X94975429Y-28419642D01*
X94975429Y-28419642D02*
X95046857Y-28348214D01*
X95046857Y-28348214D02*
X95118286Y-28205357D01*
X95118286Y-28205357D02*
X95189714Y-27919642D01*
X95189714Y-27919642D02*
X95189714Y-27562500D01*
X95189714Y-27562500D02*
X95118286Y-27276785D01*
X95118286Y-27276785D02*
X95046857Y-27133928D01*
X95046857Y-27133928D02*
X94975429Y-27062500D01*
X94975429Y-27062500D02*
X94832571Y-26991071D01*
X93046858Y-27491071D02*
X93046858Y-28491071D01*
X93404000Y-26919642D02*
X93761143Y-27991071D01*
X93761143Y-27991071D02*
X92832572Y-27991071D01*
D11*
X204522380Y-27336666D02*
X204522380Y-27146190D01*
X204522380Y-27146190D02*
X204570000Y-27050952D01*
X204570000Y-27050952D02*
X204617619Y-27003333D01*
X204617619Y-27003333D02*
X204760476Y-26908095D01*
X204760476Y-26908095D02*
X204950952Y-26860476D01*
X204950952Y-26860476D02*
X205331904Y-26860476D01*
X205331904Y-26860476D02*
X205427142Y-26908095D01*
X205427142Y-26908095D02*
X205474761Y-26955714D01*
X205474761Y-26955714D02*
X205522380Y-27050952D01*
X205522380Y-27050952D02*
X205522380Y-27241428D01*
X205522380Y-27241428D02*
X205474761Y-27336666D01*
X205474761Y-27336666D02*
X205427142Y-27384285D01*
X205427142Y-27384285D02*
X205331904Y-27431904D01*
X205331904Y-27431904D02*
X205093809Y-27431904D01*
X205093809Y-27431904D02*
X204998571Y-27384285D01*
X204998571Y-27384285D02*
X204950952Y-27336666D01*
X204950952Y-27336666D02*
X204903333Y-27241428D01*
X204903333Y-27241428D02*
X204903333Y-27050952D01*
X204903333Y-27050952D02*
X204950952Y-26955714D01*
X204950952Y-26955714D02*
X204998571Y-26908095D01*
X204998571Y-26908095D02*
X205093809Y-26860476D01*
X204522380Y-30136666D02*
X204522380Y-29660476D01*
X204522380Y-29660476D02*
X204998571Y-29612857D01*
X204998571Y-29612857D02*
X204950952Y-29660476D01*
X204950952Y-29660476D02*
X204903333Y-29755714D01*
X204903333Y-29755714D02*
X204903333Y-29993809D01*
X204903333Y-29993809D02*
X204950952Y-30089047D01*
X204950952Y-30089047D02*
X204998571Y-30136666D01*
X204998571Y-30136666D02*
X205093809Y-30184285D01*
X205093809Y-30184285D02*
X205331904Y-30184285D01*
X205331904Y-30184285D02*
X205427142Y-30136666D01*
X205427142Y-30136666D02*
X205474761Y-30089047D01*
X205474761Y-30089047D02*
X205522380Y-29993809D01*
X205522380Y-29993809D02*
X205522380Y-29755714D01*
X205522380Y-29755714D02*
X205474761Y-29660476D01*
X205474761Y-29660476D02*
X205427142Y-29612857D01*
X204855714Y-32841428D02*
X205522380Y-32841428D01*
X204474761Y-32603333D02*
X205189047Y-32365238D01*
X205189047Y-32365238D02*
X205189047Y-32984285D01*
X204522380Y-35070000D02*
X204522380Y-35689047D01*
X204522380Y-35689047D02*
X204903333Y-35355714D01*
X204903333Y-35355714D02*
X204903333Y-35498571D01*
X204903333Y-35498571D02*
X204950952Y-35593809D01*
X204950952Y-35593809D02*
X204998571Y-35641428D01*
X204998571Y-35641428D02*
X205093809Y-35689047D01*
X205093809Y-35689047D02*
X205331904Y-35689047D01*
X205331904Y-35689047D02*
X205427142Y-35641428D01*
X205427142Y-35641428D02*
X205474761Y-35593809D01*
X205474761Y-35593809D02*
X205522380Y-35498571D01*
X205522380Y-35498571D02*
X205522380Y-35212857D01*
X205522380Y-35212857D02*
X205474761Y-35117619D01*
X205474761Y-35117619D02*
X205427142Y-35070000D01*
X204617619Y-37870000D02*
X204570000Y-37917619D01*
X204570000Y-37917619D02*
X204522380Y-38012857D01*
X204522380Y-38012857D02*
X204522380Y-38250952D01*
X204522380Y-38250952D02*
X204570000Y-38346190D01*
X204570000Y-38346190D02*
X204617619Y-38393809D01*
X204617619Y-38393809D02*
X204712857Y-38441428D01*
X204712857Y-38441428D02*
X204808095Y-38441428D01*
X204808095Y-38441428D02*
X204950952Y-38393809D01*
X204950952Y-38393809D02*
X205522380Y-37822381D01*
X205522380Y-37822381D02*
X205522380Y-38441428D01*
X205522380Y-41193809D02*
X205522380Y-40622381D01*
X205522380Y-40908095D02*
X204522380Y-40908095D01*
X204522380Y-40908095D02*
X204665238Y-40812857D01*
X204665238Y-40812857D02*
X204760476Y-40717619D01*
X204760476Y-40717619D02*
X204808095Y-40622381D01*
D12*
X183284857Y-36249571D02*
X183284857Y-34749571D01*
X183284857Y-34749571D02*
X182713428Y-34749571D01*
X182713428Y-34749571D02*
X182570571Y-34821000D01*
X182570571Y-34821000D02*
X182499142Y-34892428D01*
X182499142Y-34892428D02*
X182427714Y-35035285D01*
X182427714Y-35035285D02*
X182427714Y-35249571D01*
X182427714Y-35249571D02*
X182499142Y-35392428D01*
X182499142Y-35392428D02*
X182570571Y-35463857D01*
X182570571Y-35463857D02*
X182713428Y-35535285D01*
X182713428Y-35535285D02*
X183284857Y-35535285D01*
X181784857Y-36249571D02*
X181784857Y-34749571D01*
X181070571Y-36249571D02*
X181070571Y-34749571D01*
X181070571Y-34749571D02*
X180213428Y-36249571D01*
X180213428Y-36249571D02*
X180213428Y-34749571D01*
X179213427Y-34749571D02*
X178927713Y-34749571D01*
X178927713Y-34749571D02*
X178784856Y-34821000D01*
X178784856Y-34821000D02*
X178641999Y-34963857D01*
X178641999Y-34963857D02*
X178570570Y-35249571D01*
X178570570Y-35249571D02*
X178570570Y-35749571D01*
X178570570Y-35749571D02*
X178641999Y-36035285D01*
X178641999Y-36035285D02*
X178784856Y-36178142D01*
X178784856Y-36178142D02*
X178927713Y-36249571D01*
X178927713Y-36249571D02*
X179213427Y-36249571D01*
X179213427Y-36249571D02*
X179356285Y-36178142D01*
X179356285Y-36178142D02*
X179499142Y-36035285D01*
X179499142Y-36035285D02*
X179570570Y-35749571D01*
X179570570Y-35749571D02*
X179570570Y-35249571D01*
X179570570Y-35249571D02*
X179499142Y-34963857D01*
X179499142Y-34963857D02*
X179356285Y-34821000D01*
X179356285Y-34821000D02*
X179213427Y-34749571D01*
X177927713Y-34749571D02*
X177927713Y-35963857D01*
X177927713Y-35963857D02*
X177856284Y-36106714D01*
X177856284Y-36106714D02*
X177784856Y-36178142D01*
X177784856Y-36178142D02*
X177641998Y-36249571D01*
X177641998Y-36249571D02*
X177356284Y-36249571D01*
X177356284Y-36249571D02*
X177213427Y-36178142D01*
X177213427Y-36178142D02*
X177141998Y-36106714D01*
X177141998Y-36106714D02*
X177070570Y-35963857D01*
X177070570Y-35963857D02*
X177070570Y-34749571D01*
X176570569Y-34749571D02*
X175713427Y-34749571D01*
X176141998Y-36249571D02*
X176141998Y-34749571D01*
X171727712Y-36249571D02*
X172584855Y-36249571D01*
X172156284Y-36249571D02*
X172156284Y-34749571D01*
X172156284Y-34749571D02*
X172299141Y-34963857D01*
X172299141Y-34963857D02*
X172441998Y-35106714D01*
X172441998Y-35106714D02*
X172584855Y-35178142D01*
X171084856Y-36106714D02*
X171013427Y-36178142D01*
X171013427Y-36178142D02*
X171084856Y-36249571D01*
X171084856Y-36249571D02*
X171156284Y-36178142D01*
X171156284Y-36178142D02*
X171084856Y-36106714D01*
X171084856Y-36106714D02*
X171084856Y-36249571D01*
X171084856Y-35321000D02*
X171013427Y-35392428D01*
X171013427Y-35392428D02*
X171084856Y-35463857D01*
X171084856Y-35463857D02*
X171156284Y-35392428D01*
X171156284Y-35392428D02*
X171084856Y-35321000D01*
X171084856Y-35321000D02*
X171084856Y-35463857D01*
X170584855Y-34749571D02*
X170084855Y-36249571D01*
X170084855Y-36249571D02*
X169584855Y-34749571D01*
X169084856Y-35678142D02*
X167941999Y-35678142D01*
X168513427Y-36249571D02*
X168513427Y-35106714D01*
X165499141Y-34892428D02*
X165427713Y-34821000D01*
X165427713Y-34821000D02*
X165284856Y-34749571D01*
X165284856Y-34749571D02*
X164927713Y-34749571D01*
X164927713Y-34749571D02*
X164784856Y-34821000D01*
X164784856Y-34821000D02*
X164713427Y-34892428D01*
X164713427Y-34892428D02*
X164641998Y-35035285D01*
X164641998Y-35035285D02*
X164641998Y-35178142D01*
X164641998Y-35178142D02*
X164713427Y-35392428D01*
X164713427Y-35392428D02*
X165570570Y-36249571D01*
X165570570Y-36249571D02*
X164641998Y-36249571D01*
X163999142Y-36106714D02*
X163927713Y-36178142D01*
X163927713Y-36178142D02*
X163999142Y-36249571D01*
X163999142Y-36249571D02*
X164070570Y-36178142D01*
X164070570Y-36178142D02*
X163999142Y-36106714D01*
X163999142Y-36106714D02*
X163999142Y-36249571D01*
X163999142Y-35321000D02*
X163927713Y-35392428D01*
X163927713Y-35392428D02*
X163999142Y-35463857D01*
X163999142Y-35463857D02*
X164070570Y-35392428D01*
X164070570Y-35392428D02*
X163999142Y-35321000D01*
X163999142Y-35321000D02*
X163999142Y-35463857D01*
X163356284Y-36178142D02*
X163141999Y-36249571D01*
X163141999Y-36249571D02*
X162784856Y-36249571D01*
X162784856Y-36249571D02*
X162641999Y-36178142D01*
X162641999Y-36178142D02*
X162570570Y-36106714D01*
X162570570Y-36106714D02*
X162499141Y-35963857D01*
X162499141Y-35963857D02*
X162499141Y-35821000D01*
X162499141Y-35821000D02*
X162570570Y-35678142D01*
X162570570Y-35678142D02*
X162641999Y-35606714D01*
X162641999Y-35606714D02*
X162784856Y-35535285D01*
X162784856Y-35535285D02*
X163070570Y-35463857D01*
X163070570Y-35463857D02*
X163213427Y-35392428D01*
X163213427Y-35392428D02*
X163284856Y-35321000D01*
X163284856Y-35321000D02*
X163356284Y-35178142D01*
X163356284Y-35178142D02*
X163356284Y-35035285D01*
X163356284Y-35035285D02*
X163284856Y-34892428D01*
X163284856Y-34892428D02*
X163213427Y-34821000D01*
X163213427Y-34821000D02*
X163070570Y-34749571D01*
X163070570Y-34749571D02*
X162713427Y-34749571D01*
X162713427Y-34749571D02*
X162499141Y-34821000D01*
X161856285Y-35463857D02*
X161356285Y-35463857D01*
X161141999Y-36249571D02*
X161856285Y-36249571D01*
X161856285Y-36249571D02*
X161856285Y-34749571D01*
X161856285Y-34749571D02*
X161141999Y-34749571D01*
X159784856Y-36249571D02*
X160499142Y-36249571D01*
X160499142Y-36249571D02*
X160499142Y-34749571D01*
X159284856Y-35678142D02*
X158141999Y-35678142D01*
X157499141Y-35821000D02*
X156784856Y-35821000D01*
X157641998Y-36249571D02*
X157141998Y-34749571D01*
X157141998Y-34749571D02*
X156641998Y-36249571D01*
X155384856Y-34749571D02*
X154456284Y-34749571D01*
X154456284Y-34749571D02*
X154956284Y-35321000D01*
X154956284Y-35321000D02*
X154741999Y-35321000D01*
X154741999Y-35321000D02*
X154599142Y-35392428D01*
X154599142Y-35392428D02*
X154527713Y-35463857D01*
X154527713Y-35463857D02*
X154456284Y-35606714D01*
X154456284Y-35606714D02*
X154456284Y-35963857D01*
X154456284Y-35963857D02*
X154527713Y-36106714D01*
X154527713Y-36106714D02*
X154599142Y-36178142D01*
X154599142Y-36178142D02*
X154741999Y-36249571D01*
X154741999Y-36249571D02*
X155170570Y-36249571D01*
X155170570Y-36249571D02*
X155313427Y-36178142D01*
X155313427Y-36178142D02*
X155384856Y-36106714D01*
X153813428Y-36106714D02*
X153741999Y-36178142D01*
X153741999Y-36178142D02*
X153813428Y-36249571D01*
X153813428Y-36249571D02*
X153884856Y-36178142D01*
X153884856Y-36178142D02*
X153813428Y-36106714D01*
X153813428Y-36106714D02*
X153813428Y-36249571D01*
X153813428Y-35321000D02*
X153741999Y-35392428D01*
X153741999Y-35392428D02*
X153813428Y-35463857D01*
X153813428Y-35463857D02*
X153884856Y-35392428D01*
X153884856Y-35392428D02*
X153813428Y-35321000D01*
X153813428Y-35321000D02*
X153813428Y-35463857D01*
X153170570Y-36178142D02*
X152956285Y-36249571D01*
X152956285Y-36249571D02*
X152599142Y-36249571D01*
X152599142Y-36249571D02*
X152456285Y-36178142D01*
X152456285Y-36178142D02*
X152384856Y-36106714D01*
X152384856Y-36106714D02*
X152313427Y-35963857D01*
X152313427Y-35963857D02*
X152313427Y-35821000D01*
X152313427Y-35821000D02*
X152384856Y-35678142D01*
X152384856Y-35678142D02*
X152456285Y-35606714D01*
X152456285Y-35606714D02*
X152599142Y-35535285D01*
X152599142Y-35535285D02*
X152884856Y-35463857D01*
X152884856Y-35463857D02*
X153027713Y-35392428D01*
X153027713Y-35392428D02*
X153099142Y-35321000D01*
X153099142Y-35321000D02*
X153170570Y-35178142D01*
X153170570Y-35178142D02*
X153170570Y-35035285D01*
X153170570Y-35035285D02*
X153099142Y-34892428D01*
X153099142Y-34892428D02*
X153027713Y-34821000D01*
X153027713Y-34821000D02*
X152884856Y-34749571D01*
X152884856Y-34749571D02*
X152527713Y-34749571D01*
X152527713Y-34749571D02*
X152313427Y-34821000D01*
X151670571Y-35463857D02*
X151170571Y-35463857D01*
X150956285Y-36249571D02*
X151670571Y-36249571D01*
X151670571Y-36249571D02*
X151670571Y-34749571D01*
X151670571Y-34749571D02*
X150956285Y-34749571D01*
X149599142Y-36249571D02*
X150313428Y-36249571D01*
X150313428Y-36249571D02*
X150313428Y-34749571D01*
X149099142Y-35678142D02*
X147956285Y-35678142D01*
X146741999Y-35463857D02*
X146527713Y-35535285D01*
X146527713Y-35535285D02*
X146456284Y-35606714D01*
X146456284Y-35606714D02*
X146384856Y-35749571D01*
X146384856Y-35749571D02*
X146384856Y-35963857D01*
X146384856Y-35963857D02*
X146456284Y-36106714D01*
X146456284Y-36106714D02*
X146527713Y-36178142D01*
X146527713Y-36178142D02*
X146670570Y-36249571D01*
X146670570Y-36249571D02*
X147241999Y-36249571D01*
X147241999Y-36249571D02*
X147241999Y-34749571D01*
X147241999Y-34749571D02*
X146741999Y-34749571D01*
X146741999Y-34749571D02*
X146599142Y-34821000D01*
X146599142Y-34821000D02*
X146527713Y-34892428D01*
X146527713Y-34892428D02*
X146456284Y-35035285D01*
X146456284Y-35035285D02*
X146456284Y-35178142D01*
X146456284Y-35178142D02*
X146527713Y-35321000D01*
X146527713Y-35321000D02*
X146599142Y-35392428D01*
X146599142Y-35392428D02*
X146741999Y-35463857D01*
X146741999Y-35463857D02*
X147241999Y-35463857D01*
X144199142Y-35249571D02*
X144199142Y-36249571D01*
X144556284Y-34678142D02*
X144913427Y-35749571D01*
X144913427Y-35749571D02*
X143984856Y-35749571D01*
X143413428Y-36106714D02*
X143341999Y-36178142D01*
X143341999Y-36178142D02*
X143413428Y-36249571D01*
X143413428Y-36249571D02*
X143484856Y-36178142D01*
X143484856Y-36178142D02*
X143413428Y-36106714D01*
X143413428Y-36106714D02*
X143413428Y-36249571D01*
X143413428Y-35321000D02*
X143341999Y-35392428D01*
X143341999Y-35392428D02*
X143413428Y-35463857D01*
X143413428Y-35463857D02*
X143484856Y-35392428D01*
X143484856Y-35392428D02*
X143413428Y-35321000D01*
X143413428Y-35321000D02*
X143413428Y-35463857D01*
X142770570Y-36178142D02*
X142556285Y-36249571D01*
X142556285Y-36249571D02*
X142199142Y-36249571D01*
X142199142Y-36249571D02*
X142056285Y-36178142D01*
X142056285Y-36178142D02*
X141984856Y-36106714D01*
X141984856Y-36106714D02*
X141913427Y-35963857D01*
X141913427Y-35963857D02*
X141913427Y-35821000D01*
X141913427Y-35821000D02*
X141984856Y-35678142D01*
X141984856Y-35678142D02*
X142056285Y-35606714D01*
X142056285Y-35606714D02*
X142199142Y-35535285D01*
X142199142Y-35535285D02*
X142484856Y-35463857D01*
X142484856Y-35463857D02*
X142627713Y-35392428D01*
X142627713Y-35392428D02*
X142699142Y-35321000D01*
X142699142Y-35321000D02*
X142770570Y-35178142D01*
X142770570Y-35178142D02*
X142770570Y-35035285D01*
X142770570Y-35035285D02*
X142699142Y-34892428D01*
X142699142Y-34892428D02*
X142627713Y-34821000D01*
X142627713Y-34821000D02*
X142484856Y-34749571D01*
X142484856Y-34749571D02*
X142127713Y-34749571D01*
X142127713Y-34749571D02*
X141913427Y-34821000D01*
X141270571Y-35463857D02*
X140770571Y-35463857D01*
X140556285Y-36249571D02*
X141270571Y-36249571D01*
X141270571Y-36249571D02*
X141270571Y-34749571D01*
X141270571Y-34749571D02*
X140556285Y-34749571D01*
X139199142Y-36249571D02*
X139913428Y-36249571D01*
X139913428Y-36249571D02*
X139913428Y-34749571D01*
X138699142Y-35678142D02*
X137556285Y-35678142D01*
X135984856Y-36106714D02*
X136056284Y-36178142D01*
X136056284Y-36178142D02*
X136270570Y-36249571D01*
X136270570Y-36249571D02*
X136413427Y-36249571D01*
X136413427Y-36249571D02*
X136627713Y-36178142D01*
X136627713Y-36178142D02*
X136770570Y-36035285D01*
X136770570Y-36035285D02*
X136841999Y-35892428D01*
X136841999Y-35892428D02*
X136913427Y-35606714D01*
X136913427Y-35606714D02*
X136913427Y-35392428D01*
X136913427Y-35392428D02*
X136841999Y-35106714D01*
X136841999Y-35106714D02*
X136770570Y-34963857D01*
X136770570Y-34963857D02*
X136627713Y-34821000D01*
X136627713Y-34821000D02*
X136413427Y-34749571D01*
X136413427Y-34749571D02*
X136270570Y-34749571D01*
X136270570Y-34749571D02*
X136056284Y-34821000D01*
X136056284Y-34821000D02*
X135984856Y-34892428D01*
X133727713Y-34749571D02*
X134441999Y-34749571D01*
X134441999Y-34749571D02*
X134513427Y-35463857D01*
X134513427Y-35463857D02*
X134441999Y-35392428D01*
X134441999Y-35392428D02*
X134299142Y-35321000D01*
X134299142Y-35321000D02*
X133941999Y-35321000D01*
X133941999Y-35321000D02*
X133799142Y-35392428D01*
X133799142Y-35392428D02*
X133727713Y-35463857D01*
X133727713Y-35463857D02*
X133656284Y-35606714D01*
X133656284Y-35606714D02*
X133656284Y-35963857D01*
X133656284Y-35963857D02*
X133727713Y-36106714D01*
X133727713Y-36106714D02*
X133799142Y-36178142D01*
X133799142Y-36178142D02*
X133941999Y-36249571D01*
X133941999Y-36249571D02*
X134299142Y-36249571D01*
X134299142Y-36249571D02*
X134441999Y-36178142D01*
X134441999Y-36178142D02*
X134513427Y-36106714D01*
X133013428Y-36106714D02*
X132941999Y-36178142D01*
X132941999Y-36178142D02*
X133013428Y-36249571D01*
X133013428Y-36249571D02*
X133084856Y-36178142D01*
X133084856Y-36178142D02*
X133013428Y-36106714D01*
X133013428Y-36106714D02*
X133013428Y-36249571D01*
X133013428Y-35321000D02*
X132941999Y-35392428D01*
X132941999Y-35392428D02*
X133013428Y-35463857D01*
X133013428Y-35463857D02*
X133084856Y-35392428D01*
X133084856Y-35392428D02*
X133013428Y-35321000D01*
X133013428Y-35321000D02*
X133013428Y-35463857D01*
X132013427Y-34749571D02*
X131727713Y-34749571D01*
X131727713Y-34749571D02*
X131584856Y-34821000D01*
X131584856Y-34821000D02*
X131441999Y-34963857D01*
X131441999Y-34963857D02*
X131370570Y-35249571D01*
X131370570Y-35249571D02*
X131370570Y-35749571D01*
X131370570Y-35749571D02*
X131441999Y-36035285D01*
X131441999Y-36035285D02*
X131584856Y-36178142D01*
X131584856Y-36178142D02*
X131727713Y-36249571D01*
X131727713Y-36249571D02*
X132013427Y-36249571D01*
X132013427Y-36249571D02*
X132156285Y-36178142D01*
X132156285Y-36178142D02*
X132299142Y-36035285D01*
X132299142Y-36035285D02*
X132370570Y-35749571D01*
X132370570Y-35749571D02*
X132370570Y-35249571D01*
X132370570Y-35249571D02*
X132299142Y-34963857D01*
X132299142Y-34963857D02*
X132156285Y-34821000D01*
X132156285Y-34821000D02*
X132013427Y-34749571D01*
X130727713Y-34749571D02*
X130727713Y-35963857D01*
X130727713Y-35963857D02*
X130656284Y-36106714D01*
X130656284Y-36106714D02*
X130584856Y-36178142D01*
X130584856Y-36178142D02*
X130441998Y-36249571D01*
X130441998Y-36249571D02*
X130156284Y-36249571D01*
X130156284Y-36249571D02*
X130013427Y-36178142D01*
X130013427Y-36178142D02*
X129941998Y-36106714D01*
X129941998Y-36106714D02*
X129870570Y-35963857D01*
X129870570Y-35963857D02*
X129870570Y-34749571D01*
X129370569Y-34749571D02*
X128513427Y-34749571D01*
X128941998Y-36249571D02*
X128941998Y-34749571D01*
X126470570Y-34749571D02*
X126756284Y-34749571D01*
X126756284Y-34749571D02*
X126899141Y-34821000D01*
X126899141Y-34821000D02*
X126970570Y-34892428D01*
X126970570Y-34892428D02*
X127113427Y-35106714D01*
X127113427Y-35106714D02*
X127184855Y-35392428D01*
X127184855Y-35392428D02*
X127184855Y-35963857D01*
X127184855Y-35963857D02*
X127113427Y-36106714D01*
X127113427Y-36106714D02*
X127041998Y-36178142D01*
X127041998Y-36178142D02*
X126899141Y-36249571D01*
X126899141Y-36249571D02*
X126613427Y-36249571D01*
X126613427Y-36249571D02*
X126470570Y-36178142D01*
X126470570Y-36178142D02*
X126399141Y-36106714D01*
X126399141Y-36106714D02*
X126327712Y-35963857D01*
X126327712Y-35963857D02*
X126327712Y-35606714D01*
X126327712Y-35606714D02*
X126399141Y-35463857D01*
X126399141Y-35463857D02*
X126470570Y-35392428D01*
X126470570Y-35392428D02*
X126613427Y-35321000D01*
X126613427Y-35321000D02*
X126899141Y-35321000D01*
X126899141Y-35321000D02*
X127041998Y-35392428D01*
X127041998Y-35392428D02*
X127113427Y-35463857D01*
X127113427Y-35463857D02*
X127184855Y-35606714D01*
X125684856Y-36106714D02*
X125613427Y-36178142D01*
X125613427Y-36178142D02*
X125684856Y-36249571D01*
X125684856Y-36249571D02*
X125756284Y-36178142D01*
X125756284Y-36178142D02*
X125684856Y-36106714D01*
X125684856Y-36106714D02*
X125684856Y-36249571D01*
X125684856Y-35321000D02*
X125613427Y-35392428D01*
X125613427Y-35392428D02*
X125684856Y-35463857D01*
X125684856Y-35463857D02*
X125756284Y-35392428D01*
X125756284Y-35392428D02*
X125684856Y-35321000D01*
X125684856Y-35321000D02*
X125684856Y-35463857D01*
X124184855Y-34821000D02*
X124327713Y-34749571D01*
X124327713Y-34749571D02*
X124541998Y-34749571D01*
X124541998Y-34749571D02*
X124756284Y-34821000D01*
X124756284Y-34821000D02*
X124899141Y-34963857D01*
X124899141Y-34963857D02*
X124970570Y-35106714D01*
X124970570Y-35106714D02*
X125041998Y-35392428D01*
X125041998Y-35392428D02*
X125041998Y-35606714D01*
X125041998Y-35606714D02*
X124970570Y-35892428D01*
X124970570Y-35892428D02*
X124899141Y-36035285D01*
X124899141Y-36035285D02*
X124756284Y-36178142D01*
X124756284Y-36178142D02*
X124541998Y-36249571D01*
X124541998Y-36249571D02*
X124399141Y-36249571D01*
X124399141Y-36249571D02*
X124184855Y-36178142D01*
X124184855Y-36178142D02*
X124113427Y-36106714D01*
X124113427Y-36106714D02*
X124113427Y-35606714D01*
X124113427Y-35606714D02*
X124399141Y-35606714D01*
X123470570Y-36249571D02*
X123470570Y-34749571D01*
X123470570Y-34749571D02*
X122613427Y-36249571D01*
X122613427Y-36249571D02*
X122613427Y-34749571D01*
X121899141Y-36249571D02*
X121899141Y-34749571D01*
X121899141Y-34749571D02*
X121541998Y-34749571D01*
X121541998Y-34749571D02*
X121327712Y-34821000D01*
X121327712Y-34821000D02*
X121184855Y-34963857D01*
X121184855Y-34963857D02*
X121113426Y-35106714D01*
X121113426Y-35106714D02*
X121041998Y-35392428D01*
X121041998Y-35392428D02*
X121041998Y-35606714D01*
X121041998Y-35606714D02*
X121113426Y-35892428D01*
X121113426Y-35892428D02*
X121184855Y-36035285D01*
X121184855Y-36035285D02*
X121327712Y-36178142D01*
X121327712Y-36178142D02*
X121541998Y-36249571D01*
X121541998Y-36249571D02*
X121899141Y-36249571D01*
%TO.C,G2*%
G36*
X200123235Y-31847195D02*
G01*
X200493026Y-31916114D01*
X200820474Y-32022487D01*
X200844043Y-32032809D01*
X200923672Y-32076609D01*
X200955822Y-32110052D01*
X200935672Y-32115154D01*
X200849080Y-32121062D01*
X200704480Y-32125793D01*
X200513069Y-32129364D01*
X200286042Y-32131797D01*
X200034598Y-32133112D01*
X199769931Y-32133326D01*
X199503240Y-32132461D01*
X199245720Y-32130537D01*
X199008569Y-32127572D01*
X198802983Y-32123587D01*
X198640158Y-32118601D01*
X198531291Y-32112634D01*
X198487579Y-32105706D01*
X198498340Y-32080933D01*
X198568223Y-32041121D01*
X198684197Y-31993719D01*
X198830931Y-31944323D01*
X198993095Y-31898531D01*
X199155359Y-31861938D01*
X199363829Y-31832051D01*
X199737902Y-31818312D01*
X200123235Y-31847195D01*
G37*
G36*
X199972548Y-28704856D02*
G01*
X200085486Y-28759235D01*
X200228983Y-28836427D01*
X200389164Y-28928563D01*
X200552154Y-29027774D01*
X200704081Y-29126194D01*
X200831069Y-29215954D01*
X200988779Y-29341175D01*
X201383560Y-29711764D01*
X201756036Y-30142028D01*
X202098717Y-30619836D01*
X202404112Y-31133057D01*
X202664731Y-31669558D01*
X202873084Y-32217208D01*
X203021679Y-32763875D01*
X203048728Y-32908313D01*
X203070742Y-33066702D01*
X203079258Y-33186494D01*
X203078241Y-33216841D01*
X203069393Y-33240726D01*
X203049026Y-33215526D01*
X203014222Y-33135041D01*
X202962065Y-32993071D01*
X202889639Y-32783415D01*
X202806685Y-32547600D01*
X202645811Y-32139666D01*
X202472308Y-31769303D01*
X202273460Y-31410481D01*
X202036550Y-31037170D01*
X201718585Y-30601371D01*
X201336951Y-30164571D01*
X200931557Y-29782337D01*
X200510568Y-29462292D01*
X200082145Y-29212060D01*
X200001194Y-29171081D01*
X199874908Y-29103048D01*
X199787912Y-29050576D01*
X199755512Y-29022545D01*
X199762545Y-28994023D01*
X199790940Y-28913977D01*
X199829952Y-28815092D01*
X199867398Y-28727893D01*
X199891093Y-28682904D01*
X199904043Y-28681156D01*
X199972548Y-28704856D01*
G37*
G36*
X198045069Y-36725582D02*
G01*
X198042078Y-36817687D01*
X197978134Y-36964896D01*
X197898624Y-37072439D01*
X198117250Y-37099754D01*
X198252409Y-37111133D01*
X198532303Y-37111930D01*
X198841301Y-37090151D01*
X199151489Y-37048159D01*
X199434952Y-36988312D01*
X199473116Y-36978473D01*
X199640484Y-36939469D01*
X199735384Y-36926383D01*
X199758309Y-36939394D01*
X199709747Y-36978679D01*
X199590189Y-37044414D01*
X199413984Y-37125974D01*
X199026480Y-37249297D01*
X198636955Y-37298576D01*
X198252522Y-37272595D01*
X198252464Y-37272586D01*
X198106317Y-37242582D01*
X197983936Y-37207913D01*
X197911811Y-37176084D01*
X197910577Y-37175197D01*
X197822101Y-37154193D01*
X197716918Y-37182372D01*
X197623484Y-37246598D01*
X197570250Y-37333740D01*
X197569226Y-37436670D01*
X197613708Y-37580906D01*
X197696303Y-37727674D01*
X197805531Y-37851702D01*
X197955469Y-37943671D01*
X198119185Y-37965185D01*
X198284170Y-37910275D01*
X198341609Y-37880210D01*
X198441984Y-37852381D01*
X198498666Y-37885264D01*
X198516487Y-37980313D01*
X198515431Y-38012140D01*
X198485961Y-38137051D01*
X198423862Y-38215490D01*
X198339690Y-38232404D01*
X198285872Y-38200334D01*
X198271617Y-38115562D01*
X198271631Y-38115361D01*
X198270275Y-38048170D01*
X198238872Y-38030292D01*
X198155714Y-38049320D01*
X198094813Y-38065050D01*
X197949429Y-38081089D01*
X197805166Y-38056309D01*
X197631139Y-37987041D01*
X197552080Y-37948250D01*
X197300446Y-37789394D01*
X197117382Y-37609818D01*
X197005573Y-37412703D01*
X196967707Y-37201232D01*
X196971541Y-37140780D01*
X197029866Y-36964756D01*
X197150314Y-36814215D01*
X197322416Y-36696990D01*
X197535702Y-36620911D01*
X197779702Y-36593811D01*
X198032493Y-36593811D01*
X198045069Y-36725582D01*
G37*
G36*
X199360564Y-30883281D02*
G01*
X199434075Y-30988142D01*
X199471269Y-31113391D01*
X199457981Y-31224903D01*
X199396825Y-31305712D01*
X199290413Y-31338848D01*
X199219953Y-31349385D01*
X199059394Y-31412445D01*
X198871042Y-31525435D01*
X198667084Y-31680561D01*
X198459708Y-31870031D01*
X198418955Y-31911251D01*
X198214116Y-32148313D01*
X198080539Y-32367207D01*
X198016366Y-32573448D01*
X198019735Y-32772553D01*
X198088787Y-32970037D01*
X198115336Y-33018611D01*
X198228830Y-33187986D01*
X198372766Y-33364762D01*
X198529880Y-33530308D01*
X198682905Y-33665995D01*
X198814575Y-33753190D01*
X198834183Y-33762765D01*
X198899766Y-33791997D01*
X198965546Y-33813020D01*
X199044395Y-33826950D01*
X199149182Y-33834902D01*
X199292780Y-33837990D01*
X199488060Y-33837329D01*
X199747892Y-33834034D01*
X199766677Y-33833773D01*
X199999107Y-33831772D01*
X200204429Y-33832187D01*
X200370065Y-33834824D01*
X200483435Y-33839492D01*
X200531962Y-33845999D01*
X200554116Y-33862239D01*
X200562842Y-33900450D01*
X200495991Y-33930540D01*
X200352800Y-33952965D01*
X200199514Y-33983519D01*
X199979632Y-34058958D01*
X199704249Y-34179787D01*
X199471132Y-34282329D01*
X199221668Y-34366720D01*
X199004375Y-34404919D01*
X198804462Y-34399247D01*
X198607140Y-34352026D01*
X198448812Y-34282829D01*
X198211769Y-34121917D01*
X197983629Y-33901516D01*
X197774719Y-33632115D01*
X197595362Y-33324203D01*
X197529479Y-33184973D01*
X197480835Y-33052551D01*
X197457701Y-32928699D01*
X197451791Y-32782130D01*
X197454650Y-32683301D01*
X197481321Y-32509070D01*
X197543621Y-32350387D01*
X197650775Y-32187206D01*
X197812012Y-31999477D01*
X197967915Y-31848550D01*
X198170008Y-31684909D01*
X198390840Y-31531196D01*
X198615587Y-31396251D01*
X198829428Y-31288916D01*
X199017538Y-31218032D01*
X199165095Y-31192439D01*
X199205873Y-31182570D01*
X199223949Y-31136445D01*
X199219755Y-31034204D01*
X199216742Y-30932353D01*
X199238419Y-30846965D01*
X199287378Y-30829516D01*
X199360564Y-30883281D01*
G37*
G36*
X201877111Y-36556532D02*
G01*
X201938707Y-36642211D01*
X201963587Y-36686193D01*
X202034770Y-36798501D01*
X202117314Y-36917571D01*
X202240311Y-37086453D01*
X202380169Y-36956291D01*
X202520028Y-36826128D01*
X202415514Y-36968743D01*
X202385429Y-37011102D01*
X202332112Y-37094828D01*
X202311000Y-37142124D01*
X202328722Y-37170358D01*
X202391547Y-37244095D01*
X202489106Y-37349401D01*
X202610167Y-37473823D01*
X202909335Y-37774756D01*
X203278079Y-37775093D01*
X203342984Y-37775526D01*
X203538420Y-37780504D01*
X203721536Y-37789837D01*
X203859780Y-37802019D01*
X204072737Y-37828609D01*
X203898500Y-37859547D01*
X203887713Y-37861383D01*
X203755782Y-37877653D01*
X203584433Y-37891601D01*
X203407865Y-37900380D01*
X203402894Y-37900536D01*
X203266096Y-37906211D01*
X203177977Y-37917496D01*
X203140991Y-37940869D01*
X203157591Y-37982807D01*
X203230229Y-38049785D01*
X203361357Y-38148282D01*
X203553429Y-38284774D01*
X203668355Y-38367297D01*
X203782642Y-38452950D01*
X203857845Y-38513777D01*
X203881645Y-38540188D01*
X203855948Y-38538486D01*
X203774755Y-38505984D01*
X203653675Y-38446039D01*
X203507424Y-38366710D01*
X203350717Y-38276052D01*
X203198269Y-38182122D01*
X203064796Y-38092977D01*
X202992082Y-38039590D01*
X202824335Y-37906894D01*
X202644519Y-37755065D01*
X202480826Y-37607536D01*
X202169128Y-37314313D01*
X201939987Y-37531294D01*
X201721800Y-37726940D01*
X201203405Y-38118001D01*
X200636246Y-38453870D01*
X200026686Y-38731860D01*
X199381090Y-38949285D01*
X198705822Y-39103457D01*
X198007244Y-39191691D01*
X197672239Y-39217412D01*
X197617266Y-38970398D01*
X197562292Y-38723384D01*
X198203948Y-38699213D01*
X198818204Y-38655732D01*
X199511344Y-38550954D01*
X200157623Y-38388234D01*
X200760243Y-38166908D01*
X200892766Y-38108408D01*
X201169267Y-37973100D01*
X201402802Y-37834499D01*
X201616372Y-37678075D01*
X201832977Y-37489300D01*
X202119362Y-37223203D01*
X202027170Y-37102105D01*
X201985224Y-37043984D01*
X201899613Y-36906087D01*
X201831323Y-36771228D01*
X201789770Y-36659266D01*
X201784369Y-36590057D01*
X201822347Y-36541117D01*
X201877111Y-36556532D01*
G37*
G36*
X201036060Y-27354164D02*
G01*
X201228954Y-27411920D01*
X201496008Y-27513770D01*
X201769787Y-27637679D01*
X202022782Y-27771017D01*
X202227482Y-27901155D01*
X202293703Y-27950977D01*
X202361496Y-28007853D01*
X202382360Y-28034701D01*
X202362971Y-28034846D01*
X202278589Y-28026168D01*
X202139500Y-28008320D01*
X201958796Y-27983016D01*
X201749567Y-27951966D01*
X201662808Y-27939204D01*
X201410632Y-27906275D01*
X201159820Y-27878791D01*
X200935354Y-27859322D01*
X200762219Y-27850437D01*
X200700746Y-27849431D01*
X200533046Y-27851008D01*
X200411651Y-27863063D01*
X200312658Y-27889182D01*
X200212168Y-27932951D01*
X200172063Y-27953195D01*
X200080847Y-28005429D01*
X199999340Y-28065822D01*
X199922430Y-28142212D01*
X199845001Y-28242439D01*
X199761939Y-28374343D01*
X199668130Y-28545763D01*
X199558461Y-28764538D01*
X199427815Y-29038508D01*
X199271080Y-29375513D01*
X199103777Y-29731534D01*
X198926103Y-30090583D01*
X198757636Y-30404650D01*
X198588954Y-30688627D01*
X198410634Y-30957407D01*
X198213255Y-31225882D01*
X197987395Y-31508946D01*
X197723632Y-31821491D01*
X197359299Y-32232710D01*
X196968582Y-32641294D01*
X196593679Y-32994772D01*
X196225121Y-33300944D01*
X195853442Y-33567610D01*
X195469176Y-33802569D01*
X195062856Y-34013620D01*
X195031504Y-34028769D01*
X194865701Y-34112844D01*
X194730877Y-34187737D01*
X194640184Y-34245786D01*
X194606777Y-34279326D01*
X194606772Y-34279778D01*
X194637708Y-34329641D01*
X194712295Y-34382938D01*
X194716224Y-34385038D01*
X194853639Y-34483109D01*
X195024858Y-34645504D01*
X195226889Y-34868584D01*
X195456740Y-35148709D01*
X195711422Y-35482238D01*
X195987943Y-35865530D01*
X196283312Y-36294946D01*
X196356254Y-36404132D01*
X196535216Y-36683043D01*
X196682325Y-36934543D01*
X196810287Y-37182692D01*
X196931805Y-37451551D01*
X197059582Y-37765182D01*
X197139826Y-37978904D01*
X197286387Y-38432095D01*
X197400537Y-38878938D01*
X197481832Y-39311652D01*
X197529826Y-39722461D01*
X197544075Y-40103584D01*
X197524134Y-40447244D01*
X197469557Y-40745661D01*
X197379900Y-40991058D01*
X197254716Y-41175656D01*
X197120749Y-41317592D01*
X197150707Y-41201433D01*
X197169205Y-41089521D01*
X197176377Y-40892078D01*
X197164919Y-40631227D01*
X197134609Y-40304674D01*
X197085225Y-39910123D01*
X197016543Y-39445282D01*
X196928343Y-38907854D01*
X196889906Y-38686927D01*
X196814477Y-38285706D01*
X196739432Y-37941121D01*
X196660071Y-37639435D01*
X196571695Y-37366912D01*
X196469605Y-37109817D01*
X196349103Y-36854413D01*
X196205489Y-36586966D01*
X196034064Y-36293739D01*
X195946735Y-36149544D01*
X195681046Y-35723929D01*
X195436898Y-35353337D01*
X195216499Y-35040815D01*
X195022058Y-34789406D01*
X194855785Y-34602157D01*
X194719888Y-34482112D01*
X194594138Y-34392569D01*
X194616099Y-34893038D01*
X194616786Y-34908415D01*
X194642576Y-35277781D01*
X194687596Y-35608051D01*
X194757296Y-35919431D01*
X194857128Y-36232126D01*
X194992545Y-36566343D01*
X195168997Y-36942287D01*
X195366445Y-37311090D01*
X195626893Y-37707663D01*
X195903919Y-38033281D01*
X196200250Y-38291057D01*
X196518612Y-38484107D01*
X196542155Y-38495661D01*
X196648907Y-38552606D01*
X196707369Y-38604576D01*
X196736143Y-38675802D01*
X196753831Y-38790516D01*
X196764068Y-38865528D01*
X196783763Y-38987757D01*
X196800552Y-39067452D01*
X196807549Y-39102926D01*
X196786788Y-39126160D01*
X196710633Y-39114896D01*
X196697384Y-39111412D01*
X196599249Y-39075964D01*
X196462998Y-39017515D01*
X196313885Y-38946766D01*
X196041750Y-38780006D01*
X195756393Y-38546985D01*
X195470934Y-38261181D01*
X195194271Y-37933981D01*
X194935305Y-37576771D01*
X194702936Y-37200936D01*
X194506063Y-36817861D01*
X194353587Y-36438933D01*
X194305037Y-36291609D01*
X194223379Y-36006377D01*
X194162865Y-35726290D01*
X194120183Y-35430802D01*
X194092020Y-35099368D01*
X194075064Y-34711444D01*
X194070405Y-34405910D01*
X194101532Y-33602641D01*
X194195872Y-32833473D01*
X194352719Y-32102001D01*
X194571366Y-31411820D01*
X194851105Y-30766525D01*
X195089550Y-30329296D01*
X195400475Y-29857164D01*
X195737785Y-29438400D01*
X196097210Y-29075966D01*
X196474484Y-28772820D01*
X196865338Y-28531923D01*
X197265506Y-28356236D01*
X197670718Y-28248718D01*
X198076709Y-28212329D01*
X198479210Y-28250030D01*
X198560920Y-28266611D01*
X198657156Y-28289785D01*
X198701553Y-28305757D01*
X198703087Y-28322779D01*
X198686230Y-28395303D01*
X198649944Y-28501443D01*
X198581601Y-28680395D01*
X198423391Y-28653666D01*
X198208781Y-28629649D01*
X197826186Y-28646779D01*
X197445050Y-28739716D01*
X197067991Y-28907444D01*
X196697628Y-29148948D01*
X196336581Y-29463212D01*
X196298901Y-29500821D01*
X195929361Y-29925307D01*
X195597361Y-30410817D01*
X195306832Y-30949215D01*
X195061709Y-31532366D01*
X194865924Y-32152133D01*
X194723410Y-32800381D01*
X194694668Y-32983173D01*
X194666618Y-33198051D01*
X194642898Y-33416666D01*
X194624527Y-33625607D01*
X194612524Y-33811463D01*
X194607909Y-33960822D01*
X194611700Y-34060272D01*
X194624918Y-34096403D01*
X194641224Y-34092518D01*
X194719132Y-34055393D01*
X194841889Y-33985661D01*
X194996414Y-33891573D01*
X195169628Y-33781381D01*
X195348450Y-33663337D01*
X195519802Y-33545693D01*
X195670603Y-33436701D01*
X195877410Y-33270723D01*
X196159486Y-33015906D01*
X196443340Y-32731859D01*
X196708113Y-32439670D01*
X196932949Y-32160427D01*
X197006357Y-32061554D01*
X197284361Y-31679324D01*
X197522294Y-31335720D01*
X197729083Y-31014980D01*
X197913654Y-30701345D01*
X198084936Y-30379052D01*
X198251856Y-30032340D01*
X198423341Y-29645449D01*
X198608318Y-29202618D01*
X198642927Y-29118518D01*
X198746794Y-28871841D01*
X198847378Y-28640712D01*
X198938354Y-28439236D01*
X199013396Y-28281518D01*
X199066178Y-28181666D01*
X199165204Y-28027465D01*
X199405315Y-27735797D01*
X199672553Y-27516562D01*
X199968082Y-27369270D01*
X200293067Y-27293433D01*
X200648671Y-27288561D01*
X201036060Y-27354164D01*
G37*
%TO.C,G1*%
G36*
X109066324Y-35631605D02*
G01*
X109058804Y-35761777D01*
X108953562Y-36048299D01*
X108766638Y-36277070D01*
X108503671Y-36413975D01*
X108288142Y-36439415D01*
X108057693Y-36414861D01*
X108052585Y-36413437D01*
X107897561Y-36371795D01*
X107822115Y-36354546D01*
X107816077Y-36350545D01*
X107755879Y-36270491D01*
X107659550Y-36120029D01*
X107566083Y-35901531D01*
X107516293Y-35501126D01*
X107516469Y-35469198D01*
X108054616Y-35469198D01*
X108055520Y-35753084D01*
X108088966Y-36001173D01*
X108156251Y-36163057D01*
X108243256Y-36249059D01*
X108351674Y-36265556D01*
X108451552Y-36142812D01*
X108467556Y-36106589D01*
X108510416Y-35902343D01*
X108526064Y-35631605D01*
X108515767Y-35346650D01*
X108480797Y-35099755D01*
X108422422Y-34943195D01*
X108361810Y-34867751D01*
X108291190Y-34845594D01*
X108187905Y-34931981D01*
X108145250Y-34995665D01*
X108084958Y-35199922D01*
X108054616Y-35469198D01*
X107516469Y-35469198D01*
X107516602Y-35444982D01*
X107535028Y-35217023D01*
X107597790Y-35058081D01*
X107726950Y-34905813D01*
X107887684Y-34786306D01*
X108181671Y-34692913D01*
X108490336Y-34709874D01*
X108763852Y-34840333D01*
X108828025Y-34896859D01*
X109001676Y-35151942D01*
X109076722Y-35451619D01*
X109066324Y-35631605D01*
G37*
G36*
X110236142Y-33907099D02*
G01*
X110439826Y-33965414D01*
X110624415Y-34112063D01*
X110625071Y-34112720D01*
X110782352Y-34326121D01*
X110831479Y-34555398D01*
X110768834Y-34815609D01*
X110590802Y-35121812D01*
X110293768Y-35489065D01*
X110136646Y-35682034D01*
X109996108Y-35889391D01*
X109924060Y-36041163D01*
X109908596Y-36127372D01*
X109926189Y-36361166D01*
X110020566Y-36543469D01*
X110173294Y-36630681D01*
X110317753Y-36626663D01*
X110478999Y-36516989D01*
X110572284Y-36280768D01*
X110635093Y-36124143D01*
X110749115Y-36069725D01*
X110893069Y-36152500D01*
X110971426Y-36289865D01*
X110934465Y-36472701D01*
X110757646Y-36672847D01*
X110503700Y-36816982D01*
X110169901Y-36854999D01*
X109796148Y-36759043D01*
X109549685Y-36607776D01*
X109376900Y-36358261D01*
X109320000Y-36023505D01*
X109320246Y-35994871D01*
X109337059Y-35827875D01*
X109391903Y-35669069D01*
X109501018Y-35491132D01*
X109680645Y-35266741D01*
X109947022Y-34968574D01*
X110097166Y-34783555D01*
X110237214Y-34515912D01*
X110255801Y-34289600D01*
X110149830Y-34117614D01*
X110133104Y-34105007D01*
X109997771Y-34080754D01*
X109879432Y-34172744D01*
X109811406Y-34357371D01*
X109759462Y-34476819D01*
X109651567Y-34522024D01*
X109541016Y-34469028D01*
X109478239Y-34323029D01*
X109480732Y-34225559D01*
X109578768Y-34052623D01*
X109790322Y-33940833D01*
X110099277Y-33901136D01*
X110236142Y-33907099D01*
G37*
G36*
X107329724Y-34738686D02*
G01*
X107424904Y-34807569D01*
X107435563Y-34876353D01*
X107353665Y-34893324D01*
X107315274Y-34915201D01*
X107281323Y-35030501D01*
X107258023Y-35258008D01*
X107242915Y-35613720D01*
X107238798Y-35739103D01*
X107214880Y-36086843D01*
X107169200Y-36312150D01*
X107092846Y-36431728D01*
X106976907Y-36462278D01*
X106812472Y-36420503D01*
X106744860Y-36388237D01*
X106693079Y-36327717D01*
X106664618Y-36213927D01*
X106652592Y-36016527D01*
X106650114Y-35705174D01*
X106650107Y-35689427D01*
X106644945Y-35370855D01*
X106627247Y-35168751D01*
X106592708Y-35056568D01*
X106537025Y-35007756D01*
X106509262Y-34998437D01*
X106389771Y-35006972D01*
X106311993Y-35121169D01*
X106271280Y-35353015D01*
X106262985Y-35714495D01*
X106269750Y-35945761D01*
X106294195Y-36191652D01*
X106343687Y-36364154D01*
X106426924Y-36505217D01*
X106447674Y-36533368D01*
X106530873Y-36657236D01*
X106529150Y-36706508D01*
X106445528Y-36715341D01*
X106346029Y-36696734D01*
X106142694Y-36580562D01*
X105949958Y-36390435D01*
X105811540Y-36164350D01*
X105791220Y-36109753D01*
X105731028Y-35816326D01*
X105716459Y-35477580D01*
X105747000Y-35154426D01*
X105822138Y-34907780D01*
X105851329Y-34855224D01*
X105974183Y-34728352D01*
X106159211Y-34694886D01*
X106352378Y-34728974D01*
X106524070Y-34819663D01*
X106600882Y-34885119D01*
X106670988Y-34903077D01*
X106731775Y-34819663D01*
X106749408Y-34795099D01*
X106895469Y-34715810D01*
X107107897Y-34694434D01*
X107329724Y-34738686D01*
G37*
G36*
X100061830Y-35910866D02*
G01*
X100074682Y-35942988D01*
X100058776Y-36161580D01*
X99950577Y-36342724D01*
X99758921Y-36443379D01*
X99566155Y-36448464D01*
X99312756Y-36338516D01*
X99228462Y-36315897D01*
X99060199Y-36380836D01*
X98940565Y-36443145D01*
X98819544Y-36443813D01*
X98640455Y-36374678D01*
X98534849Y-36323062D01*
X98463518Y-36264422D01*
X98514177Y-36230031D01*
X98522554Y-36227823D01*
X98583165Y-36187944D01*
X98619006Y-36091961D01*
X98636096Y-35910523D01*
X98640412Y-35617227D01*
X99227931Y-35617227D01*
X99231814Y-35830743D01*
X99246963Y-35982857D01*
X99293704Y-36137752D01*
X99377508Y-36196333D01*
X99472490Y-36175628D01*
X99549024Y-36029303D01*
X99563349Y-35910866D01*
X99530594Y-35709594D01*
X99443720Y-35552201D01*
X99323560Y-35488637D01*
X99257894Y-35513873D01*
X99227931Y-35617227D01*
X98640412Y-35617227D01*
X98640455Y-35614275D01*
X98640455Y-35611680D01*
X98657933Y-35227379D01*
X98720162Y-34963895D01*
X98842342Y-34800882D01*
X99039675Y-34717995D01*
X99327361Y-34694887D01*
X99497002Y-34705430D01*
X99751535Y-34779977D01*
X99900306Y-34916461D01*
X99926775Y-35103604D01*
X99926019Y-35107318D01*
X99840199Y-35225994D01*
X99693410Y-35263411D01*
X99552819Y-35201909D01*
X99517996Y-35114925D01*
X99607639Y-35016730D01*
X99657636Y-34978183D01*
X99701204Y-34915493D01*
X99629894Y-34871167D01*
X99465160Y-34839218D01*
X99305983Y-34903009D01*
X99230819Y-35075953D01*
X99233683Y-35207925D01*
X99306036Y-35301070D01*
X99483376Y-35388929D01*
X99520489Y-35404923D01*
X99744535Y-35524663D01*
X99921279Y-35652450D01*
X99989460Y-35729988D01*
X100061830Y-35910866D01*
G37*
G36*
X96598194Y-35910866D02*
G01*
X96611046Y-35942988D01*
X96595139Y-36161580D01*
X96486941Y-36342724D01*
X96295284Y-36443379D01*
X96102518Y-36448464D01*
X95849119Y-36338516D01*
X95764825Y-36315897D01*
X95596563Y-36380836D01*
X95476929Y-36443145D01*
X95355908Y-36443813D01*
X95176819Y-36374678D01*
X95071213Y-36323062D01*
X94999881Y-36264422D01*
X95050540Y-36230031D01*
X95058917Y-36227823D01*
X95119529Y-36187944D01*
X95155369Y-36091961D01*
X95172460Y-35910523D01*
X95176776Y-35617227D01*
X95764295Y-35617227D01*
X95768177Y-35830743D01*
X95783326Y-35982857D01*
X95830067Y-36137752D01*
X95913871Y-36196333D01*
X96008853Y-36175628D01*
X96085387Y-36029303D01*
X96099713Y-35910866D01*
X96066957Y-35709594D01*
X95980084Y-35552201D01*
X95859923Y-35488637D01*
X95794257Y-35513873D01*
X95764295Y-35617227D01*
X95176776Y-35617227D01*
X95176819Y-35614275D01*
X95176819Y-35611680D01*
X95194297Y-35227379D01*
X95256526Y-34963895D01*
X95378706Y-34800882D01*
X95576039Y-34717995D01*
X95863725Y-34694887D01*
X96033365Y-34705430D01*
X96287898Y-34779977D01*
X96436669Y-34916461D01*
X96463139Y-35103604D01*
X96462382Y-35107318D01*
X96376562Y-35225994D01*
X96229773Y-35263411D01*
X96089182Y-35201909D01*
X96054359Y-35114925D01*
X96144003Y-35016730D01*
X96193999Y-34978183D01*
X96237568Y-34915493D01*
X96166258Y-34871167D01*
X96001524Y-34839218D01*
X95842347Y-34903009D01*
X95767182Y-35075953D01*
X95770046Y-35207925D01*
X95842399Y-35301070D01*
X96019739Y-35388929D01*
X96056853Y-35404923D01*
X96280899Y-35524663D01*
X96457642Y-35652450D01*
X96525824Y-35729988D01*
X96598194Y-35910866D01*
G37*
G36*
X105414103Y-35335376D02*
G01*
X105405521Y-35532061D01*
X105280128Y-35795646D01*
X105206935Y-35896672D01*
X105181337Y-35989556D01*
X105244048Y-36066769D01*
X105276240Y-36100623D01*
X105340415Y-36254775D01*
X105341019Y-36423989D01*
X105273659Y-36538300D01*
X105252913Y-36603547D01*
X105345818Y-36725768D01*
X105443416Y-36841008D01*
X105463000Y-36936542D01*
X105475637Y-36998189D01*
X105368986Y-37127464D01*
X105126061Y-37222960D01*
X104937322Y-37252885D01*
X104605951Y-37249399D01*
X104290507Y-37190098D01*
X104052387Y-37082986D01*
X103939530Y-36967861D01*
X103908630Y-36886960D01*
X104234136Y-36886960D01*
X104283282Y-36983804D01*
X104308969Y-37001827D01*
X104500646Y-37074862D01*
X104741685Y-37110650D01*
X104954375Y-37096178D01*
X105060865Y-37055709D01*
X105159027Y-36936542D01*
X105123329Y-36766116D01*
X105116756Y-36754219D01*
X105046719Y-36678307D01*
X104927455Y-36656049D01*
X104713449Y-36677617D01*
X104512091Y-36717731D01*
X104315108Y-36794922D01*
X104234136Y-36886960D01*
X103908630Y-36886960D01*
X103849894Y-36733178D01*
X103849895Y-36641596D01*
X103936473Y-36447885D01*
X104139297Y-36325025D01*
X104447278Y-36281401D01*
X104505234Y-36280676D01*
X104802407Y-36255080D01*
X104994442Y-36196825D01*
X105062614Y-36111093D01*
X105059853Y-36097494D01*
X104966600Y-36054142D01*
X104750846Y-36053586D01*
X104591388Y-36058286D01*
X104396996Y-36013232D01*
X104203673Y-35880301D01*
X104092752Y-35780726D01*
X104011842Y-35665981D01*
X103983845Y-35516869D01*
X103989123Y-35285957D01*
X104486627Y-35285957D01*
X104487117Y-35529424D01*
X104529141Y-35735292D01*
X104549759Y-35775335D01*
X104660378Y-35845331D01*
X104787264Y-35813217D01*
X104872815Y-35687074D01*
X104893632Y-35596214D01*
X104916675Y-35335376D01*
X104889426Y-35108316D01*
X104821432Y-34942542D01*
X104722238Y-34865562D01*
X104601388Y-34904883D01*
X104590300Y-34915507D01*
X104522683Y-35062212D01*
X104486627Y-35285957D01*
X103989123Y-35285957D01*
X103989288Y-35278753D01*
X103990778Y-35116070D01*
X103968614Y-34877404D01*
X103923109Y-34717670D01*
X103868089Y-34602609D01*
X103835909Y-34490873D01*
X103836107Y-34485174D01*
X103901047Y-34400299D01*
X104038576Y-34367921D01*
X104184867Y-34403941D01*
X104242320Y-34448437D01*
X104214745Y-34476215D01*
X104164362Y-34500794D01*
X104124546Y-34614418D01*
X104137000Y-34684718D01*
X104197008Y-34722105D01*
X104336521Y-34729349D01*
X104587471Y-34713268D01*
X104839398Y-34698085D01*
X105005396Y-34710144D01*
X105121984Y-34761328D01*
X105236903Y-34862615D01*
X105320813Y-34968504D01*
X105418294Y-35239334D01*
X105414103Y-35335376D01*
G37*
G36*
X100223524Y-33835396D02*
G01*
X100448854Y-33892849D01*
X100638264Y-34002627D01*
X100644019Y-34007591D01*
X100735675Y-34096783D01*
X100795702Y-34195632D01*
X100833180Y-34337782D01*
X100857187Y-34556881D01*
X100876805Y-34886576D01*
X100913466Y-35596875D01*
X101270303Y-34816168D01*
X101413025Y-34519068D01*
X101555770Y-34251073D01*
X101674456Y-34057844D01*
X101752633Y-33968299D01*
X101911575Y-33915401D01*
X102200969Y-33900642D01*
X102505138Y-33952830D01*
X102760892Y-34065850D01*
X102886423Y-34161595D01*
X102989256Y-34310396D01*
X103028042Y-34530246D01*
X103032063Y-34697869D01*
X102994779Y-34831002D01*
X102892636Y-34914150D01*
X102784821Y-34948085D01*
X102603704Y-34935533D01*
X102454650Y-34860276D01*
X102392728Y-34741349D01*
X102399906Y-34691419D01*
X102466920Y-34579388D01*
X102564647Y-34519040D01*
X102643846Y-34548241D01*
X102714289Y-34595758D01*
X102791015Y-34544064D01*
X102825682Y-34410827D01*
X102813139Y-34326528D01*
X102695198Y-34179856D01*
X102446443Y-34079513D01*
X102248409Y-34029809D01*
X102249395Y-34957660D01*
X102249452Y-34988344D01*
X102253769Y-35352657D01*
X102263802Y-35674161D01*
X102278131Y-35919022D01*
X102295338Y-36053406D01*
X102323832Y-36126220D01*
X102466880Y-36268219D01*
X102667604Y-36311672D01*
X102879216Y-36241506D01*
X103033384Y-36169623D01*
X103136464Y-36203510D01*
X103177659Y-36283327D01*
X103120054Y-36374353D01*
X102956191Y-36438508D01*
X102707588Y-36462784D01*
X102520778Y-36452556D01*
X102351394Y-36394276D01*
X102206082Y-36260323D01*
X102194960Y-36247280D01*
X102120489Y-36145790D01*
X102072642Y-36031910D01*
X102045419Y-35872665D01*
X102032821Y-35635079D01*
X102028847Y-35286175D01*
X102025762Y-34514489D01*
X101594963Y-35390881D01*
X101490848Y-35598420D01*
X101260599Y-36018552D01*
X101059050Y-36322962D01*
X100876249Y-36527386D01*
X100837423Y-36561760D01*
X100600051Y-36726841D01*
X100372240Y-36782095D01*
X100101677Y-36742019D01*
X100064225Y-36731030D01*
X99952520Y-36667654D01*
X99981256Y-36602741D01*
X100147808Y-36547365D01*
X100320054Y-36484629D01*
X100478025Y-36333976D01*
X100583559Y-36087976D01*
X100642555Y-35731720D01*
X100660909Y-35250300D01*
X100660868Y-35218943D01*
X100646009Y-34739951D01*
X100602801Y-34390180D01*
X100528880Y-34157551D01*
X100421878Y-34029988D01*
X100260548Y-33977601D01*
X100076501Y-33998261D01*
X99952406Y-34091665D01*
X99867910Y-34161559D01*
X99769054Y-34133245D01*
X99722841Y-34012837D01*
X99729130Y-33972562D01*
X99823951Y-33875696D01*
X100001986Y-33829826D01*
X100223524Y-33835396D01*
G37*
G36*
X98270353Y-35335376D02*
G01*
X98261771Y-35532061D01*
X98136378Y-35795646D01*
X98063185Y-35896672D01*
X98037587Y-35989556D01*
X98100298Y-36066769D01*
X98132490Y-36100623D01*
X98196665Y-36254775D01*
X98197269Y-36423989D01*
X98129909Y-36538300D01*
X98109163Y-36603547D01*
X98202068Y-36725768D01*
X98299666Y-36841008D01*
X98319250Y-36936542D01*
X98331887Y-36998189D01*
X98225236Y-37127464D01*
X97982311Y-37222960D01*
X97793572Y-37252885D01*
X97462201Y-37249399D01*
X97146757Y-37190098D01*
X96908637Y-37082986D01*
X96795780Y-36967861D01*
X96764880Y-36886960D01*
X97090386Y-36886960D01*
X97139532Y-36983804D01*
X97165219Y-37001827D01*
X97356896Y-37074862D01*
X97597935Y-37110650D01*
X97810625Y-37096178D01*
X97917115Y-37055709D01*
X98015277Y-36936542D01*
X97979579Y-36766116D01*
X97973006Y-36754219D01*
X97902969Y-36678307D01*
X97783705Y-36656049D01*
X97569699Y-36677617D01*
X97368341Y-36717731D01*
X97171358Y-36794922D01*
X97090386Y-36886960D01*
X96764880Y-36886960D01*
X96706144Y-36733178D01*
X96706145Y-36641596D01*
X96792723Y-36447885D01*
X96995547Y-36325025D01*
X97303528Y-36281401D01*
X97361484Y-36280676D01*
X97658657Y-36255080D01*
X97850692Y-36196825D01*
X97918864Y-36111093D01*
X97916103Y-36097494D01*
X97822850Y-36054142D01*
X97607096Y-36053586D01*
X97447638Y-36058286D01*
X97253246Y-36013232D01*
X97059923Y-35880301D01*
X96949002Y-35780726D01*
X96868092Y-35665981D01*
X96840095Y-35516869D01*
X96845373Y-35285957D01*
X97342877Y-35285957D01*
X97343367Y-35529424D01*
X97385391Y-35735292D01*
X97406009Y-35775335D01*
X97516628Y-35845331D01*
X97643514Y-35813217D01*
X97729065Y-35687074D01*
X97749882Y-35596214D01*
X97772925Y-35335376D01*
X97745676Y-35108316D01*
X97677682Y-34942542D01*
X97578488Y-34865562D01*
X97457638Y-34904883D01*
X97446550Y-34915507D01*
X97378933Y-35062212D01*
X97342877Y-35285957D01*
X96845373Y-35285957D01*
X96845538Y-35278753D01*
X96847028Y-35116070D01*
X96824864Y-34877404D01*
X96779359Y-34717670D01*
X96724339Y-34602609D01*
X96692159Y-34490873D01*
X96692357Y-34485174D01*
X96757297Y-34400299D01*
X96894826Y-34367921D01*
X97041117Y-34403941D01*
X97098570Y-34448437D01*
X97070995Y-34476215D01*
X97020612Y-34500794D01*
X96980796Y-34614418D01*
X96993250Y-34684718D01*
X97053258Y-34722105D01*
X97192771Y-34729349D01*
X97443721Y-34713268D01*
X97695648Y-34698085D01*
X97861646Y-34710144D01*
X97978234Y-34761328D01*
X98093153Y-34862615D01*
X98177063Y-34968504D01*
X98274544Y-35239334D01*
X98270353Y-35335376D01*
G37*
%TD*%
M02*
