%TF.GenerationSoftware,KiCad,Pcbnew,(7.0.0)*%
%TF.CreationDate,2023-08-09T19:52:53-07:00*%
%TF.ProjectId,8-pots-1-mux,382d706f-7473-42d3-912d-6d75782e6b69,rev?*%
%TF.SameCoordinates,Original*%
%TF.FileFunction,Copper,L2,Bot*%
%TF.FilePolarity,Positive*%
%FSLAX46Y46*%
G04 Gerber Fmt 4.6, Leading zero omitted, Abs format (unit mm)*
G04 Created by KiCad (PCBNEW (7.0.0)) date 2023-08-09 19:52:53*
%MOMM*%
%LPD*%
G01*
G04 APERTURE LIST*
%TA.AperFunction,ComponentPad*%
%ADD10O,2.720000X3.240000*%
%TD*%
%TA.AperFunction,ComponentPad*%
%ADD11R,1.800000X1.800000*%
%TD*%
%TA.AperFunction,ComponentPad*%
%ADD12C,1.800000*%
%TD*%
%TA.AperFunction,ComponentPad*%
%ADD13R,1.700000X1.700000*%
%TD*%
%TA.AperFunction,ComponentPad*%
%ADD14O,1.700000X1.700000*%
%TD*%
%TA.AperFunction,ViaPad*%
%ADD15C,0.800000*%
%TD*%
%TA.AperFunction,Conductor*%
%ADD16C,0.250000*%
%TD*%
G04 APERTURE END LIST*
D10*
%TO.P,RV5,*%
%TO.N,*%
X143989999Y-31479999D03*
X153589999Y-31479999D03*
D11*
%TO.P,RV5,1,1*%
%TO.N,+3V3*%
X146289999Y-38979999D03*
D12*
%TO.P,RV5,2,2*%
%TO.N,MUX_IN_5*%
X148790000Y-38980000D03*
%TO.P,RV5,3,3*%
%TO.N,GND*%
X151290000Y-38980000D03*
%TD*%
D10*
%TO.P,RV6,*%
%TO.N,*%
X156879999Y-31479999D03*
X166479999Y-31479999D03*
D11*
%TO.P,RV6,1,1*%
%TO.N,+3V3*%
X159179999Y-38979999D03*
D12*
%TO.P,RV6,2,2*%
%TO.N,MUX_IN_6*%
X161680000Y-38980000D03*
%TO.P,RV6,3,3*%
%TO.N,GND*%
X164180000Y-38980000D03*
%TD*%
D10*
%TO.P,RV1,*%
%TO.N,*%
X92339999Y-31479999D03*
X101939999Y-31479999D03*
D11*
%TO.P,RV1,1,1*%
%TO.N,+3V3*%
X94639999Y-38979999D03*
D12*
%TO.P,RV1,2,2*%
%TO.N,MUX_IN_1*%
X97140000Y-38980000D03*
%TO.P,RV1,3,3*%
%TO.N,GND*%
X99640000Y-38980000D03*
%TD*%
D10*
%TO.P,RV7,*%
%TO.N,*%
X169779999Y-31479999D03*
X179379999Y-31479999D03*
D11*
%TO.P,RV7,1,1*%
%TO.N,+3V3*%
X172079999Y-38979999D03*
D12*
%TO.P,RV7,2,2*%
%TO.N,MUX_IN_7*%
X174580000Y-38980000D03*
%TO.P,RV7,3,3*%
%TO.N,GND*%
X177080000Y-38980000D03*
%TD*%
D10*
%TO.P,RV3,*%
%TO.N,*%
X118149999Y-31479999D03*
X127749999Y-31479999D03*
D11*
%TO.P,RV3,1,1*%
%TO.N,+3V3*%
X120449999Y-38979999D03*
D12*
%TO.P,RV3,2,2*%
%TO.N,MUX_IN_3*%
X122950000Y-38980000D03*
%TO.P,RV3,3,3*%
%TO.N,GND*%
X125450000Y-38980000D03*
%TD*%
D10*
%TO.P,RV8,*%
%TO.N,*%
X182699999Y-31479999D03*
X192299999Y-31479999D03*
D11*
%TO.P,RV8,1,1*%
%TO.N,+3V3*%
X184999999Y-38979999D03*
D12*
%TO.P,RV8,2,2*%
%TO.N,MUX_IN_8*%
X187500000Y-38980000D03*
%TO.P,RV8,3,3*%
%TO.N,GND*%
X190000000Y-38980000D03*
%TD*%
D10*
%TO.P,RV4,*%
%TO.N,*%
X131059999Y-31479999D03*
X140659999Y-31479999D03*
D11*
%TO.P,RV4,1,1*%
%TO.N,+3V3*%
X133359999Y-38979999D03*
D12*
%TO.P,RV4,2,2*%
%TO.N,MUX_IN_4*%
X135860000Y-38980000D03*
%TO.P,RV4,3,3*%
%TO.N,GND*%
X138360000Y-38980000D03*
%TD*%
D13*
%TO.P,J1,1,Pin_1*%
%TO.N,+3V3*%
X207119999Y-40149999D03*
D14*
%TO.P,J1,2,Pin_2*%
%TO.N,CHANNEL_SELECT_A*%
X207119999Y-37609999D03*
%TO.P,J1,3,Pin_3*%
%TO.N,CHANNEL_SELECT_B*%
X207119999Y-35069999D03*
%TO.P,J1,4,Pin_4*%
%TO.N,CHANNEL_SELECT_C*%
X207119999Y-32529999D03*
%TO.P,J1,5,Pin_5*%
%TO.N,MUX_OUT*%
X207119999Y-29989999D03*
%TO.P,J1,6,Pin_6*%
%TO.N,GND*%
X207119999Y-27449999D03*
%TD*%
D10*
%TO.P,RV2,*%
%TO.N,*%
X105239999Y-31479999D03*
X114839999Y-31479999D03*
D11*
%TO.P,RV2,1,1*%
%TO.N,+3V3*%
X107539999Y-38979999D03*
D12*
%TO.P,RV2,2,2*%
%TO.N,MUX_IN_2*%
X110040000Y-38980000D03*
%TO.P,RV2,3,3*%
%TO.N,GND*%
X112540000Y-38980000D03*
%TD*%
D15*
%TO.N,+3V3*%
X200150000Y-27960000D03*
%TD*%
D16*
%TO.N,+3V3*%
X106314700Y-40205300D02*
X107540000Y-38980000D01*
X186224511Y-40204511D02*
X197695489Y-40204511D01*
X202550000Y-40150000D02*
X200150000Y-37750000D01*
X94640000Y-38980000D02*
X95865300Y-40205300D01*
X207120000Y-40150000D02*
X202550000Y-40150000D01*
X133360000Y-38980000D02*
X135200000Y-37140000D01*
X135200000Y-37140000D02*
X144450000Y-37140000D01*
X200150000Y-37750000D02*
X200150000Y-27960000D01*
X172080000Y-38980000D02*
X173570000Y-40470000D01*
X148130000Y-37140000D02*
X146290000Y-38980000D01*
X197695489Y-40204511D02*
X200150000Y-37750000D01*
X120450000Y-38980000D02*
X122300000Y-37130000D01*
X173570000Y-40470000D02*
X183510000Y-40470000D01*
X95865300Y-40205300D02*
X106314700Y-40205300D01*
X144450000Y-37140000D02*
X146290000Y-38980000D01*
X159180000Y-38980000D02*
X157340000Y-37140000D01*
X185000000Y-38980000D02*
X186224511Y-40204511D01*
X131510000Y-37130000D02*
X133360000Y-38980000D01*
X157340000Y-37140000D02*
X148130000Y-37140000D01*
X183510000Y-40470000D02*
X185000000Y-38980000D01*
X122300000Y-37130000D02*
X131510000Y-37130000D01*
%TD*%
%TA.AperFunction,Conductor*%
%TO.N,GND*%
G36*
X206635923Y-25680498D02*
G01*
X206644084Y-25680767D01*
X206723648Y-25685982D01*
X206901461Y-25698699D01*
X206917024Y-25700796D01*
X207028397Y-25722949D01*
X207030394Y-25723364D01*
X207170143Y-25753765D01*
X207183806Y-25757557D01*
X207297737Y-25796232D01*
X207301067Y-25797417D01*
X207428725Y-25845031D01*
X207440393Y-25850070D01*
X207477803Y-25868518D01*
X207521824Y-25890228D01*
X207573978Y-25938141D01*
X207592048Y-26006619D01*
X207570325Y-26074027D01*
X207515672Y-26119069D01*
X207445355Y-26127515D01*
X207387538Y-26117867D01*
X207376401Y-26118443D01*
X207374000Y-26129336D01*
X207374000Y-27578000D01*
X207357119Y-27641000D01*
X207311000Y-27687119D01*
X207248000Y-27704000D01*
X205797840Y-27704000D01*
X205786751Y-27706565D01*
X205786986Y-27717943D01*
X205829900Y-27887408D01*
X205833270Y-27897223D01*
X205919488Y-28093778D01*
X205924431Y-28102913D01*
X206041822Y-28282593D01*
X206048210Y-28290799D01*
X206193567Y-28448700D01*
X206201211Y-28455737D01*
X206370588Y-28587568D01*
X206379281Y-28593247D01*
X206408206Y-28608901D01*
X206456478Y-28655217D01*
X206474237Y-28719715D01*
X206456478Y-28784212D01*
X206408207Y-28830528D01*
X206396701Y-28836755D01*
X206379000Y-28846334D01*
X206378994Y-28846337D01*
X206374424Y-28848811D01*
X206370313Y-28852010D01*
X206370311Y-28852012D01*
X206200878Y-28983888D01*
X206200872Y-28983893D01*
X206196760Y-28987094D01*
X206193237Y-28990919D01*
X206193227Y-28990930D01*
X206047806Y-29148899D01*
X206047802Y-29148902D01*
X206044278Y-29152732D01*
X206041430Y-29157090D01*
X206041427Y-29157095D01*
X205975521Y-29257972D01*
X205921140Y-29341209D01*
X205919048Y-29345978D01*
X205919046Y-29345982D01*
X205832799Y-29542606D01*
X205832796Y-29542614D01*
X205830704Y-29547384D01*
X205829423Y-29552440D01*
X205829422Y-29552445D01*
X205792247Y-29699246D01*
X205775436Y-29765632D01*
X205775006Y-29770820D01*
X205775005Y-29770827D01*
X205758218Y-29973418D01*
X205756844Y-29990000D01*
X205757274Y-29995189D01*
X205773439Y-30190278D01*
X205775436Y-30214368D01*
X205830704Y-30432616D01*
X205832797Y-30437389D01*
X205832799Y-30437393D01*
X205880684Y-30546560D01*
X205921140Y-30638791D01*
X206044278Y-30827268D01*
X206047806Y-30831100D01*
X206193227Y-30989069D01*
X206193231Y-30989073D01*
X206196760Y-30992906D01*
X206374424Y-31131189D01*
X206379002Y-31133666D01*
X206379009Y-31133671D01*
X206407680Y-31149187D01*
X206455951Y-31195503D01*
X206473710Y-31260000D01*
X206455951Y-31324497D01*
X206407680Y-31370813D01*
X206379009Y-31386328D01*
X206378993Y-31386338D01*
X206374424Y-31388811D01*
X206370313Y-31392010D01*
X206370311Y-31392012D01*
X206200878Y-31523888D01*
X206200872Y-31523893D01*
X206196760Y-31527094D01*
X206193237Y-31530919D01*
X206193227Y-31530930D01*
X206047806Y-31688899D01*
X206047802Y-31688902D01*
X206044278Y-31692732D01*
X206041430Y-31697090D01*
X206041427Y-31697095D01*
X205923992Y-31876843D01*
X205921140Y-31881209D01*
X205919048Y-31885978D01*
X205919046Y-31885982D01*
X205832799Y-32082606D01*
X205832796Y-32082614D01*
X205830704Y-32087384D01*
X205829423Y-32092440D01*
X205829422Y-32092445D01*
X205821380Y-32124204D01*
X205775436Y-32305632D01*
X205775006Y-32310820D01*
X205775005Y-32310827D01*
X205757909Y-32517147D01*
X205756844Y-32530000D01*
X205758023Y-32544236D01*
X205774828Y-32747040D01*
X205775436Y-32754368D01*
X205830704Y-32972616D01*
X205832797Y-32977389D01*
X205832799Y-32977393D01*
X205880135Y-33085309D01*
X205921140Y-33178791D01*
X206044278Y-33367268D01*
X206094727Y-33422069D01*
X206193227Y-33529069D01*
X206193231Y-33529073D01*
X206196760Y-33532906D01*
X206374424Y-33671189D01*
X206379002Y-33673666D01*
X206379009Y-33673671D01*
X206407680Y-33689187D01*
X206455951Y-33735503D01*
X206473710Y-33800000D01*
X206455951Y-33864497D01*
X206407680Y-33910813D01*
X206379009Y-33926328D01*
X206378993Y-33926338D01*
X206374424Y-33928811D01*
X206370313Y-33932010D01*
X206370311Y-33932012D01*
X206200878Y-34063888D01*
X206200872Y-34063893D01*
X206196760Y-34067094D01*
X206193237Y-34070919D01*
X206193227Y-34070930D01*
X206047806Y-34228899D01*
X206047802Y-34228902D01*
X206044278Y-34232732D01*
X206041430Y-34237090D01*
X206041427Y-34237095D01*
X205923992Y-34416843D01*
X205921140Y-34421209D01*
X205919048Y-34425978D01*
X205919046Y-34425982D01*
X205832799Y-34622606D01*
X205832796Y-34622614D01*
X205830704Y-34627384D01*
X205829423Y-34632440D01*
X205829422Y-34632445D01*
X205821380Y-34664204D01*
X205775436Y-34845632D01*
X205775006Y-34850820D01*
X205775005Y-34850827D01*
X205757909Y-35057147D01*
X205756844Y-35070000D01*
X205775436Y-35294368D01*
X205830704Y-35512616D01*
X205832797Y-35517389D01*
X205832799Y-35517393D01*
X205908147Y-35689170D01*
X205921140Y-35718791D01*
X206044278Y-35907268D01*
X206047806Y-35911100D01*
X206193227Y-36069069D01*
X206193231Y-36069073D01*
X206196760Y-36072906D01*
X206374424Y-36211189D01*
X206407680Y-36229186D01*
X206455950Y-36275499D01*
X206473710Y-36339996D01*
X206455953Y-36404494D01*
X206407683Y-36450811D01*
X206379005Y-36466331D01*
X206378997Y-36466336D01*
X206374424Y-36468811D01*
X206370313Y-36472010D01*
X206370311Y-36472012D01*
X206200878Y-36603888D01*
X206200872Y-36603893D01*
X206196760Y-36607094D01*
X206193237Y-36610919D01*
X206193227Y-36610930D01*
X206047806Y-36768899D01*
X206047802Y-36768902D01*
X206044278Y-36772732D01*
X206041430Y-36777090D01*
X206041427Y-36777095D01*
X205923992Y-36956843D01*
X205921140Y-36961209D01*
X205919048Y-36965978D01*
X205919046Y-36965982D01*
X205832799Y-37162606D01*
X205832796Y-37162614D01*
X205830704Y-37167384D01*
X205829423Y-37172440D01*
X205829422Y-37172445D01*
X205821380Y-37204204D01*
X205775436Y-37385632D01*
X205775006Y-37390820D01*
X205775005Y-37390827D01*
X205767316Y-37483623D01*
X205756844Y-37610000D01*
X205757274Y-37615189D01*
X205774790Y-37826582D01*
X205775436Y-37834368D01*
X205830704Y-38052616D01*
X205832797Y-38057389D01*
X205832799Y-38057393D01*
X205888289Y-38183897D01*
X205921140Y-38258791D01*
X206044278Y-38447268D01*
X206112239Y-38521093D01*
X206187474Y-38602819D01*
X206216711Y-38656423D01*
X206217314Y-38717478D01*
X206189140Y-38771648D01*
X206138807Y-38806212D01*
X206032240Y-38845960D01*
X206032231Y-38845964D01*
X206023796Y-38849111D01*
X206016588Y-38854506D01*
X206016582Y-38854510D01*
X205913950Y-38931340D01*
X205913946Y-38931343D01*
X205906739Y-38936739D01*
X205901343Y-38943946D01*
X205901340Y-38943950D01*
X205824510Y-39046582D01*
X205824506Y-39046588D01*
X205819111Y-39053796D01*
X205815965Y-39062230D01*
X205815962Y-39062236D01*
X205770763Y-39183419D01*
X205770761Y-39183423D01*
X205768011Y-39190799D01*
X205767169Y-39198625D01*
X205767168Y-39198632D01*
X205765664Y-39212626D01*
X205761500Y-39251362D01*
X205761500Y-39254731D01*
X205761500Y-39390500D01*
X205744619Y-39453500D01*
X205698500Y-39499619D01*
X205635500Y-39516500D01*
X202864594Y-39516500D01*
X202816376Y-39506909D01*
X202775499Y-39479595D01*
X200820405Y-37524500D01*
X200793091Y-37483623D01*
X200783500Y-37435405D01*
X200783500Y-28662524D01*
X200791869Y-28617370D01*
X200815861Y-28578216D01*
X200889040Y-28496944D01*
X200984527Y-28331556D01*
X201043542Y-28149928D01*
X201063504Y-27960000D01*
X201043542Y-27770072D01*
X200984527Y-27588444D01*
X200889040Y-27423056D01*
X200761253Y-27281134D01*
X200755911Y-27277253D01*
X200755908Y-27277250D01*
X200672649Y-27216759D01*
X200640545Y-27193434D01*
X205786751Y-27193434D01*
X205797840Y-27196000D01*
X206849410Y-27196000D01*
X206862493Y-27192493D01*
X206866000Y-27179410D01*
X206866000Y-26129336D01*
X206863598Y-26118443D01*
X206852461Y-26117867D01*
X206790627Y-26128185D01*
X206780557Y-26130735D01*
X206577559Y-26200424D01*
X206568042Y-26204599D01*
X206379281Y-26306752D01*
X206370588Y-26312431D01*
X206201211Y-26444262D01*
X206193567Y-26451299D01*
X206048210Y-26609200D01*
X206041822Y-26617406D01*
X205924431Y-26797086D01*
X205919488Y-26806221D01*
X205833270Y-27002776D01*
X205829900Y-27012591D01*
X205786986Y-27182056D01*
X205786751Y-27193434D01*
X200640545Y-27193434D01*
X200606752Y-27168882D01*
X200432288Y-27091206D01*
X200425835Y-27089834D01*
X200425831Y-27089833D01*
X200251943Y-27052872D01*
X200251940Y-27052871D01*
X200245487Y-27051500D01*
X200054513Y-27051500D01*
X200048060Y-27052871D01*
X200048056Y-27052872D01*
X199874168Y-27089833D01*
X199874161Y-27089835D01*
X199867712Y-27091206D01*
X199861682Y-27093890D01*
X199861681Y-27093891D01*
X199699278Y-27166197D01*
X199699275Y-27166198D01*
X199693248Y-27168882D01*
X199687907Y-27172762D01*
X199687906Y-27172763D01*
X199544091Y-27277250D01*
X199544083Y-27277256D01*
X199538747Y-27281134D01*
X199534330Y-27286039D01*
X199534325Y-27286044D01*
X199415379Y-27418148D01*
X199410960Y-27423056D01*
X199407661Y-27428769D01*
X199407658Y-27428774D01*
X199354105Y-27521531D01*
X199315473Y-27588444D01*
X199313434Y-27594718D01*
X199313430Y-27594728D01*
X199258497Y-27763794D01*
X199258495Y-27763801D01*
X199256458Y-27770072D01*
X199236496Y-27960000D01*
X199237186Y-27966565D01*
X199241686Y-28009385D01*
X199256458Y-28149928D01*
X199258495Y-28156200D01*
X199258497Y-28156205D01*
X199313430Y-28325271D01*
X199313433Y-28325278D01*
X199315473Y-28331556D01*
X199410960Y-28496944D01*
X199484138Y-28578216D01*
X199508131Y-28617370D01*
X199516500Y-28662524D01*
X199516500Y-37435406D01*
X199506909Y-37483624D01*
X199479595Y-37524501D01*
X197469989Y-39534106D01*
X197429112Y-39561420D01*
X197380894Y-39571011D01*
X191464665Y-39571011D01*
X191409326Y-39558208D01*
X191365233Y-39522402D01*
X191341347Y-39470868D01*
X191342521Y-39414080D01*
X191392275Y-39217602D01*
X191393987Y-39207348D01*
X191412396Y-38985189D01*
X191412396Y-38974811D01*
X191393987Y-38752651D01*
X191392275Y-38742397D01*
X191337554Y-38526308D01*
X191334181Y-38516483D01*
X191244637Y-38312344D01*
X191239690Y-38303203D01*
X191166890Y-38191773D01*
X191158796Y-38183926D01*
X191149262Y-38189947D01*
X190089094Y-39250115D01*
X190032610Y-39282727D01*
X189967388Y-39282727D01*
X189910904Y-39250115D01*
X188850736Y-38189947D01*
X188841156Y-38183897D01*
X188794414Y-38212530D01*
X188739688Y-38218526D01*
X188687629Y-38200615D01*
X188648177Y-38162218D01*
X188618164Y-38116280D01*
X188615314Y-38111917D01*
X188538073Y-38028011D01*
X188460752Y-37944018D01*
X188460747Y-37944013D01*
X188457220Y-37940182D01*
X188430974Y-37919754D01*
X188302600Y-37819835D01*
X189204581Y-37819835D01*
X189211349Y-37832138D01*
X189988270Y-38609059D01*
X189999999Y-38615831D01*
X190011730Y-38609058D01*
X190788650Y-37832137D01*
X190795417Y-37819836D01*
X190787179Y-37808465D01*
X190776856Y-37800430D01*
X190768161Y-37794749D01*
X190572111Y-37688653D01*
X190562594Y-37684478D01*
X190351758Y-37612098D01*
X190341688Y-37609548D01*
X190121807Y-37572857D01*
X190111459Y-37572000D01*
X189888541Y-37572000D01*
X189878192Y-37572857D01*
X189658311Y-37609548D01*
X189648241Y-37612098D01*
X189437405Y-37684478D01*
X189427888Y-37688653D01*
X189231835Y-37794751D01*
X189223150Y-37800425D01*
X189212817Y-37808467D01*
X189204581Y-37819835D01*
X188302600Y-37819835D01*
X188277130Y-37800011D01*
X188277127Y-37800009D01*
X188273017Y-37796810D01*
X188268438Y-37794332D01*
X188268435Y-37794330D01*
X188072312Y-37688194D01*
X188072309Y-37688192D01*
X188067727Y-37685713D01*
X188062799Y-37684021D01*
X188062794Y-37684019D01*
X187851881Y-37611612D01*
X187851875Y-37611610D01*
X187846951Y-37609920D01*
X187841814Y-37609062D01*
X187841811Y-37609062D01*
X187621849Y-37572357D01*
X187621846Y-37572356D01*
X187616712Y-37571500D01*
X187383288Y-37571500D01*
X187378154Y-37572356D01*
X187378150Y-37572357D01*
X187158188Y-37609062D01*
X187158182Y-37609063D01*
X187153049Y-37609920D01*
X187148127Y-37611609D01*
X187148118Y-37611612D01*
X186937205Y-37684019D01*
X186937196Y-37684022D01*
X186932273Y-37685713D01*
X186927694Y-37688190D01*
X186927687Y-37688194D01*
X186731564Y-37794330D01*
X186731556Y-37794335D01*
X186726983Y-37796810D01*
X186562989Y-37924453D01*
X186560274Y-37926566D01*
X186506999Y-37950805D01*
X186448521Y-37948358D01*
X186397457Y-37919754D01*
X186364827Y-37871165D01*
X186354039Y-37842239D01*
X186354036Y-37842233D01*
X186350889Y-37833796D01*
X186341074Y-37820685D01*
X186268659Y-37723950D01*
X186263261Y-37716739D01*
X186225743Y-37688653D01*
X186153417Y-37634510D01*
X186153414Y-37634508D01*
X186146204Y-37629111D01*
X186137766Y-37625964D01*
X186137763Y-37625962D01*
X186016580Y-37580763D01*
X186016578Y-37580762D01*
X186009201Y-37578011D01*
X186001373Y-37577169D01*
X186001367Y-37577168D01*
X185951988Y-37571860D01*
X185951985Y-37571859D01*
X185948638Y-37571500D01*
X184051362Y-37571500D01*
X184048015Y-37571859D01*
X184048011Y-37571860D01*
X183998632Y-37577168D01*
X183998625Y-37577169D01*
X183990799Y-37578011D01*
X183983423Y-37580761D01*
X183983419Y-37580763D01*
X183862236Y-37625962D01*
X183862230Y-37625965D01*
X183853796Y-37629111D01*
X183846588Y-37634506D01*
X183846582Y-37634510D01*
X183743950Y-37711340D01*
X183743946Y-37711343D01*
X183736739Y-37716739D01*
X183731343Y-37723946D01*
X183731340Y-37723950D01*
X183654510Y-37826582D01*
X183654506Y-37826588D01*
X183649111Y-37833796D01*
X183645965Y-37842230D01*
X183645962Y-37842236D01*
X183600763Y-37963419D01*
X183600761Y-37963423D01*
X183598011Y-37970799D01*
X183597169Y-37978625D01*
X183597168Y-37978632D01*
X183594671Y-38001862D01*
X183591500Y-38031362D01*
X183591500Y-38034731D01*
X183591500Y-39440405D01*
X183581909Y-39488623D01*
X183554595Y-39529500D01*
X183284500Y-39799595D01*
X183243623Y-39826909D01*
X183195405Y-39836500D01*
X178433896Y-39836500D01*
X178371651Y-39820051D01*
X178325657Y-39775000D01*
X178307923Y-39713108D01*
X178322613Y-39652461D01*
X178322543Y-39652431D01*
X178322717Y-39652034D01*
X178323080Y-39650536D01*
X178324633Y-39647664D01*
X178414181Y-39443516D01*
X178417554Y-39433691D01*
X178472275Y-39217602D01*
X178473987Y-39207348D01*
X178492396Y-38985189D01*
X178492396Y-38974811D01*
X178473987Y-38752651D01*
X178472275Y-38742397D01*
X178417554Y-38526308D01*
X178414181Y-38516483D01*
X178324637Y-38312344D01*
X178319690Y-38303203D01*
X178246890Y-38191773D01*
X178238796Y-38183926D01*
X178229262Y-38189947D01*
X177169094Y-39250115D01*
X177112610Y-39282727D01*
X177047388Y-39282727D01*
X176990904Y-39250115D01*
X175930736Y-38189947D01*
X175921156Y-38183897D01*
X175874414Y-38212530D01*
X175819688Y-38218526D01*
X175767629Y-38200615D01*
X175728177Y-38162218D01*
X175698164Y-38116280D01*
X175695314Y-38111917D01*
X175618073Y-38028011D01*
X175540752Y-37944018D01*
X175540747Y-37944013D01*
X175537220Y-37940182D01*
X175510974Y-37919754D01*
X175382600Y-37819835D01*
X176284581Y-37819835D01*
X176291349Y-37832138D01*
X177068270Y-38609059D01*
X177079999Y-38615831D01*
X177091730Y-38609058D01*
X177868650Y-37832137D01*
X177875417Y-37819836D01*
X177867179Y-37808465D01*
X177856856Y-37800430D01*
X177848161Y-37794749D01*
X177652111Y-37688653D01*
X177642594Y-37684478D01*
X177431758Y-37612098D01*
X177421688Y-37609548D01*
X177201807Y-37572857D01*
X177191459Y-37572000D01*
X176968541Y-37572000D01*
X176958192Y-37572857D01*
X176738311Y-37609548D01*
X176728241Y-37612098D01*
X176517405Y-37684478D01*
X176507888Y-37688653D01*
X176311835Y-37794751D01*
X176303150Y-37800425D01*
X176292817Y-37808467D01*
X176284581Y-37819835D01*
X175382600Y-37819835D01*
X175357130Y-37800011D01*
X175357127Y-37800009D01*
X175353017Y-37796810D01*
X175348438Y-37794332D01*
X175348435Y-37794330D01*
X175152312Y-37688194D01*
X175152309Y-37688192D01*
X175147727Y-37685713D01*
X175142799Y-37684021D01*
X175142794Y-37684019D01*
X174931881Y-37611612D01*
X174931875Y-37611610D01*
X174926951Y-37609920D01*
X174921814Y-37609062D01*
X174921811Y-37609062D01*
X174701849Y-37572357D01*
X174701846Y-37572356D01*
X174696712Y-37571500D01*
X174463288Y-37571500D01*
X174458154Y-37572356D01*
X174458150Y-37572357D01*
X174238188Y-37609062D01*
X174238182Y-37609063D01*
X174233049Y-37609920D01*
X174228127Y-37611609D01*
X174228118Y-37611612D01*
X174017205Y-37684019D01*
X174017196Y-37684022D01*
X174012273Y-37685713D01*
X174007694Y-37688190D01*
X174007687Y-37688194D01*
X173811564Y-37794330D01*
X173811556Y-37794335D01*
X173806983Y-37796810D01*
X173642989Y-37924453D01*
X173640274Y-37926566D01*
X173586999Y-37950805D01*
X173528521Y-37948358D01*
X173477457Y-37919754D01*
X173444827Y-37871165D01*
X173434039Y-37842239D01*
X173434036Y-37842233D01*
X173430889Y-37833796D01*
X173421074Y-37820685D01*
X173348659Y-37723950D01*
X173343261Y-37716739D01*
X173305743Y-37688653D01*
X173233417Y-37634510D01*
X173233414Y-37634508D01*
X173226204Y-37629111D01*
X173217766Y-37625964D01*
X173217763Y-37625962D01*
X173096580Y-37580763D01*
X173096578Y-37580762D01*
X173089201Y-37578011D01*
X173081373Y-37577169D01*
X173081367Y-37577168D01*
X173031988Y-37571860D01*
X173031985Y-37571859D01*
X173028638Y-37571500D01*
X171131362Y-37571500D01*
X171128015Y-37571859D01*
X171128011Y-37571860D01*
X171078632Y-37577168D01*
X171078625Y-37577169D01*
X171070799Y-37578011D01*
X171063423Y-37580761D01*
X171063419Y-37580763D01*
X170942236Y-37625962D01*
X170942230Y-37625965D01*
X170933796Y-37629111D01*
X170926588Y-37634506D01*
X170926582Y-37634510D01*
X170823950Y-37711340D01*
X170823946Y-37711343D01*
X170816739Y-37716739D01*
X170811343Y-37723946D01*
X170811340Y-37723950D01*
X170734510Y-37826582D01*
X170734506Y-37826588D01*
X170729111Y-37833796D01*
X170725965Y-37842230D01*
X170725962Y-37842236D01*
X170680763Y-37963419D01*
X170680761Y-37963423D01*
X170678011Y-37970799D01*
X170677169Y-37978625D01*
X170677168Y-37978632D01*
X170674671Y-38001862D01*
X170671500Y-38031362D01*
X170671500Y-39928638D01*
X170671859Y-39931985D01*
X170671860Y-39931988D01*
X170677168Y-39981367D01*
X170677169Y-39981373D01*
X170678011Y-39989201D01*
X170680762Y-39996578D01*
X170680763Y-39996580D01*
X170725962Y-40117763D01*
X170725963Y-40117764D01*
X170729111Y-40126204D01*
X170734508Y-40133414D01*
X170734510Y-40133417D01*
X170758341Y-40165251D01*
X170816739Y-40243261D01*
X170933796Y-40330889D01*
X171070799Y-40381989D01*
X171131362Y-40388500D01*
X172540406Y-40388500D01*
X172588624Y-40398091D01*
X172629501Y-40425405D01*
X173066342Y-40862246D01*
X173073884Y-40870533D01*
X173078000Y-40877018D01*
X173083779Y-40882444D01*
X173083780Y-40882446D01*
X173127667Y-40923658D01*
X173130508Y-40926412D01*
X173150230Y-40946134D01*
X173153414Y-40948604D01*
X173162437Y-40956309D01*
X173194679Y-40986586D01*
X173201628Y-40990406D01*
X173212429Y-40996344D01*
X173228959Y-41007202D01*
X173238694Y-41014754D01*
X173238697Y-41014756D01*
X173244959Y-41019613D01*
X173285536Y-41037172D01*
X173296171Y-41042381D01*
X173334940Y-41063695D01*
X173354566Y-41068734D01*
X173373259Y-41075134D01*
X173391855Y-41083181D01*
X173399686Y-41084421D01*
X173399689Y-41084422D01*
X173416128Y-41087025D01*
X173435525Y-41090097D01*
X173447125Y-41092498D01*
X173489970Y-41103500D01*
X173510224Y-41103500D01*
X173529934Y-41105050D01*
X173549943Y-41108220D01*
X173593961Y-41104058D01*
X173605819Y-41103500D01*
X183431233Y-41103500D01*
X183442416Y-41104027D01*
X183449909Y-41105702D01*
X183517985Y-41103562D01*
X183521945Y-41103500D01*
X183545894Y-41103500D01*
X183549856Y-41103500D01*
X183553856Y-41102994D01*
X183565699Y-41102061D01*
X183609889Y-41100673D01*
X183629333Y-41095023D01*
X183648702Y-41091012D01*
X183668797Y-41088474D01*
X183709915Y-41072193D01*
X183721117Y-41068357D01*
X183763593Y-41056018D01*
X183781039Y-41045699D01*
X183798769Y-41037013D01*
X183817617Y-41029552D01*
X183853387Y-41003561D01*
X183863298Y-40997051D01*
X183901362Y-40974542D01*
X183915688Y-40960215D01*
X183930717Y-40947378D01*
X183947107Y-40935472D01*
X183975298Y-40901393D01*
X183983268Y-40892634D01*
X184450499Y-40425404D01*
X184491377Y-40398091D01*
X184539595Y-40388500D01*
X185460405Y-40388500D01*
X185508623Y-40398091D01*
X185549500Y-40425405D01*
X185720858Y-40596763D01*
X185728397Y-40605046D01*
X185732511Y-40611529D01*
X185738290Y-40616955D01*
X185738291Y-40616957D01*
X185782162Y-40658154D01*
X185785004Y-40660909D01*
X185804741Y-40680646D01*
X185807871Y-40683074D01*
X185807943Y-40683130D01*
X185816951Y-40690824D01*
X185849190Y-40721097D01*
X185856138Y-40724916D01*
X185856140Y-40724918D01*
X185866937Y-40730854D01*
X185883461Y-40741708D01*
X185893205Y-40749266D01*
X185893208Y-40749268D01*
X185899470Y-40754125D01*
X185923266Y-40764422D01*
X185940046Y-40771683D01*
X185950711Y-40776908D01*
X185962702Y-40783500D01*
X185989451Y-40798206D01*
X186009071Y-40803243D01*
X186027763Y-40809641D01*
X186046366Y-40817692D01*
X186090036Y-40824608D01*
X186101636Y-40827009D01*
X186144481Y-40838011D01*
X186164735Y-40838011D01*
X186184445Y-40839561D01*
X186204454Y-40842731D01*
X186248472Y-40838569D01*
X186260330Y-40838011D01*
X197616722Y-40838011D01*
X197627905Y-40838538D01*
X197635398Y-40840213D01*
X197703474Y-40838073D01*
X197707434Y-40838011D01*
X197731383Y-40838011D01*
X197735345Y-40838011D01*
X197739345Y-40837505D01*
X197751188Y-40836572D01*
X197795378Y-40835184D01*
X197814822Y-40829534D01*
X197834191Y-40825523D01*
X197854286Y-40822985D01*
X197895404Y-40806704D01*
X197906606Y-40802868D01*
X197949082Y-40790529D01*
X197966528Y-40780210D01*
X197984258Y-40771524D01*
X198003106Y-40764063D01*
X198038876Y-40738072D01*
X198048787Y-40731562D01*
X198086851Y-40709053D01*
X198101177Y-40694726D01*
X198116206Y-40681889D01*
X198132596Y-40669983D01*
X198160783Y-40635908D01*
X198168761Y-40627141D01*
X200060908Y-38734995D01*
X200117388Y-38702386D01*
X200182610Y-38702386D01*
X200239094Y-38734998D01*
X202046342Y-40542246D01*
X202053884Y-40550533D01*
X202058000Y-40557018D01*
X202063779Y-40562444D01*
X202063780Y-40562446D01*
X202107667Y-40603658D01*
X202110509Y-40606413D01*
X202130231Y-40626135D01*
X202133359Y-40628561D01*
X202133360Y-40628562D01*
X202133414Y-40628604D01*
X202142446Y-40636317D01*
X202174679Y-40666586D01*
X202181624Y-40670404D01*
X202192430Y-40676345D01*
X202208956Y-40687201D01*
X202218690Y-40694751D01*
X202218692Y-40694752D01*
X202224960Y-40699614D01*
X202265530Y-40717170D01*
X202276186Y-40722390D01*
X202306158Y-40738867D01*
X202314940Y-40743695D01*
X202334566Y-40748734D01*
X202353259Y-40755134D01*
X202371855Y-40763181D01*
X202379686Y-40764421D01*
X202379689Y-40764422D01*
X202395823Y-40766977D01*
X202415525Y-40770097D01*
X202427125Y-40772498D01*
X202469970Y-40783500D01*
X202490224Y-40783500D01*
X202509934Y-40785050D01*
X202529943Y-40788220D01*
X202573961Y-40784058D01*
X202585819Y-40783500D01*
X205635500Y-40783500D01*
X205698500Y-40800381D01*
X205744619Y-40846500D01*
X205761500Y-40909500D01*
X205761500Y-41048638D01*
X205761859Y-41051985D01*
X205761860Y-41051988D01*
X205767168Y-41101367D01*
X205767169Y-41101373D01*
X205768011Y-41109201D01*
X205770762Y-41116578D01*
X205770763Y-41116580D01*
X205815962Y-41237763D01*
X205815964Y-41237766D01*
X205819111Y-41246204D01*
X205824508Y-41253414D01*
X205824510Y-41253417D01*
X205861575Y-41302929D01*
X205906739Y-41363261D01*
X206023796Y-41450889D01*
X206160799Y-41501989D01*
X206221362Y-41508500D01*
X207526052Y-41508500D01*
X207589571Y-41525682D01*
X207635766Y-41572542D01*
X207652039Y-41636301D01*
X207633951Y-41699568D01*
X207586435Y-41745089D01*
X207561031Y-41758960D01*
X207556375Y-41761377D01*
X207446190Y-41815713D01*
X207434496Y-41820762D01*
X207306952Y-41868334D01*
X207303420Y-41869592D01*
X207189621Y-41908221D01*
X207175902Y-41912029D01*
X207036281Y-41942400D01*
X207034081Y-41942858D01*
X206922827Y-41964988D01*
X206907233Y-41967088D01*
X206729865Y-41979772D01*
X206729118Y-41979823D01*
X206649933Y-41985013D01*
X206641638Y-41985283D01*
X92902900Y-41936513D01*
X92897135Y-41936379D01*
X92729095Y-41928610D01*
X92728728Y-41928592D01*
X92530206Y-41918834D01*
X92518984Y-41917778D01*
X92338576Y-41892612D01*
X92337496Y-41892456D01*
X92152709Y-41865046D01*
X92142350Y-41863063D01*
X91962376Y-41820734D01*
X91960608Y-41820305D01*
X91782095Y-41775590D01*
X91772669Y-41772834D01*
X91596224Y-41713696D01*
X91593817Y-41712863D01*
X91421710Y-41651283D01*
X91413264Y-41647912D01*
X91242438Y-41572485D01*
X91239461Y-41571124D01*
X91074806Y-41493249D01*
X91067365Y-41489422D01*
X90903947Y-41398399D01*
X90900483Y-41396397D01*
X90744539Y-41302929D01*
X90738108Y-41298805D01*
X90583595Y-41192961D01*
X90579744Y-41190215D01*
X90433884Y-41082037D01*
X90428448Y-41077770D01*
X90385841Y-41042390D01*
X90284266Y-40958043D01*
X90280203Y-40954518D01*
X90145661Y-40832576D01*
X90141197Y-40828325D01*
X90008694Y-40695822D01*
X90004429Y-40691343D01*
X89882511Y-40556827D01*
X89878936Y-40552706D01*
X89759226Y-40408547D01*
X89754977Y-40403135D01*
X89646799Y-40257275D01*
X89644054Y-40253425D01*
X89538197Y-40098894D01*
X89534072Y-40092463D01*
X89531897Y-40088835D01*
X89440613Y-39936535D01*
X89438611Y-39933071D01*
X89436142Y-39928638D01*
X93231500Y-39928638D01*
X93231859Y-39931985D01*
X93231860Y-39931988D01*
X93237168Y-39981367D01*
X93237169Y-39981373D01*
X93238011Y-39989201D01*
X93240762Y-39996578D01*
X93240763Y-39996580D01*
X93285962Y-40117763D01*
X93285963Y-40117764D01*
X93289111Y-40126204D01*
X93294508Y-40133414D01*
X93294510Y-40133417D01*
X93318341Y-40165251D01*
X93376739Y-40243261D01*
X93493796Y-40330889D01*
X93630799Y-40381989D01*
X93691362Y-40388500D01*
X95100405Y-40388500D01*
X95148623Y-40398091D01*
X95189500Y-40425405D01*
X95361647Y-40597552D01*
X95369186Y-40605835D01*
X95373300Y-40612318D01*
X95379079Y-40617744D01*
X95379080Y-40617746D01*
X95422951Y-40658943D01*
X95425793Y-40661698D01*
X95445530Y-40681435D01*
X95448660Y-40683863D01*
X95448732Y-40683919D01*
X95457740Y-40691613D01*
X95489979Y-40721886D01*
X95496927Y-40725705D01*
X95496929Y-40725707D01*
X95507726Y-40731643D01*
X95524250Y-40742497D01*
X95533994Y-40750055D01*
X95533997Y-40750057D01*
X95540259Y-40754914D01*
X95568136Y-40766977D01*
X95580835Y-40772472D01*
X95591500Y-40777697D01*
X95603072Y-40784059D01*
X95630240Y-40798995D01*
X95649860Y-40804032D01*
X95668552Y-40810430D01*
X95687155Y-40818481D01*
X95730825Y-40825397D01*
X95742425Y-40827798D01*
X95785270Y-40838800D01*
X95805524Y-40838800D01*
X95825234Y-40840350D01*
X95845243Y-40843520D01*
X95889261Y-40839358D01*
X95901119Y-40838800D01*
X106235933Y-40838800D01*
X106247116Y-40839327D01*
X106254609Y-40841002D01*
X106322685Y-40838862D01*
X106326645Y-40838800D01*
X106350594Y-40838800D01*
X106354556Y-40838800D01*
X106358556Y-40838294D01*
X106370399Y-40837361D01*
X106414589Y-40835973D01*
X106434033Y-40830323D01*
X106453402Y-40826312D01*
X106473497Y-40823774D01*
X106514615Y-40807493D01*
X106525817Y-40803657D01*
X106568293Y-40791318D01*
X106585739Y-40780999D01*
X106603469Y-40772313D01*
X106622317Y-40764852D01*
X106658087Y-40738861D01*
X106667998Y-40732351D01*
X106706062Y-40709842D01*
X106720388Y-40695515D01*
X106735417Y-40682678D01*
X106751807Y-40670772D01*
X106779998Y-40636693D01*
X106787968Y-40627934D01*
X106990499Y-40425404D01*
X107031377Y-40398091D01*
X107079595Y-40388500D01*
X108485269Y-40388500D01*
X108488638Y-40388500D01*
X108549201Y-40381989D01*
X108686204Y-40330889D01*
X108803261Y-40243261D01*
X108890889Y-40126204D01*
X108904828Y-40088831D01*
X108937457Y-40040245D01*
X108988521Y-40011641D01*
X109046999Y-40009194D01*
X109100273Y-40033433D01*
X109266983Y-40163190D01*
X109472273Y-40274287D01*
X109693049Y-40350080D01*
X109923288Y-40388500D01*
X110151501Y-40388500D01*
X110156712Y-40388500D01*
X110386951Y-40350080D01*
X110607727Y-40274287D01*
X110813017Y-40163190D01*
X110842602Y-40140163D01*
X111744581Y-40140163D01*
X111752817Y-40151531D01*
X111763147Y-40159572D01*
X111771836Y-40165249D01*
X111967888Y-40271346D01*
X111977405Y-40275521D01*
X112188241Y-40347901D01*
X112198311Y-40350451D01*
X112418192Y-40387142D01*
X112428541Y-40388000D01*
X112651459Y-40388000D01*
X112661807Y-40387142D01*
X112881688Y-40350451D01*
X112891758Y-40347901D01*
X113102594Y-40275521D01*
X113112111Y-40271346D01*
X113308159Y-40165251D01*
X113316855Y-40159569D01*
X113327181Y-40151532D01*
X113335417Y-40140162D01*
X113328651Y-40127862D01*
X113129427Y-39928638D01*
X119041500Y-39928638D01*
X119041859Y-39931985D01*
X119041860Y-39931988D01*
X119047168Y-39981367D01*
X119047169Y-39981373D01*
X119048011Y-39989201D01*
X119050762Y-39996578D01*
X119050763Y-39996580D01*
X119095962Y-40117763D01*
X119095963Y-40117764D01*
X119099111Y-40126204D01*
X119104508Y-40133414D01*
X119104510Y-40133417D01*
X119128341Y-40165251D01*
X119186739Y-40243261D01*
X119303796Y-40330889D01*
X119440799Y-40381989D01*
X119501362Y-40388500D01*
X121395269Y-40388500D01*
X121398638Y-40388500D01*
X121459201Y-40381989D01*
X121596204Y-40330889D01*
X121713261Y-40243261D01*
X121800889Y-40126204D01*
X121814828Y-40088831D01*
X121847457Y-40040245D01*
X121898521Y-40011641D01*
X121956999Y-40009194D01*
X122010273Y-40033433D01*
X122176983Y-40163190D01*
X122382273Y-40274287D01*
X122603049Y-40350080D01*
X122833288Y-40388500D01*
X123061501Y-40388500D01*
X123066712Y-40388500D01*
X123296951Y-40350080D01*
X123517727Y-40274287D01*
X123723017Y-40163190D01*
X123752602Y-40140163D01*
X124654581Y-40140163D01*
X124662817Y-40151531D01*
X124673147Y-40159572D01*
X124681836Y-40165249D01*
X124877888Y-40271346D01*
X124887405Y-40275521D01*
X125098241Y-40347901D01*
X125108311Y-40350451D01*
X125328192Y-40387142D01*
X125338541Y-40388000D01*
X125561459Y-40388000D01*
X125571807Y-40387142D01*
X125791688Y-40350451D01*
X125801758Y-40347901D01*
X126012594Y-40275521D01*
X126022111Y-40271346D01*
X126218159Y-40165251D01*
X126226855Y-40159569D01*
X126237181Y-40151532D01*
X126245417Y-40140162D01*
X126238651Y-40127862D01*
X125461730Y-39350940D01*
X125449999Y-39344167D01*
X125438270Y-39350939D01*
X124661350Y-40127859D01*
X124654581Y-40140163D01*
X123752602Y-40140163D01*
X123907220Y-40019818D01*
X124065314Y-39848083D01*
X124098181Y-39797775D01*
X124137631Y-39759382D01*
X124189692Y-39741472D01*
X124244419Y-39747469D01*
X124291156Y-39776101D01*
X124300735Y-39770052D01*
X125079058Y-38991730D01*
X125085831Y-38979999D01*
X125814167Y-38979999D01*
X125820940Y-38991730D01*
X126599263Y-39770052D01*
X126608797Y-39776072D01*
X126616888Y-39768228D01*
X126689693Y-39656792D01*
X126694636Y-39647657D01*
X126784181Y-39443516D01*
X126787554Y-39433691D01*
X126842275Y-39217602D01*
X126843987Y-39207348D01*
X126862396Y-38985189D01*
X126862396Y-38974811D01*
X126843987Y-38752651D01*
X126842275Y-38742397D01*
X126787554Y-38526308D01*
X126784181Y-38516483D01*
X126694637Y-38312344D01*
X126689690Y-38303203D01*
X126616890Y-38191773D01*
X126608796Y-38183926D01*
X126599262Y-38189947D01*
X125820939Y-38968270D01*
X125814167Y-38979999D01*
X125085831Y-38979999D01*
X125079059Y-38968270D01*
X124300736Y-38189947D01*
X124291156Y-38183897D01*
X124244414Y-38212530D01*
X124189688Y-38218526D01*
X124137629Y-38200615D01*
X124098177Y-38162218D01*
X124068164Y-38116280D01*
X124065314Y-38111917D01*
X123939122Y-37974837D01*
X123910769Y-37924453D01*
X123907902Y-37866709D01*
X123931126Y-37813764D01*
X123975551Y-37776764D01*
X124031824Y-37763500D01*
X124549098Y-37763500D01*
X124613222Y-37781038D01*
X124659496Y-37828768D01*
X124661350Y-37832139D01*
X125438270Y-38609059D01*
X125449999Y-38615831D01*
X125461730Y-38609058D01*
X126238650Y-37832137D01*
X126240504Y-37828768D01*
X126286778Y-37781038D01*
X126350902Y-37763500D01*
X131195406Y-37763500D01*
X131243624Y-37773091D01*
X131284501Y-37800405D01*
X131914595Y-38430499D01*
X131941909Y-38471376D01*
X131951500Y-38519594D01*
X131951500Y-39928638D01*
X131951859Y-39931985D01*
X131951860Y-39931988D01*
X131957168Y-39981367D01*
X131957169Y-39981373D01*
X131958011Y-39989201D01*
X131960762Y-39996578D01*
X131960763Y-39996580D01*
X132005962Y-40117763D01*
X132005963Y-40117764D01*
X132009111Y-40126204D01*
X132014508Y-40133414D01*
X132014510Y-40133417D01*
X132038341Y-40165251D01*
X132096739Y-40243261D01*
X132213796Y-40330889D01*
X132350799Y-40381989D01*
X132411362Y-40388500D01*
X134305269Y-40388500D01*
X134308638Y-40388500D01*
X134369201Y-40381989D01*
X134506204Y-40330889D01*
X134623261Y-40243261D01*
X134710889Y-40126204D01*
X134724828Y-40088831D01*
X134757457Y-40040245D01*
X134808521Y-40011641D01*
X134866999Y-40009194D01*
X134920273Y-40033433D01*
X135086983Y-40163190D01*
X135292273Y-40274287D01*
X135513049Y-40350080D01*
X135743288Y-40388500D01*
X135971501Y-40388500D01*
X135976712Y-40388500D01*
X136206951Y-40350080D01*
X136427727Y-40274287D01*
X136633017Y-40163190D01*
X136662602Y-40140163D01*
X137564581Y-40140163D01*
X137572817Y-40151531D01*
X137583147Y-40159572D01*
X137591836Y-40165249D01*
X137787888Y-40271346D01*
X137797405Y-40275521D01*
X138008241Y-40347901D01*
X138018311Y-40350451D01*
X138238192Y-40387142D01*
X138248541Y-40388000D01*
X138471459Y-40388000D01*
X138481807Y-40387142D01*
X138701688Y-40350451D01*
X138711758Y-40347901D01*
X138922594Y-40275521D01*
X138932111Y-40271346D01*
X139128159Y-40165251D01*
X139136855Y-40159569D01*
X139147181Y-40151532D01*
X139155417Y-40140162D01*
X139148651Y-40127862D01*
X138371730Y-39350940D01*
X138359999Y-39344167D01*
X138348270Y-39350939D01*
X137571350Y-40127859D01*
X137564581Y-40140163D01*
X136662602Y-40140163D01*
X136817220Y-40019818D01*
X136975314Y-39848083D01*
X137008181Y-39797775D01*
X137047631Y-39759382D01*
X137099692Y-39741472D01*
X137154419Y-39747469D01*
X137201156Y-39776101D01*
X137210735Y-39770052D01*
X137989058Y-38991730D01*
X137995831Y-38979999D01*
X138724167Y-38979999D01*
X138730940Y-38991730D01*
X139509263Y-39770052D01*
X139518797Y-39776072D01*
X139526888Y-39768228D01*
X139599693Y-39656792D01*
X139604636Y-39647657D01*
X139694181Y-39443516D01*
X139697554Y-39433691D01*
X139752275Y-39217602D01*
X139753987Y-39207348D01*
X139772396Y-38985189D01*
X139772396Y-38974811D01*
X139753987Y-38752651D01*
X139752275Y-38742397D01*
X139697554Y-38526308D01*
X139694181Y-38516483D01*
X139604637Y-38312344D01*
X139599690Y-38303203D01*
X139526890Y-38191773D01*
X139518796Y-38183926D01*
X139509262Y-38189947D01*
X138730939Y-38968270D01*
X138724167Y-38979999D01*
X137995831Y-38979999D01*
X137989059Y-38968270D01*
X137210736Y-38189947D01*
X137201156Y-38183897D01*
X137154414Y-38212530D01*
X137099688Y-38218526D01*
X137047629Y-38200615D01*
X137008177Y-38162218D01*
X136978164Y-38116280D01*
X136975314Y-38111917D01*
X136858329Y-37984838D01*
X136829975Y-37934453D01*
X136827108Y-37876709D01*
X136850332Y-37823764D01*
X136894757Y-37786764D01*
X136951030Y-37773500D01*
X137464599Y-37773500D01*
X137528722Y-37791037D01*
X137557465Y-37820685D01*
X137558681Y-37819470D01*
X138348270Y-38609059D01*
X138359999Y-38615831D01*
X138371730Y-38609058D01*
X139161318Y-37819470D01*
X139162533Y-37820685D01*
X139191278Y-37791037D01*
X139255401Y-37773500D01*
X144135406Y-37773500D01*
X144183624Y-37783091D01*
X144224501Y-37810405D01*
X144844595Y-38430499D01*
X144871909Y-38471376D01*
X144881500Y-38519594D01*
X144881500Y-39928638D01*
X144881859Y-39931985D01*
X144881860Y-39931988D01*
X144887168Y-39981367D01*
X144887169Y-39981373D01*
X144888011Y-39989201D01*
X144890762Y-39996578D01*
X144890763Y-39996580D01*
X144935962Y-40117763D01*
X144935963Y-40117764D01*
X144939111Y-40126204D01*
X144944508Y-40133414D01*
X144944510Y-40133417D01*
X144968341Y-40165251D01*
X145026739Y-40243261D01*
X145143796Y-40330889D01*
X145280799Y-40381989D01*
X145341362Y-40388500D01*
X147235269Y-40388500D01*
X147238638Y-40388500D01*
X147299201Y-40381989D01*
X147436204Y-40330889D01*
X147553261Y-40243261D01*
X147640889Y-40126204D01*
X147654828Y-40088831D01*
X147687457Y-40040245D01*
X147738521Y-40011641D01*
X147796999Y-40009194D01*
X147850273Y-40033433D01*
X148016983Y-40163190D01*
X148222273Y-40274287D01*
X148443049Y-40350080D01*
X148673288Y-40388500D01*
X148901501Y-40388500D01*
X148906712Y-40388500D01*
X149136951Y-40350080D01*
X149357727Y-40274287D01*
X149563017Y-40163190D01*
X149592602Y-40140163D01*
X150494581Y-40140163D01*
X150502817Y-40151531D01*
X150513147Y-40159572D01*
X150521836Y-40165249D01*
X150717888Y-40271346D01*
X150727405Y-40275521D01*
X150938241Y-40347901D01*
X150948311Y-40350451D01*
X151168192Y-40387142D01*
X151178541Y-40388000D01*
X151401459Y-40388000D01*
X151411807Y-40387142D01*
X151631688Y-40350451D01*
X151641758Y-40347901D01*
X151852594Y-40275521D01*
X151862111Y-40271346D01*
X152058159Y-40165251D01*
X152066855Y-40159569D01*
X152077181Y-40151532D01*
X152085417Y-40140162D01*
X152078651Y-40127862D01*
X151301730Y-39350940D01*
X151289999Y-39344167D01*
X151278270Y-39350939D01*
X150501350Y-40127859D01*
X150494581Y-40140163D01*
X149592602Y-40140163D01*
X149747220Y-40019818D01*
X149905314Y-39848083D01*
X149938181Y-39797775D01*
X149977631Y-39759382D01*
X150029692Y-39741472D01*
X150084419Y-39747469D01*
X150131156Y-39776101D01*
X150140735Y-39770052D01*
X150919058Y-38991730D01*
X150925831Y-38979999D01*
X151654167Y-38979999D01*
X151660940Y-38991730D01*
X152439263Y-39770052D01*
X152448797Y-39776072D01*
X152456888Y-39768228D01*
X152529693Y-39656792D01*
X152534636Y-39647657D01*
X152624181Y-39443516D01*
X152627554Y-39433691D01*
X152682275Y-39217602D01*
X152683987Y-39207348D01*
X152702396Y-38985189D01*
X152702396Y-38974811D01*
X152683987Y-38752651D01*
X152682275Y-38742397D01*
X152627554Y-38526308D01*
X152624181Y-38516483D01*
X152534637Y-38312344D01*
X152529690Y-38303203D01*
X152456890Y-38191773D01*
X152448796Y-38183926D01*
X152439262Y-38189947D01*
X151660939Y-38968270D01*
X151654167Y-38979999D01*
X150925831Y-38979999D01*
X150919059Y-38968270D01*
X150140736Y-38189947D01*
X150131156Y-38183897D01*
X150084414Y-38212530D01*
X150029688Y-38218526D01*
X149977629Y-38200615D01*
X149938177Y-38162218D01*
X149908164Y-38116280D01*
X149905314Y-38111917D01*
X149788329Y-37984838D01*
X149759975Y-37934453D01*
X149757108Y-37876709D01*
X149780332Y-37823764D01*
X149824757Y-37786764D01*
X149881030Y-37773500D01*
X150394599Y-37773500D01*
X150458722Y-37791037D01*
X150487465Y-37820685D01*
X150488681Y-37819470D01*
X151278270Y-38609059D01*
X151289999Y-38615831D01*
X151301730Y-38609058D01*
X152091318Y-37819470D01*
X152092533Y-37820685D01*
X152121278Y-37791037D01*
X152185401Y-37773500D01*
X157025406Y-37773500D01*
X157073624Y-37783091D01*
X157114501Y-37810405D01*
X157734595Y-38430499D01*
X157761909Y-38471376D01*
X157771500Y-38519594D01*
X157771500Y-39928638D01*
X157771859Y-39931985D01*
X157771860Y-39931988D01*
X157777168Y-39981367D01*
X157777169Y-39981373D01*
X157778011Y-39989201D01*
X157780762Y-39996578D01*
X157780763Y-39996580D01*
X157825962Y-40117763D01*
X157825963Y-40117764D01*
X157829111Y-40126204D01*
X157834508Y-40133414D01*
X157834510Y-40133417D01*
X157858341Y-40165251D01*
X157916739Y-40243261D01*
X158033796Y-40330889D01*
X158170799Y-40381989D01*
X158231362Y-40388500D01*
X160125269Y-40388500D01*
X160128638Y-40388500D01*
X160189201Y-40381989D01*
X160326204Y-40330889D01*
X160443261Y-40243261D01*
X160530889Y-40126204D01*
X160544828Y-40088831D01*
X160577457Y-40040245D01*
X160628521Y-40011641D01*
X160686999Y-40009194D01*
X160740273Y-40033433D01*
X160906983Y-40163190D01*
X161112273Y-40274287D01*
X161333049Y-40350080D01*
X161563288Y-40388500D01*
X161791501Y-40388500D01*
X161796712Y-40388500D01*
X162026951Y-40350080D01*
X162247727Y-40274287D01*
X162453017Y-40163190D01*
X162482602Y-40140163D01*
X163384581Y-40140163D01*
X163392817Y-40151531D01*
X163403147Y-40159572D01*
X163411836Y-40165249D01*
X163607888Y-40271346D01*
X163617405Y-40275521D01*
X163828241Y-40347901D01*
X163838311Y-40350451D01*
X164058192Y-40387142D01*
X164068541Y-40388000D01*
X164291459Y-40388000D01*
X164301807Y-40387142D01*
X164521688Y-40350451D01*
X164531758Y-40347901D01*
X164742594Y-40275521D01*
X164752111Y-40271346D01*
X164948159Y-40165251D01*
X164956855Y-40159569D01*
X164967181Y-40151532D01*
X164975417Y-40140162D01*
X164968651Y-40127862D01*
X164191730Y-39350940D01*
X164179999Y-39344167D01*
X164168270Y-39350939D01*
X163391350Y-40127859D01*
X163384581Y-40140163D01*
X162482602Y-40140163D01*
X162637220Y-40019818D01*
X162795314Y-39848083D01*
X162828181Y-39797775D01*
X162867631Y-39759382D01*
X162919692Y-39741472D01*
X162974419Y-39747469D01*
X163021156Y-39776101D01*
X163030735Y-39770052D01*
X163809058Y-38991730D01*
X163815831Y-38979999D01*
X164544167Y-38979999D01*
X164550940Y-38991730D01*
X165329263Y-39770052D01*
X165338797Y-39776072D01*
X165346888Y-39768228D01*
X165419693Y-39656792D01*
X165424636Y-39647657D01*
X165514181Y-39443516D01*
X165517554Y-39433691D01*
X165572275Y-39217602D01*
X165573987Y-39207348D01*
X165592396Y-38985189D01*
X165592396Y-38974811D01*
X165573987Y-38752651D01*
X165572275Y-38742397D01*
X165517554Y-38526308D01*
X165514181Y-38516483D01*
X165424637Y-38312344D01*
X165419690Y-38303203D01*
X165346890Y-38191773D01*
X165338796Y-38183926D01*
X165329262Y-38189947D01*
X164550939Y-38968270D01*
X164544167Y-38979999D01*
X163815831Y-38979999D01*
X163809059Y-38968270D01*
X163030736Y-38189947D01*
X163021156Y-38183897D01*
X162974414Y-38212530D01*
X162919688Y-38218526D01*
X162867629Y-38200615D01*
X162828177Y-38162218D01*
X162798164Y-38116280D01*
X162795314Y-38111917D01*
X162718073Y-38028011D01*
X162640752Y-37944018D01*
X162640747Y-37944013D01*
X162637220Y-37940182D01*
X162610974Y-37919754D01*
X162482600Y-37819835D01*
X163384581Y-37819835D01*
X163391349Y-37832138D01*
X164168270Y-38609059D01*
X164179999Y-38615831D01*
X164191730Y-38609058D01*
X164968650Y-37832137D01*
X164975417Y-37819836D01*
X164967179Y-37808465D01*
X164956856Y-37800430D01*
X164948161Y-37794749D01*
X164752111Y-37688653D01*
X164742594Y-37684478D01*
X164531758Y-37612098D01*
X164521688Y-37609548D01*
X164301807Y-37572857D01*
X164291459Y-37572000D01*
X164068541Y-37572000D01*
X164058192Y-37572857D01*
X163838311Y-37609548D01*
X163828241Y-37612098D01*
X163617405Y-37684478D01*
X163607888Y-37688653D01*
X163411835Y-37794751D01*
X163403150Y-37800425D01*
X163392817Y-37808467D01*
X163384581Y-37819835D01*
X162482600Y-37819835D01*
X162457130Y-37800011D01*
X162457127Y-37800009D01*
X162453017Y-37796810D01*
X162448438Y-37794332D01*
X162448435Y-37794330D01*
X162252312Y-37688194D01*
X162252309Y-37688192D01*
X162247727Y-37685713D01*
X162242799Y-37684021D01*
X162242794Y-37684019D01*
X162031881Y-37611612D01*
X162031875Y-37611610D01*
X162026951Y-37609920D01*
X162021814Y-37609062D01*
X162021811Y-37609062D01*
X161801849Y-37572357D01*
X161801846Y-37572356D01*
X161796712Y-37571500D01*
X161563288Y-37571500D01*
X161558154Y-37572356D01*
X161558150Y-37572357D01*
X161338188Y-37609062D01*
X161338182Y-37609063D01*
X161333049Y-37609920D01*
X161328127Y-37611609D01*
X161328118Y-37611612D01*
X161117205Y-37684019D01*
X161117196Y-37684022D01*
X161112273Y-37685713D01*
X161107694Y-37688190D01*
X161107687Y-37688194D01*
X160911564Y-37794330D01*
X160911556Y-37794335D01*
X160906983Y-37796810D01*
X160742989Y-37924453D01*
X160740274Y-37926566D01*
X160686999Y-37950805D01*
X160628521Y-37948358D01*
X160577457Y-37919754D01*
X160544827Y-37871165D01*
X160534039Y-37842239D01*
X160534036Y-37842233D01*
X160530889Y-37833796D01*
X160521074Y-37820685D01*
X160448659Y-37723950D01*
X160443261Y-37716739D01*
X160405743Y-37688653D01*
X160333417Y-37634510D01*
X160333414Y-37634508D01*
X160326204Y-37629111D01*
X160317766Y-37625964D01*
X160317763Y-37625962D01*
X160196580Y-37580763D01*
X160196578Y-37580762D01*
X160189201Y-37578011D01*
X160181373Y-37577169D01*
X160181367Y-37577168D01*
X160131988Y-37571860D01*
X160131985Y-37571859D01*
X160128638Y-37571500D01*
X160125269Y-37571500D01*
X158719595Y-37571500D01*
X158671377Y-37561909D01*
X158630500Y-37534595D01*
X157843646Y-36747741D01*
X157836112Y-36739463D01*
X157832000Y-36732982D01*
X157782347Y-36686355D01*
X157779505Y-36683600D01*
X157762574Y-36666669D01*
X157759770Y-36663865D01*
X157756575Y-36661386D01*
X157747554Y-36653682D01*
X157741230Y-36647744D01*
X157715321Y-36623414D01*
X157708377Y-36619596D01*
X157708371Y-36619592D01*
X157697566Y-36613652D01*
X157681047Y-36602801D01*
X157665041Y-36590386D01*
X157657766Y-36587238D01*
X157657763Y-36587236D01*
X157624466Y-36572828D01*
X157613804Y-36567605D01*
X157582007Y-36550124D01*
X157582005Y-36550123D01*
X157575060Y-36546305D01*
X157567383Y-36544334D01*
X157567381Y-36544333D01*
X157555438Y-36541267D01*
X157536734Y-36534863D01*
X157525420Y-36529967D01*
X157525418Y-36529966D01*
X157518145Y-36526819D01*
X157510319Y-36525579D01*
X157510318Y-36525579D01*
X157477615Y-36520399D01*
X157474474Y-36519901D01*
X157462859Y-36517496D01*
X157420030Y-36506500D01*
X157412101Y-36506500D01*
X157399776Y-36506500D01*
X157380065Y-36504949D01*
X157367885Y-36503019D01*
X157367878Y-36503018D01*
X157360057Y-36501780D01*
X157352173Y-36502525D01*
X157352165Y-36502525D01*
X157316039Y-36505941D01*
X157304181Y-36506500D01*
X148208767Y-36506500D01*
X148197583Y-36505972D01*
X148190091Y-36504298D01*
X148182165Y-36504547D01*
X148122001Y-36506438D01*
X148118043Y-36506500D01*
X148090144Y-36506500D01*
X148086219Y-36506995D01*
X148086198Y-36506997D01*
X148086124Y-36507007D01*
X148074313Y-36507936D01*
X148038034Y-36509076D01*
X148038026Y-36509077D01*
X148030111Y-36509326D01*
X148022500Y-36511536D01*
X148022493Y-36511538D01*
X148010648Y-36514979D01*
X147991303Y-36518985D01*
X147979072Y-36520530D01*
X147979059Y-36520533D01*
X147971203Y-36521526D01*
X147963839Y-36524441D01*
X147963829Y-36524444D01*
X147930092Y-36537802D01*
X147918865Y-36541646D01*
X147884018Y-36551770D01*
X147884013Y-36551772D01*
X147876407Y-36553982D01*
X147869590Y-36558012D01*
X147869581Y-36558017D01*
X147858960Y-36564298D01*
X147841221Y-36572989D01*
X147829749Y-36577531D01*
X147829746Y-36577532D01*
X147822383Y-36580448D01*
X147815976Y-36585102D01*
X147815972Y-36585105D01*
X147786611Y-36606437D01*
X147776693Y-36612951D01*
X147745465Y-36631419D01*
X147745457Y-36631425D01*
X147738638Y-36635458D01*
X147733036Y-36641058D01*
X147733029Y-36641065D01*
X147724308Y-36649786D01*
X147709287Y-36662615D01*
X147699307Y-36669866D01*
X147699298Y-36669873D01*
X147692893Y-36674528D01*
X147687845Y-36680628D01*
X147687836Y-36680638D01*
X147664705Y-36708598D01*
X147656719Y-36717375D01*
X146839501Y-37534595D01*
X146798623Y-37561909D01*
X146750405Y-37571500D01*
X145829595Y-37571500D01*
X145781377Y-37561909D01*
X145740500Y-37534595D01*
X144953646Y-36747741D01*
X144946112Y-36739463D01*
X144942000Y-36732982D01*
X144892347Y-36686355D01*
X144889505Y-36683600D01*
X144872574Y-36666669D01*
X144869770Y-36663865D01*
X144866575Y-36661386D01*
X144857554Y-36653682D01*
X144851230Y-36647744D01*
X144825321Y-36623414D01*
X144818377Y-36619596D01*
X144818371Y-36619592D01*
X144807566Y-36613652D01*
X144791047Y-36602801D01*
X144775041Y-36590386D01*
X144767766Y-36587238D01*
X144767763Y-36587236D01*
X144734466Y-36572828D01*
X144723804Y-36567605D01*
X144692007Y-36550124D01*
X144692005Y-36550123D01*
X144685060Y-36546305D01*
X144677383Y-36544334D01*
X144677381Y-36544333D01*
X144665438Y-36541267D01*
X144646734Y-36534863D01*
X144635420Y-36529967D01*
X144635418Y-36529966D01*
X144628145Y-36526819D01*
X144620319Y-36525579D01*
X144620318Y-36525579D01*
X144587615Y-36520399D01*
X144584474Y-36519901D01*
X144572859Y-36517496D01*
X144530030Y-36506500D01*
X144522101Y-36506500D01*
X144509776Y-36506500D01*
X144490065Y-36504949D01*
X144477885Y-36503019D01*
X144477878Y-36503018D01*
X144470057Y-36501780D01*
X144462173Y-36502525D01*
X144462165Y-36502525D01*
X144426039Y-36505941D01*
X144414181Y-36506500D01*
X135278767Y-36506500D01*
X135267583Y-36505972D01*
X135260091Y-36504298D01*
X135252165Y-36504547D01*
X135192001Y-36506438D01*
X135188043Y-36506500D01*
X135160144Y-36506500D01*
X135156219Y-36506995D01*
X135156198Y-36506997D01*
X135156124Y-36507007D01*
X135144313Y-36507936D01*
X135108034Y-36509076D01*
X135108026Y-36509077D01*
X135100111Y-36509326D01*
X135092500Y-36511536D01*
X135092493Y-36511538D01*
X135080648Y-36514979D01*
X135061303Y-36518985D01*
X135049072Y-36520530D01*
X135049059Y-36520533D01*
X135041203Y-36521526D01*
X135033839Y-36524441D01*
X135033829Y-36524444D01*
X135000092Y-36537802D01*
X134988865Y-36541646D01*
X134954018Y-36551770D01*
X134954013Y-36551772D01*
X134946407Y-36553982D01*
X134939590Y-36558012D01*
X134939581Y-36558017D01*
X134928960Y-36564298D01*
X134911221Y-36572989D01*
X134899749Y-36577531D01*
X134899746Y-36577532D01*
X134892383Y-36580448D01*
X134885976Y-36585102D01*
X134885972Y-36585105D01*
X134856611Y-36606437D01*
X134846693Y-36612951D01*
X134815465Y-36631419D01*
X134815457Y-36631425D01*
X134808638Y-36635458D01*
X134803036Y-36641058D01*
X134803029Y-36641065D01*
X134794308Y-36649786D01*
X134779287Y-36662615D01*
X134769307Y-36669866D01*
X134769298Y-36669873D01*
X134762893Y-36674528D01*
X134757845Y-36680628D01*
X134757836Y-36680638D01*
X134734705Y-36708598D01*
X134726719Y-36717375D01*
X133909501Y-37534595D01*
X133868623Y-37561909D01*
X133820405Y-37571500D01*
X132899595Y-37571500D01*
X132851377Y-37561909D01*
X132810500Y-37534595D01*
X132013646Y-36737741D01*
X132006112Y-36729463D01*
X132002000Y-36722982D01*
X131952347Y-36676355D01*
X131949505Y-36673600D01*
X131932574Y-36656669D01*
X131929770Y-36653865D01*
X131926575Y-36651386D01*
X131917554Y-36643682D01*
X131891097Y-36618838D01*
X131885321Y-36613414D01*
X131878377Y-36609596D01*
X131878371Y-36609592D01*
X131867566Y-36603652D01*
X131851047Y-36592801D01*
X131835041Y-36580386D01*
X131827766Y-36577238D01*
X131827763Y-36577236D01*
X131794466Y-36562828D01*
X131783804Y-36557605D01*
X131752007Y-36540124D01*
X131752005Y-36540123D01*
X131745060Y-36536305D01*
X131737383Y-36534334D01*
X131737381Y-36534333D01*
X131728031Y-36531932D01*
X131725436Y-36531266D01*
X131706734Y-36524863D01*
X131695420Y-36519967D01*
X131695418Y-36519966D01*
X131688145Y-36516819D01*
X131680319Y-36515579D01*
X131680318Y-36515579D01*
X131644475Y-36509902D01*
X131632859Y-36507496D01*
X131590030Y-36496500D01*
X131582101Y-36496500D01*
X131569776Y-36496500D01*
X131550065Y-36494949D01*
X131537885Y-36493019D01*
X131537878Y-36493018D01*
X131530057Y-36491780D01*
X131522173Y-36492525D01*
X131522165Y-36492525D01*
X131486039Y-36495941D01*
X131474181Y-36496500D01*
X122378767Y-36496500D01*
X122367583Y-36495972D01*
X122360091Y-36494298D01*
X122352165Y-36494547D01*
X122292014Y-36496438D01*
X122288055Y-36496500D01*
X122260144Y-36496500D01*
X122256218Y-36496995D01*
X122256200Y-36496997D01*
X122256108Y-36497009D01*
X122244303Y-36497937D01*
X122208030Y-36499077D01*
X122208022Y-36499078D01*
X122200110Y-36499327D01*
X122192503Y-36501536D01*
X122192502Y-36501537D01*
X122180655Y-36504979D01*
X122161306Y-36508986D01*
X122149062Y-36510533D01*
X122141203Y-36511526D01*
X122133841Y-36514440D01*
X122133832Y-36514443D01*
X122100097Y-36527800D01*
X122088870Y-36531645D01*
X122054012Y-36541772D01*
X122054008Y-36541773D01*
X122046407Y-36543982D01*
X122039591Y-36548012D01*
X122039583Y-36548016D01*
X122028960Y-36554298D01*
X122011221Y-36562989D01*
X121999749Y-36567531D01*
X121999746Y-36567532D01*
X121992383Y-36570448D01*
X121985976Y-36575102D01*
X121985972Y-36575105D01*
X121956611Y-36596437D01*
X121946693Y-36602951D01*
X121915465Y-36621419D01*
X121915457Y-36621425D01*
X121908638Y-36625458D01*
X121903036Y-36631058D01*
X121903029Y-36631065D01*
X121894308Y-36639786D01*
X121879287Y-36652615D01*
X121869307Y-36659866D01*
X121869298Y-36659873D01*
X121862893Y-36664528D01*
X121857845Y-36670628D01*
X121857836Y-36670638D01*
X121834705Y-36698598D01*
X121826719Y-36707375D01*
X120999501Y-37534595D01*
X120958623Y-37561909D01*
X120910405Y-37571500D01*
X119501362Y-37571500D01*
X119498015Y-37571859D01*
X119498011Y-37571860D01*
X119448632Y-37577168D01*
X119448625Y-37577169D01*
X119440799Y-37578011D01*
X119433423Y-37580761D01*
X119433419Y-37580763D01*
X119312236Y-37625962D01*
X119312230Y-37625965D01*
X119303796Y-37629111D01*
X119296588Y-37634506D01*
X119296582Y-37634510D01*
X119193950Y-37711340D01*
X119193946Y-37711343D01*
X119186739Y-37716739D01*
X119181343Y-37723946D01*
X119181340Y-37723950D01*
X119104510Y-37826582D01*
X119104506Y-37826588D01*
X119099111Y-37833796D01*
X119095965Y-37842230D01*
X119095962Y-37842236D01*
X119050763Y-37963419D01*
X119050761Y-37963423D01*
X119048011Y-37970799D01*
X119047169Y-37978625D01*
X119047168Y-37978632D01*
X119044671Y-38001862D01*
X119041500Y-38031362D01*
X119041500Y-39928638D01*
X113129427Y-39928638D01*
X112551730Y-39350940D01*
X112539999Y-39344167D01*
X112528270Y-39350939D01*
X111751350Y-40127859D01*
X111744581Y-40140163D01*
X110842602Y-40140163D01*
X110997220Y-40019818D01*
X111155314Y-39848083D01*
X111188181Y-39797775D01*
X111227631Y-39759382D01*
X111279692Y-39741472D01*
X111334419Y-39747469D01*
X111381156Y-39776101D01*
X111390735Y-39770052D01*
X112169058Y-38991730D01*
X112175831Y-38979999D01*
X112904167Y-38979999D01*
X112910940Y-38991730D01*
X113689263Y-39770052D01*
X113698797Y-39776072D01*
X113706888Y-39768228D01*
X113779693Y-39656792D01*
X113784636Y-39647657D01*
X113874181Y-39443516D01*
X113877554Y-39433691D01*
X113932275Y-39217602D01*
X113933987Y-39207348D01*
X113952396Y-38985189D01*
X113952396Y-38974811D01*
X113933987Y-38752651D01*
X113932275Y-38742397D01*
X113877554Y-38526308D01*
X113874181Y-38516483D01*
X113784637Y-38312344D01*
X113779690Y-38303203D01*
X113706890Y-38191773D01*
X113698796Y-38183926D01*
X113689262Y-38189947D01*
X112910939Y-38968270D01*
X112904167Y-38979999D01*
X112175831Y-38979999D01*
X112169059Y-38968270D01*
X111390736Y-38189947D01*
X111381156Y-38183897D01*
X111334414Y-38212530D01*
X111279688Y-38218526D01*
X111227629Y-38200615D01*
X111188177Y-38162218D01*
X111158164Y-38116280D01*
X111155314Y-38111917D01*
X111078073Y-38028011D01*
X111000752Y-37944018D01*
X111000747Y-37944013D01*
X110997220Y-37940182D01*
X110970974Y-37919754D01*
X110842600Y-37819835D01*
X111744581Y-37819835D01*
X111751349Y-37832138D01*
X112528270Y-38609059D01*
X112539999Y-38615831D01*
X112551730Y-38609058D01*
X113328650Y-37832137D01*
X113335417Y-37819836D01*
X113327179Y-37808465D01*
X113316856Y-37800430D01*
X113308161Y-37794749D01*
X113112111Y-37688653D01*
X113102594Y-37684478D01*
X112891758Y-37612098D01*
X112881688Y-37609548D01*
X112661807Y-37572857D01*
X112651459Y-37572000D01*
X112428541Y-37572000D01*
X112418192Y-37572857D01*
X112198311Y-37609548D01*
X112188241Y-37612098D01*
X111977405Y-37684478D01*
X111967888Y-37688653D01*
X111771835Y-37794751D01*
X111763150Y-37800425D01*
X111752817Y-37808467D01*
X111744581Y-37819835D01*
X110842600Y-37819835D01*
X110817130Y-37800011D01*
X110817127Y-37800009D01*
X110813017Y-37796810D01*
X110808438Y-37794332D01*
X110808435Y-37794330D01*
X110612312Y-37688194D01*
X110612309Y-37688192D01*
X110607727Y-37685713D01*
X110602799Y-37684021D01*
X110602794Y-37684019D01*
X110391881Y-37611612D01*
X110391875Y-37611610D01*
X110386951Y-37609920D01*
X110381814Y-37609062D01*
X110381811Y-37609062D01*
X110161849Y-37572357D01*
X110161846Y-37572356D01*
X110156712Y-37571500D01*
X109923288Y-37571500D01*
X109918154Y-37572356D01*
X109918150Y-37572357D01*
X109698188Y-37609062D01*
X109698182Y-37609063D01*
X109693049Y-37609920D01*
X109688127Y-37611609D01*
X109688118Y-37611612D01*
X109477205Y-37684019D01*
X109477196Y-37684022D01*
X109472273Y-37685713D01*
X109467694Y-37688190D01*
X109467687Y-37688194D01*
X109271564Y-37794330D01*
X109271556Y-37794335D01*
X109266983Y-37796810D01*
X109102989Y-37924453D01*
X109100274Y-37926566D01*
X109046999Y-37950805D01*
X108988521Y-37948358D01*
X108937457Y-37919754D01*
X108904827Y-37871165D01*
X108894039Y-37842239D01*
X108894036Y-37842233D01*
X108890889Y-37833796D01*
X108881074Y-37820685D01*
X108808659Y-37723950D01*
X108803261Y-37716739D01*
X108765743Y-37688653D01*
X108693417Y-37634510D01*
X108693414Y-37634508D01*
X108686204Y-37629111D01*
X108677766Y-37625964D01*
X108677763Y-37625962D01*
X108556580Y-37580763D01*
X108556578Y-37580762D01*
X108549201Y-37578011D01*
X108541373Y-37577169D01*
X108541367Y-37577168D01*
X108491988Y-37571860D01*
X108491985Y-37571859D01*
X108488638Y-37571500D01*
X106591362Y-37571500D01*
X106588015Y-37571859D01*
X106588011Y-37571860D01*
X106538632Y-37577168D01*
X106538625Y-37577169D01*
X106530799Y-37578011D01*
X106523423Y-37580761D01*
X106523419Y-37580763D01*
X106402236Y-37625962D01*
X106402230Y-37625965D01*
X106393796Y-37629111D01*
X106386588Y-37634506D01*
X106386582Y-37634510D01*
X106283950Y-37711340D01*
X106283946Y-37711343D01*
X106276739Y-37716739D01*
X106271343Y-37723946D01*
X106271340Y-37723950D01*
X106194510Y-37826582D01*
X106194506Y-37826588D01*
X106189111Y-37833796D01*
X106185965Y-37842230D01*
X106185962Y-37842236D01*
X106140763Y-37963419D01*
X106140761Y-37963423D01*
X106138011Y-37970799D01*
X106137169Y-37978625D01*
X106137168Y-37978632D01*
X106134671Y-38001862D01*
X106131500Y-38031362D01*
X106131500Y-38034731D01*
X106131500Y-39440405D01*
X106121909Y-39488623D01*
X106094595Y-39529500D01*
X106089200Y-39534895D01*
X106048323Y-39562209D01*
X106000105Y-39571800D01*
X101104465Y-39571800D01*
X101049126Y-39558997D01*
X101005033Y-39523191D01*
X100981147Y-39471657D01*
X100982321Y-39414869D01*
X101032275Y-39217602D01*
X101033987Y-39207348D01*
X101052396Y-38985189D01*
X101052396Y-38974811D01*
X101033987Y-38752651D01*
X101032275Y-38742397D01*
X100977554Y-38526308D01*
X100974181Y-38516483D01*
X100884637Y-38312344D01*
X100879690Y-38303203D01*
X100806890Y-38191773D01*
X100798796Y-38183926D01*
X100789262Y-38189947D01*
X99729094Y-39250115D01*
X99672610Y-39282727D01*
X99607388Y-39282727D01*
X99550904Y-39250115D01*
X98490736Y-38189947D01*
X98481156Y-38183897D01*
X98434414Y-38212530D01*
X98379688Y-38218526D01*
X98327629Y-38200615D01*
X98288177Y-38162218D01*
X98258164Y-38116280D01*
X98255314Y-38111917D01*
X98178073Y-38028011D01*
X98100752Y-37944018D01*
X98100747Y-37944013D01*
X98097220Y-37940182D01*
X98070974Y-37919754D01*
X97942600Y-37819835D01*
X98844581Y-37819835D01*
X98851349Y-37832138D01*
X99628270Y-38609059D01*
X99639999Y-38615831D01*
X99651730Y-38609058D01*
X100428650Y-37832137D01*
X100435417Y-37819836D01*
X100427179Y-37808465D01*
X100416856Y-37800430D01*
X100408161Y-37794749D01*
X100212111Y-37688653D01*
X100202594Y-37684478D01*
X99991758Y-37612098D01*
X99981688Y-37609548D01*
X99761807Y-37572857D01*
X99751459Y-37572000D01*
X99528541Y-37572000D01*
X99518192Y-37572857D01*
X99298311Y-37609548D01*
X99288241Y-37612098D01*
X99077405Y-37684478D01*
X99067888Y-37688653D01*
X98871835Y-37794751D01*
X98863150Y-37800425D01*
X98852817Y-37808467D01*
X98844581Y-37819835D01*
X97942600Y-37819835D01*
X97917130Y-37800011D01*
X97917127Y-37800009D01*
X97913017Y-37796810D01*
X97908438Y-37794332D01*
X97908435Y-37794330D01*
X97712312Y-37688194D01*
X97712309Y-37688192D01*
X97707727Y-37685713D01*
X97702799Y-37684021D01*
X97702794Y-37684019D01*
X97491881Y-37611612D01*
X97491875Y-37611610D01*
X97486951Y-37609920D01*
X97481814Y-37609062D01*
X97481811Y-37609062D01*
X97261849Y-37572357D01*
X97261846Y-37572356D01*
X97256712Y-37571500D01*
X97023288Y-37571500D01*
X97018154Y-37572356D01*
X97018150Y-37572357D01*
X96798188Y-37609062D01*
X96798182Y-37609063D01*
X96793049Y-37609920D01*
X96788127Y-37611609D01*
X96788118Y-37611612D01*
X96577205Y-37684019D01*
X96577196Y-37684022D01*
X96572273Y-37685713D01*
X96567694Y-37688190D01*
X96567687Y-37688194D01*
X96371564Y-37794330D01*
X96371556Y-37794335D01*
X96366983Y-37796810D01*
X96202989Y-37924453D01*
X96200274Y-37926566D01*
X96146999Y-37950805D01*
X96088521Y-37948358D01*
X96037457Y-37919754D01*
X96004827Y-37871165D01*
X95994039Y-37842239D01*
X95994036Y-37842233D01*
X95990889Y-37833796D01*
X95981074Y-37820685D01*
X95908659Y-37723950D01*
X95903261Y-37716739D01*
X95865743Y-37688653D01*
X95793417Y-37634510D01*
X95793414Y-37634508D01*
X95786204Y-37629111D01*
X95777766Y-37625964D01*
X95777763Y-37625962D01*
X95656580Y-37580763D01*
X95656578Y-37580762D01*
X95649201Y-37578011D01*
X95641373Y-37577169D01*
X95641367Y-37577168D01*
X95591988Y-37571860D01*
X95591985Y-37571859D01*
X95588638Y-37571500D01*
X93691362Y-37571500D01*
X93688015Y-37571859D01*
X93688011Y-37571860D01*
X93638632Y-37577168D01*
X93638625Y-37577169D01*
X93630799Y-37578011D01*
X93623423Y-37580761D01*
X93623419Y-37580763D01*
X93502236Y-37625962D01*
X93502230Y-37625965D01*
X93493796Y-37629111D01*
X93486588Y-37634506D01*
X93486582Y-37634510D01*
X93383950Y-37711340D01*
X93383946Y-37711343D01*
X93376739Y-37716739D01*
X93371343Y-37723946D01*
X93371340Y-37723950D01*
X93294510Y-37826582D01*
X93294506Y-37826588D01*
X93289111Y-37833796D01*
X93285965Y-37842230D01*
X93285962Y-37842236D01*
X93240763Y-37963419D01*
X93240761Y-37963423D01*
X93238011Y-37970799D01*
X93237169Y-37978625D01*
X93237168Y-37978632D01*
X93234671Y-38001862D01*
X93231500Y-38031362D01*
X93231500Y-39928638D01*
X89436142Y-39928638D01*
X89393407Y-39851915D01*
X89347574Y-39769631D01*
X89343754Y-39762200D01*
X89265850Y-39597487D01*
X89264543Y-39594629D01*
X89189088Y-39423739D01*
X89185720Y-39415299D01*
X89162692Y-39350940D01*
X89124122Y-39243146D01*
X89123312Y-39240805D01*
X89115535Y-39217602D01*
X89070267Y-39082539D01*
X89064167Y-39064338D01*
X89061411Y-39054913D01*
X89039708Y-38968270D01*
X89016676Y-38876323D01*
X89016305Y-38874791D01*
X88973934Y-38694640D01*
X88971954Y-38684301D01*
X88944498Y-38499205D01*
X88944442Y-38498819D01*
X88919219Y-38318003D01*
X88918168Y-38306832D01*
X88908285Y-38105671D01*
X88900633Y-37940164D01*
X88900500Y-37934346D01*
X88900500Y-31808288D01*
X90471500Y-31808288D01*
X90471666Y-31810558D01*
X90471667Y-31810581D01*
X90486130Y-32008188D01*
X90486131Y-32008197D01*
X90486467Y-32012783D01*
X90545937Y-32279753D01*
X90643645Y-32535219D01*
X90645897Y-32539231D01*
X90645900Y-32539238D01*
X90775253Y-32769721D01*
X90775257Y-32769727D01*
X90777507Y-32773736D01*
X90944671Y-32990220D01*
X91141574Y-33180059D01*
X91145314Y-33182735D01*
X91145318Y-33182738D01*
X91316415Y-33305147D01*
X91364019Y-33339205D01*
X91607266Y-33464267D01*
X91866130Y-33552579D01*
X92135093Y-33602259D01*
X92408424Y-33612248D01*
X92680296Y-33582334D01*
X92944916Y-33513153D01*
X93196643Y-33406181D01*
X93430112Y-33263697D01*
X93640347Y-33088738D01*
X93822867Y-32885033D01*
X93973783Y-32656923D01*
X94089877Y-32409271D01*
X94168676Y-32147355D01*
X94208500Y-31876757D01*
X94208500Y-31808288D01*
X100071500Y-31808288D01*
X100071666Y-31810558D01*
X100071667Y-31810581D01*
X100086130Y-32008188D01*
X100086131Y-32008197D01*
X100086467Y-32012783D01*
X100145937Y-32279753D01*
X100243645Y-32535219D01*
X100245897Y-32539231D01*
X100245900Y-32539238D01*
X100375253Y-32769721D01*
X100375257Y-32769727D01*
X100377507Y-32773736D01*
X100544671Y-32990220D01*
X100741574Y-33180059D01*
X100745314Y-33182735D01*
X100745318Y-33182738D01*
X100916415Y-33305147D01*
X100964019Y-33339205D01*
X101207266Y-33464267D01*
X101466130Y-33552579D01*
X101735093Y-33602259D01*
X102008424Y-33612248D01*
X102280296Y-33582334D01*
X102544916Y-33513153D01*
X102796643Y-33406181D01*
X103030112Y-33263697D01*
X103240347Y-33088738D01*
X103422867Y-32885033D01*
X103482848Y-32794370D01*
X103526265Y-32754015D01*
X103583330Y-32737977D01*
X103641413Y-32749806D01*
X103687660Y-32786885D01*
X103800710Y-32933289D01*
X103844671Y-32990220D01*
X104041574Y-33180059D01*
X104045314Y-33182735D01*
X104045318Y-33182738D01*
X104216415Y-33305147D01*
X104264019Y-33339205D01*
X104507266Y-33464267D01*
X104766130Y-33552579D01*
X105035093Y-33602259D01*
X105308424Y-33612248D01*
X105580296Y-33582334D01*
X105844916Y-33513153D01*
X106096643Y-33406181D01*
X106330112Y-33263697D01*
X106540347Y-33088738D01*
X106722867Y-32885033D01*
X106873783Y-32656923D01*
X106989877Y-32409271D01*
X107068676Y-32147355D01*
X107108500Y-31876757D01*
X107108500Y-31808288D01*
X112971500Y-31808288D01*
X112971666Y-31810558D01*
X112971667Y-31810581D01*
X112986130Y-32008188D01*
X112986131Y-32008197D01*
X112986467Y-32012783D01*
X113045937Y-32279753D01*
X113143645Y-32535219D01*
X113145897Y-32539231D01*
X113145900Y-32539238D01*
X113275253Y-32769721D01*
X113275257Y-32769727D01*
X113277507Y-32773736D01*
X113444671Y-32990220D01*
X113641574Y-33180059D01*
X113645314Y-33182735D01*
X113645318Y-33182738D01*
X113816415Y-33305147D01*
X113864019Y-33339205D01*
X114107266Y-33464267D01*
X114366130Y-33552579D01*
X114635093Y-33602259D01*
X114908424Y-33612248D01*
X115180296Y-33582334D01*
X115444916Y-33513153D01*
X115696643Y-33406181D01*
X115930112Y-33263697D01*
X116140347Y-33088738D01*
X116322867Y-32885033D01*
X116387462Y-32787396D01*
X116430880Y-32747040D01*
X116487945Y-32731002D01*
X116546028Y-32742831D01*
X116592271Y-32779906D01*
X116754671Y-32990220D01*
X116951574Y-33180059D01*
X116955314Y-33182735D01*
X116955318Y-33182738D01*
X117126415Y-33305147D01*
X117174019Y-33339205D01*
X117417266Y-33464267D01*
X117676130Y-33552579D01*
X117945093Y-33602259D01*
X118218424Y-33612248D01*
X118490296Y-33582334D01*
X118754916Y-33513153D01*
X119006643Y-33406181D01*
X119240112Y-33263697D01*
X119450347Y-33088738D01*
X119632867Y-32885033D01*
X119783783Y-32656923D01*
X119899877Y-32409271D01*
X119978676Y-32147355D01*
X120018500Y-31876757D01*
X120018500Y-31808288D01*
X125881500Y-31808288D01*
X125881666Y-31810558D01*
X125881667Y-31810581D01*
X125896130Y-32008188D01*
X125896131Y-32008197D01*
X125896467Y-32012783D01*
X125955937Y-32279753D01*
X126053645Y-32535219D01*
X126055897Y-32539231D01*
X126055900Y-32539238D01*
X126185253Y-32769721D01*
X126185257Y-32769727D01*
X126187507Y-32773736D01*
X126354671Y-32990220D01*
X126551574Y-33180059D01*
X126555314Y-33182735D01*
X126555318Y-33182738D01*
X126726415Y-33305147D01*
X126774019Y-33339205D01*
X127017266Y-33464267D01*
X127276130Y-33552579D01*
X127545093Y-33602259D01*
X127818424Y-33612248D01*
X128090296Y-33582334D01*
X128354916Y-33513153D01*
X128606643Y-33406181D01*
X128840112Y-33263697D01*
X129050347Y-33088738D01*
X129232867Y-32885033D01*
X129297462Y-32787396D01*
X129340880Y-32747040D01*
X129397945Y-32731002D01*
X129456028Y-32742831D01*
X129502271Y-32779906D01*
X129664671Y-32990220D01*
X129861574Y-33180059D01*
X129865314Y-33182735D01*
X129865318Y-33182738D01*
X130036415Y-33305147D01*
X130084019Y-33339205D01*
X130327266Y-33464267D01*
X130586130Y-33552579D01*
X130855093Y-33602259D01*
X131128424Y-33612248D01*
X131400296Y-33582334D01*
X131664916Y-33513153D01*
X131916643Y-33406181D01*
X132150112Y-33263697D01*
X132360347Y-33088738D01*
X132542867Y-32885033D01*
X132693783Y-32656923D01*
X132809877Y-32409271D01*
X132888676Y-32147355D01*
X132928500Y-31876757D01*
X132928500Y-31808288D01*
X138791500Y-31808288D01*
X138791666Y-31810558D01*
X138791667Y-31810581D01*
X138806130Y-32008188D01*
X138806131Y-32008197D01*
X138806467Y-32012783D01*
X138865937Y-32279753D01*
X138963645Y-32535219D01*
X138965897Y-32539231D01*
X138965900Y-32539238D01*
X139095253Y-32769721D01*
X139095257Y-32769727D01*
X139097507Y-32773736D01*
X139264671Y-32990220D01*
X139461574Y-33180059D01*
X139465314Y-33182735D01*
X139465318Y-33182738D01*
X139636415Y-33305147D01*
X139684019Y-33339205D01*
X139927266Y-33464267D01*
X140186130Y-33552579D01*
X140455093Y-33602259D01*
X140728424Y-33612248D01*
X141000296Y-33582334D01*
X141264916Y-33513153D01*
X141516643Y-33406181D01*
X141750112Y-33263697D01*
X141960347Y-33088738D01*
X142142867Y-32885033D01*
X142217120Y-32772798D01*
X142262553Y-32731335D01*
X142322201Y-32716320D01*
X142381849Y-32731331D01*
X142426652Y-32772214D01*
X142427507Y-32773736D01*
X142594671Y-32990220D01*
X142791574Y-33180059D01*
X142795314Y-33182735D01*
X142795318Y-33182738D01*
X142966415Y-33305147D01*
X143014019Y-33339205D01*
X143257266Y-33464267D01*
X143516130Y-33552579D01*
X143785093Y-33602259D01*
X144058424Y-33612248D01*
X144330296Y-33582334D01*
X144594916Y-33513153D01*
X144846643Y-33406181D01*
X145080112Y-33263697D01*
X145290347Y-33088738D01*
X145472867Y-32885033D01*
X145623783Y-32656923D01*
X145739877Y-32409271D01*
X145818676Y-32147355D01*
X145858500Y-31876757D01*
X145858500Y-31808288D01*
X151721500Y-31808288D01*
X151721666Y-31810558D01*
X151721667Y-31810581D01*
X151736130Y-32008188D01*
X151736131Y-32008197D01*
X151736467Y-32012783D01*
X151795937Y-32279753D01*
X151893645Y-32535219D01*
X151895897Y-32539231D01*
X151895900Y-32539238D01*
X152025253Y-32769721D01*
X152025257Y-32769727D01*
X152027507Y-32773736D01*
X152194671Y-32990220D01*
X152391574Y-33180059D01*
X152395314Y-33182735D01*
X152395318Y-33182738D01*
X152566415Y-33305147D01*
X152614019Y-33339205D01*
X152857266Y-33464267D01*
X153116130Y-33552579D01*
X153385093Y-33602259D01*
X153658424Y-33612248D01*
X153930296Y-33582334D01*
X154194916Y-33513153D01*
X154446643Y-33406181D01*
X154680112Y-33263697D01*
X154890347Y-33088738D01*
X155072867Y-32885033D01*
X155128233Y-32801346D01*
X155171651Y-32760990D01*
X155228716Y-32744952D01*
X155286799Y-32756781D01*
X155333046Y-32793860D01*
X155484671Y-32990220D01*
X155681574Y-33180059D01*
X155685314Y-33182735D01*
X155685318Y-33182738D01*
X155856415Y-33305147D01*
X155904019Y-33339205D01*
X156147266Y-33464267D01*
X156406130Y-33552579D01*
X156675093Y-33602259D01*
X156948424Y-33612248D01*
X157220296Y-33582334D01*
X157484916Y-33513153D01*
X157736643Y-33406181D01*
X157970112Y-33263697D01*
X158180347Y-33088738D01*
X158362867Y-32885033D01*
X158513783Y-32656923D01*
X158629877Y-32409271D01*
X158708676Y-32147355D01*
X158748500Y-31876757D01*
X158748500Y-31808288D01*
X164611500Y-31808288D01*
X164611666Y-31810558D01*
X164611667Y-31810581D01*
X164626130Y-32008188D01*
X164626131Y-32008197D01*
X164626467Y-32012783D01*
X164685937Y-32279753D01*
X164783645Y-32535219D01*
X164785897Y-32539231D01*
X164785900Y-32539238D01*
X164915253Y-32769721D01*
X164915257Y-32769727D01*
X164917507Y-32773736D01*
X165084671Y-32990220D01*
X165281574Y-33180059D01*
X165285314Y-33182735D01*
X165285318Y-33182738D01*
X165456415Y-33305147D01*
X165504019Y-33339205D01*
X165747266Y-33464267D01*
X166006130Y-33552579D01*
X166275093Y-33602259D01*
X166548424Y-33612248D01*
X166820296Y-33582334D01*
X167084916Y-33513153D01*
X167336643Y-33406181D01*
X167570112Y-33263697D01*
X167780347Y-33088738D01*
X167962867Y-32885033D01*
X168022848Y-32794370D01*
X168066265Y-32754015D01*
X168123330Y-32737977D01*
X168181413Y-32749806D01*
X168227660Y-32786885D01*
X168340710Y-32933289D01*
X168384671Y-32990220D01*
X168581574Y-33180059D01*
X168585314Y-33182735D01*
X168585318Y-33182738D01*
X168756415Y-33305147D01*
X168804019Y-33339205D01*
X169047266Y-33464267D01*
X169306130Y-33552579D01*
X169575093Y-33602259D01*
X169848424Y-33612248D01*
X170120296Y-33582334D01*
X170384916Y-33513153D01*
X170636643Y-33406181D01*
X170870112Y-33263697D01*
X171080347Y-33088738D01*
X171262867Y-32885033D01*
X171413783Y-32656923D01*
X171529877Y-32409271D01*
X171608676Y-32147355D01*
X171648500Y-31876757D01*
X171648500Y-31808288D01*
X177511500Y-31808288D01*
X177511666Y-31810558D01*
X177511667Y-31810581D01*
X177526130Y-32008188D01*
X177526131Y-32008197D01*
X177526467Y-32012783D01*
X177585937Y-32279753D01*
X177683645Y-32535219D01*
X177685897Y-32539231D01*
X177685900Y-32539238D01*
X177815253Y-32769721D01*
X177815257Y-32769727D01*
X177817507Y-32773736D01*
X177984671Y-32990220D01*
X178181574Y-33180059D01*
X178185314Y-33182735D01*
X178185318Y-33182738D01*
X178356415Y-33305147D01*
X178404019Y-33339205D01*
X178647266Y-33464267D01*
X178906130Y-33552579D01*
X179175093Y-33602259D01*
X179448424Y-33612248D01*
X179720296Y-33582334D01*
X179984916Y-33513153D01*
X180236643Y-33406181D01*
X180470112Y-33263697D01*
X180680347Y-33088738D01*
X180862867Y-32885033D01*
X180932121Y-32780354D01*
X180977546Y-32738896D01*
X181037184Y-32723877D01*
X181096828Y-32738876D01*
X181136175Y-32774764D01*
X181137507Y-32773736D01*
X181304671Y-32990220D01*
X181501574Y-33180059D01*
X181505314Y-33182735D01*
X181505318Y-33182738D01*
X181676415Y-33305147D01*
X181724019Y-33339205D01*
X181967266Y-33464267D01*
X182226130Y-33552579D01*
X182495093Y-33602259D01*
X182768424Y-33612248D01*
X183040296Y-33582334D01*
X183304916Y-33513153D01*
X183556643Y-33406181D01*
X183790112Y-33263697D01*
X184000347Y-33088738D01*
X184182867Y-32885033D01*
X184333783Y-32656923D01*
X184449877Y-32409271D01*
X184528676Y-32147355D01*
X184568500Y-31876757D01*
X184568500Y-31808288D01*
X190431500Y-31808288D01*
X190431666Y-31810558D01*
X190431667Y-31810581D01*
X190446130Y-32008188D01*
X190446131Y-32008197D01*
X190446467Y-32012783D01*
X190505937Y-32279753D01*
X190603645Y-32535219D01*
X190605897Y-32539231D01*
X190605900Y-32539238D01*
X190735253Y-32769721D01*
X190735257Y-32769727D01*
X190737507Y-32773736D01*
X190904671Y-32990220D01*
X191101574Y-33180059D01*
X191105314Y-33182735D01*
X191105318Y-33182738D01*
X191276415Y-33305147D01*
X191324019Y-33339205D01*
X191567266Y-33464267D01*
X191826130Y-33552579D01*
X192095093Y-33602259D01*
X192368424Y-33612248D01*
X192640296Y-33582334D01*
X192904916Y-33513153D01*
X193156643Y-33406181D01*
X193390112Y-33263697D01*
X193600347Y-33088738D01*
X193782867Y-32885033D01*
X193933783Y-32656923D01*
X194049877Y-32409271D01*
X194128676Y-32147355D01*
X194168500Y-31876757D01*
X194168500Y-31151712D01*
X194153533Y-30947217D01*
X194094063Y-30680247D01*
X193996355Y-30424781D01*
X193886290Y-30228665D01*
X193864746Y-30190278D01*
X193864744Y-30190275D01*
X193862493Y-30186264D01*
X193695329Y-29969780D01*
X193498426Y-29779941D01*
X193494686Y-29777265D01*
X193494681Y-29777261D01*
X193279730Y-29623477D01*
X193279728Y-29623475D01*
X193275981Y-29620795D01*
X193204811Y-29584204D01*
X193036829Y-29497838D01*
X193036824Y-29497836D01*
X193032734Y-29495733D01*
X192773870Y-29407421D01*
X192757303Y-29404360D01*
X192509436Y-29358577D01*
X192509428Y-29358576D01*
X192504907Y-29357741D01*
X192500316Y-29357573D01*
X192500305Y-29357572D01*
X192236179Y-29347920D01*
X192236176Y-29347920D01*
X192231576Y-29347752D01*
X192227008Y-29348254D01*
X192226996Y-29348255D01*
X191964277Y-29377162D01*
X191964265Y-29377164D01*
X191959704Y-29377666D01*
X191955261Y-29378827D01*
X191955253Y-29378829D01*
X191699539Y-29445682D01*
X191699535Y-29445683D01*
X191695084Y-29446847D01*
X191690857Y-29448643D01*
X191690846Y-29448647D01*
X191447588Y-29552020D01*
X191447576Y-29552025D01*
X191443357Y-29553819D01*
X191439436Y-29556211D01*
X191439430Y-29556215D01*
X191213819Y-29693903D01*
X191213809Y-29693909D01*
X191209888Y-29696303D01*
X191206361Y-29699237D01*
X191206350Y-29699246D01*
X191003187Y-29868320D01*
X191003179Y-29868327D01*
X190999653Y-29871262D01*
X190996584Y-29874686D01*
X190996581Y-29874690D01*
X190820211Y-30071530D01*
X190820201Y-30071542D01*
X190817133Y-30074967D01*
X190814593Y-30078805D01*
X190814590Y-30078810D01*
X190724906Y-30214368D01*
X190666217Y-30303077D01*
X190664268Y-30307234D01*
X190664261Y-30307247D01*
X190552077Y-30546560D01*
X190550123Y-30550729D01*
X190548801Y-30555122D01*
X190548796Y-30555136D01*
X190472651Y-30808232D01*
X190472649Y-30808240D01*
X190471324Y-30812645D01*
X190470653Y-30817201D01*
X190470652Y-30817208D01*
X190444795Y-30992906D01*
X190431500Y-31083243D01*
X190431500Y-31808288D01*
X184568500Y-31808288D01*
X184568500Y-31151712D01*
X184553533Y-30947217D01*
X184494063Y-30680247D01*
X184396355Y-30424781D01*
X184286290Y-30228665D01*
X184264746Y-30190278D01*
X184264744Y-30190275D01*
X184262493Y-30186264D01*
X184095329Y-29969780D01*
X183898426Y-29779941D01*
X183894686Y-29777265D01*
X183894681Y-29777261D01*
X183679730Y-29623477D01*
X183679728Y-29623475D01*
X183675981Y-29620795D01*
X183604811Y-29584204D01*
X183436829Y-29497838D01*
X183436824Y-29497836D01*
X183432734Y-29495733D01*
X183173870Y-29407421D01*
X183157303Y-29404360D01*
X182909436Y-29358577D01*
X182909428Y-29358576D01*
X182904907Y-29357741D01*
X182900316Y-29357573D01*
X182900305Y-29357572D01*
X182636179Y-29347920D01*
X182636176Y-29347920D01*
X182631576Y-29347752D01*
X182627008Y-29348254D01*
X182626996Y-29348255D01*
X182364277Y-29377162D01*
X182364265Y-29377164D01*
X182359704Y-29377666D01*
X182355261Y-29378827D01*
X182355253Y-29378829D01*
X182099539Y-29445682D01*
X182099535Y-29445683D01*
X182095084Y-29446847D01*
X182090857Y-29448643D01*
X182090846Y-29448647D01*
X181847588Y-29552020D01*
X181847576Y-29552025D01*
X181843357Y-29553819D01*
X181839436Y-29556211D01*
X181839430Y-29556215D01*
X181613819Y-29693903D01*
X181613809Y-29693909D01*
X181609888Y-29696303D01*
X181606361Y-29699237D01*
X181606350Y-29699246D01*
X181403187Y-29868320D01*
X181403179Y-29868327D01*
X181399653Y-29871262D01*
X181396584Y-29874686D01*
X181396581Y-29874690D01*
X181220211Y-30071530D01*
X181220201Y-30071542D01*
X181217133Y-30074967D01*
X181214595Y-30078802D01*
X181214582Y-30078820D01*
X181147877Y-30179645D01*
X181102444Y-30221108D01*
X181042797Y-30236122D01*
X180983148Y-30221110D01*
X180943830Y-30185231D01*
X180942493Y-30186264D01*
X180775329Y-29969780D01*
X180578426Y-29779941D01*
X180574686Y-29777265D01*
X180574681Y-29777261D01*
X180359730Y-29623477D01*
X180359728Y-29623475D01*
X180355981Y-29620795D01*
X180284811Y-29584204D01*
X180116829Y-29497838D01*
X180116824Y-29497836D01*
X180112734Y-29495733D01*
X179853870Y-29407421D01*
X179837303Y-29404360D01*
X179589436Y-29358577D01*
X179589428Y-29358576D01*
X179584907Y-29357741D01*
X179580316Y-29357573D01*
X179580305Y-29357572D01*
X179316179Y-29347920D01*
X179316176Y-29347920D01*
X179311576Y-29347752D01*
X179307008Y-29348254D01*
X179306996Y-29348255D01*
X179044277Y-29377162D01*
X179044265Y-29377164D01*
X179039704Y-29377666D01*
X179035261Y-29378827D01*
X179035253Y-29378829D01*
X178779539Y-29445682D01*
X178779535Y-29445683D01*
X178775084Y-29446847D01*
X178770857Y-29448643D01*
X178770846Y-29448647D01*
X178527588Y-29552020D01*
X178527576Y-29552025D01*
X178523357Y-29553819D01*
X178519436Y-29556211D01*
X178519430Y-29556215D01*
X178293819Y-29693903D01*
X178293809Y-29693909D01*
X178289888Y-29696303D01*
X178286361Y-29699237D01*
X178286350Y-29699246D01*
X178083187Y-29868320D01*
X178083179Y-29868327D01*
X178079653Y-29871262D01*
X178076584Y-29874686D01*
X178076581Y-29874690D01*
X177900211Y-30071530D01*
X177900201Y-30071542D01*
X177897133Y-30074967D01*
X177894593Y-30078805D01*
X177894590Y-30078810D01*
X177804906Y-30214368D01*
X177746217Y-30303077D01*
X177744268Y-30307234D01*
X177744261Y-30307247D01*
X177632077Y-30546560D01*
X177630123Y-30550729D01*
X177628801Y-30555122D01*
X177628796Y-30555136D01*
X177552651Y-30808232D01*
X177552649Y-30808240D01*
X177551324Y-30812645D01*
X177550653Y-30817201D01*
X177550652Y-30817208D01*
X177524795Y-30992906D01*
X177511500Y-31083243D01*
X177511500Y-31808288D01*
X171648500Y-31808288D01*
X171648500Y-31151712D01*
X171633533Y-30947217D01*
X171574063Y-30680247D01*
X171476355Y-30424781D01*
X171366290Y-30228665D01*
X171344746Y-30190278D01*
X171344744Y-30190275D01*
X171342493Y-30186264D01*
X171175329Y-29969780D01*
X170978426Y-29779941D01*
X170974686Y-29777265D01*
X170974681Y-29777261D01*
X170759730Y-29623477D01*
X170759728Y-29623475D01*
X170755981Y-29620795D01*
X170684811Y-29584204D01*
X170516829Y-29497838D01*
X170516824Y-29497836D01*
X170512734Y-29495733D01*
X170253870Y-29407421D01*
X170237303Y-29404360D01*
X169989436Y-29358577D01*
X169989428Y-29358576D01*
X169984907Y-29357741D01*
X169980316Y-29357573D01*
X169980305Y-29357572D01*
X169716179Y-29347920D01*
X169716176Y-29347920D01*
X169711576Y-29347752D01*
X169707008Y-29348254D01*
X169706996Y-29348255D01*
X169444277Y-29377162D01*
X169444265Y-29377164D01*
X169439704Y-29377666D01*
X169435261Y-29378827D01*
X169435253Y-29378829D01*
X169179539Y-29445682D01*
X169179535Y-29445683D01*
X169175084Y-29446847D01*
X169170857Y-29448643D01*
X169170846Y-29448647D01*
X168927588Y-29552020D01*
X168927576Y-29552025D01*
X168923357Y-29553819D01*
X168919436Y-29556211D01*
X168919430Y-29556215D01*
X168693819Y-29693903D01*
X168693809Y-29693909D01*
X168689888Y-29696303D01*
X168686361Y-29699237D01*
X168686350Y-29699246D01*
X168483187Y-29868320D01*
X168483179Y-29868327D01*
X168479653Y-29871262D01*
X168476584Y-29874686D01*
X168476581Y-29874690D01*
X168300211Y-30071530D01*
X168300201Y-30071542D01*
X168297133Y-30074967D01*
X168294599Y-30078796D01*
X168294582Y-30078819D01*
X168237150Y-30165629D01*
X168193733Y-30205984D01*
X168136669Y-30222022D01*
X168078585Y-30210192D01*
X168032339Y-30173114D01*
X167959526Y-30078819D01*
X167875329Y-29969780D01*
X167678426Y-29779941D01*
X167674686Y-29777265D01*
X167674681Y-29777261D01*
X167459730Y-29623477D01*
X167459728Y-29623475D01*
X167455981Y-29620795D01*
X167384811Y-29584204D01*
X167216829Y-29497838D01*
X167216824Y-29497836D01*
X167212734Y-29495733D01*
X166953870Y-29407421D01*
X166937303Y-29404360D01*
X166689436Y-29358577D01*
X166689428Y-29358576D01*
X166684907Y-29357741D01*
X166680316Y-29357573D01*
X166680305Y-29357572D01*
X166416179Y-29347920D01*
X166416176Y-29347920D01*
X166411576Y-29347752D01*
X166407008Y-29348254D01*
X166406996Y-29348255D01*
X166144277Y-29377162D01*
X166144265Y-29377164D01*
X166139704Y-29377666D01*
X166135261Y-29378827D01*
X166135253Y-29378829D01*
X165879539Y-29445682D01*
X165879535Y-29445683D01*
X165875084Y-29446847D01*
X165870857Y-29448643D01*
X165870846Y-29448647D01*
X165627588Y-29552020D01*
X165627576Y-29552025D01*
X165623357Y-29553819D01*
X165619436Y-29556211D01*
X165619430Y-29556215D01*
X165393819Y-29693903D01*
X165393809Y-29693909D01*
X165389888Y-29696303D01*
X165386361Y-29699237D01*
X165386350Y-29699246D01*
X165183187Y-29868320D01*
X165183179Y-29868327D01*
X165179653Y-29871262D01*
X165176584Y-29874686D01*
X165176581Y-29874690D01*
X165000211Y-30071530D01*
X165000201Y-30071542D01*
X164997133Y-30074967D01*
X164994593Y-30078805D01*
X164994590Y-30078810D01*
X164904906Y-30214368D01*
X164846217Y-30303077D01*
X164844268Y-30307234D01*
X164844261Y-30307247D01*
X164732077Y-30546560D01*
X164730123Y-30550729D01*
X164728801Y-30555122D01*
X164728796Y-30555136D01*
X164652651Y-30808232D01*
X164652649Y-30808240D01*
X164651324Y-30812645D01*
X164650653Y-30817201D01*
X164650652Y-30817208D01*
X164624795Y-30992906D01*
X164611500Y-31083243D01*
X164611500Y-31808288D01*
X158748500Y-31808288D01*
X158748500Y-31151712D01*
X158733533Y-30947217D01*
X158674063Y-30680247D01*
X158576355Y-30424781D01*
X158466290Y-30228665D01*
X158444746Y-30190278D01*
X158444744Y-30190275D01*
X158442493Y-30186264D01*
X158275329Y-29969780D01*
X158078426Y-29779941D01*
X158074686Y-29777265D01*
X158074681Y-29777261D01*
X157859730Y-29623477D01*
X157859728Y-29623475D01*
X157855981Y-29620795D01*
X157784811Y-29584204D01*
X157616829Y-29497838D01*
X157616824Y-29497836D01*
X157612734Y-29495733D01*
X157353870Y-29407421D01*
X157337303Y-29404360D01*
X157089436Y-29358577D01*
X157089428Y-29358576D01*
X157084907Y-29357741D01*
X157080316Y-29357573D01*
X157080305Y-29357572D01*
X156816179Y-29347920D01*
X156816176Y-29347920D01*
X156811576Y-29347752D01*
X156807008Y-29348254D01*
X156806996Y-29348255D01*
X156544277Y-29377162D01*
X156544265Y-29377164D01*
X156539704Y-29377666D01*
X156535261Y-29378827D01*
X156535253Y-29378829D01*
X156279539Y-29445682D01*
X156279535Y-29445683D01*
X156275084Y-29446847D01*
X156270857Y-29448643D01*
X156270846Y-29448647D01*
X156027588Y-29552020D01*
X156027576Y-29552025D01*
X156023357Y-29553819D01*
X156019436Y-29556211D01*
X156019430Y-29556215D01*
X155793819Y-29693903D01*
X155793809Y-29693909D01*
X155789888Y-29696303D01*
X155786361Y-29699237D01*
X155786350Y-29699246D01*
X155583187Y-29868320D01*
X155583179Y-29868327D01*
X155579653Y-29871262D01*
X155576584Y-29874686D01*
X155576581Y-29874690D01*
X155400211Y-30071530D01*
X155400201Y-30071542D01*
X155397133Y-30074967D01*
X155394592Y-30078806D01*
X155394587Y-30078814D01*
X155341764Y-30158655D01*
X155298347Y-30199010D01*
X155241282Y-30215047D01*
X155183199Y-30203217D01*
X155136953Y-30166139D01*
X155069526Y-30078819D01*
X154985329Y-29969780D01*
X154788426Y-29779941D01*
X154784686Y-29777265D01*
X154784681Y-29777261D01*
X154569730Y-29623477D01*
X154569728Y-29623475D01*
X154565981Y-29620795D01*
X154494811Y-29584204D01*
X154326829Y-29497838D01*
X154326824Y-29497836D01*
X154322734Y-29495733D01*
X154063870Y-29407421D01*
X154047303Y-29404360D01*
X153799436Y-29358577D01*
X153799428Y-29358576D01*
X153794907Y-29357741D01*
X153790316Y-29357573D01*
X153790305Y-29357572D01*
X153526179Y-29347920D01*
X153526176Y-29347920D01*
X153521576Y-29347752D01*
X153517008Y-29348254D01*
X153516996Y-29348255D01*
X153254277Y-29377162D01*
X153254265Y-29377164D01*
X153249704Y-29377666D01*
X153245261Y-29378827D01*
X153245253Y-29378829D01*
X152989539Y-29445682D01*
X152989535Y-29445683D01*
X152985084Y-29446847D01*
X152980857Y-29448643D01*
X152980846Y-29448647D01*
X152737588Y-29552020D01*
X152737576Y-29552025D01*
X152733357Y-29553819D01*
X152729436Y-29556211D01*
X152729430Y-29556215D01*
X152503819Y-29693903D01*
X152503809Y-29693909D01*
X152499888Y-29696303D01*
X152496361Y-29699237D01*
X152496350Y-29699246D01*
X152293187Y-29868320D01*
X152293179Y-29868327D01*
X152289653Y-29871262D01*
X152286584Y-29874686D01*
X152286581Y-29874690D01*
X152110211Y-30071530D01*
X152110201Y-30071542D01*
X152107133Y-30074967D01*
X152104593Y-30078805D01*
X152104590Y-30078810D01*
X152014906Y-30214368D01*
X151956217Y-30303077D01*
X151954268Y-30307234D01*
X151954261Y-30307247D01*
X151842077Y-30546560D01*
X151840123Y-30550729D01*
X151838801Y-30555122D01*
X151838796Y-30555136D01*
X151762651Y-30808232D01*
X151762649Y-30808240D01*
X151761324Y-30812645D01*
X151760653Y-30817201D01*
X151760652Y-30817208D01*
X151734795Y-30992906D01*
X151721500Y-31083243D01*
X151721500Y-31808288D01*
X145858500Y-31808288D01*
X145858500Y-31151712D01*
X145843533Y-30947217D01*
X145784063Y-30680247D01*
X145686355Y-30424781D01*
X145576290Y-30228665D01*
X145554746Y-30190278D01*
X145554744Y-30190275D01*
X145552493Y-30186264D01*
X145385329Y-29969780D01*
X145188426Y-29779941D01*
X145184686Y-29777265D01*
X145184681Y-29777261D01*
X144969730Y-29623477D01*
X144969728Y-29623475D01*
X144965981Y-29620795D01*
X144894811Y-29584204D01*
X144726829Y-29497838D01*
X144726824Y-29497836D01*
X144722734Y-29495733D01*
X144463870Y-29407421D01*
X144447303Y-29404360D01*
X144199436Y-29358577D01*
X144199428Y-29358576D01*
X144194907Y-29357741D01*
X144190316Y-29357573D01*
X144190305Y-29357572D01*
X143926179Y-29347920D01*
X143926176Y-29347920D01*
X143921576Y-29347752D01*
X143917008Y-29348254D01*
X143916996Y-29348255D01*
X143654277Y-29377162D01*
X143654265Y-29377164D01*
X143649704Y-29377666D01*
X143645261Y-29378827D01*
X143645253Y-29378829D01*
X143389539Y-29445682D01*
X143389535Y-29445683D01*
X143385084Y-29446847D01*
X143380857Y-29448643D01*
X143380846Y-29448647D01*
X143137588Y-29552020D01*
X143137576Y-29552025D01*
X143133357Y-29553819D01*
X143129436Y-29556211D01*
X143129430Y-29556215D01*
X142903819Y-29693903D01*
X142903809Y-29693909D01*
X142899888Y-29696303D01*
X142896361Y-29699237D01*
X142896350Y-29699246D01*
X142693187Y-29868320D01*
X142693179Y-29868327D01*
X142689653Y-29871262D01*
X142686584Y-29874686D01*
X142686581Y-29874690D01*
X142510211Y-30071530D01*
X142510201Y-30071542D01*
X142507133Y-30074967D01*
X142504595Y-30078802D01*
X142504582Y-30078820D01*
X142432877Y-30187202D01*
X142387444Y-30228665D01*
X142327796Y-30243679D01*
X142268147Y-30228667D01*
X142223344Y-30187781D01*
X142222493Y-30186264D01*
X142055329Y-29969780D01*
X141858426Y-29779941D01*
X141854686Y-29777265D01*
X141854681Y-29777261D01*
X141639730Y-29623477D01*
X141639728Y-29623475D01*
X141635981Y-29620795D01*
X141564811Y-29584204D01*
X141396829Y-29497838D01*
X141396824Y-29497836D01*
X141392734Y-29495733D01*
X141133870Y-29407421D01*
X141117303Y-29404360D01*
X140869436Y-29358577D01*
X140869428Y-29358576D01*
X140864907Y-29357741D01*
X140860316Y-29357573D01*
X140860305Y-29357572D01*
X140596179Y-29347920D01*
X140596176Y-29347920D01*
X140591576Y-29347752D01*
X140587008Y-29348254D01*
X140586996Y-29348255D01*
X140324277Y-29377162D01*
X140324265Y-29377164D01*
X140319704Y-29377666D01*
X140315261Y-29378827D01*
X140315253Y-29378829D01*
X140059539Y-29445682D01*
X140059535Y-29445683D01*
X140055084Y-29446847D01*
X140050857Y-29448643D01*
X140050846Y-29448647D01*
X139807588Y-29552020D01*
X139807576Y-29552025D01*
X139803357Y-29553819D01*
X139799436Y-29556211D01*
X139799430Y-29556215D01*
X139573819Y-29693903D01*
X139573809Y-29693909D01*
X139569888Y-29696303D01*
X139566361Y-29699237D01*
X139566350Y-29699246D01*
X139363187Y-29868320D01*
X139363179Y-29868327D01*
X139359653Y-29871262D01*
X139356584Y-29874686D01*
X139356581Y-29874690D01*
X139180211Y-30071530D01*
X139180201Y-30071542D01*
X139177133Y-30074967D01*
X139174593Y-30078805D01*
X139174590Y-30078810D01*
X139084906Y-30214368D01*
X139026217Y-30303077D01*
X139024268Y-30307234D01*
X139024261Y-30307247D01*
X138912077Y-30546560D01*
X138910123Y-30550729D01*
X138908801Y-30555122D01*
X138908796Y-30555136D01*
X138832651Y-30808232D01*
X138832649Y-30808240D01*
X138831324Y-30812645D01*
X138830653Y-30817201D01*
X138830652Y-30817208D01*
X138804795Y-30992906D01*
X138791500Y-31083243D01*
X138791500Y-31808288D01*
X132928500Y-31808288D01*
X132928500Y-31151712D01*
X132913533Y-30947217D01*
X132854063Y-30680247D01*
X132756355Y-30424781D01*
X132646290Y-30228665D01*
X132624746Y-30190278D01*
X132624744Y-30190275D01*
X132622493Y-30186264D01*
X132455329Y-29969780D01*
X132258426Y-29779941D01*
X132254686Y-29777265D01*
X132254681Y-29777261D01*
X132039730Y-29623477D01*
X132039728Y-29623475D01*
X132035981Y-29620795D01*
X131964811Y-29584204D01*
X131796829Y-29497838D01*
X131796824Y-29497836D01*
X131792734Y-29495733D01*
X131533870Y-29407421D01*
X131517303Y-29404360D01*
X131269436Y-29358577D01*
X131269428Y-29358576D01*
X131264907Y-29357741D01*
X131260316Y-29357573D01*
X131260305Y-29357572D01*
X130996179Y-29347920D01*
X130996176Y-29347920D01*
X130991576Y-29347752D01*
X130987008Y-29348254D01*
X130986996Y-29348255D01*
X130724277Y-29377162D01*
X130724265Y-29377164D01*
X130719704Y-29377666D01*
X130715261Y-29378827D01*
X130715253Y-29378829D01*
X130459539Y-29445682D01*
X130459535Y-29445683D01*
X130455084Y-29446847D01*
X130450857Y-29448643D01*
X130450846Y-29448647D01*
X130207588Y-29552020D01*
X130207576Y-29552025D01*
X130203357Y-29553819D01*
X130199436Y-29556211D01*
X130199430Y-29556215D01*
X129973819Y-29693903D01*
X129973809Y-29693909D01*
X129969888Y-29696303D01*
X129966361Y-29699237D01*
X129966350Y-29699246D01*
X129763187Y-29868320D01*
X129763179Y-29868327D01*
X129759653Y-29871262D01*
X129756584Y-29874686D01*
X129756581Y-29874690D01*
X129580211Y-30071530D01*
X129580201Y-30071542D01*
X129577133Y-30074967D01*
X129574595Y-30078802D01*
X129574582Y-30078820D01*
X129512535Y-30172604D01*
X129469118Y-30212960D01*
X129412053Y-30228997D01*
X129353970Y-30217167D01*
X129307727Y-30180092D01*
X129145329Y-29969780D01*
X128948426Y-29779941D01*
X128944686Y-29777265D01*
X128944681Y-29777261D01*
X128729730Y-29623477D01*
X128729728Y-29623475D01*
X128725981Y-29620795D01*
X128654811Y-29584204D01*
X128486829Y-29497838D01*
X128486824Y-29497836D01*
X128482734Y-29495733D01*
X128223870Y-29407421D01*
X128207303Y-29404360D01*
X127959436Y-29358577D01*
X127959428Y-29358576D01*
X127954907Y-29357741D01*
X127950316Y-29357573D01*
X127950305Y-29357572D01*
X127686179Y-29347920D01*
X127686176Y-29347920D01*
X127681576Y-29347752D01*
X127677008Y-29348254D01*
X127676996Y-29348255D01*
X127414277Y-29377162D01*
X127414265Y-29377164D01*
X127409704Y-29377666D01*
X127405261Y-29378827D01*
X127405253Y-29378829D01*
X127149539Y-29445682D01*
X127149535Y-29445683D01*
X127145084Y-29446847D01*
X127140857Y-29448643D01*
X127140846Y-29448647D01*
X126897588Y-29552020D01*
X126897576Y-29552025D01*
X126893357Y-29553819D01*
X126889436Y-29556211D01*
X126889430Y-29556215D01*
X126663819Y-29693903D01*
X126663809Y-29693909D01*
X126659888Y-29696303D01*
X126656361Y-29699237D01*
X126656350Y-29699246D01*
X126453187Y-29868320D01*
X126453179Y-29868327D01*
X126449653Y-29871262D01*
X126446584Y-29874686D01*
X126446581Y-29874690D01*
X126270211Y-30071530D01*
X126270201Y-30071542D01*
X126267133Y-30074967D01*
X126264593Y-30078805D01*
X126264590Y-30078810D01*
X126174906Y-30214368D01*
X126116217Y-30303077D01*
X126114268Y-30307234D01*
X126114261Y-30307247D01*
X126002077Y-30546560D01*
X126000123Y-30550729D01*
X125998801Y-30555122D01*
X125998796Y-30555136D01*
X125922651Y-30808232D01*
X125922649Y-30808240D01*
X125921324Y-30812645D01*
X125920653Y-30817201D01*
X125920652Y-30817208D01*
X125894795Y-30992906D01*
X125881500Y-31083243D01*
X125881500Y-31808288D01*
X120018500Y-31808288D01*
X120018500Y-31151712D01*
X120003533Y-30947217D01*
X119944063Y-30680247D01*
X119846355Y-30424781D01*
X119736290Y-30228665D01*
X119714746Y-30190278D01*
X119714744Y-30190275D01*
X119712493Y-30186264D01*
X119545329Y-29969780D01*
X119348426Y-29779941D01*
X119344686Y-29777265D01*
X119344681Y-29777261D01*
X119129730Y-29623477D01*
X119129728Y-29623475D01*
X119125981Y-29620795D01*
X119054811Y-29584204D01*
X118886829Y-29497838D01*
X118886824Y-29497836D01*
X118882734Y-29495733D01*
X118623870Y-29407421D01*
X118607303Y-29404360D01*
X118359436Y-29358577D01*
X118359428Y-29358576D01*
X118354907Y-29357741D01*
X118350316Y-29357573D01*
X118350305Y-29357572D01*
X118086179Y-29347920D01*
X118086176Y-29347920D01*
X118081576Y-29347752D01*
X118077008Y-29348254D01*
X118076996Y-29348255D01*
X117814277Y-29377162D01*
X117814265Y-29377164D01*
X117809704Y-29377666D01*
X117805261Y-29378827D01*
X117805253Y-29378829D01*
X117549539Y-29445682D01*
X117549535Y-29445683D01*
X117545084Y-29446847D01*
X117540857Y-29448643D01*
X117540846Y-29448647D01*
X117297588Y-29552020D01*
X117297576Y-29552025D01*
X117293357Y-29553819D01*
X117289436Y-29556211D01*
X117289430Y-29556215D01*
X117063819Y-29693903D01*
X117063809Y-29693909D01*
X117059888Y-29696303D01*
X117056361Y-29699237D01*
X117056350Y-29699246D01*
X116853187Y-29868320D01*
X116853179Y-29868327D01*
X116849653Y-29871262D01*
X116846584Y-29874686D01*
X116846581Y-29874690D01*
X116670211Y-30071530D01*
X116670201Y-30071542D01*
X116667133Y-30074967D01*
X116664595Y-30078802D01*
X116664582Y-30078820D01*
X116602535Y-30172604D01*
X116559118Y-30212960D01*
X116502053Y-30228997D01*
X116443970Y-30217167D01*
X116397727Y-30180092D01*
X116235329Y-29969780D01*
X116038426Y-29779941D01*
X116034686Y-29777265D01*
X116034681Y-29777261D01*
X115819730Y-29623477D01*
X115819728Y-29623475D01*
X115815981Y-29620795D01*
X115744811Y-29584204D01*
X115576829Y-29497838D01*
X115576824Y-29497836D01*
X115572734Y-29495733D01*
X115313870Y-29407421D01*
X115297303Y-29404360D01*
X115049436Y-29358577D01*
X115049428Y-29358576D01*
X115044907Y-29357741D01*
X115040316Y-29357573D01*
X115040305Y-29357572D01*
X114776179Y-29347920D01*
X114776176Y-29347920D01*
X114771576Y-29347752D01*
X114767008Y-29348254D01*
X114766996Y-29348255D01*
X114504277Y-29377162D01*
X114504265Y-29377164D01*
X114499704Y-29377666D01*
X114495261Y-29378827D01*
X114495253Y-29378829D01*
X114239539Y-29445682D01*
X114239535Y-29445683D01*
X114235084Y-29446847D01*
X114230857Y-29448643D01*
X114230846Y-29448647D01*
X113987588Y-29552020D01*
X113987576Y-29552025D01*
X113983357Y-29553819D01*
X113979436Y-29556211D01*
X113979430Y-29556215D01*
X113753819Y-29693903D01*
X113753809Y-29693909D01*
X113749888Y-29696303D01*
X113746361Y-29699237D01*
X113746350Y-29699246D01*
X113543187Y-29868320D01*
X113543179Y-29868327D01*
X113539653Y-29871262D01*
X113536584Y-29874686D01*
X113536581Y-29874690D01*
X113360211Y-30071530D01*
X113360201Y-30071542D01*
X113357133Y-30074967D01*
X113354593Y-30078805D01*
X113354590Y-30078810D01*
X113264906Y-30214368D01*
X113206217Y-30303077D01*
X113204268Y-30307234D01*
X113204261Y-30307247D01*
X113092077Y-30546560D01*
X113090123Y-30550729D01*
X113088801Y-30555122D01*
X113088796Y-30555136D01*
X113012651Y-30808232D01*
X113012649Y-30808240D01*
X113011324Y-30812645D01*
X113010653Y-30817201D01*
X113010652Y-30817208D01*
X112984795Y-30992906D01*
X112971500Y-31083243D01*
X112971500Y-31808288D01*
X107108500Y-31808288D01*
X107108500Y-31151712D01*
X107093533Y-30947217D01*
X107034063Y-30680247D01*
X106936355Y-30424781D01*
X106826290Y-30228665D01*
X106804746Y-30190278D01*
X106804744Y-30190275D01*
X106802493Y-30186264D01*
X106635329Y-29969780D01*
X106438426Y-29779941D01*
X106434686Y-29777265D01*
X106434681Y-29777261D01*
X106219730Y-29623477D01*
X106219728Y-29623475D01*
X106215981Y-29620795D01*
X106144811Y-29584204D01*
X105976829Y-29497838D01*
X105976824Y-29497836D01*
X105972734Y-29495733D01*
X105713870Y-29407421D01*
X105697303Y-29404360D01*
X105449436Y-29358577D01*
X105449428Y-29358576D01*
X105444907Y-29357741D01*
X105440316Y-29357573D01*
X105440305Y-29357572D01*
X105176179Y-29347920D01*
X105176176Y-29347920D01*
X105171576Y-29347752D01*
X105167008Y-29348254D01*
X105166996Y-29348255D01*
X104904277Y-29377162D01*
X104904265Y-29377164D01*
X104899704Y-29377666D01*
X104895261Y-29378827D01*
X104895253Y-29378829D01*
X104639539Y-29445682D01*
X104639535Y-29445683D01*
X104635084Y-29446847D01*
X104630857Y-29448643D01*
X104630846Y-29448647D01*
X104387588Y-29552020D01*
X104387576Y-29552025D01*
X104383357Y-29553819D01*
X104379436Y-29556211D01*
X104379430Y-29556215D01*
X104153819Y-29693903D01*
X104153809Y-29693909D01*
X104149888Y-29696303D01*
X104146361Y-29699237D01*
X104146350Y-29699246D01*
X103943187Y-29868320D01*
X103943179Y-29868327D01*
X103939653Y-29871262D01*
X103936584Y-29874686D01*
X103936581Y-29874690D01*
X103760211Y-30071530D01*
X103760201Y-30071542D01*
X103757133Y-30074967D01*
X103754599Y-30078796D01*
X103754582Y-30078819D01*
X103697150Y-30165629D01*
X103653733Y-30205984D01*
X103596669Y-30222022D01*
X103538585Y-30210192D01*
X103492339Y-30173114D01*
X103419526Y-30078819D01*
X103335329Y-29969780D01*
X103138426Y-29779941D01*
X103134686Y-29777265D01*
X103134681Y-29777261D01*
X102919730Y-29623477D01*
X102919728Y-29623475D01*
X102915981Y-29620795D01*
X102844811Y-29584204D01*
X102676829Y-29497838D01*
X102676824Y-29497836D01*
X102672734Y-29495733D01*
X102413870Y-29407421D01*
X102397303Y-29404360D01*
X102149436Y-29358577D01*
X102149428Y-29358576D01*
X102144907Y-29357741D01*
X102140316Y-29357573D01*
X102140305Y-29357572D01*
X101876179Y-29347920D01*
X101876176Y-29347920D01*
X101871576Y-29347752D01*
X101867008Y-29348254D01*
X101866996Y-29348255D01*
X101604277Y-29377162D01*
X101604265Y-29377164D01*
X101599704Y-29377666D01*
X101595261Y-29378827D01*
X101595253Y-29378829D01*
X101339539Y-29445682D01*
X101339535Y-29445683D01*
X101335084Y-29446847D01*
X101330857Y-29448643D01*
X101330846Y-29448647D01*
X101087588Y-29552020D01*
X101087576Y-29552025D01*
X101083357Y-29553819D01*
X101079436Y-29556211D01*
X101079430Y-29556215D01*
X100853819Y-29693903D01*
X100853809Y-29693909D01*
X100849888Y-29696303D01*
X100846361Y-29699237D01*
X100846350Y-29699246D01*
X100643187Y-29868320D01*
X100643179Y-29868327D01*
X100639653Y-29871262D01*
X100636584Y-29874686D01*
X100636581Y-29874690D01*
X100460211Y-30071530D01*
X100460201Y-30071542D01*
X100457133Y-30074967D01*
X100454593Y-30078805D01*
X100454590Y-30078810D01*
X100364906Y-30214368D01*
X100306217Y-30303077D01*
X100304268Y-30307234D01*
X100304261Y-30307247D01*
X100192077Y-30546560D01*
X100190123Y-30550729D01*
X100188801Y-30555122D01*
X100188796Y-30555136D01*
X100112651Y-30808232D01*
X100112649Y-30808240D01*
X100111324Y-30812645D01*
X100110653Y-30817201D01*
X100110652Y-30817208D01*
X100084795Y-30992906D01*
X100071500Y-31083243D01*
X100071500Y-31808288D01*
X94208500Y-31808288D01*
X94208500Y-31151712D01*
X94193533Y-30947217D01*
X94134063Y-30680247D01*
X94036355Y-30424781D01*
X93926290Y-30228665D01*
X93904746Y-30190278D01*
X93904744Y-30190275D01*
X93902493Y-30186264D01*
X93735329Y-29969780D01*
X93538426Y-29779941D01*
X93534686Y-29777265D01*
X93534681Y-29777261D01*
X93319730Y-29623477D01*
X93319728Y-29623475D01*
X93315981Y-29620795D01*
X93244811Y-29584204D01*
X93076829Y-29497838D01*
X93076824Y-29497836D01*
X93072734Y-29495733D01*
X92813870Y-29407421D01*
X92797303Y-29404360D01*
X92549436Y-29358577D01*
X92549428Y-29358576D01*
X92544907Y-29357741D01*
X92540316Y-29357573D01*
X92540305Y-29357572D01*
X92276179Y-29347920D01*
X92276176Y-29347920D01*
X92271576Y-29347752D01*
X92267008Y-29348254D01*
X92266996Y-29348255D01*
X92004277Y-29377162D01*
X92004265Y-29377164D01*
X91999704Y-29377666D01*
X91995261Y-29378827D01*
X91995253Y-29378829D01*
X91739539Y-29445682D01*
X91739535Y-29445683D01*
X91735084Y-29446847D01*
X91730857Y-29448643D01*
X91730846Y-29448647D01*
X91487588Y-29552020D01*
X91487576Y-29552025D01*
X91483357Y-29553819D01*
X91479436Y-29556211D01*
X91479430Y-29556215D01*
X91253819Y-29693903D01*
X91253809Y-29693909D01*
X91249888Y-29696303D01*
X91246361Y-29699237D01*
X91246350Y-29699246D01*
X91043187Y-29868320D01*
X91043179Y-29868327D01*
X91039653Y-29871262D01*
X91036584Y-29874686D01*
X91036581Y-29874690D01*
X90860211Y-30071530D01*
X90860201Y-30071542D01*
X90857133Y-30074967D01*
X90854593Y-30078805D01*
X90854590Y-30078810D01*
X90764906Y-30214368D01*
X90706217Y-30303077D01*
X90704268Y-30307234D01*
X90704261Y-30307247D01*
X90592077Y-30546560D01*
X90590123Y-30550729D01*
X90588801Y-30555122D01*
X90588796Y-30555136D01*
X90512651Y-30808232D01*
X90512649Y-30808240D01*
X90511324Y-30812645D01*
X90510653Y-30817201D01*
X90510652Y-30817208D01*
X90484795Y-30992906D01*
X90471500Y-31083243D01*
X90471500Y-31808288D01*
X88900500Y-31808288D01*
X88900500Y-29629920D01*
X88900634Y-29624101D01*
X88901834Y-29598138D01*
X88908572Y-29452392D01*
X88908647Y-29452395D01*
X88908589Y-29452036D01*
X88918144Y-29257434D01*
X88919195Y-29246254D01*
X88944823Y-29062535D01*
X88944896Y-29062031D01*
X88971902Y-28879966D01*
X88973877Y-28869648D01*
X89016721Y-28687488D01*
X89017037Y-28686185D01*
X89061330Y-28509361D01*
X89064073Y-28499978D01*
X89123764Y-28321883D01*
X89124480Y-28319819D01*
X89185609Y-28148976D01*
X89188956Y-28140588D01*
X89264938Y-27968504D01*
X89266219Y-27965705D01*
X89343596Y-27802104D01*
X89347408Y-27794692D01*
X89439010Y-27630236D01*
X89440954Y-27626871D01*
X89533880Y-27471834D01*
X89537971Y-27465456D01*
X89644461Y-27310000D01*
X89647114Y-27306279D01*
X89754707Y-27161206D01*
X89758933Y-27155822D01*
X89879355Y-27010804D01*
X89882850Y-27006777D01*
X90004104Y-26872995D01*
X90008318Y-26868570D01*
X90141578Y-26735309D01*
X90145983Y-26731115D01*
X90279831Y-26609802D01*
X90283820Y-26606342D01*
X90428831Y-26485926D01*
X90434189Y-26481720D01*
X90579286Y-26374109D01*
X90583022Y-26371445D01*
X90738468Y-26264962D01*
X90744831Y-26260881D01*
X90899884Y-26167946D01*
X90903206Y-26166026D01*
X91067723Y-26074391D01*
X91075104Y-26070596D01*
X91238716Y-25993213D01*
X91241516Y-25991934D01*
X91413624Y-25915941D01*
X91421988Y-25912604D01*
X91592850Y-25851469D01*
X91594794Y-25850794D01*
X91773013Y-25791062D01*
X91782378Y-25788325D01*
X91959084Y-25744063D01*
X91960577Y-25743700D01*
X92142654Y-25700876D01*
X92152980Y-25698900D01*
X92271204Y-25681363D01*
X92289691Y-25680000D01*
X205566729Y-25680000D01*
X206635923Y-25680498D01*
G37*
%TD.AperFunction*%
%TD*%
M02*
