%TF.GenerationSoftware,KiCad,Pcbnew,(6.0.1)*%
%TF.CreationDate,2022-09-16T10:26:10-07:00*%
%TF.ProjectId,8-pots-1-mux-rounded,382d706f-7473-42d3-912d-6d75782d726f,rev?*%
%TF.SameCoordinates,Original*%
%TF.FileFunction,Soldermask,Top*%
%TF.FilePolarity,Negative*%
%FSLAX46Y46*%
G04 Gerber Fmt 4.6, Leading zero omitted, Abs format (unit mm)*
G04 Created by KiCad (PCBNEW (6.0.1)) date 2022-09-16 10:26:10*
%MOMM*%
%LPD*%
G01*
G04 APERTURE LIST*
G04 Aperture macros list*
%AMRoundRect*
0 Rectangle with rounded corners*
0 $1 Rounding radius*
0 $2 $3 $4 $5 $6 $7 $8 $9 X,Y pos of 4 corners*
0 Add a 4 corners polygon primitive as box body*
4,1,4,$2,$3,$4,$5,$6,$7,$8,$9,$2,$3,0*
0 Add four circle primitives for the rounded corners*
1,1,$1+$1,$2,$3*
1,1,$1+$1,$4,$5*
1,1,$1+$1,$6,$7*
1,1,$1+$1,$8,$9*
0 Add four rect primitives between the rounded corners*
20,1,$1+$1,$2,$3,$4,$5,0*
20,1,$1+$1,$4,$5,$6,$7,0*
20,1,$1+$1,$6,$7,$8,$9,0*
20,1,$1+$1,$8,$9,$2,$3,0*%
G04 Aperture macros list end*
%ADD10RoundRect,0.250000X-0.250000X-0.475000X0.250000X-0.475000X0.250000X0.475000X-0.250000X0.475000X0*%
%ADD11O,2.720000X3.240000*%
%ADD12R,1.800000X1.800000*%
%ADD13C,1.800000*%
%ADD14RoundRect,0.150000X-0.825000X-0.150000X0.825000X-0.150000X0.825000X0.150000X-0.825000X0.150000X0*%
%ADD15R,1.700000X1.700000*%
%ADD16O,1.700000X1.700000*%
G04 APERTURE END LIST*
D10*
%TO.C,C1*%
X202180000Y-26780000D03*
X204080000Y-26780000D03*
%TD*%
D11*
%TO.C,RV5*%
X143990000Y-31480000D03*
X153590000Y-31480000D03*
D12*
X146290000Y-38980000D03*
D13*
X148790000Y-38980000D03*
X151290000Y-38980000D03*
%TD*%
D11*
%TO.C,RV6*%
X166480000Y-31480000D03*
X156880000Y-31480000D03*
D12*
X159180000Y-38980000D03*
D13*
X161680000Y-38980000D03*
X164180000Y-38980000D03*
%TD*%
D11*
%TO.C,RV1*%
X92340000Y-31480000D03*
X101940000Y-31480000D03*
D12*
X94640000Y-38980000D03*
D13*
X97140000Y-38980000D03*
X99640000Y-38980000D03*
%TD*%
D11*
%TO.C,RV7*%
X179380000Y-31480000D03*
X169780000Y-31480000D03*
D12*
X172080000Y-38980000D03*
D13*
X174580000Y-38980000D03*
X177080000Y-38980000D03*
%TD*%
D11*
%TO.C,RV3*%
X127750000Y-31480000D03*
X118150000Y-31480000D03*
D12*
X120450000Y-38980000D03*
D13*
X122950000Y-38980000D03*
X125450000Y-38980000D03*
%TD*%
D14*
%TO.C,U1*%
X197245000Y-28605000D03*
X197245000Y-29875000D03*
X197245000Y-31145000D03*
X197245000Y-32415000D03*
X197245000Y-33685000D03*
X197245000Y-34955000D03*
X197245000Y-36225000D03*
X197245000Y-37495000D03*
X202195000Y-37495000D03*
X202195000Y-36225000D03*
X202195000Y-34955000D03*
X202195000Y-33685000D03*
X202195000Y-32415000D03*
X202195000Y-31145000D03*
X202195000Y-29875000D03*
X202195000Y-28605000D03*
%TD*%
D11*
%TO.C,RV8*%
X192300000Y-31480000D03*
X182700000Y-31480000D03*
D12*
X185000000Y-38980000D03*
D13*
X187500000Y-38980000D03*
X190000000Y-38980000D03*
%TD*%
D11*
%TO.C,RV4*%
X131060000Y-31480000D03*
X140660000Y-31480000D03*
D12*
X133360000Y-38980000D03*
D13*
X135860000Y-38980000D03*
X138360000Y-38980000D03*
%TD*%
D15*
%TO.C,J1*%
X207120000Y-40150000D03*
D16*
X207120000Y-37610000D03*
X207120000Y-35070000D03*
X207120000Y-32530000D03*
X207120000Y-29990000D03*
X207120000Y-27450000D03*
%TD*%
D11*
%TO.C,RV2*%
X114840000Y-31480000D03*
X105240000Y-31480000D03*
D12*
X107540000Y-38980000D03*
D13*
X110040000Y-38980000D03*
X112540000Y-38980000D03*
%TD*%
M02*
